<svg xmlns="http://www.w3.org/2000/svg" width="225" height="159" fill-rule="nonzero" xmlns:v="https://vecta.io/nano"><path d="M3.12 142.56l4.105 5.66c.455.5.977 1 1.568 1.5 1.237 1.037 2.764 2.07 4.583 3.096l1.05.573 1.76.873a37.15 37.15 0 0 0 5.278 2.019l.94.273c2.49.673 4.578.896 6.26.668 1.846-.236 4.642-1.514 8.388-3.833 2.846-1.764 6.238-4.128 10.175-7.092 2.855-2.137 5.833-4.47 8.934-6.997l3.792-3.164c4.383-2 9.447-3 15.194-3 1.137 0 2.246.04 3.328.123 2.61.2 5.046.627 7.31 1.282l.314.068a3.39 3.39 0 0 0 .15.055l.41.123a125.8 125.8 0 0 0 10.734 2.687l2.728.532c4.646.837 9.456 1.464 14.43 1.882 3.9.318 7.93.505 12.057.56l2.155.014c6.183 0 12.157-.296 17.922-.887 2.982-.318 5.9-.71 8.784-1.173 6.865-1.128 13.42-2.714 19.667-4.76 7.23-2.382 14.035-5.378 20.418-8.988 6.192-3.5 11.384-7.242 15.576-11.225a36.26 36.26 0 0 0 1.187-1.159c3.273-3.3 5.878-6.76 7.815-10.38a36.19 36.19 0 0 0 1.814-3.928c.61-1.555 1.105-3.14 1.487-4.76.455-1.982.74-4 .86-6.056l.027-.723a6.84 6.84 0 0 0 .014-.423v-.082a40.95 40.95 0 0 0 0-1.487L219.1 61.108l-1.35 12.56L3.12 142.56z" fill-opacity=".247" fill="#010101"/><path d="M219.83 67.888l-.014.287a36.29 36.29 0 0 1-.682 5.824c-.336 1.664-.796 3.296-1.377 4.896l-.314.832c-.518 1.318-1.118 2.62-1.8 3.9 0 .01-.005.018-.014.027V96.04c.69-1.29 1.296-2.6 1.814-3.928.61-1.555 1.105-3.14 1.487-4.76.455-1.982.74-4 .86-6.056l.027-.723.014-.423v-12.26zM8.876 134.57l-.286-.164c-1.646-.946-3.037-1.89-4.174-2.837l-.122 12.302c1.237 1.037 2.764 2.07 4.583 3.096l1.05.573 1.76.873-.095-12.44-2.715-1.404zM33.93 79.522c-.355-1.09-.646-2.19-.873-3.3-.01-.036-.014-.073-.014-.11-.346-1.682-.56-3.396-.64-5.142l-.027 11.66-.014.614v.19c.01 3.992.696 7.82 2.06 11.484.718 1.946 1.628 3.846 2.728 5.7.336.573.696 1.146 1.077 1.72.364.546.746 1.09 1.146 1.637l-.627-14.84c-2.154-3.083-3.76-6.288-4.814-9.616z" fill="#68553a"/><path d="M219.83 67.888v-.232l.014-.314-97.75 54.856 2.17.014c6.128 0 12.06-.29 17.8-.873l75.697-42.444c.582-1.6 1.04-3.232 1.377-4.896.382-1.9.61-3.842.682-5.824.006-.096.01-.192.013-.287h0zm-168.17 53.164l3.792-3.164c4.383-2.01 9.447-3 15.194-3 1.118 0 2.2.04 3.273.123l131.562-76.692c-1.6-1.4-3.328-2.77-5.183-4.105L17.537 138.2c.027 0 .055.005.082.014 2.546.718 4.683.977 6.4.777l.136-.027c3.246-.41 9.434-4.05 18.563-10.925 2.856-2.137 5.833-4.47 8.934-6.997h0zM38.8 48.86a38.86 38.86 0 0 0-2.264 3.723l63.9-36.402c-.027 0-.05.005-.068.014-14.494 2.464-27.574 6.992-39.24 13.584-10.1 5.7-17.544 12.07-22.327 19.08h0zM173.963 20.93c-3.755-1.273-7.638-2.37-11.648-3.287L38.746 89.137l.055.082c.582.837 1.205 1.66 1.868 2.47l2.128 2.428c.627.973 1.06 1.99 1.296 3.055l129.87-76.242zm33.852 73.105v-.245l-37.52 21.713c7.356-2.4 14.275-5.433 20.758-9.097 6.192-3.5 11.384-7.238 15.576-11.21l1.187-1.16z" fill="#836948"/><path d="M17.537 138.2l-.573-.177c-1.8-.536-3.6-1.223-5.374-2.06l.095 12.44a37.15 37.15 0 0 0 5.278 2.019l.94.273-.367-12.494z" fill="#695233"/><path d="M4.417 131.568c-.646-.527-1.21-1.06-1.69-1.596-.964-1.055-1.523-2.02-1.678-2.892-.01-.017-.013-.035-.014-.055l.04 12.698c.218.8.768 1.682 1.65 2.646.455.5.977 1 1.568 1.5l.124-12.3z" fill="#5f4b2e"/><path d="M142.184 133.723l-.123-12.384c-5.737.582-11.67.873-17.8.873a173.26 173.26 0 0 1-2.169-.014l.014 12.398 2.155.014c6.183 0 12.157-.296 17.922-.887z" fill="#604d31"/><path d="M150.954 120.152l.014 12.398c6.865-1.127 13.42-2.714 19.667-4.76l-.34-12.29c-6.147 1.992-12.593 3.542-19.34 4.65z" fill="#625036"/><path d="M150.954 120.152l-8.893 1.187.123 12.384 8.783-1.173-.013-12.398z" fill="#6f552e"/><path d="M92.893 131.623l-.095-12.425c-3.655-.746-7.2-1.632-10.638-2.66l-.41-.123a1.94 1.94 0 0 1-.15-.055l-.314-.068c-2.273-.664-4.728-1.09-7.365-1.282l.055 12.398c2.6.2 5.046.627 7.3 1.282l.314.068c.045.018.095.036.15.054l.41.123c3.472 1.037 7.05 1.933 10.733 2.688z" fill="#5f4e36"/><path d="M109.94 121.625l.11 12.41c3.9.318 7.93.505 12.057.56l-.014-12.398c-4.155-.053-8.205-.244-12.152-.572z" fill="#6f5a3d"/><path d="M110.05 134.037l-.11-12.41c-4.946-.41-9.725-1.037-14.335-1.882l.014 12.41c4.646.836 9.456 1.463 14.43 1.882z" fill="#5c4c33"/><path d="M95.607 119.743l-2.8-.546.095 12.425 2.728.532-.013-12.41z" fill="#685233"/><path d="M26.498 128.172a2.31 2.31 0 0 0-.068-.668 2.51 2.51 0 0 0-.259-.668c-.318-.573-.868-1.087-1.65-1.54-1.346-.79-2.982-1.187-4.9-1.187-.982 0-1.896.1-2.74.3-.827.19-1.59.482-2.29.873-.727.41-1.264.868-1.61 1.378-.336.464-.51.968-.518 1.514-.055 1.11.59 2.064 1.937 2.864l.682.355c.927.427 1.982.69 3.164.79l1.105.04c1.937 0 3.6-.396 4.992-1.187 1.398-.792 2.12-1.747 2.166-2.865z" fill="#5f4a2d"/><path d="M55.454 117.888l-3.792 3.164c-3.1 2.528-6.078 4.86-8.934 6.997-9.13 6.874-15.317 10.516-18.563 10.925l-.136.027c-1.728.2-3.864-.06-6.4-.777-.027-.01-.054-.014-.082-.014l.368 12.493c2.49.673 4.578.896 6.26.668 1.846-.236 4.642-1.514 8.388-3.833 2.846-1.764 6.238-4.128 10.175-7.092 2.855-2.137 5.833-4.47 8.934-6.997l3.792-3.164c4.383-2 9.447-3 15.194-3 1.137 0 2.246.04 3.328.123l-.055-12.398c-1.064-.082-2.155-.123-3.273-.123-5.747-.008-10.812.993-15.194 3.002z" fill="#5c482d"/><path d="M40.67 91.688L38.8 89.22l-.055-.082.627 14.84 1.296 1.678.464.423c1.51-1.518 2.478-3.164 2.905-4.937.146-.59.227-1.196.245-1.814.018-.737-.045-1.455-.19-2.155-.236-1.064-.668-2.082-1.296-3.055l-2.127-2.428z" fill="#57462d"/><path d="M110.27 14.86l-9.834 1.323-63.9 36.403c-.964 1.81-1.76 3.66-2.387 5.55l76.12-43.277zm52.046 2.783c-4.892-1.127-9.97-1.99-15.235-2.59L33.93 79.522c1.055 3.328 2.66 6.533 4.815 9.616l123.57-71.496zm57.53 48.84c-.036-2.228-.277-4.405-.723-6.533l-109.18 61.676c3.946.327 7.997.518 12.152.573l97.75-54.856v-.86zm-13.217-27.128l-1.146-1.037L73.92 115c2.637.19 5.092.618 7.365 1.282l.314.068a3.39 3.39 0 0 0 .15.055l.41.123c3.437 1.028 6.983 1.914 10.638 2.66L214.81 49.203c-.682-1.127-1.428-2.232-2.237-3.314-1.7-2.247-3.672-4.425-5.946-6.534z" fill="#a17f55"/><path d="M187.316 26.466l-9.07-3.996-134.208 78.67c-.427 1.773-1.396 3.42-2.905 4.937-.027.018-.05.04-.068.068l-.955.86a18.51 18.51 0 0 1-1.896 1.391l-5.442 1.978c-4.383 1.61-8.443 3.182-12.18 4.72-11.94 4.874-18.4 8.37-19.38 10.488a2.47 2.47 0 0 0-.177.559v.055c-.045.264-.045.536 0 .818v.014c0 .02.005.037.014.055.154.873.714 1.837 1.678 2.892.482.536 1.046 1.068 1.69 1.596l8.552-4.9c.346-.51.882-.968 1.61-1.378.7-.39 1.464-.682 2.29-.873l170.447-97.94zm30.128 53.26v-.655l-75.383 42.267a159.68 159.68 0 0 0 8.893-1.187l64.7-36.525a37.34 37.34 0 0 0 1.8-3.9h0zm-1.923-29.3a32.81 32.81 0 0 0-.709-1.214L92.797 119.198l2.8.546L215.52 50.416z" fill="#7e5e34"/><path d="M195.417 30.967l-1.773-1.078-6.328-3.423L16.87 124.408c.846-.2 1.76-.3 2.74-.3 1.928 0 3.564.396 4.9 1.187.782.455 1.332.968 1.65 1.54.118.21.205.432.26.668l168.988-96.537zM127.945 14l-2.578.014-92.95 53.7-.014 3.246c.082 1.746.295 3.46.64 5.142l108.35-61.607A174.34 174.34 0 0 0 127.945 14z" fill="#987c57"/><path d="M200.3 34.213l-.873-.614-4-2.632L26.43 127.504c.055.21.077.432.068.668-.045 1.118-.768 2.073-2.17 2.864-1.39.79-3.055 1.187-4.992 1.187-.382 0-.75-.014-1.105-.04-1.182-.1-2.237-.364-3.164-.79l-.682-.355c-1.346-.8-1.99-1.755-1.937-2.864.01-.546.182-1.05.518-1.514l-8.552 4.9c1.137.946 2.528 1.89 4.174 2.837l.286.164 2.714 1.405c1.773.837 3.564 1.523 5.374 2.06l.573.177L200.3 34.213zM178.246 22.47l-4.283-1.54L44.092 97.17c.146.7.21 1.418.19 2.155a8.65 8.65 0 0 1-.245 1.814l134.208-78.67zm-52.88-8.456l-3.478.082-8.838.505-2.782.26-76.12 43.276c-.99 2.982-1.568 6.07-1.732 9.26v.327l92.95-53.7zm90.263 69.64c.01-.01.014-.018.014-.027l-64.7 36.525c6.747-1.11 13.193-2.66 19.34-4.65l37.52-21.713v.245l.56-.573c3-3.127 5.428-6.396 7.256-9.806h0zm1.814-4.582v.655a22.73 22.73 0 0 0 .314-.832l-.314.177z" fill="#907046"/><path d="M142.566 14.6l-1.173-.096L33.045 76.112c0 .036.005.073.014.11.227 1.11.518 2.21.873 3.3L147.08 15.05l-4.514-.45z" fill="#795a30"/><path d="M219.122 59.95c-.7-3.3-1.9-6.48-3.6-9.534L95.607 119.743c4.6.846 9.388 1.473 14.335 1.882l109.18-61.675z" fill="#8c6d46"/><path d="M206.628 107.577l1.187-1.16V94.034l-1.187 1.16c-4.192 3.973-9.384 7.71-15.576 11.21-6.483 3.664-13.403 6.697-20.758 9.097l.34 12.29c7.23-2.382 14.035-5.378 20.418-8.988 6.192-3.5 11.384-7.242 15.575-11.225z" fill="#604a29"/><path d="M208.374 93.46l-.56.573v12.384c3.273-3.3 5.878-6.76 7.815-10.38V83.654c-1.828 3.4-4.246 6.68-7.256 9.807z" fill="#705631"/><path d="M213.5 59.3a34.98 34.98 0 0 0 .341-3.519 1.14 1.14 0 0 0 .014-.136v-.205l.027-1.173c-.018-13.175-8.088-24.35-24.21-33.525-16.73-9.53-37.234-14.103-61.512-13.72-24.268.373-45.2 5.587-62.794 15.644-17.604 10.057-26.714 22.013-27.333 35.87-.027.564-.036 1.128-.027 1.69v.586c.036 1.364.164 2.705.382 4.023 1.755 11.12 9.697 20.704 23.827 28.75 16.73 9.52 37.23 14.09 61.498 13.707 24.277-.382 45.218-5.6 62.82-15.657 16.094-9.19 25.083-19.97 26.965-32.337h0zm-7.706-5.455c.018.7.01 1.41-.027 2.128-.018.4-.045.8-.082 1.2-1.027 11.384-9.26 21.25-24.7 29.597-15.985 8.638-35.01 13.116-57.08 13.435-22.04.327-40.658-3.596-55.852-11.77-13.603-7.32-20.9-16.126-21.863-26.42a25.19 25.19 0 0 1-.123-2.755c0-.31.01-.618.027-.927.31-6.583 2.987-12.66 8.033-18.235 4.055-4.5 9.652-8.693 16.8-12.548 15.976-8.638 34.99-13.12 57.038-13.448 22.06-.318 40.685 3.6 55.88 11.784 5.4 2.9 9.82 6.056 13.23 9.438 5.592 5.536 8.5 11.7 8.73 18.52z" fill="#ffd8a1"/><path d="M183.835 28.394c5.4 2.9 9.82 6.056 13.23 9.438 4.846 4.8 7.756 10.147 8.73 16.012-.227-6.8-3.137-12.984-8.73-18.522-3.4-3.382-7.82-6.53-13.23-9.438-15.194-8.174-33.82-12.102-55.88-11.784-22.05.327-41.062 4.8-57.038 13.448-7.138 3.855-12.734 8.038-16.8 12.548-5.047 5.574-7.724 11.652-8.033 18.235-.018.31-.027.618-.027.927.837-6.083 3.523-11.634 8.06-16.653 4.055-4.5 9.652-8.693 16.8-12.548 15.976-8.638 34.99-13.12 57.038-13.448 22.058-.317 40.684 3.61 55.878 11.785z" fill="#e8c08a"/><path d="M205.766 55.972l.027-2.128c-.973-5.865-3.883-11.202-8.73-16.012-3.4-3.383-7.82-6.53-13.23-9.438-15.194-8.174-33.82-12.102-55.88-11.784-22.05.327-41.062 4.8-57.038 13.448-7.138 3.855-12.734 8.038-16.8 12.548-4.537 5.02-7.224 10.57-8.06 16.653a25.19 25.19 0 0 0 .123 2.755c.973 10.293 8.26 19.1 21.863 26.42 15.194 8.174 33.81 12.098 55.852 11.77 22.068-.318 41.094-4.796 57.08-13.435 15.44-8.347 23.673-18.213 24.7-29.597a24.01 24.01 0 0 0 .083-1.2z" fill="#ffdc71"/><path d="M213.84 55.78a34.98 34.98 0 0 1-.341 3.519c-1.882 12.366-10.87 23.145-26.964 32.338-17.603 10.056-38.544 15.276-62.82 15.657-24.268.382-44.768-4.187-61.498-13.707-14.13-8.047-22.073-17.63-23.827-28.75-.218-1.318-.345-2.66-.382-4.023v8.497a16.4 16.4 0 0 0 0 .941c.182 13.012 8.25 24.064 24.21 33.156 16.73 9.52 37.23 14.09 61.498 13.707 24.277-.382 45.218-5.6 62.82-15.658C204.13 91.4 213.232 79.448 213.84 65.6l.027-.64c.01-.655.005-1.305-.013-1.95v-7.365c-.002.044-.006.1-.014.137z" fill="#dfba86"/></svg>