<svg xmlns="http://www.w3.org/2000/svg" viewBox="0 0 30.169 20.169" xmlns:v="https://vecta.io/nano"><g transform="matrix(-1 0 0 1 -76.6 1222.05)"><path d="M-80.023-1204.756h-.014v.873h.014c.055.027.123.04.205.04.064-.01.123-.027.177-.055.027-.036.04-.073.04-.11v-.068l-.014-.75c0 .018-.01.036-.027.055a.62.62 0 0 1-.177.055.47.47 0 0 1-.205-.042z" fill="#74b568"/><path d="M-76.614-1207.17l.014-.586-.04.327c-.19 1.146-1.196 1.978-3.014 2.496a.09.09 0 0 1 .041.041v.068l.014.75c2.082-.61 3.077-1.64 2.986-3.096m-20.43 2.25c2.937 1.646 6.17 2.632 9.697 2.96 3.464.318 5.9-.323 7.31-1.923v-.873c-1.41 1.6-3.846 2.24-7.31 1.923-3.528-.327-6.76-1.314-9.697-2.96s-5.197-3.478-6.78-5.496c-1.5-1.9-2.455-5.197-2.864-9.86a15.19 15.19 0 0 1-.082-.9v2.17c.436 4.365 1.418 7.52 2.946 9.466 1.583 2.017 3.842 3.85 6.78 5.495z" fill="#4d7637"/><path d="M-94.904-1217.4c-.018-.027-.023-.05-.014-.068.01-.027.036-.046.082-.055.018-.01.046-.005.082.014a.54.54 0 0 1 .109.041c1.237 1.364.682 2.59-1.664 3.682 2.282 1.546 4.75 3.023 7.406 4.433.99-.8 1.396-2.087 1.214-3.86 0-.027.014-.05.04-.068a.17.17 0 0 1 .095 0c.036-.01.068-.005.096.014.027.01.045.032.055.068.182 1.818-.25 3.14-1.296 3.97l5.85 2.878c1.364-.982 1.718-2.67 1.064-5.06-.018-.027-.014-.046.014-.055.027-.018.068-.027.123-.027.027-.01.055-.005.082.014s.045.036.054.055c.682 2.446.314 4.17-1.105 5.17l2.878 1.268c.036.018.064.036.082.055 1.82-.518 2.823-1.35 3.014-2.496l.04-.327c-.01-.018-.01-.036 0-.055v-.055a3.97 3.97 0 0 0-.177-1.023c-.618-2-2.4-3.833-5.346-5.496-2.946-1.673-6.36-2.978-10.243-3.914-3.892-.946-8.693-2.196-14.403-3.75a15.19 15.19 0 0 0 .082.9c.41 4.665 1.364 7.952 2.864 9.86 1.582 2.018 3.842 3.85 6.78 5.496s6.17 2.632 9.697 2.96c3.464.318 5.9-.323 7.31-1.923h-.027a98.92 98.92 0 0 1-2.905-1.268c-1.846 1.037-5.5 1.05-10.993.04-.046-.01-.073-.023-.082-.04-.018-.018-.027-.04-.027-.068 0-.018.023-.032.068-.04.018-.01.05-.01.096 0 5.328.973 8.897.973 10.707 0a86.92 86.92 0 0 1-5.837-2.878c-1.39.818-4.192.927-8.402.327-.045-.01-.077-.027-.095-.055-.018-.01-.027-.027-.027-.055 0-.018.014-.032.04-.04.036-.018.077-.023.123-.014 4.083.6 6.797.514 8.143-.26-1.764-.955-3.446-1.928-5.047-2.92-1.337.964-3.783.987-7.338.068-.036-.01-.064-.023-.082-.04-.018-.027-.018-.045 0-.054 0-.027.023-.04.068-.04.036-.018.073-.023.11-.014 3.4.882 5.756.864 7.038-.054-.8-.5-1.573-1-2.32-1.5a91.15 91.15 0 0 1-2.673-1.923c-1.428.482-2.923.305-4.487-.532-.027-.018-.04-.036-.04-.055-.01-.027 0-.05.027-.068a.22.22 0 0 1 .109 0c.036 0 .068.01.096.027 1.437.773 2.805.94 4.105.505a68.45 68.45 0 0 1-3.328-2.714c-.064-.027-.082-.068-.054-.123.018-.036.06-.064.123-.082.055-.027.123-.032.205-.014.073.01.132.032.177.068a65.42 65.42 0 0 0 6.069 4.651c2.224-1.036 2.756-2.195 1.592-3.477z" fill="#86b65a"/><path d="M-94.917-1217.467c-.01.018-.005.04.014.068 1.164 1.282.632 2.44-1.596 3.478-2.19-1.49-4.215-3.042-6.07-4.65-.046-.036-.105-.06-.177-.068-.082-.018-.15-.014-.205.014-.064.018-.105.045-.123.082-.027.055-.01.095.054.123l3.328 2.714c-1.3.436-2.67.268-4.105-.505-.027-.018-.06-.027-.096-.027a.22.22 0 0 0-.109 0c-.027.018-.036.04-.027.068 0 .018.014.036.04.055 1.564.837 3.06 1.014 4.487.532l2.673 1.923 2.32 1.5c-1.282.918-3.628.937-7.038.054-.036-.01-.073-.004-.11.014-.045 0-.068.014-.068.04-.018.01-.018.027 0 .054.018.018.046.032.082.04 3.555.918 6 .896 7.338-.068l5.047 2.92c-1.346.773-4.06.86-8.143.26-.046-.01-.086-.005-.123.014-.027.01-.04.023-.04.04 0 .027.01.046.027.055.018.027.05.045.095.055 4.2.6 7 .49 8.402-.327l5.837 2.878c-1.81.973-5.378.973-10.707 0-.046-.01-.077-.01-.096 0-.045.01-.068.023-.068.04 0 .027.01.05.027.068.01.018.036.032.082.04 5.483 1.01 9.147.996 10.993-.04.937.427 1.905.85 2.905 1.268h.04c.055.027.123.04.205.04.064-.01.123-.027.177-.055.018-.018.027-.036.027-.055v-.068a.09.09 0 0 0-.041-.041.33.33 0 0 0-.082-.055l-2.878-1.268c1.418-1 1.787-2.723 1.105-5.17-.01-.018-.027-.036-.054-.055s-.055-.023-.082-.014c-.054 0-.095.01-.123.027-.027.01-.032.027-.014.055.655 2.39.3 4.078-1.064 5.06-2.055-.927-4.005-1.887-5.85-2.878 1.046-.828 1.478-2.15 1.296-3.97-.01-.036-.027-.06-.055-.068-.027-.018-.06-.023-.096-.014a.17.17 0 0 0-.095 0c-.027.018-.04.04-.04.068.182 1.773-.223 3.06-1.214 3.86-2.655-1.41-5.124-2.887-7.406-4.433 2.346-1.09 2.9-2.32 1.664-3.682a.54.54 0 0 0-.109-.041c-.036-.018-.064-.023-.082-.014-.043.01-.07.027-.08.055z" fill="#b5da99"/></g></svg>