<svg xmlns="http://www.w3.org/2000/svg" viewBox="0 0 39.056 26.958" xmlns:v="https://vecta.io/nano"><path d="M38.994 17.835v-3.86a6.25 6.25 0 0 1-.546 1.8c-.736 1.5-2.128 2.823-4.174 3.97-3.546 1.982-7.038 2.05-10.475.205-3.17-1.708-7.308-2.922-12.41-3.642l.64.068c-.54-.125-.922-.18-1.146-.164l-1.54-.19c-4.374-.946-7.22-2.423-8.538-4.433a4.76 4.76 0 0 1-.668-1.623C.054 9.582.01 9.214 0 8.86l.014 5.333c-.01.136-.01.277 0 .423.01.336.05.677.123 1.023.582 2.828 3.72 4.624 9.41 5.387l.396.014c5.8 1.218 10.42 2.746 13.857 4.583 3.437 1.846 6.93 1.778 10.475-.205 3.292-1.837 4.883-4.146 4.774-6.93-.01-.217-.028-.435-.056-.653M7.543 11.71c-.018-.012-.036-.026-.055-.04-.514-.084-.496-.07.055.04M3.506 9.433l1.228 1.296c.457.27 1.334.556 2.632.86C2.994 8.5 3.68 5.75 9.426 3.31c-5.248 1.673-7.22 3.715-5.92 6.124z" fill="#e9e9e9"/><path d="M39.05 13.47a7.94 7.94 0 0 0-.055-1.309c-.382-3.082-2.623-5.806-6.724-8.17S23.405.313 17.976.05c-5.4-.273-9.888.582-13.434 2.564C1.487 4.322-.027 6.377 0 8.778v.082a6.07 6.07 0 0 0 .136 1.105 4.76 4.76 0 0 0 .668 1.623c1.318 2.01 4.164 3.487 8.538 4.433a188.04 188.04 0 0 1 1.541.191c.224-.016.606.04 1.146.164l-.64-.068c5.104.72 9.24 1.934 12.41 3.642 3.437 1.846 6.93 1.778 10.475-.205 2.046-1.146 3.437-2.47 4.174-3.97a6.25 6.25 0 0 0 .546-1.8c.028-.165.046-.333.055-.506M4.733 10.73L3.505 9.433c-1.3-2.4.673-4.45 5.92-6.124-5.745 2.442-6.432 5.2-2.06 8.28-1.297-.303-2.174-.6-2.63-.86m2.755.94a.65.65 0 0 0 .055.041c-.55-.112-.57-.125-.055-.04z" fill="#fff"/></svg>