<svg xmlns="http://www.w3.org/2000/svg" viewBox="0 0 55.572 33.984" xmlns:v="https://vecta.io/nano"><path d="M55.558 17.148a9.57 9.57 0 0 1-.109 1.009c-.555 2.946-2.923 5.633-7.106 8.06-3.437 2-6.7 2.946-9.82 2.837-1.1-.045-2.178-.223-3.232-.532-.055.045-.114.086-.177.123-2.446 1.72-6.07 2.623-10.87 2.714-4.92.1-10.225-1.346-15.917-4.337-4.8-2.52-7.533-5.137-8.17-7.856-.09-.382-.14-.768-.15-1.16v2.523c-.01.046-.01.086 0 .123.073 3.128 2.846 6.124 8.32 8.988 5.692 2.99 10.997 4.437 15.917 4.337 4.92-.09 8.602-1.037 11.048-2.837 4.046 1.173 8.397.405 13.052-2.305 4.655-2.7 7.06-5.724 7.215-9.07.01-.182.01-.364 0-.546v-2.073M13.987 5.6c-2.82 1.682-3.7 3.328-2.673 4.937.473-.764 1.364-1.537 2.673-2.32 3.3-1.964 8.143-2.914 14.498-2.85 6.374.055 11.31 1.123 14.812 3.205 1.264.746 2.132 1.487 2.605 2.223 1.027-1.6.16-3.214-2.605-4.842-3.5-2.082-8.438-3.15-14.812-3.205-6.356-.062-11.188.888-14.498 2.852z" fill="#d75d27"/><path d="M6.976 9.77a5.27 5.27 0 0 0 .327.559l-.586.218c-4.346 1.6-6.583 3.97-6.7 7.106v.15c-.01.046-.01.09 0 .136v.068c.01.39.06.777.15 1.16.637 2.72 3.36 5.337 8.17 7.856 5.692 2.99 10.997 4.437 15.917 4.337 4.8-.09 8.424-.996 10.87-2.714.064-.036.123-.077.177-.123 1.055.31 2.132.486 3.232.532 3.1.11 6.383-.836 9.82-2.837 4.183-2.428 6.55-5.115 7.106-8.06a9.34 9.34 0 0 0 .109-1.009 6 6 0 0 0 .014-.395c-.036-2.8-1.64-4.65-4.815-5.524a11.67 11.67 0 0 0-1.105-.259c.327-.337.582-.673.764-1.01 1.028-1.92-.264-3.946-3.873-6.083C42.297 1.358 36.31.067 28.58.003 20.86-.08 15 1.067 11 3.44 7.326 5.623 5.985 7.733 6.976 9.77m4.338.777c-1.037-1.61-.146-3.255 2.673-4.937 3.3-1.964 8.143-2.914 14.498-2.85 6.374.055 11.31 1.123 14.812 3.205 2.764 1.628 3.633 3.242 2.605 4.842-.282.418-.696.84-1.24 1.268h.014a16.39 16.39 0 0 1 1.637.259c3.046.655 4.524 2.17 4.433 4.542a6.48 6.48 0 0 1-.164 1.173c-.573 2.32-2.496 4.433-5.77 6.342-3.846 2.22-7.442 2.637-10.79 1.255-2.01 1.9-5.046 2.905-9.11 2.987-4.064.073-8.438-1.123-13.12-3.587-3.828-2-6.056-4.074-6.683-6.22-.155-.5-.218-1.005-.19-1.514.1-2.473 2.096-4.35 5.987-5.633a16.18 16.18 0 0 1 1.05-.327c.01-.01.018-.014.027-.014a3.96 3.96 0 0 1-.667-.791z" fill="#f58857"/><path d="M46.31 12.334a16.39 16.39 0 0 0-1.637-.259v2.62c3.364.355 5.333 1.473 5.906 3.355a6.48 6.48 0 0 0 .164-1.173c.09-2.374-1.387-3.888-4.433-4.542m-34.356-.982l-1.05.327c-3.892 1.282-5.887 3.16-5.987 5.633-.027.51.036 1.014.19 1.514.636-2.137 2.928-3.76 6.874-4.87l-.028-2.605z" fill="#d95d2e"/></svg>