<svg xmlns="http://www.w3.org/2000/svg" viewBox="0 0 39.526 24.471" xmlns:v="https://vecta.io/nano"><path d="M0 13.272v.137c.027 3.092 1.982 5.72 5.865 7.883 3.883 2.155 8.552 3.214 14.007 3.178 5.447-.036 10.088-1.164 13.926-3.382 3.792-2.182 5.7-4.796 5.728-7.842v-1.95a6.66 6.66 0 0 1-.082.873c-.39 2.62-2.273 4.9-5.646 6.847-3.837 2.2-8.48 3.332-13.926 3.37-5.456.046-10.125-1.014-14.007-3.178C2.392 17.28.46 14.98.068 12.306A6.78 6.78 0 0 1 0 11.57v1.702z" fill="#815443"/><path d="M0 11.254v.314a6.78 6.78 0 0 0 .068.736c.39 2.673 2.323 4.974 5.797 6.9 3.883 2.164 8.552 3.223 14.007 3.178 5.447-.036 10.088-1.16 13.926-3.37 3.373-1.946 5.255-4.228 5.646-6.847a6.66 6.66 0 0 0 .082-.873v-.273c-.055-3.073-2.014-5.687-5.878-7.842C29.765 1.015 25.096-.044 19.64.001 14.185.037 9.54 1.165 5.702 3.383 1.9 5.575 0 8.2 0 11.254m1.337.068a6.42 6.42 0 0 1 .709-3.014c.818-1.628 2.36-3.09 4.624-4.392C10.234 1.852 14.562.802 19.654.765c5.074-.036 9.42.95 13.04 2.96 2.337 1.3 3.928 2.778 4.774 4.433.464.918.7 1.89.71 2.92.018 2.873-1.76 5.342-5.333 7.406-3.582 2.064-7.91 3.114-12.984 3.15-5.074.027-9.42-.964-13.04-2.973-3.62-2.02-5.447-4.466-5.483-7.34z" fill="#96614f"/><path d="M2.046 8.308c-.482.946-.718 1.95-.71 3.014.036 2.873 1.864 5.32 5.483 7.338 3.62 2 7.965 3 13.04 2.973 5.074-.036 9.402-1.087 12.984-3.15 3.574-2.064 5.35-4.533 5.333-7.406a6.52 6.52 0 0 0-.709-2.919c-.846-1.655-2.437-3.132-4.774-4.433-3.62-2-7.965-2.996-13.04-2.96C14.562.8 10.234 1.85 6.67 3.915c-2.265 1.3-3.806 2.765-4.624 4.393M16.15 2.034c0 .09-.06.173-.177.246h-.014c-.11.064-.25.1-.423.11-.082 0-.154-.01-.218-.027a.59.59 0 0 1-.205-.082c-.118-.055-.182-.136-.19-.246 0-.1.06-.182.177-.245.118-.073.264-.11.436-.11.182.01.327.046.437.11.128.063.187.145.178.245m.968 1.036c.31-.173.668-.26 1.077-.26.436-.01.8.073 1.09.245.3.164.45.364.45.6.01.246-.136.455-.436.627s-.66.26-1.078.26c-.427 0-.79-.082-1.09-.245-.29-.173-.44-.377-.45-.614 0-.235.146-.44.437-.613m-6.915-.232c.273-.155.61-.232 1.01-.232.427-.01.782.064 1.064.218.036.018.068.04.096.068.218.136.323.314.314.532.01.227-.127.423-.41.587s-.627.245-1.036.245-.755-.082-1.037-.245c-.21-.11-.345-.24-.41-.396a1.04 1.04 0 0 1-.041-.177c.017-.236.167-.436.45-.6m2.155 3.096a.77.77 0 0 1-.396.095.69.69 0 0 1-.396-.082c-.11-.064-.164-.136-.164-.218 0-.09.055-.173.164-.245.11-.055.236-.082.382-.082.155 0 .286.027.395.082.11.064.164.14.164.232.01.082-.04.155-.15.218m-1.24 2.4c.464 0 .864.09 1.2.273.336.19.505.418.505.682.01.264-.155.49-.49.682-.327.19-.727.286-1.2.286-.473.01-.877-.082-1.214-.273-.327-.182-.49-.405-.49-.668 0-.273.164-.505.49-.696.327-.182.727-.277 1.2-.286m.682 4.2c.3-.173.655-.26 1.064-.26.427 0 .79.082 1.09.245.3.173.45.377.45.614.01.236-.136.44-.436.614-.29.173-.65.26-1.078.26-.418 0-.777-.082-1.077-.245s-.455-.368-.464-.614c.01-.237.16-.442.45-.614M18.222 8.2c-.427-.236-.636-.523-.627-.86-.01-.327.19-.614.6-.86.418-.236.927-.36 1.527-.368.59 0 1.096.118 1.514.355.418.227.627.51.627.846 0 .346-.21.636-.627.873-.41.236-.905.355-1.487.355-.6-.002-1.11-.116-1.527-.343M16.45 10.38c0-.082.055-.15.164-.205.1-.064.227-.095.382-.095.155-.01.282.018.382.082.11.055.164.127.164.218s-.05.164-.15.218a.87.87 0 0 1-.395.082c-.154 0-.282-.027-.382-.082s-.156-.127-.165-.218M5.715 6.63c.19-.118.432-.177.723-.177.29-.01.536.045.737.164.2.11.305.245.314.41 0 .164-.1.305-.3.423s-.44.177-.723.177c-.31 0-.56-.054-.75-.164-.21-.118-.31-.255-.3-.41-.001-.164.1-.305.3-.423m-3.083 2.5c-.11-.064-.164-.136-.164-.218 0-.09.055-.164.164-.218.1-.055.223-.086.368-.096.155 0 .286.032.395.096.1.055.15.123.15.205 0 .09-.05.164-.15.218A.87.87 0 0 1 3 9.236a.9.9 0 0 1-.368-.096m1.064 3.887c-.282-.146-.423-.327-.423-.546s.136-.41.41-.573.605-.245.996-.245.723.077.996.232c.282.155.418.34.41.56.01.218-.123.41-.396.573s-.605.245-.996.245c-.38 0-.713-.082-.995-.245m2.346 2.14a.87.87 0 0 1 .395-.109c.155.01.286.046.396.11.11.055.164.123.164.205 0 .09-.055.168-.164.232a.77.77 0 0 1-.396.095.87.87 0 0 1-.395-.082c-.11-.064-.164-.14-.164-.232s.055-.163.164-.218m11.06.505c-.01-.255.145-.468.464-.64.31-.182.682-.268 1.118-.26.455-.01.84.077 1.16.26.327.173.49.39.49.655.018.255-.127.468-.436.64-.318.182-.7.268-1.146.26-.436-.01-.814-.1-1.132-.273-.327-.182-.5-.396-.518-.64m-1.364 3.22c0-.182.114-.34.34-.477.227-.127.5-.19.818-.19.318-.01.59.05.818.177.236.127.355.282.355.464s-.114.336-.34.464c-.227.136-.5.205-.818.205s-.59-.064-.818-.19-.346-.28-.355-.45m-7.87-1.12c-.01-.337.196-.627.614-.873.41-.236.914-.355 1.514-.355.61 0 1.128.118 1.555.355.436.246.655.536.655.873.01.345-.19.636-.6.873S10.7 19 10.08 19c-.6 0-1.118-.118-1.555-.355-.428-.236-.646-.527-.655-.873M30.238 5.06c.427.236.64.527.64.873s-.214.64-.64.886-.94.368-1.54.368c-.61.01-1.132-.105-1.568-.34-.437-.246-.65-.54-.64-.887-.01-.346.2-.64.627-.887s.946-.368 1.555-.368 1.13.12 1.568.356m4.5 4.08c-.09-.055-.136-.118-.136-.19 0-.082.045-.15.136-.205.1-.055.218-.082.355-.082s.255.027.355.082c.1.046.15.11.15.19s-.05.15-.15.205a.65.65 0 0 1-.341.082c-.138-.01-.26-.037-.37-.082m-1.774 2.89c.327-.19.727-.286 1.2-.286s.873.09 1.2.273c.336.182.51.41.518.682 0 .264-.164.49-.49.682s-.727.286-1.2.286c-.482.01-.886-.082-1.214-.273-.336-.182-.505-.41-.505-.682.001-.264.165-.49.492-.682M25.11 3.016c.155 0 .286.027.396.082.11.064.168.145.177.245 0 .082-.055.15-.164.205-.11.073-.24.11-.396.11-.155-.01-.286-.045-.396-.11-.11-.055-.164-.123-.164-.205-.01-.082.04-.16.15-.232a.79.79 0 0 1 .397-.095M20.65 13.04c-.318-.173-.482-.382-.49-.627.01-.245.168-.46.477-.64s.677-.273 1.105-.273c.445 0 .827.086 1.146.26.3.182.45.39.45.627.01.246-.14.46-.45.64-.3.182-.677.273-1.132.273-.427.01-.795-.077-1.105-.26m6.888-3.11c0-.173.104-.323.314-.45.21-.118.468-.182.777-.19s.573.05.79.177c.21.118.314.264.314.436 0 .182-.105.332-.314.45-.21.127-.464.19-.764.19-.318 0-.582-.064-.79-.19-.218-.118-.327-.26-.327-.422m.19 2.332c0 .09-.05.164-.15.218-.11.055-.236.082-.382.082-.155 0-.286-.027-.396-.082-.1-.055-.15-.123-.15-.205 0-.09.05-.164.15-.218a.74.74 0 0 1 .382-.096c.154-.01.282.018.382.082.1.055.164.128.164.22m-.614 1.923c.427-.01.79.073 1.09.245.3.164.45.368.45.614s-.145.45-.436.614c-.29.173-.655.26-1.09.26-.41 0-.768-.082-1.077-.246-.3-.173-.45-.373-.45-.6 0-.245.15-.45.45-.614.3-.172.645-.263 1.063-.272M25.71 19.07c-.264.145-.582.218-.955.218-.373.01-.696-.06-.968-.205-.264-.146-.39-.327-.382-.546-.01-.218.118-.4.382-.545.255-.155.573-.227.955-.218.373-.01.69.064.955.218.264.145.396.323.396.532s-.128.39-.383.546m-4.514 1.91c-.11.064-.236.1-.382.11a.87.87 0 0 1-.395-.109c-.11-.064-.168-.136-.177-.218 0-.082.055-.155.164-.218a.87.87 0 0 1 .395-.109c.155 0 .286.032.395.095s.168.14.177.232c-.01.082-.068.155-.177.218m11.36-3.096c-.3.164-.66.245-1.077.245s-.777-.082-1.077-.245-.455-.364-.464-.6c0-.236.145-.44.436-.614.31-.173.668-.264 1.077-.273.427 0 .79.082 1.09.245s.45.368.45.614c.01.246-.136.455-.436.628z" fill="#b1694f"/><path d="M31.48 18.128c.418 0 .777-.082 1.077-.245.3-.173.446-.382.436-.627 0-.245-.15-.45-.45-.614s-.664-.245-1.09-.245c-.41.01-.768.1-1.077.273-.29.173-.436.377-.436.614.01.236.164.437.464.6s.66.244 1.077.244m-3.274-3.696c-.3-.173-.664-.255-1.09-.245-.418.01-.773.1-1.064.273-.3.164-.45.368-.45.614 0 .227.15.427.45.6.31.164.668.246 1.077.246.436 0 .8-.086 1.09-.26.29-.164.436-.368.436-.614s-.15-.452-.45-.615m-8.047-2.02c.01.245.173.455.49.627.31.182.677.268 1.105.26.455 0 .832-.09 1.132-.273.31-.182.46-.396.45-.64 0-.236-.15-.445-.45-.627-.318-.173-.7-.26-1.146-.26-.427 0-.796.09-1.105.273s-.467.395-.477.64m14.008-.668c-.473 0-.873.096-1.2.286s-.49.418-.49.682c0 .273.168.5.505.682.327.19.732.282 1.214.273.473 0 .873-.095 1.2-.286s.49-.418.49-.682c-.01-.273-.182-.5-.518-.682-.328-.182-.73-.273-1.2-.273m-3.287-5.81c0-.346-.214-.637-.64-.873-.436-.236-.96-.355-1.568-.355s-1.128.123-1.555.368-.636.54-.627.887c-.01.346.204.64.64.887.436.236.96.35 1.568.34.6 0 1.114-.123 1.54-.368s.64-.54.64-.887M8.483 16.9c-.418.246-.623.536-.614.873.01.345.227.636.655.873.436.237.955.355 1.555.355.61 0 1.118-.118 1.528-.355s.61-.527.6-.873c0-.337-.218-.627-.655-.873-.427-.236-.946-.355-1.555-.355-.6.001-1.104.12-1.514.355m9.084-1.868c-.318.173-.473.386-.464.64.018.246.19.46.518.64.318.173.696.264 1.132.273.446.01.827-.077 1.146-.26.31-.173.455-.386.436-.64 0-.264-.164-.482-.49-.655-.318-.182-.705-.268-1.16-.26-.436-.01-.81.077-1.118.26M3.273 12.48c0 .218.14.4.423.546.282.164.614.245.996.245.39 0 .723-.082.996-.245s.405-.355.396-.573c.01-.218-.127-.405-.41-.56-.273-.154-.605-.232-.996-.232s-.723.082-.996.245-.4.355-.4.573m14.32-5.142c-.01.336.2.623.627.86.418.227.928.34 1.528.34.582 0 1.077-.118 1.487-.355.418-.236.627-.527.627-.873 0-.336-.21-.618-.627-.846-.418-.236-.923-.355-1.514-.355-.6.01-1.11.132-1.527.368-.4.248-.6.534-.6.86m-5.278 1.27c-.336-.182-.737-.273-1.2-.273-.473.01-.873.104-1.2.286-.327.19-.49.423-.49.696 0 .264.164.486.49.668.336.19.74.282 1.214.273.473 0 .873-.095 1.2-.286.336-.19.5-.418.49-.682 0-.264-.17-.49-.505-.682m-1.105-6c-.4 0-.737.077-1.01.232-.282.164-.432.364-.45.6a1 1 0 0 0 .041.177c.064.154.2.286.41.396.282.164.627.245 1.037.245s.755-.082 1.036-.245.418-.36.41-.587c.01-.218-.095-.396-.314-.532-.027-.027-.06-.05-.096-.068-.28-.155-.635-.228-1.063-.218m6.983.204c-.41 0-.768.086-1.077.26-.29.173-.436.377-.436.614.01.236.16.44.45.614.3.164.664.245 1.09.245.418 0 .778-.086 1.078-.26s.445-.382.436-.627c0-.236-.15-.436-.45-.6-.29-.173-.655-.255-1.092-.246z" fill="#f4b6a1"/><path d="M20.813 21.087c.146-.01.273-.045.382-.11s.168-.136.177-.218c-.01-.09-.068-.168-.177-.232s-.24-.095-.395-.095c-.155.01-.286.045-.395.11s-.164.136-.164.218c.01.082.068.155.177.218a.87.87 0 0 0 .395.109m6.765-8.606c.1-.055.15-.127.15-.218s-.055-.164-.164-.218c-.1-.064-.227-.09-.382-.082a.74.74 0 0 0-.382.096c-.1.055-.15.127-.15.218 0 .082.05.15.15.205a.87.87 0 0 0 .396.082.85.85 0 0 0 .382-.083m-2.073-9.383a.87.87 0 0 0-.396-.082c-.155 0-.286.032-.396.095-.11.073-.16.15-.15.232 0 .082.054.15.164.205.11.064.24.1.396.11.155 0 .286-.036.396-.11.11-.055.164-.123.164-.205-.01-.1-.07-.182-.178-.245m9.097 5.85c0 .073.045.136.136.19a1.16 1.16 0 0 0 .368.082.65.65 0 0 0 .341-.082c.1-.055.15-.123.15-.205s-.05-.145-.15-.19c-.1-.055-.218-.082-.355-.082s-.255.027-.355.082c-.09.055-.135.123-.135.205m-28.164 6.1c-.154.01-.286.046-.395.11-.11.055-.164.127-.164.218s.055.168.164.232c.11.054.24.082.395.082s.286-.032.396-.095.164-.14.164-.232c0-.082-.055-.15-.164-.205a.88.88 0 0 0-.396-.109M2.47 8.92c0 .082.055.155.164.218a.87.87 0 0 0 .368.095c.155-.01.286-.045.395-.11.1-.055.15-.127.15-.218 0-.082-.05-.15-.15-.205-.11-.064-.24-.096-.395-.096-.146.01-.268.04-.368.096-.1.056-.164.128-.164.22m14.143 1.255c-.11.055-.164.123-.164.205.01.09.064.164.164.218s.227.082.382.082.286-.027.395-.082c.1-.054.15-.127.15-.218s-.055-.164-.164-.218c-.1-.064-.227-.09-.382-.082-.153 0-.28.032-.38.095M11.96 6.03c.155 0 .286-.032.396-.095s.16-.136.15-.218c0-.09-.055-.168-.164-.232a.87.87 0 0 0-.395-.082c-.146 0-.273.027-.382.082-.11.073-.164.155-.164.245 0 .082.055.155.164.218s.24.09.395.082m4-3.75c.118-.073.177-.155.177-.246.01-.1-.05-.182-.177-.245-.11-.064-.255-.1-.437-.11-.173 0-.318.036-.436.11-.118.064-.177.145-.177.245.01.11.073.19.19.246a.61.61 0 0 0 .205.082c.064.018.136.027.218.027.173-.01.314-.046.423-.11h.013z" fill="#884832"/><path d="M24.755 19.287c.373 0 .69-.073.955-.218.255-.155.382-.337.382-.546s-.132-.386-.396-.532c-.264-.155-.582-.227-.955-.218-.382-.01-.7.064-.955.218-.264.145-.39.327-.382.545-.01.218.118.4.382.546.273.146.596.214.97.205M27.85 9.48c-.21.127-.314.277-.314.45 0 .164.11.305.327.423.21.127.473.19.79.19.3 0 .555-.064.764-.19.21-.118.314-.268.314-.45 0-.173-.105-.318-.314-.436-.218-.127-.482-.186-.79-.177s-.568.07-.777.2m-11.77 8.933c-.227.136-.34.295-.34.477.01.173.127.323.355.45s.5.19.818.19.59-.068.818-.205c.227-.127.34-.282.34-.464s-.118-.336-.355-.464c-.227-.127-.5-.186-.818-.177-.318.001-.6.065-.818.192M6.438 6.453c-.29 0-.532.06-.723.177-.2.118-.3.26-.3.423-.01.155.09.29.3.41.19.11.44.164.75.164.282 0 .523-.06.723-.177s.3-.26.3-.423c-.01-.164-.114-.3-.314-.41-.2-.12-.445-.173-.736-.164m6.424 5.824c-.41 0-.764.086-1.064.26-.29.173-.44.377-.45.614.01.245.164.45.464.614s.66.245 1.077.245c.427 0 .787-.086 1.078-.26.3-.173.445-.377.436-.614 0-.236-.15-.44-.45-.614-.3-.164-.664-.245-1.09-.245z" fill="#cd7b5e"/></svg>