<svg xmlns="http://www.w3.org/2000/svg" viewBox="0 0 34.087 22.42" xmlns:v="https://vecta.io/nano"><g transform="matrix(-1 0 0 1 1068.65 23.45)"><path d="M1051.326-9.67c-.036.173-.136.364-.3.573-.146.19-.382.423-.71.696l-.846.614-.532.327c-1.918 1.1-4.137 1.71-6.656 1.828-1.232.052-2.357-.02-3.374-.216-.098-.02-.197-.046-.292-.08-.97-.336-1.767-.742-2.4-1.22 0-.01-.005-.018-.014-.027l-.15-.11a3.95 3.95 0 0 1-1.05-1.282 4 4 0 0 1-.327-.914 1.4 1.4 0 0 0-.055-.259c-.036-.227-.06-.45-.068-.668v4.446a4.78 4.78 0 0 0 .068.805c.027.09.046.177.055.26.19.855.65 1.587 1.378 2.196a.85.85 0 0 1 .136.109c.018.01.027.023.027.04.626.478 1.426.88 2.4 1.2.088.03.18.055.27.073 1.02.206 2.148.278 3.385.217 2.52-.118 4.737-.727 6.656-1.828a11.8 11.8 0 0 0 1.378-.941c.327-.273.564-.5.71-.682.164-.21.264-.405.3-.586V-9.67z" fill="#e8b282"/><path d="M1050.44-11.103l-.218-.246-.014-.014c-.027-.027-.045-.055-.054-.082-.4-.146-.823-.268-1.268-.368-1.037-.227-2.205-.31-3.505-.246-2.3.1-4.333.64-6.097 1.623l-.15.082c-.8.464-1.437.96-1.91 1.487l-.044.047c.36-.184-1.103.578-.966 1.644.073.572 1.65.8 1.537.906l.867.34c.095.033.194.06.292.08 1.017.196 2.14.268 3.374.216 2.52-.118 4.737-.727 6.656-1.828l.532-.327.846-.614c.327-.273.564-.505.71-.696.164-.21.264-.4.3-.573.01-.064.014-.127.014-.19v-.082c-.027-.11-.127-.273-.3-.49l-.477-.518c-.048-.043-.088-.093-.125-.147m-.9-3.328c-.236-.2-.523-.396-.86-.586-.164-.1-.336-.19-.518-.273-1.173-.555-2.55-.85-4.133-.887l-.26-.014-.996.027c-1.064.036-2.064.173-3 .41-1.146.29-2.214.718-3.205 1.282l-.027.014a9.77 9.77 0 0 0-1.051.693l-.514.698c-.275.748-.412 1.512-.412 2.292v.368c.01.218.032.44.068.668.027.09.046.177.055.26a3.38 3.38 0 0 1 .341-.736c.29-.518.732-1.005 1.323-1.46.345-.273.736-.532 1.173-.777.364-.218.746-.414 1.146-.587l.286-.123c1.282-.527 2.69-.85 4.228-.968l.573-.04c1.282-.064 2.44.023 3.478.26a9.29 9.29 0 0 1 1.678.518l.327.15v-.123c.01-.064.023-.127.04-.19.036-.236.105-.473.205-.71.007-.054.025-.11.052-.163m1.2-3.874a6.21 6.21 0 0 0-.805-.546c-1.546-.882-3.5-1.268-5.892-1.16l-1.87.19c-.036.018-.068.036-.095.055l-.955.56-2.414 1.637-1.255 1.05a10.28 10.28 0 0 1 1.364-.614c.873-.327 1.8-.573 2.782-.736l1.732-.164c1.628-.082 3.07.077 4.324.477a7.79 7.79 0 0 1 1.568.682c.555.31 1 .655 1.337 1.037.355-.355.782-.696 1.282-1.023-.2-.536-.558-1.018-1.104-1.446m1.746-4.855l-.56.068-3.164.627-1.46.423a10.7 10.7 0 0 1 1.228.205c.9.19 1.714.496 2.44.914 1.118.636 1.787 1.405 2.005 2.305a2.66 2.66 0 0 1 .068.723c0 .11-.01.218-.027.327-.01.01-.014.023-.014.04l.682-.314a12.1 12.1 0 0 1 2.005-.682c.01-.027.023-.06.04-.095l.055-.218c.027-.118.046-.24.055-.368.2-1.355-.477-2.473-2.032-3.355-.41-.237-.852-.438-1.325-.6m11.39 4.746l.573.205c.364.1.773.136 1.227.11.764-.027 1.437-.205 2.02-.532.582-.336.896-.727.94-1.173.008-.033.013-.065.014-.095v-.014c.01-.1-.005-.195-.04-.286-.082-.246-.264-.455-.546-.627l-.04-.027c-.01-.01-.023-.014-.04-.014l-.04-.04c-.018-.01-.04-.018-.068-.027l-.423-.232c-.2-.105-.95-.37-1.154-.47-.665-.32-.95-.058-1.44.494-.395.445-.93.864-1.607 1.257a9.75 9.75 0 0 1-2.1.9 10.22 10.22 0 0 1 1.623.259l.914.232a.89.89 0 0 1 .191.081m-1.405-3.764c.046-.264.05-.51.014-.736-.937-.2-1.914-.34-2.932-.423l-1.978-.095a9.95 9.95 0 0 1-.518-.014l.273.232c.79.736 1.118 1.6.982 2.59a3.52 3.52 0 0 1-.409 1.255c-.09.164-.19.318-.3.464l1.132-.095.314-.014.655-.014.218-.136.15-.082c1.47-.846 2.272-1.824 2.4-2.933z" fill="#ffe5cc"/><path d="M1049.24-13.245l-.327-.15a9.24 9.24 0 0 0-1.678-.518c-1.036-.236-2.196-.323-3.478-.26l-.573.04c-1.537.118-2.946.44-4.228.968l-.286.123c-.4.173-.782.368-1.146.587-.437.245-.828.505-1.173.777-.59.455-1.032.94-1.323 1.46a3.4 3.4 0 0 0-.341.736 4.1 4.1 0 0 0 .327.914 3.95 3.95 0 0 0 1.05 1.282l.15.11c.182-.6.518-1.164 1.01-1.69.473-.527 1.11-1.023 1.91-1.487l.15-.082c1.764-.982 3.796-1.523 6.097-1.623 1.3-.064 2.47.018 3.505.246.446.1.868.223 1.268.368-.245-.273-.44-.527-.587-.764-.225-.4-.334-.736-.325-1.036m-.56-1.773c.336.19.623.386.86.586.073-.164.164-.323.273-.477.1-.173.214-.332.34-.477a3.7 3.7 0 0 1 .409-.45c-.337-.382-.782-.727-1.337-1.037-.49-.282-1.014-.51-1.568-.682-1.255-.4-2.696-.56-4.324-.477l-1.732.164c-.982.164-1.91.41-2.782.736a10.32 10.32 0 0 0-1.144.498c-.147.075-.286.175-.406.29a10.39 10.39 0 0 0-1.123 1.232l-.286.382a7.56 7.56 0 0 0-.709 1.241 9.12 9.12 0 0 1 1.391-.968l.027-.014c.99-.564 2.06-.99 3.205-1.282.937-.236 1.937-.373 3-.41l.996-.027a2.36 2.36 0 0 1 .259.014c1.582.036 2.96.332 4.133.887.18.08.354.17.518.27m8.647-8.197l-.273-.232c-.555-.01-1.118 0-1.69.027l-2.878.26a7.66 7.66 0 0 1 1.323.6c1.555.882 2.232 2 2.032 3.355-.01.127-.027.25-.055.368l-.055.218c-.018.036-.032.068-.04.095a1.04 1.04 0 0 1 .218-.055l1.35-.273.34-.055c.11-.145.21-.3.3-.464a3.5 3.5 0 0 0 .409-1.255c.138-.987-.19-1.85-.98-2.588m-7.392 4.365c.3.173.568.355.805.546.546.427.914.91 1.105 1.446l.546-.327.614-.34c0-.018.005-.032.014-.04.018-.11.027-.218.027-.327a2.7 2.7 0 0 0-.068-.723c-.218-.9-.887-1.67-2.005-2.305-.727-.418-1.54-.723-2.44-.914-.4-.09-.81-.16-1.228-.205-1.82.573-3.528 1.314-5.128 2.223l1.87-.19c2.38-.1 4.344.277 5.9 1.16m12.547-4.065c.036.227.032.473-.014.736-.127 1.11-.927 2.087-2.4 2.932l-.15.082-.218.136c.155-.01.314-.01.477 0l.968.04c.737-.218 1.437-.518 2.1-.9l.034-.02c1.6-.687 3.944-1.758 2.833-1.745-.096.002-3.532-1.242-3.63-1.262z" fill="#fdca97"/><path d="M1061.146-18.987l-.968-.04c-.164-.01-.323-.01-.477 0l-.655.014-.314.014-1.132.095-.34.055-1.35.273a.92.92 0 0 0-.218.055 12.13 12.13 0 0 0-2.005.682l-.682.314-.614.34-.546.327c-.5.327-.927.668-1.282 1.023-.155.146-.29.296-.41.45-.127.146-.24.305-.34.477-.11.154-.2.314-.273.477a.62.62 0 0 0-.055.164 3.01 3.01 0 0 0-.205.709c-.018.064-.032.127-.04.19v.123c-.01.3.1.646.327 1.037.146.236.34.49.587.764.01.027.027.054.054.082l.014.014.218.246c.027-.055.068-.105.123-.15.355-.345.782-.682 1.282-1.01l.546-.34.614-.34.682-.314a14.02 14.02 0 0 1 2.005-.682l.218-.054c.546-.136 1.11-.24 1.69-.314l1.446-.122.655-.014c.155-.01.314-.01.477 0l.968.04c.564.055 1.105.14 1.623.26l.914.232.19.082.573.218c.364.1.773.136 1.227.11.764-.036 1.437-.218 2.02-.546.51-.29.814-.627.914-1.01l.04-.26V-19.9c-.001.03-.005.062-.014.095-.045.446-.36.837-.94 1.173-.582.327-1.255.505-2.02.532-.455.027-.864-.01-1.227-.11l-.573-.205c-.064-.036-.127-.064-.19-.082l-.914-.232c-.517-.127-1.058-.213-1.622-.26z" fill="#e4b585"/></g></svg>