<svg xmlns="http://www.w3.org/2000/svg" viewBox="0 0 35.509 17.346" xmlns:v="https://vecta.io/nano"><path d="M19.517 9.836a1.92 1.92 0 0 1 .232.15c.51.355 2.346-.09 5.5-1.337 2.737-1.09 4.173-1.955 4.3-2.59.01-.064.01-.123 0-.177V3.235c-.01.327-.414.732-1.214 1.214-.555.327-1.29.682-2.2 1.064l-.886.382c-3.164 1.237-5 1.678-5.5 1.323l-.232-.136v2.754m-2.073-3.628c-.227-.118-.35-.295-.368-.532L17.062 8.4c.01.264.136.46.382.586V6.208z" fill="#efce48"/><path d="M18.085 6.426c-.146-.055-.305-.104-.477-.15l-.164-.068v2.77h.014c.046.01.095.027.15.055.782.236 1.418.505 1.9.805v-2.77c-.036-.01-.073-.027-.11-.055a7.97 7.97 0 0 0-1.324-.587z" fill="#ebd784"/><path d="M23.61 1.83c-.737 0-1.37.145-1.896.436-.518.3-1.805 1.478-3.86 3.533-.155.136-.29.273-.41.41l.164.068c.173.045.332.095.477.15.518.182.96.377 1.323.587a.33.33 0 0 0 .109.055L22.75 5.73l2.1-.982.71-.368c.51-.273.764-.61.764-1.01v-.04c0-.41-.264-.76-.79-1.05-.535-.3-1.176-.45-1.922-.45z" fill="#fff0b5"/><path d="M21.713 2.266c.527-.29 1.16-.436 1.896-.436.746 0 1.387.15 1.923.45.527.29.79.64.79 1.05v.04c0 .4-.255.736-.764 1.01l-.71.368-2.1.982-3.232 1.337v.014l.232.136c.51.355 2.346-.086 5.5-1.323l.886-.382c.918-.382 1.655-.737 2.2-1.064.8-.482 1.205-.886 1.214-1.214v-.027c0-.054-.01-.11-.027-.164-.29-.664-.964-1.287-2.018-1.87A9.44 9.44 0 0 0 24.142.069c-1.2-.155-2.12-.055-2.755.3-.646.355-1.664 1.355-3.055 3-.882 1.037-1.3 1.805-1.255 2.305.018.236.14.414.368.532a4.38 4.38 0 0 1 .409-.409l3.86-3.532z" fill="#fee581"/><path d="M23.377 13.45c-.227-.118-.35-.295-.368-.532l-.014 2.714c.01.264.136.46.382.586V13.45m10.91-1.76c-.555.327-1.29.682-2.2 1.064l-.886.382c-3.164 1.237-5 1.678-5.5 1.323l-.232-.136v2.755c.082.046.16.096.232.15.51.355 2.346-.09 5.5-1.337 2.737-1.09 4.173-1.955 4.3-2.59.01-.064.01-.123 0-.177v-2.646c-.01.326-.413.73-1.214 1.213z" fill="#efce48"/><path d="M23.54 13.518l-.164-.068v2.77h.014a.59.59 0 0 1 .15.055c.782.236 1.418.505 1.9.805V14.3c-.036-.01-.073-.027-.11-.055-.364-.21-.805-.405-1.323-.586a5.01 5.01 0 0 0-.478-.151z" fill="#ebd784"/><path d="M32.256 10.613v-.04c0-.41-.264-.76-.79-1.05-.536-.3-1.177-.45-1.923-.45-.737 0-1.37.146-1.896.437-.518.3-1.805 1.477-3.86 3.533-.155.136-.29.273-.41.41l.164.068c.173.045.332.095.477.15.518.182.96.377 1.323.586.036.027.073.046.11.055l3.232-1.337 2.1-.982.71-.368c.51-.273.765-.6.765-1z" fill="#fff0b5"/><path d="M35.502 10.477v-.027a.52.52 0 0 0-.027-.164c-.29-.664-.964-1.287-2.018-1.87a9.44 9.44 0 0 0-3.383-1.105c-1.2-.155-2.12-.055-2.755.3-.646.355-1.664 1.355-3.055 3-.882 1.037-1.3 1.805-1.255 2.305.018.236.14.414.368.532a4.38 4.38 0 0 1 .409-.409l3.86-3.533c.527-.29 1.16-.437 1.896-.437.746 0 1.387.15 1.923.45.527.29.79.64.79 1.05v.04c0 .4-.255.737-.764 1.01l-.71.368-2.1.982-3.232 1.337v.014l.232.136c.51.355 2.346-.086 5.5-1.323l.886-.382c.918-.382 1.655-.736 2.2-1.064.8-.48 1.204-.885 1.213-1.212z" fill="#fee581"/><path d="M2.687 8.827l-.232-.136v2.755c.082.045.16.096.232.15.51.355 2.346-.09 5.5-1.337 2.737-1.09 4.173-1.955 4.3-2.59.01-.064.01-.123 0-.177V4.845c-.01.327-.414.732-1.214 1.214-.555.327-1.29.682-2.2 1.064l-.886.382c-3.164 1.235-5 1.676-5.5 1.322M0 10c.01.264.136.46.382.586v-2.77C.155 7.7.032 7.52.014 7.285L0 10z" fill="#efce48"/><path d="M.382 7.817l.164.068.477.15c.518.182.96.377 1.323.586a.33.33 0 0 0 .109.055L5.687 7.34l2.1-.982.71-.368c.51-.273.764-.61.764-1.01v-.04c0-.41-.264-.76-.79-1.05-.536-.3-1.177-.45-1.923-.45-.737 0-1.368.146-1.896.437-.518.3-1.805 1.477-3.86 3.532-.154.136-.3.273-.408.41z" fill="#fff0b5"/><path d="M.382 7.817v2.77h.014c.046.01.095.027.15.055.782.236 1.418.505 1.91.805v-2.77c-.036-.01-.073-.027-.11-.055-.364-.21-.805-.405-1.323-.586-.146-.055-.305-.105-.477-.15l-.164-.07z" fill="#ebd784"/><path d="M1.268 4.98C.386 6.017-.032 6.785.013 7.285c.018.236.14.414.368.532a4.38 4.38 0 0 1 .409-.409l3.86-3.532c.527-.29 1.16-.437 1.896-.437.746 0 1.387.15 1.923.45.527.29.79.64.79 1.05v.04c0 .4-.255.737-.764 1.01l-.71.368-2.1.982-3.232 1.337V8.7l.232.136c.51.355 2.346-.086 5.5-1.323l.886-.382c.918-.382 1.655-.737 2.2-1.064.8-.482 1.205-.887 1.214-1.214v-.027a.52.52 0 0 0-.027-.164c-.29-.664-.964-1.287-2.02-1.87a9.44 9.44 0 0 0-3.382-1.105c-1.2-.155-2.12-.055-2.755.3-.646.357-1.664 1.357-3.056 3.002z" fill="#fee581"/></svg>