<svg xmlns="http://www.w3.org/2000/svg" xmlns:xlink="http://www.w3.org/1999/xlink" width="225" height="159" xmlns:v="https://vecta.io/nano"><style><![CDATA[.B{fill:#d0d3dd}.C{fill:#c3c3c3}.D{fill:#ebebeb}.E{fill:url(#A)}.F{fill:#d0bfad}.G{fill:#d1d2d2}.H{fill:#fbfcfc}.I{fill:#ddd5cc}.J{fill:url(#B)}.K{fill:#c2bec3}.L{fill:url(#C)}.M{fill:#c7c6c6}.N{fill:#b3adb4}.O{fill:#a0a9b4}.P{fill:url(#D)}.Q{fill:#e4dcd3}.R{fill:url(#E)}.S{fill:#b3b5c3}.T{fill:url(#F)}.U{fill:url(#G)}.V{fill:#8a8d9c}]]></style><defs><linearGradient x1="218.873999%" y1="49.9799622%" x2="-245.31743%" y2="49.9799622%" id="A"><stop stop-color="#d6c7b9" offset="0%"/><stop stop-color="#9fa2ae" offset="100%"/></linearGradient><linearGradient x1="2319.97144%" y1="28.60626%" x2="0.0572514286%" y2="28.60626%" id="B"><stop stop-color="#fff" offset="0%"/><stop stop-color="#e1e1e1" offset="100%"/></linearGradient><linearGradient x1="421.144002%" y1="49.9222979%" x2="-231.346552%" y2="49.9222979%" id="C"><stop stop-color="#fff4e8" offset="0%"/><stop stop-color="#b8bbc5" offset="100%"/></linearGradient><linearGradient x1="187.96606%" y1="49.9789468%" x2="-8.59328702e-05%" y2="49.9789468%" id="D"><stop stop-color="#dfcab0" offset="0%"/><stop stop-color="#b8bbc5" offset="100%"/></linearGradient><linearGradient x1="99.9995042%" y1="49.9950646%" x2="-306.971746%" y2="49.9950646%" id="E"><stop stop-color="#e8d5be" offset="0%"/><stop stop-color="#b8bbc5" offset="100%"/></linearGradient><linearGradient x1="100.00849%" y1="49.9897159%" x2="-4.35500495%" y2="49.9897159%" id="F"><stop stop-color="#fff" offset="0%"/><stop stop-color="#c7c6c6" offset="100%"/></linearGradient><linearGradient x1="131.188113%" y1="49.9982218%" x2="-118.122768%" y2="49.9982218%" id="G"><stop stop-color="#e1cdb7" offset="0%"/><stop stop-color="#b8bbc5" offset="100%"/></linearGradient><path id="H" d="M159.506 83.37c.245-.927.34-1.737.286-2.428l-.218-.86c-.027.49-.2 1.037-.518 1.637l-.123.218-.245.382-.15.218c-.327.464-.718.923-1.173 1.378v2.755c.646-.646 1.168-1.305 1.568-1.978.282-.482.473-.932.573-1.35v.027z"/><path id="I" d="M173.95 74.765c0-.018.005-.032.014-.04l-.927.382c.164.073.368.104.614.095a2.44 2.44 0 0 0 .382-.054c.036-.018.068-.032.095-.04-.146-.09-.205-.205-.178-.34h0zm-4.72 2.414c-.01-.036-.01-.073 0-.11.018-.136.127-.264.327-.382-.182.082-.382.132-.6.15-.2 0-.373-.023-.518-.068l-.368.123v.054c-.027.118.014.218.123.3.018.01.032.018.04.027.018 0 .032.01.04.027.082.046.177.077.286.095l.668-.217zm.41-.532a1.37 1.37 0 0 1 .205-.068c-.027-.01-.046-.023-.055-.04l-.15.11zm7.61-2.987c-.118.027-.255.046-.41.055-.2.01-.377-.014-.532-.068l-.736.355c-.01.027-.014.055-.014.082-.018.09.01.182.082.273.032.023.05.032.07.04s.04.018.068.027a.65.65 0 0 0 .177.082l1.214-.6c.027-.073.073-.14.136-.205-.01-.02-.028-.033-.055-.042h0zm-17.104 5.333c-.255.01-.464-.023-.627-.096a.72.72 0 0 0-.246.096c-.2.118-.314.245-.34.382-.027.146.046.264.218.355.118.064.255.105.41.123l-.055-.26.71-.055.368-.054c-.082-.082-.118-.177-.11-.286.018-.09.068-.173.15-.245l-.027-.027c-.01 0-.018-.005-.027-.014a1.74 1.74 0 0 1-.422.08z"/><path id="J" d="M168.63 74.478l.15-.123c.018 0 .032-.01.04-.027-.127-.082-.186-.177-.177-.286l-1.105.586c.118.027.25.036.396.027a1.82 1.82 0 0 0 .695-.177h0zm3.355-2.196c-.01-.018-.018-.027-.027-.027l-.382.205-1.078.6c.173.09.39.127.655.11.255-.01.482-.068.682-.177l.136-.095a.51.51 0 0 0 .055-.041c-.136-.1-.19-.21-.164-.327 0-.018.005-.04.014-.068.018-.065.055-.124.11-.18z"/><path id="K" d="M167.635 73.687a1.09 1.09 0 0 0-.232.109c-.2.11-.314.236-.34.382-.018.127.04.236.177.327.018.01.032.018.04.027h.027c.073.036.15.068.232.095l1.105-.586c.01-.018.014-.032.014-.04 0-.09.04-.168.123-.232-.023-.023-.037-.032-.055-.04-.01 0-.023-.01-.04-.027a1.66 1.66 0 0 1-.368.068c-.245.018-.445-.014-.6-.095-.027.001-.055.005-.082.014z"/><path id="L" d="M167.622 73.142c-.036-.01-.064-.023-.082-.04v.014c-.045.045-.073.104-.082.177-.027.118.014.218.123.3a1.1 1.1 0 0 0 .095.055c.01.01.023.018.04.027.155.082.355.114.6.095a1.66 1.66 0 0 0 .368-.068h.04a.26.26 0 0 1-.041-.218c.01-.146.114-.273.314-.382.09-.045.186-.086.286-.123a.82.82 0 0 0-.096-.082c-.055.064-.136.127-.245.19-.2.118-.432.177-.696.177-.254.02-.463-.022-.626-.122h0zm-1.95 2.14l-.055-.027c-.018-.01-.032-.014-.04-.014l-.368.055c-.236 0-.436-.036-.6-.11-.018.01-.04.018-.068.027-.09.018-.173.05-.246.095-.2.11-.31.237-.327.382-.018.118.023.218.123.3.018.01.036.023.055.04.01 0 .023.005.04.014.136.073.31.114.518.123l.86-.477c-.018-.055-.027-.114-.027-.177a.47.47 0 0 1 .136-.233z"/><path id="M" d="M174.646 70.755h-.164l-1.037.64c.027.045.068.082.123.11.01.01.027.018.054.027.178.096.382.132.628.123.264-.01.496-.073.696-.19.064-.027.114-.06.15-.095l.04-.04c-.136-.09-.19-.2-.164-.327 0-.082.04-.16.123-.232l-.04-.04c-.018-.01-.036-.014-.055-.014-.118.027-.236.04-.354.04h0zm-12.385 7.46a1.06 1.06 0 0 0 .314.095c.246-.01.54-.04.887-.095a.96.96 0 0 0 .136-.068c.055-.027.1-.06.136-.096.018-.01.032-.018.04-.027-.155-.09-.218-.205-.19-.34.018-.09.068-.177.15-.26-.01 0-.018-.005-.027-.014s-.018-.014-.027-.014c-.136.046-.282.068-.436.068-.227.01-.427-.023-.6-.096l-.56.382c-.018.027-.032.06-.04.095-.018.136.045.25.19.34.055-.018.11-.04.164-.068-.047.03-.092.06-.138.097h0zm3.45-2.36c.018 0 .036.01.055.027h.027c.164.082.368.123.614.123a1.5 1.5 0 0 0 .423-.082h.04a.46.46 0 0 1-.068-.245c.027-.136.14-.264.34-.382a1.3 1.3 0 0 1 .218-.096l-.055-.054c-.045.054-.104.104-.177.15-.2.11-.432.168-.695.177-.155 0-.29-.01-.41-.027l-.464.245c.026.064.076.118.15.164h0zm18.686-8.265h.014l-.123-.055-.082-.027a9.9 9.9 0 0 1-1.268-.409c-.055.064-.086.132-.095.205-.027.136.027.245.164.327.018.018.036.027.055.027l.027.027c.164.082.373.114.627.096.146-.01.286-.032.423-.068l.15-.054a.35.35 0 0 1 .082-.041.17.17 0 0 1 .026-.028z"/><path id="N" d="M172.11 70.482c.018-.136.127-.264.327-.382l.136-.054c-.018-.018-.036-.027-.055-.027l-.19.123a1.65 1.65 0 0 1-.682.191c-.19.01-.355-.01-.49-.055l-.232.15v.055c-.036.118.004.218.123.3l.014.014a.35.35 0 0 1 .082.041c.164.09.377.132.64.123.173-.01.332-.04.477-.095.018 0 .036-.01.055-.027-.163-.093-.232-.21-.204-.357h0zm-7.76 4.092v-.014a1.27 1.27 0 0 1-.491.096h-.123l-1.01.573a.45.45 0 0 0 .096.095l.068.04h.014c.164.09.377.132.64.123s.49-.068.682-.177c.1-.054.177-.114.232-.177.01-.01.018-.014.027-.014-.11-.09-.155-.195-.136-.314a.42.42 0 0 1 .068-.177c-.02-.028-.04-.046-.07-.055h0zm-4.364 2.36l-.314.218c-.01.09.036.173.136.245h.014a.09.09 0 0 0 .041.041c.01.01.018.014.027.014.027.018.045.027.055.027.164.082.364.114.6.095a1.17 1.17 0 0 0 .368-.054c.027 0 .05-.005.068-.014-.136-.09-.195-.205-.177-.34.018-.146.127-.273.327-.382.082-.045.164-.082.245-.11-.01-.01-.023-.014-.04-.014-.018-.018-.04-.027-.068-.027a.51.51 0 0 1-.191.136c-.2.118-.427.182-.682.19-.154.01-.3.002-.408-.026h0zm15.466-7.542c-.018-.018-.045-.036-.082-.054a1.35 1.35 0 0 1-.477.109c-.273.01-.49-.032-.655-.123l-.027.014c-.055.018-.114.04-.177.068-.2.11-.305.236-.314.382-.027.09-.005.177.068.26l.055.054h.014l.082.04c.164.09.377.132.64.123.255-.01.482-.073.682-.19.11-.055.19-.114.245-.177a.35.35 0 0 1-.136-.314.87.87 0 0 1 .081-.191h0zm.7-2.2h-.04c-.09.036-.177.077-.26.123-.2.11-.305.236-.314.382-.027.082-.01.15.055.205.018.036.04.068.068.095a1.1 1.1 0 0 0 .095.055c.164.09.377.132.64.123.255-.01.482-.068.682-.177.1-.064.182-.123.246-.177h-.014c-.11-.09-.155-.2-.136-.327.01-.064.04-.132.096-.205a.35.35 0 0 1-.082-.041c-.01-.01-.023-.018-.04-.027a1.06 1.06 0 0 1-.382.068c-.246.017-.45-.015-.614-.097z"/><path id="O" d="M161.443 76.66c-.027.01-.05.014-.068.014-.082.027-.164.064-.245.11-.2.11-.31.236-.327.382-.018.136.04.25.177.34.018 0 .032.005.04.014l.027.027c.164.073.368.105.614.096.255-.01.482-.068.682-.177a.52.52 0 0 0 .164-.109c.018-.01.032-.018.04-.027-.136-.1-.195-.214-.177-.34a.48.48 0 0 1 .136-.232l-.04-.04h-.055a3.26 3.26 0 0 1-.368.041c-.237.007-.437-.025-.6-.097z"/><path id="P" d="M162.78 75.35a1.5 1.5 0 0 1-.409.082l-1.105.668a.68.68 0 0 1 .068.041c.173.09.39.132.655.123a1.65 1.65 0 0 0 .682-.191c.118-.054.2-.118.245-.19-.11-.082-.15-.182-.123-.3a.43.43 0 0 1 .082-.191c-.027-.018-.06-.032-.095-.04h0zm-5.088 3.342c-.027.136.045.255.218.355.164.09.382.132.655.123.255-.01.482-.068.682-.177a1.83 1.83 0 0 0 .205-.15c-.136-.09-.195-.2-.177-.327.01-.09.05-.173.123-.245-.01-.01-.023-.02-.04-.027l-.055-.027a1.45 1.45 0 0 1-.355.068c-.218.01-.4-.014-.545-.068a2.19 2.19 0 0 0-.273.327c-.1-.036-.205-.064-.314-.082-.073.07-.114.148-.123.23h0zm8.306-4.842c.027.01.05.018.068.027.164.073.36.104.586.095a1.65 1.65 0 0 0 .682-.191c.09-.055.16-.105.205-.15a.09.09 0 0 0 .041-.041c-.11-.082-.15-.182-.123-.3.01-.073.036-.132.082-.177-.027-.027-.06-.05-.095-.068-.145.055-.305.086-.477.095a2.12 2.12 0 0 1-.437-.041l-.75.423c-.01.128.064.237.218.328z"/><path id="Q" d="M164.54 75.215c-.018-.027-.045-.055-.082-.082-.055.064-.132.123-.232.177-.19.11-.418.168-.682.177s-.477-.032-.64-.123h-.014c-.01.01-.014.018-.014.027a.44.44 0 0 0-.082.191c-.027.118.014.218.123.3a.2.2 0 0 0 .096.054c.01.01.023.018.04.027.155.073.355.105.6.096.127-.01.25-.027.368-.055.027-.01.05-.014.068-.014-.1-.082-.14-.182-.123-.3.018-.145.127-.273.327-.382.074-.043.156-.075.247-.093h0zm-4.596 2.264h-.04a1.81 1.81 0 0 0-.273.123c-.2.118-.31.245-.327.382-.018.082 0 .155.055.218.01.027.023.05.04.068a1.31 1.31 0 0 0 .123.082c.173.09.386.127.64.11.255 0 .482-.06.682-.177.082-.045.15-.09.204-.136v-.014c-.136-.082-.195-.186-.177-.314a.48.48 0 0 1 .136-.246c-.018-.01-.032-.018-.04-.027l-.055-.027a1.17 1.17 0 0 1-.368.054c-.236.02-.436-.013-.6-.095h0zm6.083-3.56c-.018-.018-.046-.032-.082-.04-.145.045-.305.073-.477.082a1.46 1.46 0 0 1-.409-.027l-.545.3a2.04 2.04 0 0 1-.232.123.24.24 0 0 0 .068.205c.027.018.05.036.068.055.027.027.055.05.082.068.173.09.39.127.655.11a1.79 1.79 0 0 0 .682-.177c.11-.064.19-.132.246-.205-.11-.082-.15-.177-.123-.286.008-.074.03-.142.067-.206z"/><path id="R" d="M166.176 74.506c-.09.027-.182.064-.273.11-.2.11-.314.236-.34.382-.01.082.01.155.055.218.018.027.036.05.055.068l.11.068a1.56 1.56 0 0 0 .246.095l1.118-.614h.014v-.014c0-.082.036-.16.11-.232a.09.09 0 0 0-.041-.041c-.01-.01-.023-.014-.04-.014-.118.027-.24.045-.368.055-.245.01-.45-.023-.614-.096-.01.002-.02.007-.028.016z"/><path id="S" d="M180.783 71.287c-.082.036-.16.077-.232.123-.2.11-.314.232-.34.368-.018.127.036.236.164.327l.682-.423.382-.26c-.237.01-.427-.032-.573-.123-.01-.01-.023-.014-.04-.014-.01.001-.023.001-.04.001h0zm-1.473.79c-.018-.01-.032-.018-.04-.027a2.54 2.54 0 0 0-.286.123c-.154.09-.26.186-.314.286 0 .027-.005.06-.014.095-.018.1.014.19.095.273l.055.055h.014l.055.027a.35.35 0 0 0 .082.041l.832-.49.546-.314c-.118.036-.24.055-.368.055-.274.01-.492-.032-.656-.123h0zm4.6-2.933l-.082-.04c-.01-.01-.023-.018-.04-.027a1.61 1.61 0 0 1-.491.095h-.164l-.873.627c.018.027.046.05.082.068l.055.027c.027.01.05.018.068.027.155.073.345.105.573.095.154-.01.295-.036.423-.082l.34-.286c-.045-.064-.064-.136-.055-.218.02-.098.073-.194.164-.285z"/><path id="T" d="M184.875 68.245c-.01.073-.032.15-.068.232-.1.21-.273.446-.518.71a.82.82 0 0 0-.082.096c-.11.118-.24.24-.396.368l-.34.286c-.027.027-.06.054-.096.082l-.818.627-.737.518-.764.518-.682.423-.04.04-.546.314-.832.49-.286.164-1.118.586-.382.205-1.214.6-.41.177-1.16.532-.423.177-1.35.56a.97.97 0 0 0-.232.082l-1.46.56-.41.136-1.282.45-.668.218-.914.286-.26.096-.777.232-1.01.3-.71.205-1.364.355-.082.027c-.027 0-.064.01-.11.027-.055.01-.105.023-.15.04l-1.35.3-1.255.218-.368.054-.71.055.055.26c.01.046.014.09.014.136v.095l.218.86c2.528.173 5.792-.277 9.793-1.35 4-1.073 7.833-2.79 11.47-5.155 1.164-.755 2.064-1.414 2.7-1.978.21-.173.386-.336.532-.49.2-.218.35-.418.45-.6.082-.155.132-.29.15-.41v-.123l-.016-2.59z"/></defs><g fill-rule="nonzero"><use xlink:href="#H" class="B"/><use xlink:href="#I" class="C"/><path d="M168.44 75.228c-.127.046-.268.068-.423.068-.255.018-.464-.014-.627-.096h-.027c-.082.027-.155.06-.218.096-.2.118-.314.245-.34.382 0 .09.023.173.068.245.01 0 .014.01.014.027l.15.082c.164.1.377.14.64.123a1.27 1.27 0 0 0 .682-.177c.073-.036.132-.077.177-.123-.146-.09-.21-.205-.19-.34.018-.09.068-.177.15-.26l-.014-.014c-.018-.008-.032-.013-.04-.013h0zm2.973-.04l-.068-.04c-.1.082-.16.173-.177.273-.018.118.023.218.123.3l.055.027 1.105-.41c.054-.055.118-.104.19-.15a1.88 1.88 0 0 1-.573.136c-.265 0-.483-.046-.656-.136h0zm2.17-3.6c-.073.073-.11.15-.11.232-.027.127.027.236.164.327.018.01.032.018.04.027.018 0 .027.005.027.014.164.09.373.127.627.11.155-.01.3-.032.436-.068.01-.01.027-.018.055-.027-.145-.09-.21-.205-.19-.34.018-.146.127-.273.327-.382l.19-.082c0-.01-.01-.014-.027-.014 0-.01-.01-.014-.027-.014-.036.036-.086.068-.15.095-.2.118-.432.182-.696.19-.246.01-.45-.027-.614-.11-.018.01-.036.024-.054.042h0zM184.043 68c.018-.09.064-.177.136-.26l-.014-.014c-.01 0-.018-.005-.027-.014a2.17 2.17 0 0 1-.423.068c-.255.018-.464-.014-.627-.096h-.027a1.66 1.66 0 0 0-.232.096c-.2.11-.31.24-.327.396-.01.082.01.155.055.218.01.018.018.027.027.027a.52.52 0 0 0 .136.095c.173.09.386.136.64.136a1.67 1.67 0 0 0 .695-.191.75.75 0 0 0 .164-.123c.01 0 .018-.005.027-.014-.163-.08-.23-.19-.204-.325h0zm-2.17-1.023a2.46 2.46 0 0 0-.286.123c-.2.11-.31.236-.327.382-.018.082 0 .16.055.232l.055.055c.027.027.064.05.11.068.173.1.386.146.64.136.264-.018.496-.086.696-.205.082-.036.146-.082.19-.136-.136-.082-.19-.19-.164-.327a.39.39 0 0 1 .095-.205c-.045-.027-.095-.05-.15-.068l-.273.04c-.246.01-.445-.023-.6-.095l-.042-.001zm-1.827.068l.082.055a.45.45 0 0 0 .068.054c.173.1.39.14.655.123.255-.01.482-.068.682-.177.11-.064.186-.132.232-.205-.1-.082-.14-.182-.123-.3a.59.59 0 0 1 .055-.15.72.72 0 0 1-.109-.068c-.136.046-.282.068-.436.068-.264.018-.477-.023-.64-.123h-.027l-.177.096-.082.055c-.146.1-.227.21-.245.327-.012.1.01.172.066.245h0zm-8.375 7.338c-.01-.018-.018-.032-.027-.04-.045.045-.105.086-.177.123-.2.1-.427.164-.682.19-.264 0-.482-.046-.655-.136-.055-.027-.095-.06-.123-.095l-.014.014c-.082.082-.127.168-.136.26-.027.127.036.24.19.34.01.01.018.014.027.014.01.01.018.014.027.014.164.082.373.118.627.11.173-.018.336-.055.49-.11h.027c-.055-.073-.073-.15-.055-.232.018-.146.127-.273.327-.382l.152-.07zm2.878-.723a.52.52 0 0 0 .068.055c.173.09.39.127.655.11.218 0 .414-.04.586-.123.01-.01.018-.014.027-.014a.35.35 0 0 1 .082-.041.85.85 0 0 0 .136-.109c-.1-.082-.14-.182-.123-.3.018-.1.073-.19.164-.273-.018-.018-.045-.036-.082-.054l-.027-.027a2.13 2.13 0 0 1-.505.109c-.246.01-.45-.027-.614-.11-.01 0-.023.005-.04.014-.055.018-.105.04-.15.068-.2.118-.305.246-.314.382-.018.082-.005.155.04.218l.097.095zm-1.364-.723c-.01 0-.018-.005-.027-.014-.127.036-.273.06-.437.068-.245.018-.45-.018-.614-.11-.036.018-.068.032-.096.04-.055.018-.11.04-.164.068-.2.118-.31.25-.327.396-.018.11.023.205.123.286.035-.01.062-.018.082-.027a.72.72 0 0 0-.068.041l.082.055c.173.09.39.127.655.11.255 0 .482-.06.682-.177a.37.37 0 0 0 .123-.082l.055-.027c-.155-.1-.218-.218-.19-.355a.38.38 0 0 1 .136-.246v-.014l-.014-.013zm-7.83 3.764l-.027.027c-.082.073-.127.16-.136.26-.027.136.036.25.19.34.01.01.018.014.027.014.01.01.018.014.027.014.164.082.373.114.627.095.173 0 .336-.027.49-.082.01-.01.027-.018.055-.027-.1-.082-.146-.182-.136-.3.027-.136.14-.264.34-.382l.123-.054-.027-.027a.85.85 0 0 1-.15.095 1.65 1.65 0 0 1-.682.191c-.264.01-.482-.032-.655-.123-.02-.018-.04-.03-.07-.04h0zm12.89-7.406c-.01-.018-.018-.032-.027-.04-.018-.01-.036-.014-.055-.014-.118.027-.236.04-.355.04-.245.018-.45-.014-.614-.096-.027.01-.05.018-.068.027a1.51 1.51 0 0 0-.245.095c-.2.118-.31.245-.327.382-.027.118.014.218.123.3a.09.09 0 0 0 .041.041l.055.027c.164.09.377.132.64.123s.496-.073.696-.19c.064-.036.118-.073.164-.11l.027-.027c-.136-.09-.19-.2-.164-.327-.001-.1.036-.167.108-.23h0zm2.8-.04c0-.01-.01-.018-.027-.027-.127.045-.273.073-.436.082-.246.01-.45-.027-.614-.11-.01 0-.018.005-.027.014a2.18 2.18 0 0 0-.218.095c-.2.11-.31.236-.327.382a.41.41 0 0 0 .041.232c.018 0 .032.014.04.04.036.027.077.054.123.082.173.1.39.14.655.123.255-.01.482-.068.682-.177a.91.91 0 0 0 .164-.123h.014c-.146-.1-.21-.218-.19-.355.018-.09.068-.177.15-.26-.012-.001-.02-.001-.03-.001z" fill="#fff"/><use xlink:href="#J" class="D"/><path d="M169.23 77.18l1.282-.45.41-.136 1.46-.56c.073-.036.15-.064.232-.082l1.773-.736 1.16-.532.41-.177c-.064-.018-.123-.045-.177-.082-.027-.01-.05-.018-.068-.027l-.055-.027c-.087-.105-.114-.196-.096-.287 0-.027.005-.055.014-.082l-.805.368-.805.355c-.01.01-.014.023-.014.04-.027.136.032.25.177.34-.027.01-.06.023-.095.04a2.44 2.44 0 0 1-.382.054c-.246.01-.45-.023-.614-.095l-.586.232-1.105.41-.055.027h-.027l-.027.014c-.027.01-.05.018-.068.027l-.477.164-1.023.368-1.228.423a1.73 1.73 0 0 0 .518.068c.218-.018.418-.068.6-.15-.2.118-.31.245-.327.382-.007.035-.007.07.002.108h0zm.614-.6a1.37 1.37 0 0 0-.205.068l.15-.11c.01.018.027.032.055.04z" class="E"/><use xlink:href="#K" class="F"/><use xlink:href="#L" class="G"/><use xlink:href="#M" class="H"/><use xlink:href="#N" class="I"/><path d="M162.575 78.31a1.07 1.07 0 0 1-.314-.095c.045-.036.09-.068.136-.096-.055.027-.11.05-.164.068-.145-.09-.21-.205-.19-.34.01-.036.023-.068.04-.095-.3.218-.432.355-.396.41s.11.095.218.123a1.74 1.74 0 0 0 .259.041l.41-.014z" class="J"/><use xlink:href="#O" class="K"/><path d="M162.37 75.433c.146-.01.282-.036.41-.082.036.01.068.023.095.04 0-.01.005-.018.014-.027a.68.68 0 0 1-.068-.041c-.045-.036-.077-.068-.096-.095l-.354.204zm1.364-.777h.123a1.27 1.27 0 0 0 .491-.096c-.055-.055-.077-.123-.068-.205l-.546.3zm1.937.627c-.073.073-.118.15-.136.232 0 .064.01.123.027.177l.464-.245a1.56 1.56 0 0 1-.246-.095l-.11-.07zm.273-1.405c.036.01.064.023.082.04a.55.55 0 0 0-.068.205c-.027.11.014.204.123.286-.055.073-.136.14-.246.205a1.79 1.79 0 0 1-.682.177c-.264.018-.482-.018-.655-.11-.027-.018-.055-.04-.082-.068a.52.52 0 0 0-.068-.055v.014c.027.01.05.027.068.055-.036.055-.06.114-.068.177-.018.118.027.223.136.314-.01 0-.018.005-.027.014.036.027.064.055.082.082.027-.01.05-.018.068-.027.164.073.364.11.6.11l.368-.055c.01 0 .023.005.04.014l.055.027a.52.52 0 0 1-.055-.068c-.045-.064-.064-.136-.055-.218.027-.145.14-.273.34-.382.09-.046.182-.082.273-.11.01-.01.018-.014.027-.014.164.073.368.105.614.096.127-.01.25-.027.368-.055.018 0 .032.005.04.014a.09.09 0 0 1 .041.041c-.073.073-.11.15-.11.232v.014l.382-.205c-.082-.027-.16-.06-.232-.095h-.027c-.01-.01-.023-.018-.04-.027-.136-.09-.195-.2-.177-.327.027-.146.14-.273.34-.382a1.09 1.09 0 0 1 .232-.109c.027-.01.055-.014.082-.014-.018-.01-.032-.018-.04-.027-.036-.018-.068-.036-.095-.055a.09.09 0 0 1-.041.041c-.045.046-.114.095-.205.15a1.65 1.65 0 0 1-.682.191c-.227.01-.423-.023-.586-.095-.018-.01-.04-.018-.068-.027-.155-.09-.227-.2-.218-.327l-.723.41c.118.027.255.036.41.027.172-.012.332-.04.477-.085z" class="L"/><use xlink:href="#P" class="M"/><use xlink:href="#Q" class="N"/><use xlink:href="#R" class="O"/><path d="M159.943 77.48c-.01 0-.028-.01-.055-.027-.01 0-.018-.005-.027-.014a.09.09 0 0 1-.041-.041h-.014c-.1-.073-.146-.155-.136-.245l-.818.627-.45.437a1.41 1.41 0 0 0 .545.068 1.46 1.46 0 0 0 .355-.068l.055.027c.018.01.03.018.04.027a.18.18 0 0 1-.041-.068c-.055-.064-.073-.136-.055-.218.018-.136.127-.264.327-.382.082-.046.173-.086.273-.123h.04zm-6.097.955c-.91.118-2.19.355-3.846.71h.014c2.964.736 5.06 1.018 6.288.846a2.21 2.21 0 0 0 .627-.177c-.31.227-.464.596-.464 1.105v.232c.036.39.146.855.327 1.39.018.027.027.055.027.082.01.01.014.018.014.027l.505 1.214.027.055c.455-.455.846-.914 1.173-1.378l.15-.218c.09-.127.173-.255.245-.382l.123-.218c.318-.6.49-1.146.518-1.637V80a.7.7 0 0 0-.014-.136 1.12 1.12 0 0 1-.409-.123c-.173-.09-.245-.21-.218-.355.027-.136.14-.264.34-.382a.74.74 0 0 1 .246-.096c.164.073.373.105.627.096.146-.01.286-.036.423-.082.01.01.018.014.027.014l.027.027c-.082.073-.132.155-.15.245-.01.11.027.205.11.286l1.255-.218 1.35-.3c.045-.018.095-.032.15-.04.045-.018.082-.027.11-.027l.082-.027 1.364-.355.71-.205 1.01-.3.777-.232.26-.096.914-.286c-.11-.018-.205-.05-.286-.095-.01-.018-.023-.027-.04-.027-.01-.01-.023-.018-.04-.027-.11-.082-.15-.182-.123-.3v-.054l-1.432.477c-.01.01-.023.018-.04.027l-1.678.49-.927.232-.273.055-.164.027c-.027 0-.06.005-.095.014l-.887.095-.41.014a1.74 1.74 0 0 1-.259-.041c-.11-.027-.182-.068-.218-.123s.096-.19.396-.41l.56-.382.71-.423c.21-.136.446-.273.71-.41l.64-.368c-.21-.01-.382-.05-.518-.123-.018-.01-.032-.014-.04-.014-.018-.018-.036-.032-.055-.04a.2.2 0 0 0-.068.014c-.118.027-.24.045-.368.055-.245.01-.445-.023-.6-.096-.018-.01-.032-.018-.04-.027a.21.21 0 0 1-.096-.054c-.045.073-.127.136-.245.19a1.65 1.65 0 0 1-.682.191c-.264.01-.482-.032-.655-.123l-.068-.04h-.014l-1.268.832c.118.027.255.036.41.027.255-.01.482-.073.682-.19a.52.52 0 0 0 .191-.136c.027 0 .05.01.068.027.018 0 .032.005.04.014.018 0 .04-.005.068-.014a1.33 1.33 0 0 0 .6.095l.368-.04h.055l.04.04c-.073.073-.118.15-.136.232-.018.127.04.24.177.34-.01.01-.023.018-.04.027a.51.51 0 0 1-.164.109c-.2.11-.427.168-.682.177-.246.01-.45-.023-.614-.096l-.027-.027c-.01-.01-.023-.014-.04-.014-.018.01-.04.014-.068.014l.055.027c.01.01.023.018.04.027-.073.073-.118.155-.136.246-.018.127.04.232.177.314v.014c-.055.045-.123.09-.204.136-.2.118-.427.177-.682.177-.255.018-.468-.018-.64-.11a1.46 1.46 0 0 1-.123-.082c-.073.073-.114.155-.123.245-.018.127.04.236.177.327a1.61 1.61 0 0 1-.205.15c-.2.11-.427.168-.682.177-.273.01-.49-.032-.655-.123-.173-.1-.245-.218-.218-.355.01-.082.05-.16.123-.232l-.177-.027a7.16 7.16 0 0 0-.955-.109h-.123a2.37 2.37 0 0 0-.259-.014 14.65 14.65 0 0 0-2.453.125z" class="P"/><use xlink:href="#S" class="Q"/><path d="M183.47 69.937c-.127.045-.268.073-.423.082-.227.01-.418-.023-.573-.095-.018-.01-.04-.018-.068-.027l-.055-.027c-.036-.018-.064-.04-.082-.068l-.245.177-1.064.777-.314.232-.327.245-.41.3-.71.477-.327.218-.396.232-.64.382-.79.423-.737.382c.155.055.332.077.532.068.155-.01.29-.027.41-.055.027.01.045.023.055.04a.57.57 0 0 0-.136.205l.382-.205 1.118-.586.286-.164a.35.35 0 0 1-.082-.041l-.055-.027h-.014l-.055-.055c-.082-.082-.114-.173-.095-.273.01-.036.014-.068.014-.095.055-.1.16-.196.314-.286.09-.045.186-.086.286-.123.01.01.023.018.04.027.164.09.382.132.655.123.127 0 .25-.018.368-.055l.04-.04c-.127-.09-.182-.2-.164-.327.027-.136.14-.26.34-.368a1.89 1.89 0 0 1 .232-.123h.04c.018 0 .032.005.04.014.146.09.336.132.573.123l.382-.26.737-.518.818-.627.096-.083zm1.337-1.46c.036-.082.06-.16.068-.232.01-.082.01-.15 0-.204v-.014l-.573.355-.014.014-.464.3-.682.477h.164c.182-.01.346-.04.49-.095.018.01.032.018.04.027l.082.04c-.09.09-.145.186-.164.286-.01.082.01.155.055.218.155-.127.286-.25.396-.368a1.02 1.02 0 0 1 .082-.096c.245-.263.418-.5.518-.71z" class="R"/><use xlink:href="#T" class="S"/><path d="M180.128 65.736l-.764.9-.355.436-.45.56c-.027.036-.064.073-.11.11a2.05 2.05 0 0 1-.177.205c-.246.255-.55.532-.914.832l-.368.286-.518.382-.79.546-.682.45-.518.314h.164a1.6 1.6 0 0 0 .355-.041c.018 0 .036.005.055.014l.04.04c-.082.073-.123.15-.123.232-.027.127.027.236.164.327l-.04.04c.018 0 .027.005.027.014.018 0 .027.005.027.014l-.19.082c-.2.11-.31.236-.327.382-.018.136.045.25.19.34-.027.01-.045.018-.055.027a2.21 2.21 0 0 1-.436.068c-.255.018-.464-.018-.627-.11 0-.01-.01-.014-.027-.014-.01-.01-.023-.018-.04-.027-.136-.09-.19-.2-.164-.327 0-.082.036-.16.11-.232.018-.018.036-.032.055-.04l-.068-.04c-.055-.027-.096-.064-.123-.11l-.327.19-1.16.668c.01 0 .018.01.027.027-.055.054-.09.114-.11.177-.01.027-.014.05-.014.068-.027.118.027.227.164.327a.36.36 0 0 1-.055.041l-.136.095c-.2.11-.427.168-.682.177-.264.018-.482-.018-.655-.11l-.19.11-1.146.6-.19.096-.327.177c-.01.11.05.205.177.286-.01.018-.023.027-.04.027l-.15.123a1.82 1.82 0 0 1-.696.177c-.145.01-.277 0-.396-.027l-.382.205h-.014l-1.118.614c.118.018.255.027.41.027a1.54 1.54 0 0 0 .695-.177c.073-.046.132-.096.177-.15l.055.054h.027c.164.082.373.114.627.096a1.26 1.26 0 0 0 .423-.068c.01 0 .023.005.04.014l.014.014c-.082.082-.132.168-.15.26-.018.136.045.25.19.34-.045.045-.105.086-.177.123a1.27 1.27 0 0 1-.682.177c-.264.018-.477-.023-.64-.123l-.15-.082c0-.018-.005-.027-.014-.027h-.04a1.49 1.49 0 0 1-.423.082c-.245 0-.45-.04-.614-.123h-.027c-.018-.018-.036-.027-.055-.027-.073-.046-.123-.1-.15-.164l-.86.477-.64.368-.71.41-.71.423c.173.073.373.105.6.096a1.38 1.38 0 0 0 .436-.068c.01 0 .018.005.027.014s.018.014.027.014c-.082.082-.132.168-.15.26-.027.136.036.25.19.34-.01.01-.023.018-.04.027a.55.55 0 0 1-.136.096.96.96 0 0 1-.136.068c.036-.01.068-.014.095-.014l.164-.027.273-.055.927-.232 1.678-.49c.018-.01.032-.018.04-.027l1.8-.6 1.228-.423 1.023-.368.477-.164c.018-.01.04-.018.068-.027l.027-.014h.027l.055-.027-.055-.027c-.1-.082-.14-.182-.123-.3.018-.1.077-.19.177-.273a.68.68 0 0 1 .068.041c.173.09.39.136.655.136a1.91 1.91 0 0 0 .573-.136c-.073.046-.136.095-.19.15l.586-.232.927-.382.805-.355.805-.368.736-.355.737-.382.79-.423.64-.382.396-.232.327-.218.71-.477.41-.3.327-.245.314-.232 1.064-.777.245-.177.873-.627.682-.477.464-.3.014-.014.573-.355c-.045-.19-.195-.336-.45-.436h-.028l-.027.027a.35.35 0 0 0-.082.041l-.15.054c.01.01.018.014.027.014l.014.014a.55.55 0 0 0-.136.259c-.027.136.04.245.205.327-.01.01-.018.014-.027.014a.78.78 0 0 1-.164.123c-.2.11-.432.173-.695.19-.255 0-.468-.045-.64-.136-.055-.027-.1-.06-.136-.095-.01 0-.018-.01-.027-.027-.045-.064-.064-.136-.055-.218.018-.155.127-.286.327-.396a1.94 1.94 0 0 1 .232-.096h.027l-.027-.027c-.018 0-.036-.01-.055-.027-.045.054-.11.1-.19.136-.2.118-.432.186-.696.205-.255.01-.468-.036-.64-.136-.046-.018-.082-.04-.11-.068l-.055-.055c-.055-.073-.073-.15-.055-.232.018-.146.127-.273.327-.382.09-.046.186-.086.286-.123h.04c.155.073.355.105.6.095l.273-.04c-.41-.173-.773-.368-1.09-.587a.63.63 0 0 0-.055.15c-.018.118.023.218.123.3-.045.073-.123.14-.232.205-.2.11-.427.168-.682.177-.264.018-.482-.023-.655-.123a.45.45 0 0 1-.068-.054l-.082-.055c-.055-.073-.077-.155-.068-.245.018-.118.1-.227.245-.327l.082-.055.177-.096h.027c.164.1.377.14.64.123a1.38 1.38 0 0 0 .436-.068 3.78 3.78 0 0 1-.682-.627l-.19-.218-.027-.027a1.69 1.69 0 0 0-.164-.191c-.06.043-.2.184-.39.42h0zm.9 3.49c.018.01.027.018.027.027h.027c-.082.082-.132.168-.15.26-.018.136.045.255.19.355h-.014c-.036.036-.09.077-.164.123-.2.11-.427.168-.682.177-.264.018-.482-.023-.655-.123l-.123-.082c-.01-.027-.023-.04-.04-.04a.41.41 0 0 1-.041-.232c.018-.146.127-.273.327-.382l.218-.095c.01-.01.018-.014.027-.014.164.082.368.118.614.11.166-.008.31-.035.44-.08h0zm-2.8.028c.01.01.018.023.027.04-.073.064-.11.14-.11.232-.027.127.027.236.164.327l-.027.027c-.046.036-.1.073-.164.11-.2.118-.432.182-.696.19s-.477-.032-.64-.123l-.055-.027a.09.09 0 0 1-.041-.041c-.11-.082-.15-.182-.123-.3.018-.136.127-.264.327-.382.073-.036.155-.068.245-.095.018-.01.04-.018.068-.027.164.082.368.114.614.096a1.6 1.6 0 0 0 .355-.041c.02-.001.038.003.056.013h0zm-12.89 7.474l.027-.027c.027.01.05.023.068.04.173.09.39.132.655.123a1.65 1.65 0 0 0 .682-.191.85.85 0 0 0 .15-.095l.027.027c-.036.018-.077.036-.123.054-.2.118-.314.245-.34.382-.01.118.036.218.136.3-.027.01-.046.018-.055.027-.155.055-.318.082-.49.082-.255.018-.464-.014-.627-.095-.01 0-.018-.005-.027-.014-.01 0-.018-.005-.027-.014-.155-.09-.218-.205-.19-.34.01-.1.055-.187.137-.26h0zm7.83-3.806c.01.01.018.014.027.014l.014.028c-.082.073-.127.155-.136.246-.027.136.036.255.19.355l-.055.027a.36.36 0 0 1-.123.082c-.2.118-.427.177-.682.177-.264.018-.482-.018-.655-.11l-.082-.055.068-.04c-.02.01-.047.02-.082.027-.1-.082-.14-.177-.123-.286.018-.145.127-.277.327-.396.055-.027.11-.05.164-.068a.83.83 0 0 0 .096-.041c.164.09.368.127.614.11.164-.01.3-.032.437-.07h0zm1.46.792c-.027-.018-.05-.036-.068-.055l-.096-.095c-.045-.064-.06-.136-.04-.218.01-.136.114-.264.314-.382.045-.027.095-.05.15-.068.018-.01.032-.014.04-.014.164.082.368.118.614.11a2.18 2.18 0 0 0 .505-.109l.027.027c.036.018.064.036.082.054-.09.082-.145.173-.164.273-.018.118.023.218.123.3a.9.9 0 0 1-.136.109.35.35 0 0 0-.082.041c-.01 0-.018.005-.027.014a1.35 1.35 0 0 1-.586.123c-.265.018-.483-.02-.656-.11h0zm-2.973.627c.01.01.018.023.027.04l-.15.068c-.2.11-.31.236-.327.382-.018.082 0 .16.055.232h-.027c-.155.055-.318.09-.49.11-.255.01-.464-.027-.627-.11-.01 0-.018-.005-.027-.014-.01 0-.018-.005-.027-.014-.155-.1-.218-.214-.19-.34a.43.43 0 0 1 .136-.259l.014-.014c.027.036.068.068.123.095.173.09.39.136.655.136.255-.027.482-.09.682-.19a.66.66 0 0 0 .175-.121z" class="T"/><path d="M179.6 64.113c-.01-.018-.018-.032-.027-.04-.064-.1-.214-.096-.45.014l-.055.027c-.282.136-.687.414-1.214.832l-.232.177-.805.668-.805.723c-.01.01-.023.018-.04.027l-.327.314-.682.6-.49.396c-.01.01-.018.014-.027.014-.036.036-.073.068-.11.095l-.355.286-.668.505-.886.64-.014.014-1.268.873c.136.045.3.064.49.055a1.65 1.65 0 0 0 .682-.191l.19-.123c.018 0 .036.01.055.027l-.136.054c-.2.118-.31.245-.327.382-.027.146.04.264.205.355-.018.018-.036.027-.055.027a1.58 1.58 0 0 1-.477.095c-.264.01-.477-.032-.64-.123a.35.35 0 0 0-.082-.041l-.014-.014c-.118-.082-.16-.182-.123-.3v-.055l-1.105.71-.45.286-.682.423-.437.26-.355.205v.014l-.123.055-.177.11-1.064.614c.127.027.273.04.437.04.173-.01.332-.04.477-.095.036.018.068.04.095.068V73.1c.018.018.046.032.082.04.164.1.373.14.627.123.264 0 .496-.06.696-.177.11-.064.19-.127.245-.19a1.02 1.02 0 0 1 .096.082 2.54 2.54 0 0 0-.286.123c-.2.11-.305.236-.314.382-.018.082-.005.155.04.218h-.04c.018.018.032.027.04.027.018.01.032.018.04.027-.068.078-.11.155-.11.246 0 .01-.004.023-.014.04l.327-.177c.064-.027.127-.06.19-.096l1.146-.6.19-.11 1.078-.6.382-.205 1.16-.668.327-.19 1.037-.64.518-.314.682-.45.79-.546.518-.382.368-.286.914-.832a1.82 1.82 0 0 0 .177-.205c.045-.036.082-.073.11-.11l.45-.56.355-.436.764-.9c.2-.236.332-.377.396-.423l-.477-.6-.437-.6zm-3.49 3.068h.04c.164.082.368.114.614.096.136 0 .264-.023.382-.068.018.01.032.018.04.027a.35.35 0 0 0 .082.041c-.055.073-.086.14-.096.205-.018.127.027.236.136.327h.014c-.064.055-.146.114-.246.177-.2.11-.427.168-.682.177-.264.01-.477-.032-.64-.123-.036-.018-.068-.036-.095-.055-.027-.027-.05-.06-.068-.095-.064-.055-.082-.123-.055-.205.01-.145.114-.273.314-.382a2.58 2.58 0 0 1 .259-.122h0zm-.75 2.155c.036.018.064.036.082.054-.036.064-.064.127-.082.19-.01.127.036.232.136.314-.055.064-.136.123-.245.177-.2.118-.427.182-.682.19-.264.01-.477-.032-.64-.123l-.082-.04h-.014l-.055-.054c-.073-.082-.095-.168-.068-.26.01-.146.114-.273.314-.382l.177-.068.027-.014c.164.09.382.132.655.123.174-.01.333-.045.478-.11z" class="U"/><path d="M150.014 81.898H150c3.1.773 5.265 1.04 6.465.805v.764a2.7 2.7 0 0 0 0 .382c.046.7.346 1.64.9 2.823v-2.755l-.027-.055-.505-1.214c0-.01-.005-.018-.014-.027 0-.027-.01-.054-.027-.082-.182-.537-.29-1-.327-1.39v-.232c0-.51.155-.878.464-1.105a2.22 2.22 0 0 1-.627.177c-1.228.173-3.323-.11-6.288-.846v2.756z" class="V"/><use xlink:href="#H" x="-78" y="-2" class="B"/><use xlink:href="#I" x="-78" y="-2" class="C"/><path d="M90.44 73.228c-.127.046-.268.068-.423.068-.255.018-.464-.014-.627-.096h-.027c-.082.027-.155.06-.218.096-.2.118-.314.245-.34.382 0 .09.023.173.068.245.01 0 .014.01.014.027l.15.082c.164.1.377.14.64.123a1.27 1.27 0 0 0 .682-.177c.073-.036.132-.077.177-.123-.146-.09-.21-.205-.19-.34.018-.09.068-.177.15-.26l-.014-.014c-.018-.008-.032-.013-.04-.013h0zm2.973-.04l-.068-.04c-.1.082-.16.173-.177.273-.018.118.023.218.123.3l.055.027 1.105-.41c.054-.055.118-.104.19-.15a1.88 1.88 0 0 1-.573.136c-.265 0-.483-.046-.656-.136h0zm2.17-3.6c-.073.073-.11.15-.11.232-.027.127.027.236.164.327.018.01.032.018.04.027.018 0 .027.005.027.014.164.09.373.127.627.11.155-.01.3-.032.436-.068.01-.01.027-.018.055-.027-.145-.09-.21-.205-.19-.34.018-.146.127-.273.327-.382l.19-.082c0-.01-.01-.014-.027-.014 0-.01-.01-.014-.027-.014-.036.036-.086.068-.15.095-.2.118-.432.182-.696.19-.246.01-.45-.027-.614-.11-.018.01-.036.024-.054.042h0zM106.043 66c.018-.09.064-.177.136-.26l-.014-.014c-.01 0-.018-.005-.027-.014a2.17 2.17 0 0 1-.423.068c-.255.018-.464-.014-.627-.096h-.027a1.66 1.66 0 0 0-.232.096c-.2.11-.31.24-.327.396-.01.082.01.155.055.218.01.018.018.027.027.027a.52.52 0 0 0 .136.095c.173.09.386.136.64.136a1.67 1.67 0 0 0 .695-.191.75.75 0 0 0 .164-.123c.01 0 .018-.005.027-.014-.163-.08-.23-.19-.204-.325h0zm-2.17-1.023a2.46 2.46 0 0 0-.286.123c-.2.11-.31.236-.327.382-.018.082 0 .16.055.232l.055.055c.027.027.064.05.11.068.173.1.386.146.64.136.264-.018.496-.086.696-.205.082-.036.146-.082.19-.136-.136-.082-.19-.19-.164-.327a.39.39 0 0 1 .095-.205c-.045-.027-.095-.05-.15-.068l-.273.04c-.246.01-.445-.023-.6-.095l-.042-.001zm-1.827.068l.082.055a.45.45 0 0 0 .068.054c.173.1.39.14.655.123.255-.01.482-.068.682-.177.11-.064.186-.132.232-.205-.1-.082-.14-.182-.123-.3a.59.59 0 0 1 .055-.15.72.72 0 0 1-.109-.068c-.136.046-.282.068-.436.068-.264.018-.477-.023-.64-.123h-.027l-.177.096-.082.055c-.146.1-.227.21-.245.327-.012.1.01.172.066.245h0zm-8.375 7.338c-.01-.018-.018-.032-.027-.04-.045.045-.105.086-.177.123-.2.1-.427.164-.682.19-.264 0-.482-.046-.655-.136-.055-.027-.095-.06-.123-.095l-.014.014c-.082.082-.127.168-.136.26-.027.127.036.24.19.34.01.01.018.014.027.014.01.01.018.014.027.014.164.082.373.118.627.11.173-.018.336-.055.49-.11h.027c-.055-.073-.073-.15-.055-.232.018-.146.127-.273.327-.382l.152-.07zm2.878-.723a.52.52 0 0 0 .068.055c.173.09.39.127.655.11.218 0 .414-.04.586-.123.01-.01.018-.014.027-.014a.35.35 0 0 1 .082-.041.85.85 0 0 0 .136-.109c-.1-.082-.14-.182-.123-.3.018-.1.073-.19.164-.273-.018-.018-.045-.036-.082-.054l-.027-.027a2.13 2.13 0 0 1-.505.109c-.246.01-.45-.027-.614-.11-.01 0-.023.005-.04.014-.055.018-.105.04-.15.068-.2.118-.305.246-.314.382-.018.082-.005.155.04.218l.097.095zm-1.364-.723c-.01 0-.018-.005-.027-.014-.127.036-.273.06-.437.068-.245.018-.45-.018-.614-.11-.036.018-.068.032-.096.04-.055.018-.11.04-.164.068-.2.118-.31.25-.327.396-.018.11.023.205.123.286.035-.01.062-.018.082-.027a.72.72 0 0 0-.068.041l.082.055c.173.09.39.127.655.11.255 0 .482-.06.682-.177a.37.37 0 0 0 .123-.082l.055-.027c-.155-.1-.218-.218-.19-.355a.38.38 0 0 1 .136-.246v-.014l-.014-.013zm-7.83 3.764l-.027.027c-.082.073-.127.16-.136.26-.027.136.036.25.19.34.01.01.018.014.027.014.01.01.018.014.027.014.164.082.373.114.627.095.173 0 .336-.027.49-.082.01-.01.027-.018.055-.027-.1-.082-.146-.182-.136-.3.027-.136.14-.264.34-.382l.123-.054-.027-.027a.85.85 0 0 1-.15.095 1.65 1.65 0 0 1-.682.191c-.264.01-.482-.032-.655-.123-.02-.018-.04-.03-.07-.04h0zm12.89-7.406c-.01-.018-.018-.032-.027-.04-.018-.01-.036-.014-.055-.014-.118.027-.236.04-.355.04-.245.018-.45-.014-.614-.096-.027.01-.05.018-.068.027a1.51 1.51 0 0 0-.245.095c-.2.118-.31.245-.327.382-.027.118.014.218.123.3a.09.09 0 0 0 .041.041l.055.027c.164.09.377.132.64.123s.496-.073.696-.19c.064-.036.118-.073.164-.11l.027-.027c-.136-.09-.19-.2-.164-.327-.001-.1.036-.167.108-.23h0zm2.8-.04c0-.01-.01-.018-.027-.027-.127.045-.273.073-.436.082-.246.01-.45-.027-.614-.11-.01 0-.018.005-.027.014a2.18 2.18 0 0 0-.218.095c-.2.11-.31.236-.327.382a.41.41 0 0 0 .041.232c.018 0 .032.014.04.04.036.027.077.054.123.082.173.1.39.14.655.123.255-.01.482-.068.682-.177a.91.91 0 0 0 .164-.123h.014c-.146-.1-.21-.218-.19-.355.018-.09.068-.177.15-.26-.012-.001-.02-.001-.03-.001z" fill="#fff"/><use xlink:href="#J" x="-78" y="-2" class="D"/><path d="M91.23 75.18l1.282-.45.41-.136 1.46-.56c.073-.036.15-.064.232-.082l1.773-.736 1.16-.532.41-.177c-.064-.018-.123-.045-.177-.082-.027-.01-.05-.018-.068-.027l-.055-.027c-.087-.105-.114-.196-.096-.287 0-.027.005-.055.014-.082l-.805.368-.805.355c-.01.01-.014.023-.014.04-.027.136.032.25.177.34-.027.01-.06.023-.095.04a2.44 2.44 0 0 1-.382.054c-.246.01-.45-.023-.614-.095l-.586.232-1.105.41-.055.027h-.027l-.027.014c-.027.01-.05.018-.068.027l-.477.164-1.023.368-1.228.423a1.73 1.73 0 0 0 .518.068c.218-.018.418-.068.6-.15-.2.118-.31.245-.327.382-.007.035-.007.07.002.108h0zm.614-.6a1.37 1.37 0 0 0-.205.068l.15-.11c.01.018.027.032.055.04z" class="E"/><use xlink:href="#K" x="-78" y="-2" class="F"/><use xlink:href="#L" x="-78" y="-2" class="G"/><use xlink:href="#M" x="-78" y="-2" class="H"/><path d="M94.11 68.482c.018-.136.127-.264.327-.382l.136-.054c-.018-.018-.036-.027-.055-.027l-.19.123a1.65 1.65 0 0 1-.682.191c-.19.01-.355-.01-.49-.055l-.232.15v.055c-.036.118.004.218.123.3l.014.014a.35.35 0 0 1 .082.041c.164.09.377.132.64.123.173-.01.332-.04.477-.095.018 0 .036-.01.055-.027-.163-.093-.232-.21-.204-.357h0zm-7.76 4.092v-.014a1.27 1.27 0 0 1-.491.096h-.123l-1.01.573a.45.45 0 0 0 .096.095l.068.04h.014c.164.09.377.132.64.123s.49-.068.682-.177c.1-.054.177-.114.232-.177.01-.01.018-.014.027-.014-.11-.09-.155-.195-.136-.314a.42.42 0 0 1 .068-.177c-.02-.028-.04-.046-.07-.055h0zm-4.364 2.36l-.314.218c-.01.09.036.173.136.245h.014a.09.09 0 0 0 .041.041c.01.01.018.014.027.014.027.018.045.027.055.027.164.082.364.114.6.095a1.17 1.17 0 0 0 .368-.054c.027 0 .05-.005.068-.014-.136-.09-.195-.205-.177-.34.018-.146.127-.273.327-.382.082-.045.164-.082.245-.11-.01-.01-.023-.014-.04-.014-.018-.018-.04-.027-.068-.027a.51.51 0 0 1-.191.136c-.2.118-.427.182-.682.19-.154.01-.3.002-.408-.026h0zM97.45 67.39c-.018-.018-.045-.036-.082-.054a1.35 1.35 0 0 1-.477.109c-.273.01-.49-.032-.655-.123l-.027.014c-.055.018-.114.04-.177.068-.2.11-.305.236-.314.382-.027.09-.005.177.068.26l.055.054h.014l.082.04c.164.09.377.132.64.123.255-.01.482-.073.682-.19.11-.055.19-.114.245-.177a.35.35 0 0 1-.136-.314.87.87 0 0 1 .081-.191h0zm.7-2.2h-.04c-.09.036-.177.077-.26.123-.2.11-.305.236-.314.382-.027.082-.01.15.055.205.018.036.04.068.068.095a1.1 1.1 0 0 0 .095.055c.164.09.377.132.64.123.255-.01.482-.068.682-.177.1-.064.182-.123.246-.177h-.014c-.11-.09-.155-.2-.136-.327.01-.064.04-.132.096-.205a.35.35 0 0 1-.082-.041c-.01-.01-.023-.018-.04-.027a1.06 1.06 0 0 1-.382.068c-.246.017-.45-.015-.614-.097z" class="I"/><path d="M84.575 76.31a1.07 1.07 0 0 1-.314-.095c.045-.036.09-.068.136-.096-.055.027-.11.05-.164.068-.145-.09-.21-.205-.19-.34.01-.036.023-.068.04-.095-.3.218-.432.355-.396.41s.11.095.218.123a1.74 1.74 0 0 0 .259.041l.41-.014z" class="J"/><use xlink:href="#O" x="-78" y="-2" class="K"/><path d="M84.37 73.433c.146-.01.282-.036.41-.082.036.01.068.023.095.04 0-.01.005-.018.014-.027a.68.68 0 0 1-.068-.041c-.045-.036-.077-.068-.096-.095l-.354.204zm1.364-.777h.123a1.27 1.27 0 0 0 .491-.096c-.055-.055-.077-.123-.068-.205l-.546.3zm1.937.627c-.073.073-.118.15-.136.232 0 .064.01.123.027.177l.464-.245a1.56 1.56 0 0 1-.246-.095l-.11-.07zm.273-1.405c.036.01.064.023.082.04a.55.55 0 0 0-.068.205c-.027.11.014.204.123.286-.055.073-.136.14-.246.205a1.79 1.79 0 0 1-.682.177c-.264.018-.482-.018-.655-.11-.027-.018-.055-.04-.082-.068a.52.52 0 0 0-.068-.055v.014c.027.01.05.027.068.055-.036.055-.06.114-.068.177-.018.118.027.223.136.314-.01 0-.018.005-.027.014.036.027.064.055.082.082.027-.01.05-.018.068-.027.164.073.364.11.6.11l.368-.055c.01 0 .023.005.04.014l.055.027a.52.52 0 0 1-.055-.068c-.045-.064-.064-.136-.055-.218.027-.145.14-.273.34-.382.09-.046.182-.082.273-.11.01-.01.018-.014.027-.014.164.073.368.105.614.096.127-.01.25-.027.368-.055.018 0 .032.005.04.014a.09.09 0 0 1 .041.041c-.073.073-.11.15-.11.232v.014l.382-.205c-.082-.027-.16-.06-.232-.095h-.027c-.01-.01-.023-.018-.04-.027-.136-.09-.195-.2-.177-.327.027-.146.14-.273.34-.382a1.09 1.09 0 0 1 .232-.109c.027-.01.055-.014.082-.014-.018-.01-.032-.018-.04-.027-.036-.018-.068-.036-.095-.055a.09.09 0 0 1-.041.041c-.045.046-.114.095-.205.15a1.65 1.65 0 0 1-.682.191c-.227.01-.423-.023-.586-.095-.018-.01-.04-.018-.068-.027-.155-.09-.227-.2-.218-.327l-.723.41c.118.027.255.036.41.027.172-.012.332-.04.477-.085z" class="L"/><use xlink:href="#P" x="-78" y="-2" class="M"/><use xlink:href="#Q" x="-78" y="-2" class="N"/><use xlink:href="#R" x="-78" y="-2" class="O"/><path d="M81.943 75.48c-.01 0-.028-.01-.055-.027-.01 0-.018-.005-.027-.014a.09.09 0 0 1-.041-.041h-.014c-.1-.073-.146-.155-.136-.245l-.818.627-.45.437a1.41 1.41 0 0 0 .545.068 1.46 1.46 0 0 0 .355-.068l.055.027c.018.01.03.018.04.027a.18.18 0 0 1-.041-.068c-.055-.064-.073-.136-.055-.218.018-.136.127-.264.327-.382.082-.046.173-.086.273-.123h.04zm-6.097.955c-.91.118-2.19.355-3.846.71h.014c2.964.736 5.06 1.018 6.288.846a2.21 2.21 0 0 0 .627-.177c-.31.227-.464.596-.464 1.105v.232c.036.39.146.855.327 1.39.018.027.027.055.027.082.01.01.014.018.014.027l.505 1.214.027.055c.455-.455.846-.914 1.173-1.378l.15-.218c.09-.127.173-.255.245-.382l.123-.218c.318-.6.49-1.146.518-1.637V78a.7.7 0 0 0-.014-.136 1.12 1.12 0 0 1-.409-.123c-.173-.09-.245-.21-.218-.355.027-.136.14-.264.34-.382a.74.74 0 0 1 .246-.096c.164.073.373.105.627.096.146-.01.286-.036.423-.082.01.01.018.014.027.014l.027.027c-.082.073-.132.155-.15.245-.01.11.027.205.11.286l1.255-.218 1.35-.3c.045-.018.095-.032.15-.04.045-.018.082-.027.11-.027l.082-.027 1.364-.355.71-.205 1.01-.3.777-.232.26-.096.914-.286c-.11-.018-.205-.05-.286-.095-.01-.018-.023-.027-.04-.027-.01-.01-.023-.018-.04-.027-.11-.082-.15-.182-.123-.3v-.054l-1.432.477c-.01.01-.023.018-.04.027l-1.678.49-.927.232-.273.055-.164.027c-.027 0-.06.005-.095.014l-.887.095-.41.014a1.74 1.74 0 0 1-.259-.041c-.11-.027-.182-.068-.218-.123s.096-.19.396-.41l.56-.382.71-.423c.21-.136.446-.273.71-.41l.64-.368c-.21-.01-.382-.05-.518-.123-.018-.01-.032-.014-.04-.014-.018-.018-.036-.032-.055-.04a.2.2 0 0 0-.068.014c-.118.027-.24.045-.368.055-.245.01-.445-.023-.6-.096-.018-.01-.032-.018-.04-.027a.21.21 0 0 1-.096-.054c-.045.073-.127.136-.245.19a1.65 1.65 0 0 1-.682.191c-.264.01-.482-.032-.655-.123l-.068-.04h-.014l-1.268.832c.118.027.255.036.41.027.255-.01.482-.073.682-.19a.52.52 0 0 0 .191-.136c.027 0 .05.01.068.027.018 0 .032.005.04.014.018 0 .04-.005.068-.014a1.33 1.33 0 0 0 .6.095l.368-.04h.055l.04.04c-.073.073-.118.15-.136.232-.018.127.04.24.177.34-.01.01-.023.018-.04.027a.51.51 0 0 1-.164.109c-.2.11-.427.168-.682.177-.246.01-.45-.023-.614-.096l-.027-.027c-.01-.01-.023-.014-.04-.014-.018.01-.04.014-.068.014l.055.027c.01.01.023.018.04.027-.073.073-.118.155-.136.246-.018.127.04.232.177.314v.014c-.055.045-.123.09-.204.136-.2.118-.427.177-.682.177-.255.018-.468-.018-.64-.11a1.46 1.46 0 0 1-.123-.082c-.073.073-.114.155-.123.245-.018.127.04.236.177.327a1.61 1.61 0 0 1-.205.15c-.2.11-.427.168-.682.177-.273.01-.49-.032-.655-.123-.173-.1-.245-.218-.218-.355.01-.082.05-.16.123-.232l-.177-.027a7.16 7.16 0 0 0-.955-.109h-.123a2.37 2.37 0 0 0-.259-.014 14.65 14.65 0 0 0-2.453.125z" class="P"/><use xlink:href="#S" x="-78" y="-2" class="Q"/><path d="M105.47 67.937c-.127.045-.268.073-.423.082-.227.01-.418-.023-.573-.095-.018-.01-.04-.018-.068-.027l-.055-.027c-.036-.018-.064-.04-.082-.068l-.245.177-1.064.777-.314.232-.327.245-.41.3-.71.477-.327.218-.396.232-.64.382-.79.423-.737.382c.155.055.332.077.532.068.155-.01.29-.027.41-.055.027.01.045.023.055.04a.57.57 0 0 0-.136.205l.382-.205 1.118-.586.286-.164a.35.35 0 0 1-.082-.041l-.055-.027h-.014l-.055-.055c-.082-.082-.114-.173-.095-.273.01-.036.014-.068.014-.095.055-.1.16-.196.314-.286.09-.045.186-.086.286-.123.01.01.023.018.04.027.164.09.382.132.655.123.127 0 .25-.018.368-.055l.04-.04c-.127-.09-.182-.2-.164-.327.027-.136.14-.26.34-.368a1.89 1.89 0 0 1 .232-.123h.04c.018 0 .032.005.04.014.146.09.336.132.573.123l.382-.26.737-.518.818-.627.096-.083zm1.337-1.46c.036-.082.06-.16.068-.232.01-.082.01-.15 0-.204v-.014l-.573.355-.014.014-.464.3-.682.477h.164c.182-.01.346-.04.49-.095.018.01.032.018.04.027l.082.04c-.09.09-.145.186-.164.286-.01.082.01.155.055.218.155-.127.286-.25.396-.368a1.02 1.02 0 0 1 .082-.096c.245-.263.418-.5.518-.71z" class="R"/><use xlink:href="#T" x="-78" y="-2" class="S"/><path d="M102.128 63.736l-.764.9-.355.436-.45.56c-.027.036-.064.073-.11.11a2.05 2.05 0 0 1-.177.205c-.246.255-.55.532-.914.832l-.368.286-.518.382-.79.546-.682.45-.518.314h.164a1.6 1.6 0 0 0 .355-.041c.018 0 .036.005.055.014l.04.04c-.082.073-.123.15-.123.232-.027.127.027.236.164.327l-.04.04c.018 0 .027.005.027.014.018 0 .027.005.027.014l-.19.082c-.2.11-.31.236-.327.382-.018.136.045.25.19.34-.027.01-.045.018-.055.027a2.21 2.21 0 0 1-.436.068c-.255.018-.464-.018-.627-.11 0-.01-.01-.014-.027-.014-.01-.01-.023-.018-.04-.027-.136-.09-.19-.2-.164-.327 0-.082.036-.16.11-.232.018-.018.036-.032.055-.04l-.068-.04c-.055-.027-.096-.064-.123-.11l-.327.19-1.16.668c.01 0 .018.01.027.027-.055.054-.09.114-.11.177-.01.027-.014.05-.014.068-.027.118.027.227.164.327a.36.36 0 0 1-.055.041l-.136.095c-.2.11-.427.168-.682.177-.264.018-.482-.018-.655-.11l-.19.11-1.146.6-.19.096-.327.177c-.01.11.05.205.177.286-.01.018-.023.027-.04.027l-.15.123a1.82 1.82 0 0 1-.696.177c-.145.01-.277 0-.396-.027l-.382.205h-.014l-1.118.614c.118.018.255.027.41.027a1.54 1.54 0 0 0 .695-.177c.073-.046.132-.096.177-.15l.055.054h.027c.164.082.373.114.627.096a1.26 1.26 0 0 0 .423-.068c.01 0 .023.005.04.014l.014.014c-.082.082-.132.168-.15.26-.018.136.045.25.19.34-.045.045-.105.086-.177.123a1.27 1.27 0 0 1-.682.177c-.264.018-.477-.023-.64-.123l-.15-.082c0-.018-.005-.027-.014-.027h-.04a1.49 1.49 0 0 1-.423.082c-.245 0-.45-.04-.614-.123h-.027c-.018-.018-.036-.027-.055-.027-.073-.046-.123-.1-.15-.164l-.86.477-.64.368-.71.41-.71.423c.173.073.373.105.6.096a1.38 1.38 0 0 0 .436-.068c.01 0 .018.005.027.014s.018.014.027.014c-.082.082-.132.168-.15.26-.027.136.036.25.19.34-.01.01-.023.018-.04.027a.55.55 0 0 1-.136.096.96.96 0 0 1-.136.068c.036-.01.068-.014.095-.014l.164-.027.273-.055.927-.232 1.678-.49c.018-.01.032-.018.04-.027l1.8-.6 1.228-.423 1.023-.368.477-.164c.018-.01.04-.018.068-.027l.027-.014h.027l.055-.027-.055-.027c-.1-.082-.14-.182-.123-.3.018-.1.077-.19.177-.273a.68.68 0 0 1 .068.041c.173.09.39.136.655.136a1.91 1.91 0 0 0 .573-.136c-.073.046-.136.095-.19.15l.586-.232.927-.382.805-.355.805-.368.736-.355.737-.382.79-.423.64-.382.396-.232.327-.218.71-.477.41-.3.327-.245.314-.232 1.064-.777.245-.177.873-.627.682-.477.464-.3.014-.014.573-.355c-.045-.19-.195-.336-.45-.436h-.028l-.027.027a.35.35 0 0 0-.082.041l-.15.054c.01.01.018.014.027.014l.014.014a.55.55 0 0 0-.136.259c-.027.136.04.245.205.327-.01.01-.018.014-.027.014a.78.78 0 0 1-.164.123c-.2.11-.432.173-.695.19-.255 0-.468-.045-.64-.136-.055-.027-.1-.06-.136-.095-.01 0-.018-.01-.027-.027-.045-.064-.064-.136-.055-.218.018-.155.127-.286.327-.396a1.94 1.94 0 0 1 .232-.096h.027l-.027-.027c-.018 0-.036-.01-.055-.027-.045.054-.11.1-.19.136-.2.118-.432.186-.696.205-.255.01-.468-.036-.64-.136-.046-.018-.082-.04-.11-.068l-.055-.055c-.055-.073-.073-.15-.055-.232.018-.146.127-.273.327-.382.09-.046.186-.086.286-.123h.04c.155.073.355.105.6.095l.273-.04c-.41-.173-.773-.368-1.09-.587a.63.63 0 0 0-.055.15c-.018.118.023.218.123.3-.045.073-.123.14-.232.205-.2.11-.427.168-.682.177-.264.018-.482-.023-.655-.123a.45.45 0 0 1-.068-.054l-.082-.055c-.055-.073-.077-.155-.068-.245.018-.118.1-.227.245-.327l.082-.055.177-.096h.027c.164.1.377.14.64.123a1.38 1.38 0 0 0 .436-.068 3.78 3.78 0 0 1-.682-.627l-.19-.218-.027-.027a1.69 1.69 0 0 0-.164-.191c-.06.043-.2.184-.39.42h0zm.9 3.49c.018.01.027.018.027.027h.027c-.082.082-.132.168-.15.26-.018.136.045.255.19.355h-.014c-.036.036-.09.077-.164.123-.2.11-.427.168-.682.177-.264.018-.482-.023-.655-.123l-.123-.082c-.01-.027-.023-.04-.04-.04a.41.41 0 0 1-.041-.232c.018-.146.127-.273.327-.382l.218-.095c.01-.01.018-.014.027-.014.164.082.368.118.614.11.166-.008.31-.035.44-.08h0zm-2.8.028c.01.01.018.023.027.04-.073.064-.11.14-.11.232-.027.127.027.236.164.327l-.027.027c-.046.036-.1.073-.164.11-.2.118-.432.182-.696.19s-.477-.032-.64-.123l-.055-.027a.09.09 0 0 1-.041-.041c-.11-.082-.15-.182-.123-.3.018-.136.127-.264.327-.382.073-.036.155-.068.245-.095.018-.01.04-.018.068-.027.164.082.368.114.614.096a1.6 1.6 0 0 0 .355-.041c.02-.001.038.003.056.013h0zM87.33 74.73l.027-.027c.027.01.05.023.068.04.173.09.39.132.655.123a1.65 1.65 0 0 0 .682-.191.85.85 0 0 0 .15-.095l.027.027c-.036.018-.077.036-.123.054-.2.118-.314.245-.34.382-.01.118.036.218.136.3-.027.01-.046.018-.055.027-.155.055-.318.082-.49.082-.255.018-.464-.014-.627-.095-.01 0-.018-.005-.027-.014-.01 0-.018-.005-.027-.014-.155-.09-.218-.205-.19-.34.01-.1.055-.187.137-.26h0zm7.83-3.806c.01.01.018.014.027.014l.014.028c-.082.073-.127.155-.136.246-.027.136.036.255.19.355l-.055.027a.36.36 0 0 1-.123.082c-.2.118-.427.177-.682.177-.264.018-.482-.018-.655-.11l-.082-.055.068-.04c-.02.01-.047.02-.082.027-.1-.082-.14-.177-.123-.286.018-.145.127-.277.327-.396.055-.027.11-.05.164-.068a.83.83 0 0 0 .096-.041c.164.09.368.127.614.11.164-.01.3-.032.437-.07h0zm1.46.792c-.027-.018-.05-.036-.068-.055l-.096-.095c-.045-.064-.06-.136-.04-.218.01-.136.114-.264.314-.382.045-.027.095-.05.15-.068.018-.01.032-.014.04-.014.164.082.368.118.614.11a2.18 2.18 0 0 0 .505-.109l.027.027c.036.018.064.036.082.054-.09.082-.145.173-.164.273-.018.118.023.218.123.3a.9.9 0 0 1-.136.109.35.35 0 0 0-.082.041c-.01 0-.018.005-.027.014a1.35 1.35 0 0 1-.586.123c-.265.018-.483-.02-.656-.11h0zm-2.973.627c.01.01.018.023.027.04l-.15.068c-.2.11-.31.236-.327.382-.018.082 0 .16.055.232h-.027c-.155.055-.318.09-.49.11-.255.01-.464-.027-.627-.11-.01 0-.018-.005-.027-.014-.01 0-.018-.005-.027-.014-.155-.1-.218-.214-.19-.34a.43.43 0 0 1 .136-.259l.014-.014c.027.036.068.068.123.095.173.09.39.136.655.136.255-.027.482-.09.682-.19a.66.66 0 0 0 .175-.121z" class="T"/><path d="M101.6 62.113c-.01-.018-.018-.032-.027-.04-.064-.1-.214-.096-.45.014l-.055.027c-.282.136-.687.414-1.214.832l-.232.177-.805.668-.805.723c-.01.01-.023.018-.04.027l-.327.314-.682.6-.49.396c-.01.01-.018.014-.027.014-.036.036-.073.068-.11.095l-.355.286-.668.505-.886.64-.014.014-1.268.873c.136.045.3.064.49.055a1.65 1.65 0 0 0 .682-.191l.19-.123c.018 0 .036.01.055.027l-.136.054c-.2.118-.31.245-.327.382-.027.146.04.264.205.355-.018.018-.036.027-.055.027a1.58 1.58 0 0 1-.477.095c-.264.01-.477-.032-.64-.123a.35.35 0 0 0-.082-.041l-.014-.014c-.118-.082-.16-.182-.123-.3v-.055l-1.105.71-.45.286-.682.423-.437.26-.355.205v.014l-.123.055-.177.11-1.064.614c.127.027.273.04.437.04.173-.01.332-.04.477-.095.036.018.068.04.095.068V71.1c.018.018.046.032.082.04.164.1.373.14.627.123.264 0 .496-.06.696-.177.11-.064.19-.127.245-.19a1.02 1.02 0 0 1 .096.082 2.54 2.54 0 0 0-.286.123c-.2.11-.305.236-.314.382-.018.082-.005.155.04.218h-.04c.018.018.032.027.04.027.018.01.032.018.04.027-.068.078-.11.155-.11.246 0 .01-.004.023-.014.04l.327-.177c.064-.027.127-.06.19-.096l1.146-.6.19-.11 1.078-.6.382-.205 1.16-.668.327-.19 1.037-.64.518-.314.682-.45.79-.546.518-.382.368-.286.914-.832a1.82 1.82 0 0 0 .177-.205c.045-.036.082-.073.11-.11l.45-.56.355-.436.764-.9c.2-.236.332-.377.396-.423l-.477-.6-.437-.6zm-3.49 3.068h.04c.164.082.368.114.614.096.136 0 .264-.023.382-.068.018.01.032.018.04.027a.35.35 0 0 0 .082.041c-.055.073-.086.14-.096.205-.018.127.027.236.136.327h.014c-.064.055-.146.114-.246.177-.2.11-.427.168-.682.177-.264.01-.477-.032-.64-.123-.036-.018-.068-.036-.095-.055-.027-.027-.05-.06-.068-.095-.064-.055-.082-.123-.055-.205.01-.145.114-.273.314-.382a2.58 2.58 0 0 1 .259-.122h0zm-.75 2.155c.036.018.064.036.082.054-.036.064-.064.127-.082.19-.01.127.036.232.136.314-.055.064-.136.123-.245.177-.2.118-.427.182-.682.19-.264.01-.477-.032-.64-.123l-.082-.04h-.014l-.055-.054c-.073-.082-.095-.168-.068-.26.01-.146.114-.273.314-.382l.177-.068.027-.014c.164.09.382.132.655.123.174-.01.333-.045.478-.11z" class="U"/><path d="M72.014 79.898H72c3.1.773 5.265 1.04 6.465.805v.764a2.7 2.7 0 0 0 0 .382c.046.7.346 1.64.9 2.823v-2.755l-.027-.055-.505-1.214c0-.01-.005-.018-.014-.027 0-.027-.01-.054-.027-.082-.182-.537-.29-1-.327-1.39v-.232c0-.51.155-.878.464-1.105a2.22 2.22 0 0 1-.627.177c-1.228.173-3.323-.11-6.288-.846v2.756z" class="V"/><use xlink:href="#H" x="-46" y="-42" class="B"/><use xlink:href="#I" x="-46" y="-42" class="C"/><path d="M122.44 33.228c-.127.046-.268.068-.423.068-.255.018-.464-.014-.627-.096h-.027c-.082.027-.155.06-.218.096-.2.118-.314.245-.34.382 0 .09.023.173.068.245.01 0 .014.01.014.027l.15.082c.164.1.377.14.64.123a1.27 1.27 0 0 0 .682-.177c.073-.036.132-.077.177-.123-.146-.09-.21-.205-.19-.34.018-.09.068-.177.15-.26l-.014-.014c-.018-.008-.032-.013-.04-.013h0zm2.973-.04l-.068-.04c-.1.082-.16.173-.177.273-.018.118.023.218.123.3l.055.027 1.105-.41c.054-.055.118-.104.19-.15a1.88 1.88 0 0 1-.573.136c-.265 0-.483-.046-.656-.136h0zm2.17-3.6c-.073.073-.11.15-.11.232-.027.127.027.236.164.327.018.01.032.018.04.027.018 0 .027.005.027.014.164.09.373.127.627.11.155-.01.3-.032.436-.068.01-.01.027-.018.055-.027-.145-.09-.21-.205-.19-.34.018-.146.127-.273.327-.382l.19-.082c0-.01-.01-.014-.027-.014 0-.01-.01-.014-.027-.014-.036.036-.086.068-.15.095-.2.118-.432.182-.696.19-.246.01-.45-.027-.614-.11-.018.01-.036.024-.054.042h0zM138.043 26c.018-.09.064-.177.136-.26l-.014-.014c-.01 0-.018-.005-.027-.014a2.17 2.17 0 0 1-.423.068c-.255.018-.464-.014-.627-.096h-.027a1.66 1.66 0 0 0-.232.096c-.2.11-.31.24-.327.396-.01.082.01.155.055.218.01.018.018.027.027.027a.52.52 0 0 0 .136.095c.173.09.386.136.64.136a1.67 1.67 0 0 0 .695-.191.75.75 0 0 0 .164-.123c.01 0 .018-.005.027-.014-.163-.08-.23-.19-.204-.325h0zm-2.17-1.023a2.46 2.46 0 0 0-.286.123c-.2.11-.31.236-.327.382-.018.082 0 .16.055.232l.055.055c.027.027.064.05.11.068.173.1.386.146.64.136.264-.018.496-.086.696-.205.082-.036.146-.082.19-.136-.136-.082-.19-.19-.164-.327a.39.39 0 0 1 .095-.205c-.045-.027-.095-.05-.15-.068l-.273.04c-.246.01-.445-.023-.6-.095l-.042-.001zm-1.827.068l.082.055a.45.45 0 0 0 .068.054c.173.1.39.14.655.123.255-.01.482-.068.682-.177.11-.064.186-.132.232-.205-.1-.082-.14-.182-.123-.3a.59.59 0 0 1 .055-.15.72.72 0 0 1-.109-.068c-.136.046-.282.068-.436.068-.264.018-.477-.023-.64-.123h-.027l-.177.096-.082.055c-.146.1-.227.21-.245.327-.012.1.01.172.066.245h0zm-8.375 7.338c-.01-.018-.018-.032-.027-.04-.045.045-.105.086-.177.123-.2.1-.427.164-.682.19-.264 0-.482-.046-.655-.136-.055-.027-.095-.06-.123-.095l-.014.014c-.082.082-.127.168-.136.26-.027.127.036.24.19.34.01.01.018.014.027.014.01.01.018.014.027.014.164.082.373.118.627.11.173-.018.336-.055.49-.11h.027c-.055-.073-.073-.15-.055-.232.018-.146.127-.273.327-.382l.152-.07zm2.878-.723a.52.52 0 0 0 .068.055c.173.09.39.127.655.11.218 0 .414-.04.586-.123.01-.01.018-.014.027-.014a.35.35 0 0 1 .082-.041.85.85 0 0 0 .136-.109c-.1-.082-.14-.182-.123-.3.018-.1.073-.19.164-.273-.018-.018-.045-.036-.082-.054l-.027-.027a2.13 2.13 0 0 1-.505.109c-.246.01-.45-.027-.614-.11-.01 0-.023.005-.04.014-.055.018-.105.04-.15.068-.2.118-.305.246-.314.382-.018.082-.005.155.04.218l.097.095zm-1.364-.723c-.01 0-.018-.005-.027-.014-.127.036-.273.06-.437.068-.245.018-.45-.018-.614-.11-.036.018-.068.032-.096.04-.055.018-.11.04-.164.068-.2.118-.31.25-.327.396-.018.11.023.205.123.286.035-.01.062-.018.082-.027a.72.72 0 0 0-.068.041l.082.055c.173.09.39.127.655.11.255 0 .482-.06.682-.177a.37.37 0 0 0 .123-.082l.055-.027c-.155-.1-.218-.218-.19-.355a.38.38 0 0 1 .136-.246v-.014l-.014-.013zm-7.83 3.764l-.027.027c-.082.073-.127.16-.136.26-.027.136.036.25.19.34.01.01.018.014.027.014.01.01.018.014.027.014.164.082.373.114.627.095.173 0 .336-.027.49-.082.01-.01.027-.018.055-.027-.1-.082-.146-.182-.136-.3.027-.136.14-.264.34-.382l.123-.054-.027-.027a.85.85 0 0 1-.15.095 1.65 1.65 0 0 1-.682.191c-.264.01-.482-.032-.655-.123-.02-.018-.04-.03-.07-.04h0zm12.89-7.406c-.01-.018-.018-.032-.027-.04-.018-.01-.036-.014-.055-.014-.118.027-.236.04-.355.04-.245.018-.45-.014-.614-.096-.027.01-.05.018-.068.027a1.51 1.51 0 0 0-.245.095c-.2.118-.31.245-.327.382-.027.118.014.218.123.3a.09.09 0 0 0 .041.041l.055.027c.164.09.377.132.64.123s.496-.073.696-.19c.064-.036.118-.073.164-.11l.027-.027c-.136-.09-.19-.2-.164-.327-.001-.1.036-.167.108-.23h0zm2.8-.04c0-.01-.01-.018-.027-.027-.127.045-.273.073-.436.082-.246.01-.45-.027-.614-.11-.01 0-.018.005-.027.014a2.18 2.18 0 0 0-.218.095c-.2.11-.31.236-.327.382a.41.41 0 0 0 .041.232c.018 0 .032.014.04.04.036.027.077.054.123.082.173.1.39.14.655.123.255-.01.482-.068.682-.177a.91.91 0 0 0 .164-.123h.014c-.146-.1-.21-.218-.19-.355.018-.09.068-.177.15-.26-.012-.001-.02-.001-.03-.001z" fill="#fff"/><use xlink:href="#J" x="-46" y="-42" class="D"/><path d="M123.23 35.18l1.282-.45.41-.136 1.46-.56c.073-.036.15-.064.232-.082l1.773-.736 1.16-.532.41-.177c-.064-.018-.123-.045-.177-.082-.027-.01-.05-.018-.068-.027l-.055-.027c-.087-.105-.114-.196-.096-.287 0-.027.005-.055.014-.082l-.805.368-.805.355c-.01.01-.014.023-.014.04-.027.136.032.25.177.34-.027.01-.06.023-.095.04a2.44 2.44 0 0 1-.382.054c-.246.01-.45-.023-.614-.095l-.586.232-1.105.41-.055.027h-.027l-.027.014c-.027.01-.05.018-.068.027l-.477.164-1.023.368-1.228.423a1.73 1.73 0 0 0 .518.068c.218-.018.418-.068.6-.15-.2.118-.31.245-.327.382-.007.035-.007.07.002.108h0zm.614-.6a1.37 1.37 0 0 0-.205.068l.15-.11c.01.018.027.032.055.04z" class="E"/><use xlink:href="#K" x="-46" y="-42" class="F"/><use xlink:href="#L" x="-46" y="-42" class="G"/><use xlink:href="#M" x="-46" y="-42" class="H"/><use xlink:href="#N" x="-46" y="-42" class="I"/><path d="M116.575 36.31a1.07 1.07 0 0 1-.314-.095c.045-.036.09-.068.136-.096-.055.027-.11.05-.164.068-.145-.09-.21-.205-.19-.34.01-.036.023-.068.04-.095-.3.218-.432.355-.396.41s.11.095.218.123a1.74 1.74 0 0 0 .259.041l.41-.014z" class="J"/><use xlink:href="#O" x="-46" y="-42" class="K"/><path d="M116.37 33.433c.146-.01.282-.036.41-.082.036.01.068.023.095.04 0-.01.005-.018.014-.027a.68.68 0 0 1-.068-.041c-.045-.036-.077-.068-.096-.095l-.354.204zm1.364-.777h.123a1.27 1.27 0 0 0 .491-.096c-.055-.055-.077-.123-.068-.205l-.546.3zm1.937.627c-.073.073-.118.15-.136.232 0 .064.01.123.027.177l.464-.245a1.56 1.56 0 0 1-.246-.095l-.11-.07zm.273-1.405c.036.01.064.023.082.04a.55.55 0 0 0-.068.205c-.027.11.014.204.123.286-.055.073-.136.14-.246.205a1.79 1.79 0 0 1-.682.177c-.264.018-.482-.018-.655-.11-.027-.018-.055-.04-.082-.068a.52.52 0 0 0-.068-.055v.014c.027.01.05.027.068.055-.036.055-.06.114-.068.177-.018.118.027.223.136.314-.01 0-.018.005-.027.014.036.027.064.055.082.082.027-.01.05-.018.068-.027.164.073.364.11.6.11l.368-.055c.01 0 .023.005.04.014l.055.027a.52.52 0 0 1-.055-.068c-.045-.064-.064-.136-.055-.218.027-.145.14-.273.34-.382.09-.046.182-.082.273-.11.01-.01.018-.014.027-.014.164.073.368.105.614.096.127-.01.25-.027.368-.055.018 0 .032.005.04.014a.09.09 0 0 1 .041.041c-.073.073-.11.15-.11.232v.014l.382-.205c-.082-.027-.16-.06-.232-.095h-.027c-.01-.01-.023-.018-.04-.027-.136-.09-.195-.2-.177-.327.027-.146.14-.273.34-.382a1.09 1.09 0 0 1 .232-.109c.027-.01.055-.014.082-.014-.018-.01-.032-.018-.04-.027-.036-.018-.068-.036-.095-.055a.09.09 0 0 1-.041.041c-.045.046-.114.095-.205.15a1.65 1.65 0 0 1-.682.191c-.227.01-.423-.023-.586-.095-.018-.01-.04-.018-.068-.027-.155-.09-.227-.2-.218-.327l-.723.41c.118.027.255.036.41.027.172-.012.332-.04.477-.085z" class="L"/><use xlink:href="#P" x="-46" y="-42" class="M"/><use xlink:href="#Q" x="-46" y="-42" class="N"/><use xlink:href="#R" x="-46" y="-42" class="O"/><path d="M113.943 35.48c-.01 0-.028-.01-.055-.027-.01 0-.018-.005-.027-.014a.09.09 0 0 1-.041-.041h-.014c-.1-.073-.146-.155-.136-.245l-.818.627-.45.437a1.41 1.41 0 0 0 .545.068 1.46 1.46 0 0 0 .355-.068l.055.027c.018.01.03.018.04.027a.18.18 0 0 1-.041-.068c-.055-.064-.073-.136-.055-.218.018-.136.127-.264.327-.382.082-.046.173-.086.273-.123h.04zm-6.097.955c-.91.118-2.19.355-3.846.71h.014c2.964.736 5.06 1.018 6.288.846a2.21 2.21 0 0 0 .627-.177c-.31.227-.464.596-.464 1.105v.232c.036.39.146.855.327 1.39.018.027.027.055.027.082.01.01.014.018.014.027l.505 1.214.027.055c.455-.455.846-.914 1.173-1.378l.15-.218c.09-.127.173-.255.245-.382l.123-.218c.318-.6.49-1.146.518-1.637V38a.7.7 0 0 0-.014-.136 1.12 1.12 0 0 1-.409-.123c-.173-.09-.245-.21-.218-.355.027-.136.14-.264.34-.382a.74.74 0 0 1 .246-.096c.164.073.373.105.627.096.146-.01.286-.036.423-.082.01.01.018.014.027.014l.027.027c-.082.073-.132.155-.15.245-.01.11.027.205.11.286l1.255-.218 1.35-.3c.045-.018.095-.032.15-.04.045-.018.082-.027.11-.027l.082-.027 1.364-.355.71-.205 1.01-.3.777-.232.26-.096.914-.286c-.11-.018-.205-.05-.286-.095-.01-.018-.023-.027-.04-.027-.01-.01-.023-.018-.04-.027-.11-.082-.15-.182-.123-.3v-.054l-1.432.477c-.01.01-.023.018-.04.027l-1.678.49-.927.232-.273.055-.164.027c-.027 0-.06.005-.095.014l-.887.095-.41.014a1.74 1.74 0 0 1-.259-.041c-.11-.027-.182-.068-.218-.123s.096-.19.396-.41l.56-.382.71-.423c.21-.136.446-.273.71-.41l.64-.368c-.21-.01-.382-.05-.518-.123-.018-.01-.032-.014-.04-.014-.018-.018-.036-.032-.055-.04a.2.2 0 0 0-.068.014c-.118.027-.24.045-.368.055-.245.01-.445-.023-.6-.096-.018-.01-.032-.018-.04-.027a.21.21 0 0 1-.096-.054c-.045.073-.127.136-.245.19a1.65 1.65 0 0 1-.682.191c-.264.01-.482-.032-.655-.123l-.068-.04h-.014l-1.268.832c.118.027.255.036.41.027.255-.01.482-.073.682-.19a.52.52 0 0 0 .191-.136c.027 0 .05.01.068.027.018 0 .032.005.04.014.018 0 .04-.005.068-.014a1.33 1.33 0 0 0 .6.095l.368-.04h.055l.04.04c-.073.073-.118.15-.136.232-.018.127.04.24.177.34-.01.01-.023.018-.04.027a.51.51 0 0 1-.164.109c-.2.11-.427.168-.682.177-.246.01-.45-.023-.614-.096l-.027-.027c-.01-.01-.023-.014-.04-.014-.018.01-.04.014-.068.014l.055.027c.01.01.023.018.04.027-.073.073-.118.155-.136.246-.018.127.04.232.177.314v.014c-.055.045-.123.09-.204.136-.2.118-.427.177-.682.177-.255.018-.468-.018-.64-.11a1.46 1.46 0 0 1-.123-.082c-.073.073-.114.155-.123.245-.018.127.04.236.177.327a1.61 1.61 0 0 1-.205.15c-.2.11-.427.168-.682.177-.273.01-.49-.032-.655-.123-.173-.1-.245-.218-.218-.355.01-.082.05-.16.123-.232l-.177-.027a7.16 7.16 0 0 0-.955-.109h-.123a2.37 2.37 0 0 0-.259-.014 14.65 14.65 0 0 0-2.453.125z" class="P"/><use xlink:href="#S" x="-46" y="-42" class="Q"/><path d="M137.47 27.937c-.127.045-.268.073-.423.082-.227.01-.418-.023-.573-.095-.018-.01-.04-.018-.068-.027l-.055-.027c-.036-.018-.064-.04-.082-.068l-.245.177-1.064.777-.314.232-.327.245-.41.3-.71.477-.327.218-.396.232-.64.382-.79.423-.737.382c.155.055.332.077.532.068.155-.01.29-.027.41-.055.027.01.045.023.055.04a.57.57 0 0 0-.136.205l.382-.205 1.118-.586.286-.164a.35.35 0 0 1-.082-.041l-.055-.027h-.014l-.055-.055c-.082-.082-.114-.173-.095-.273.01-.036.014-.068.014-.095.055-.1.16-.196.314-.286.09-.045.186-.086.286-.123.01.01.023.018.04.027.164.09.382.132.655.123.127 0 .25-.018.368-.055l.04-.04c-.127-.09-.182-.2-.164-.327.027-.136.14-.26.34-.368a1.89 1.89 0 0 1 .232-.123h.04c.018 0 .032.005.04.014.146.09.336.132.573.123l.382-.26.737-.518.818-.627.096-.083zm1.337-1.46c.036-.082.06-.16.068-.232.01-.082.01-.15 0-.204v-.014l-.573.355-.014.014-.464.3-.682.477h.164c.182-.01.346-.04.49-.095.018.01.032.018.04.027l.082.04c-.09.09-.145.186-.164.286-.01.082.01.155.055.218.155-.127.286-.25.396-.368a1.02 1.02 0 0 1 .082-.096c.245-.263.418-.5.518-.71z" class="R"/><use xlink:href="#T" x="-46" y="-42" class="S"/><path d="M134.128 23.736l-.764.9-.355.436-.45.56c-.027.036-.064.073-.11.11a2.05 2.05 0 0 1-.177.205c-.246.255-.55.532-.914.832l-.368.286-.518.382-.79.546-.682.45-.518.314h.164a1.6 1.6 0 0 0 .355-.041c.018 0 .036.005.055.014l.04.04c-.082.073-.123.15-.123.232-.027.127.027.236.164.327l-.04.04c.018 0 .027.005.027.014.018 0 .027.005.027.014l-.19.082c-.2.11-.31.236-.327.382-.018.136.045.25.19.34-.027.01-.045.018-.055.027a2.21 2.21 0 0 1-.436.068c-.255.018-.464-.018-.627-.11 0-.01-.01-.014-.027-.014-.01-.01-.023-.018-.04-.027-.136-.09-.19-.2-.164-.327 0-.082.036-.16.11-.232.018-.018.036-.032.055-.04l-.068-.04c-.055-.027-.096-.064-.123-.11l-.327.19-1.16.668c.01 0 .018.01.027.027-.055.054-.09.114-.11.177-.01.027-.014.05-.014.068-.027.118.027.227.164.327a.36.36 0 0 1-.055.041l-.136.095c-.2.11-.427.168-.682.177-.264.018-.482-.018-.655-.11l-.19.11-1.146.6-.19.096-.327.177c-.01.11.05.205.177.286-.01.018-.023.027-.04.027l-.15.123a1.82 1.82 0 0 1-.696.177c-.145.01-.277 0-.396-.027l-.382.205h-.014l-1.118.614c.118.018.255.027.41.027a1.54 1.54 0 0 0 .695-.177c.073-.046.132-.096.177-.15l.055.054h.027c.164.082.373.114.627.096a1.26 1.26 0 0 0 .423-.068c.01 0 .023.005.04.014l.014.014c-.082.082-.132.168-.15.26-.018.136.045.25.19.34-.045.045-.105.086-.177.123a1.27 1.27 0 0 1-.682.177c-.264.018-.477-.023-.64-.123l-.15-.082c0-.018-.005-.027-.014-.027h-.04a1.49 1.49 0 0 1-.423.082c-.245 0-.45-.04-.614-.123h-.027c-.018-.018-.036-.027-.055-.027-.073-.046-.123-.1-.15-.164l-.86.477-.64.368-.71.41-.71.423c.173.073.373.105.6.096a1.38 1.38 0 0 0 .436-.068c.01 0 .018.005.027.014s.018.014.027.014c-.082.082-.132.168-.15.26-.027.136.036.25.19.34-.01.01-.023.018-.04.027a.55.55 0 0 1-.136.096.96.96 0 0 1-.136.068c.036-.01.068-.014.095-.014l.164-.027.273-.055.927-.232 1.678-.49c.018-.01.032-.018.04-.027l1.8-.6 1.228-.423 1.023-.368.477-.164c.018-.01.04-.018.068-.027l.027-.014h.027l.055-.027-.055-.027c-.1-.082-.14-.182-.123-.3.018-.1.077-.19.177-.273a.68.68 0 0 1 .068.041c.173.09.39.136.655.136a1.91 1.91 0 0 0 .573-.136c-.073.046-.136.095-.19.15l.586-.232.927-.382.805-.355.805-.368.736-.355.737-.382.79-.423.64-.382.396-.232.327-.218.71-.477.41-.3.327-.245.314-.232 1.064-.777.245-.177.873-.627.682-.477.464-.3.014-.014.573-.355c-.045-.19-.195-.336-.45-.436h-.028l-.027.027a.35.35 0 0 0-.082.041l-.15.054c.01.01.018.014.027.014l.014.014a.55.55 0 0 0-.136.259c-.027.136.04.245.205.327-.01.01-.018.014-.027.014a.78.78 0 0 1-.164.123c-.2.11-.432.173-.695.19-.255 0-.468-.045-.64-.136-.055-.027-.1-.06-.136-.095-.01 0-.018-.01-.027-.027-.045-.064-.064-.136-.055-.218.018-.155.127-.286.327-.396a1.94 1.94 0 0 1 .232-.096h.027l-.027-.027c-.018 0-.036-.01-.055-.027-.045.054-.11.1-.19.136-.2.118-.432.186-.696.205-.255.01-.468-.036-.64-.136-.046-.018-.082-.04-.11-.068l-.055-.055c-.055-.073-.073-.15-.055-.232.018-.146.127-.273.327-.382.09-.046.186-.086.286-.123h.04c.155.073.355.105.6.095l.273-.04c-.41-.173-.773-.368-1.09-.587a.63.63 0 0 0-.055.15c-.018.118.023.218.123.3-.045.073-.123.14-.232.205-.2.11-.427.168-.682.177-.264.018-.482-.023-.655-.123a.45.45 0 0 1-.068-.054l-.082-.055c-.055-.073-.077-.155-.068-.245.018-.118.1-.227.245-.327l.082-.055.177-.096h.027c.164.1.377.14.64.123a1.38 1.38 0 0 0 .436-.068 3.78 3.78 0 0 1-.682-.627l-.19-.218-.027-.027a1.69 1.69 0 0 0-.164-.191c-.06.043-.2.184-.39.42h0zm.9 3.49c.018.01.027.018.027.027h.027c-.082.082-.132.168-.15.26-.018.136.045.255.19.355h-.014c-.036.036-.09.077-.164.123-.2.11-.427.168-.682.177-.264.018-.482-.023-.655-.123l-.123-.082c-.01-.027-.023-.04-.04-.04a.41.41 0 0 1-.041-.232c.018-.146.127-.273.327-.382l.218-.095c.01-.01.018-.014.027-.014.164.082.368.118.614.11.166-.008.31-.035.44-.08h0zm-2.8.028c.01.01.018.023.027.04-.073.064-.11.14-.11.232-.027.127.027.236.164.327l-.027.027c-.046.036-.1.073-.164.11-.2.118-.432.182-.696.19s-.477-.032-.64-.123l-.055-.027a.09.09 0 0 1-.041-.041c-.11-.082-.15-.182-.123-.3.018-.136.127-.264.327-.382.073-.036.155-.068.245-.095.018-.01.04-.018.068-.027.164.082.368.114.614.096a1.6 1.6 0 0 0 .355-.041c.02-.001.038.003.056.013h0zm-12.89 7.474l.027-.027c.027.01.05.023.068.04.173.09.39.132.655.123a1.65 1.65 0 0 0 .682-.191.85.85 0 0 0 .15-.095l.027.027c-.036.018-.077.036-.123.054-.2.118-.314.245-.34.382-.01.118.036.218.136.3-.027.01-.046.018-.055.027-.155.055-.318.082-.49.082-.255.018-.464-.014-.627-.095-.01 0-.018-.005-.027-.014-.01 0-.018-.005-.027-.014-.155-.09-.218-.205-.19-.34.01-.1.055-.187.137-.26h0zm7.83-3.806c.01.01.018.014.027.014l.014.028c-.082.073-.127.155-.136.246-.027.136.036.255.19.355l-.055.027a.36.36 0 0 1-.123.082c-.2.118-.427.177-.682.177-.264.018-.482-.018-.655-.11l-.082-.055.068-.04c-.02.01-.047.02-.082.027-.1-.082-.14-.177-.123-.286.018-.145.127-.277.327-.396.055-.027.11-.05.164-.068a.83.83 0 0 0 .096-.041c.164.09.368.127.614.11.164-.01.3-.032.437-.07h0zm1.46.792c-.027-.018-.05-.036-.068-.055l-.096-.095c-.045-.064-.06-.136-.04-.218.01-.136.114-.264.314-.382.045-.027.095-.05.15-.068.018-.01.032-.014.04-.014.164.082.368.118.614.11a2.18 2.18 0 0 0 .505-.109l.027.027c.036.018.064.036.082.054-.09.082-.145.173-.164.273-.018.118.023.218.123.3a.9.9 0 0 1-.136.109.35.35 0 0 0-.082.041c-.01 0-.018.005-.027.014a1.35 1.35 0 0 1-.586.123c-.265.018-.483-.02-.656-.11h0zm-2.973.627c.01.01.018.023.027.04l-.15.068c-.2.11-.31.236-.327.382-.018.082 0 .16.055.232h-.027c-.155.055-.318.09-.49.11-.255.01-.464-.027-.627-.11-.01 0-.018-.005-.027-.014-.01 0-.018-.005-.027-.014-.155-.1-.218-.214-.19-.34a.43.43 0 0 1 .136-.259l.014-.014c.027.036.068.068.123.095.173.09.39.136.655.136.255-.027.482-.09.682-.19a.66.66 0 0 0 .175-.121z" class="T"/><path d="M133.6 22.113c-.01-.018-.018-.032-.027-.04-.064-.1-.214-.096-.45.014l-.055.027c-.282.136-.687.414-1.214.832l-.232.177-.805.668-.805.723c-.01.01-.023.018-.04.027l-.327.314-.682.6-.49.396c-.01.01-.018.014-.027.014-.036.036-.073.068-.11.095l-.355.286-.668.505-.886.64-.014.014-1.268.873c.136.045.3.064.49.055a1.65 1.65 0 0 0 .682-.191l.19-.123c.018 0 .036.01.055.027l-.136.054c-.2.118-.31.245-.327.382-.027.146.04.264.205.355-.018.018-.036.027-.055.027a1.58 1.58 0 0 1-.477.095c-.264.01-.477-.032-.64-.123a.35.35 0 0 0-.082-.041l-.014-.014c-.118-.082-.16-.182-.123-.3v-.055l-1.105.71-.45.286-.682.423-.437.26-.355.205v.014l-.123.055-.177.11-1.064.614c.127.027.273.04.437.04.173-.01.332-.04.477-.095.036.018.068.04.095.068V31.1c.018.018.046.032.082.04.164.1.373.14.627.123.264 0 .496-.06.696-.177.11-.064.19-.127.245-.19a1.02 1.02 0 0 1 .096.082 2.54 2.54 0 0 0-.286.123c-.2.11-.305.236-.314.382-.018.082-.005.155.04.218h-.04c.018.018.032.027.04.027.018.01.032.018.04.027-.068.078-.11.155-.11.246 0 .01-.004.023-.014.04l.327-.177c.064-.027.127-.06.19-.096l1.146-.6.19-.11 1.078-.6.382-.205 1.16-.668.327-.19 1.037-.64.518-.314.682-.45.79-.546.518-.382.368-.286.914-.832a1.82 1.82 0 0 0 .177-.205c.045-.036.082-.073.11-.11l.45-.56.355-.436.764-.9c.2-.236.332-.377.396-.423l-.477-.6-.437-.6zm-3.49 3.068h.04c.164.082.368.114.614.096.136 0 .264-.023.382-.068.018.01.032.018.04.027a.35.35 0 0 0 .082.041c-.055.073-.086.14-.096.205-.018.127.027.236.136.327h.014c-.064.055-.146.114-.246.177-.2.11-.427.168-.682.177-.264.01-.477-.032-.64-.123-.036-.018-.068-.036-.095-.055-.027-.027-.05-.06-.068-.095-.064-.055-.082-.123-.055-.205.01-.145.114-.273.314-.382a2.58 2.58 0 0 1 .259-.122h0zm-.75 2.155c.036.018.064.036.082.054-.036.064-.064.127-.082.19-.01.127.036.232.136.314-.055.064-.136.123-.245.177-.2.118-.427.182-.682.19-.264.01-.477-.032-.64-.123l-.082-.04h-.014l-.055-.054c-.073-.082-.095-.168-.068-.26.01-.146.114-.273.314-.382l.177-.068.027-.014c.164.09.382.132.655.123.174-.01.333-.045.478-.11z" class="U"/><path d="M104.014 39.898H104c3.1.773 5.265 1.04 6.465.805v.764a2.7 2.7 0 0 0 0 .382c.046.7.346 1.64.9 2.823v-2.755l-.027-.055-.505-1.214c0-.01-.005-.018-.014-.027 0-.027-.01-.054-.027-.082-.182-.537-.29-1-.327-1.39v-.232c0-.51.155-.878.464-1.105a2.22 2.22 0 0 1-.627.177c-1.228.173-3.323-.11-6.288-.846v2.756z" class="V"/><use xlink:href="#H" x="-19" y="-39" class="B"/><use xlink:href="#I" x="-19" y="-39" class="C"/><path d="M149.44 36.228c-.127.046-.268.068-.423.068-.255.018-.464-.014-.627-.096h-.027c-.082.027-.155.06-.218.096-.2.118-.314.245-.34.382 0 .09.023.173.068.245.01 0 .014.01.014.027l.15.082c.164.1.377.14.64.123a1.27 1.27 0 0 0 .682-.177c.073-.036.132-.077.177-.123-.146-.09-.21-.205-.19-.34.018-.09.068-.177.15-.26l-.014-.014c-.018-.008-.032-.013-.04-.013h0zm2.973-.04l-.068-.04c-.1.082-.16.173-.177.273-.018.118.023.218.123.3l.055.027 1.105-.41c.054-.055.118-.104.19-.15a1.88 1.88 0 0 1-.573.136c-.265 0-.483-.046-.656-.136h0zm2.17-3.6c-.073.073-.11.15-.11.232-.027.127.027.236.164.327.018.01.032.018.04.027.018 0 .027.005.027.014.164.09.373.127.627.11.155-.01.3-.032.436-.068.01-.01.027-.018.055-.027-.145-.09-.21-.205-.19-.34.018-.146.127-.273.327-.382l.19-.082c0-.01-.01-.014-.027-.014 0-.01-.01-.014-.027-.014-.036.036-.086.068-.15.095-.2.118-.432.182-.696.19-.246.01-.45-.027-.614-.11-.018.01-.036.024-.054.042h0zM165.043 29c.018-.09.064-.177.136-.26l-.014-.014c-.01 0-.018-.005-.027-.014a2.17 2.17 0 0 1-.423.068c-.255.018-.464-.014-.627-.096h-.027a1.66 1.66 0 0 0-.232.096c-.2.11-.31.24-.327.396-.01.082.01.155.055.218.01.018.018.027.027.027a.52.52 0 0 0 .136.095c.173.09.386.136.64.136a1.67 1.67 0 0 0 .695-.191.75.75 0 0 0 .164-.123c.01 0 .018-.005.027-.014-.163-.08-.23-.19-.204-.325h0zm-2.17-1.023a2.46 2.46 0 0 0-.286.123c-.2.11-.31.236-.327.382-.018.082 0 .16.055.232l.055.055c.027.027.064.05.11.068.173.1.386.146.64.136.264-.018.496-.086.696-.205.082-.036.146-.082.19-.136-.136-.082-.19-.19-.164-.327a.39.39 0 0 1 .095-.205c-.045-.027-.095-.05-.15-.068l-.273.04c-.246.01-.445-.023-.6-.095l-.042-.001zm-1.827.068l.082.055a.45.45 0 0 0 .068.054c.173.1.39.14.655.123.255-.01.482-.068.682-.177.11-.064.186-.132.232-.205-.1-.082-.14-.182-.123-.3a.59.59 0 0 1 .055-.15.72.72 0 0 1-.109-.068c-.136.046-.282.068-.436.068-.264.018-.477-.023-.64-.123h-.027l-.177.096-.082.055c-.146.1-.227.21-.245.327-.012.1.01.172.066.245h0zm-8.375 7.338c-.01-.018-.018-.032-.027-.04-.045.045-.105.086-.177.123-.2.1-.427.164-.682.19-.264 0-.482-.046-.655-.136-.055-.027-.095-.06-.123-.095l-.014.014c-.082.082-.127.168-.136.26-.027.127.036.24.19.34.01.01.018.014.027.014.01.01.018.014.027.014.164.082.373.118.627.11.173-.018.336-.055.49-.11h.027c-.055-.073-.073-.15-.055-.232.018-.146.127-.273.327-.382l.152-.07zm2.878-.723a.52.52 0 0 0 .068.055c.173.09.39.127.655.11.218 0 .414-.04.586-.123.01-.01.018-.014.027-.014a.35.35 0 0 1 .082-.041.85.85 0 0 0 .136-.109c-.1-.082-.14-.182-.123-.3.018-.1.073-.19.164-.273-.018-.018-.045-.036-.082-.054l-.027-.027a2.13 2.13 0 0 1-.505.109c-.246.01-.45-.027-.614-.11-.01 0-.023.005-.04.014-.055.018-.105.04-.15.068-.2.118-.305.246-.314.382-.018.082-.005.155.04.218l.097.095zm-1.364-.723c-.01 0-.018-.005-.027-.014-.127.036-.273.06-.437.068-.245.018-.45-.018-.614-.11-.036.018-.068.032-.096.04-.055.018-.11.04-.164.068-.2.118-.31.25-.327.396-.018.11.023.205.123.286.035-.01.062-.018.082-.027a.72.72 0 0 0-.068.041l.082.055c.173.09.39.127.655.11.255 0 .482-.06.682-.177a.37.37 0 0 0 .123-.082l.055-.027c-.155-.1-.218-.218-.19-.355a.38.38 0 0 1 .136-.246v-.014l-.014-.013zm-7.83 3.764l-.027.027c-.082.073-.127.16-.136.26-.027.136.036.25.19.34.01.01.018.014.027.014.01.01.018.014.027.014.164.082.373.114.627.095.173 0 .336-.027.49-.082.01-.01.027-.018.055-.027-.1-.082-.146-.182-.136-.3.027-.136.14-.264.34-.382l.123-.054-.027-.027a.85.85 0 0 1-.15.095 1.65 1.65 0 0 1-.682.191c-.264.01-.482-.032-.655-.123-.02-.018-.04-.03-.07-.04h0zm12.89-7.406c-.01-.018-.018-.032-.027-.04-.018-.01-.036-.014-.055-.014-.118.027-.236.04-.355.04-.245.018-.45-.014-.614-.096-.027.01-.05.018-.068.027a1.51 1.51 0 0 0-.245.095c-.2.118-.31.245-.327.382-.027.118.014.218.123.3a.09.09 0 0 0 .041.041l.055.027c.164.09.377.132.64.123s.496-.073.696-.19c.064-.036.118-.073.164-.11l.027-.027c-.136-.09-.19-.2-.164-.327-.001-.1.036-.167.108-.23h0zm2.8-.04c0-.01-.01-.018-.027-.027-.127.045-.273.073-.436.082-.246.01-.45-.027-.614-.11-.01 0-.018.005-.027.014a2.18 2.18 0 0 0-.218.095c-.2.11-.31.236-.327.382a.41.41 0 0 0 .041.232c.018 0 .032.014.04.04.036.027.077.054.123.082.173.1.39.14.655.123.255-.01.482-.068.682-.177a.91.91 0 0 0 .164-.123h.014c-.146-.1-.21-.218-.19-.355.018-.09.068-.177.15-.26-.012-.001-.02-.001-.03-.001z" fill="#fff"/><use xlink:href="#J" x="-19" y="-39" class="D"/><path d="M150.23 38.18l1.282-.45.41-.136 1.46-.56c.073-.036.15-.064.232-.082l1.773-.736 1.16-.532.41-.177c-.064-.018-.123-.045-.177-.082-.027-.01-.05-.018-.068-.027l-.055-.027c-.087-.105-.114-.196-.096-.287 0-.027.005-.055.014-.082l-.805.368-.805.355c-.01.01-.014.023-.014.04-.027.136.032.25.177.34-.027.01-.06.023-.095.04a2.44 2.44 0 0 1-.382.054c-.246.01-.45-.023-.614-.095l-.586.232-1.105.41-.055.027h-.027l-.027.014c-.027.01-.05.018-.068.027l-.477.164-1.023.368-1.228.423a1.73 1.73 0 0 0 .518.068c.218-.018.418-.068.6-.15-.2.118-.31.245-.327.382-.007.035-.007.07.002.108h0zm.614-.6a1.37 1.37 0 0 0-.205.068l.15-.11c.01.018.027.032.055.04z" class="E"/><use xlink:href="#K" x="-19" y="-39" class="F"/><use xlink:href="#L" x="-19" y="-39" class="G"/><use xlink:href="#M" x="-19" y="-39" class="H"/><use xlink:href="#N" x="-19" y="-39" class="I"/><path d="M143.575 39.31a1.07 1.07 0 0 1-.314-.095c.045-.036.09-.068.136-.096-.055.027-.11.05-.164.068-.145-.09-.21-.205-.19-.34.01-.036.023-.068.04-.095-.3.218-.432.355-.396.41s.11.095.218.123a1.74 1.74 0 0 0 .259.041l.41-.014z" class="J"/><use xlink:href="#O" x="-19" y="-39" class="K"/><path d="M143.37 36.433c.146-.01.282-.036.41-.082.036.01.068.023.095.04 0-.01.005-.018.014-.027a.68.68 0 0 1-.068-.041c-.045-.036-.077-.068-.096-.095l-.354.204zm1.364-.777h.123a1.27 1.27 0 0 0 .491-.096c-.055-.055-.077-.123-.068-.205l-.546.3zm1.937.627c-.073.073-.118.15-.136.232 0 .064.01.123.027.177l.464-.245a1.56 1.56 0 0 1-.246-.095l-.11-.07zm.273-1.405c.036.01.064.023.082.04a.55.55 0 0 0-.068.205c-.027.11.014.204.123.286-.055.073-.136.14-.246.205a1.79 1.79 0 0 1-.682.177c-.264.018-.482-.018-.655-.11-.027-.018-.055-.04-.082-.068a.52.52 0 0 0-.068-.055v.014c.027.01.05.027.068.055-.036.055-.06.114-.068.177-.018.118.027.223.136.314-.01 0-.018.005-.027.014.036.027.064.055.082.082.027-.01.05-.018.068-.027.164.073.364.11.6.11l.368-.055c.01 0 .023.005.04.014l.055.027a.52.52 0 0 1-.055-.068c-.045-.064-.064-.136-.055-.218.027-.145.14-.273.34-.382.09-.046.182-.082.273-.11.01-.01.018-.014.027-.014.164.073.368.105.614.096.127-.01.25-.027.368-.055.018 0 .032.005.04.014a.09.09 0 0 1 .041.041c-.073.073-.11.15-.11.232v.014l.382-.205c-.082-.027-.16-.06-.232-.095h-.027c-.01-.01-.023-.018-.04-.027-.136-.09-.195-.2-.177-.327.027-.146.14-.273.34-.382a1.09 1.09 0 0 1 .232-.109c.027-.01.055-.014.082-.014-.018-.01-.032-.018-.04-.027-.036-.018-.068-.036-.095-.055a.09.09 0 0 1-.041.041c-.045.046-.114.095-.205.15a1.65 1.65 0 0 1-.682.191c-.227.01-.423-.023-.586-.095-.018-.01-.04-.018-.068-.027-.155-.09-.227-.2-.218-.327l-.723.41c.118.027.255.036.41.027.172-.012.332-.04.477-.085z" class="L"/><use xlink:href="#P" x="-19" y="-39" class="M"/><use xlink:href="#Q" x="-19" y="-39" class="N"/><use xlink:href="#R" x="-19" y="-39" class="O"/><path d="M140.943 38.48c-.01 0-.028-.01-.055-.027-.01 0-.018-.005-.027-.014a.09.09 0 0 1-.041-.041h-.014c-.1-.073-.146-.155-.136-.245l-.818.627-.45.437a1.41 1.41 0 0 0 .545.068 1.46 1.46 0 0 0 .355-.068l.055.027c.018.01.03.018.04.027a.18.18 0 0 1-.041-.068c-.055-.064-.073-.136-.055-.218.018-.136.127-.264.327-.382.082-.046.173-.086.273-.123h.04zm-6.097.955c-.91.118-2.19.355-3.846.71h.014c2.964.736 5.06 1.018 6.288.846a2.21 2.21 0 0 0 .627-.177c-.31.227-.464.596-.464 1.105v.232c.036.39.146.855.327 1.39.018.027.027.055.027.082.01.01.014.018.014.027l.505 1.214.027.055c.455-.455.846-.914 1.173-1.378l.15-.218c.09-.127.173-.255.245-.382l.123-.218c.318-.6.49-1.146.518-1.637V41a.7.7 0 0 0-.014-.136 1.12 1.12 0 0 1-.409-.123c-.173-.09-.245-.21-.218-.355.027-.136.14-.264.34-.382a.74.74 0 0 1 .246-.096c.164.073.373.105.627.096.146-.01.286-.036.423-.082.01.01.018.014.027.014l.027.027c-.082.073-.132.155-.15.245-.01.11.027.205.11.286l1.255-.218 1.35-.3c.045-.018.095-.032.15-.04.045-.018.082-.027.11-.027l.082-.027 1.364-.355.71-.205 1.01-.3.777-.232.26-.096.914-.286c-.11-.018-.205-.05-.286-.095-.01-.018-.023-.027-.04-.027-.01-.01-.023-.018-.04-.027-.11-.082-.15-.182-.123-.3v-.054l-1.432.477c-.01.01-.023.018-.04.027l-1.678.49-.927.232-.273.055-.164.027c-.027 0-.06.005-.095.014l-.887.095-.41.014a1.74 1.74 0 0 1-.259-.041c-.11-.027-.182-.068-.218-.123s.096-.19.396-.41l.56-.382.71-.423c.21-.136.446-.273.71-.41l.64-.368c-.21-.01-.382-.05-.518-.123-.018-.01-.032-.014-.04-.014-.018-.018-.036-.032-.055-.04a.2.2 0 0 0-.068.014c-.118.027-.24.045-.368.055-.245.01-.445-.023-.6-.096-.018-.01-.032-.018-.04-.027a.21.21 0 0 1-.096-.054c-.045.073-.127.136-.245.19a1.65 1.65 0 0 1-.682.191c-.264.01-.482-.032-.655-.123l-.068-.04h-.014l-1.268.832c.118.027.255.036.41.027.255-.01.482-.073.682-.19a.52.52 0 0 0 .191-.136c.027 0 .05.01.068.027.018 0 .032.005.04.014.018 0 .04-.005.068-.014a1.33 1.33 0 0 0 .6.095l.368-.04h.055l.04.04c-.073.073-.118.15-.136.232-.018.127.04.24.177.34-.01.01-.023.018-.04.027a.51.51 0 0 1-.164.109c-.2.11-.427.168-.682.177-.246.01-.45-.023-.614-.096l-.027-.027c-.01-.01-.023-.014-.04-.014-.018.01-.04.014-.068.014l.055.027c.01.01.023.018.04.027-.073.073-.118.155-.136.246-.018.127.04.232.177.314v.014c-.055.045-.123.09-.204.136-.2.118-.427.177-.682.177-.255.018-.468-.018-.64-.11a1.46 1.46 0 0 1-.123-.082c-.073.073-.114.155-.123.245-.018.127.04.236.177.327a1.61 1.61 0 0 1-.205.15c-.2.11-.427.168-.682.177-.273.01-.49-.032-.655-.123-.173-.1-.245-.218-.218-.355.01-.082.05-.16.123-.232l-.177-.027a7.16 7.16 0 0 0-.955-.109h-.123a2.37 2.37 0 0 0-.259-.014 14.65 14.65 0 0 0-2.453.125z" class="P"/><use xlink:href="#S" x="-19" y="-39" class="Q"/><path d="M164.47 30.937c-.127.045-.268.073-.423.082-.227.01-.418-.023-.573-.095-.018-.01-.04-.018-.068-.027l-.055-.027c-.036-.018-.064-.04-.082-.068l-.245.177-1.064.777-.314.232-.327.245-.41.3-.71.477-.327.218-.396.232-.64.382-.79.423-.737.382c.155.055.332.077.532.068.155-.01.29-.027.41-.055.027.01.045.023.055.04a.57.57 0 0 0-.136.205l.382-.205 1.118-.586.286-.164a.35.35 0 0 1-.082-.041l-.055-.027h-.014l-.055-.055c-.082-.082-.114-.173-.095-.273.01-.036.014-.068.014-.095.055-.1.16-.196.314-.286.09-.045.186-.086.286-.123.01.01.023.018.04.027.164.09.382.132.655.123.127 0 .25-.018.368-.055l.04-.04c-.127-.09-.182-.2-.164-.327.027-.136.14-.26.34-.368a1.89 1.89 0 0 1 .232-.123h.04c.018 0 .032.005.04.014.146.09.336.132.573.123l.382-.26.737-.518.818-.627.096-.083zm1.337-1.46c.036-.082.06-.16.068-.232.01-.082.01-.15 0-.204v-.014l-.573.355-.014.014-.464.3-.682.477h.164c.182-.01.346-.04.49-.095.018.01.032.018.04.027l.082.04c-.09.09-.145.186-.164.286-.01.082.01.155.055.218.155-.127.286-.25.396-.368a1.02 1.02 0 0 1 .082-.096c.245-.263.418-.5.518-.71z" class="R"/><use xlink:href="#T" x="-19" y="-39" class="S"/><path d="M161.128 26.736l-.764.9-.355.436-.45.56c-.027.036-.064.073-.11.11a2.05 2.05 0 0 1-.177.205c-.246.255-.55.532-.914.832l-.368.286-.518.382-.79.546-.682.45-.518.314h.164a1.6 1.6 0 0 0 .355-.041c.018 0 .036.005.055.014l.04.04c-.082.073-.123.15-.123.232-.027.127.027.236.164.327l-.04.04c.018 0 .027.005.027.014.018 0 .027.005.027.014l-.19.082c-.2.11-.31.236-.327.382-.018.136.045.25.19.34-.027.01-.045.018-.055.027a2.21 2.21 0 0 1-.436.068c-.255.018-.464-.018-.627-.11 0-.01-.01-.014-.027-.014-.01-.01-.023-.018-.04-.027-.136-.09-.19-.2-.164-.327 0-.082.036-.16.11-.232.018-.018.036-.032.055-.04l-.068-.04c-.055-.027-.096-.064-.123-.11l-.327.19-1.16.668c.01 0 .018.01.027.027-.055.054-.09.114-.11.177-.01.027-.014.05-.014.068-.027.118.027.227.164.327a.36.36 0 0 1-.055.041l-.136.095c-.2.11-.427.168-.682.177-.264.018-.482-.018-.655-.11l-.19.11-1.146.6-.19.096-.327.177c-.01.11.05.205.177.286-.01.018-.023.027-.04.027l-.15.123a1.82 1.82 0 0 1-.696.177c-.145.01-.277 0-.396-.027l-.382.205h-.014l-1.118.614c.118.018.255.027.41.027a1.54 1.54 0 0 0 .695-.177c.073-.046.132-.096.177-.15l.055.054h.027c.164.082.373.114.627.096a1.26 1.26 0 0 0 .423-.068c.01 0 .023.005.04.014l.014.014c-.082.082-.132.168-.15.26-.018.136.045.25.19.34-.045.045-.105.086-.177.123a1.27 1.27 0 0 1-.682.177c-.264.018-.477-.023-.64-.123l-.15-.082c0-.018-.005-.027-.014-.027h-.04a1.49 1.49 0 0 1-.423.082c-.245 0-.45-.04-.614-.123h-.027c-.018-.018-.036-.027-.055-.027-.073-.046-.123-.1-.15-.164l-.86.477-.64.368-.71.41-.71.423c.173.073.373.105.6.096a1.38 1.38 0 0 0 .436-.068c.01 0 .018.005.027.014s.018.014.027.014c-.082.082-.132.168-.15.26-.027.136.036.25.19.34-.01.01-.023.018-.04.027a.55.55 0 0 1-.136.096.96.96 0 0 1-.136.068c.036-.01.068-.014.095-.014l.164-.027.273-.055.927-.232 1.678-.49c.018-.01.032-.018.04-.027l1.8-.6 1.228-.423 1.023-.368.477-.164c.018-.01.04-.018.068-.027l.027-.014h.027l.055-.027-.055-.027c-.1-.082-.14-.182-.123-.3.018-.1.077-.19.177-.273a.68.68 0 0 1 .068.041c.173.09.39.136.655.136a1.91 1.91 0 0 0 .573-.136c-.073.046-.136.095-.19.15l.586-.232.927-.382.805-.355.805-.368.736-.355.737-.382.79-.423.64-.382.396-.232.327-.218.71-.477.41-.3.327-.245.314-.232 1.064-.777.245-.177.873-.627.682-.477.464-.3.014-.014.573-.355c-.045-.19-.195-.336-.45-.436h-.028l-.027.027a.35.35 0 0 0-.082.041l-.15.054c.01.01.018.014.027.014l.014.014a.55.55 0 0 0-.136.259c-.027.136.04.245.205.327-.01.01-.018.014-.027.014a.78.78 0 0 1-.164.123c-.2.11-.432.173-.695.19-.255 0-.468-.045-.64-.136-.055-.027-.1-.06-.136-.095-.01 0-.018-.01-.027-.027-.045-.064-.064-.136-.055-.218.018-.155.127-.286.327-.396a1.94 1.94 0 0 1 .232-.096h.027l-.027-.027c-.018 0-.036-.01-.055-.027-.045.054-.11.1-.19.136-.2.118-.432.186-.696.205-.255.01-.468-.036-.64-.136-.046-.018-.082-.04-.11-.068l-.055-.055c-.055-.073-.073-.15-.055-.232.018-.146.127-.273.327-.382.09-.046.186-.086.286-.123h.04c.155.073.355.105.6.095l.273-.04c-.41-.173-.773-.368-1.09-.587a.63.63 0 0 0-.055.15c-.018.118.023.218.123.3-.045.073-.123.14-.232.205-.2.11-.427.168-.682.177-.264.018-.482-.023-.655-.123a.45.45 0 0 1-.068-.054l-.082-.055c-.055-.073-.077-.155-.068-.245.018-.118.1-.227.245-.327l.082-.055.177-.096h.027c.164.1.377.14.64.123a1.38 1.38 0 0 0 .436-.068 3.78 3.78 0 0 1-.682-.627l-.19-.218-.027-.027a1.69 1.69 0 0 0-.164-.191c-.06.043-.2.184-.39.42h0zm.9 3.49c.018.01.027.018.027.027h.027c-.082.082-.132.168-.15.26-.018.136.045.255.19.355h-.014c-.036.036-.09.077-.164.123-.2.11-.427.168-.682.177-.264.018-.482-.023-.655-.123l-.123-.082c-.01-.027-.023-.04-.04-.04a.41.41 0 0 1-.041-.232c.018-.146.127-.273.327-.382l.218-.095c.01-.01.018-.014.027-.014.164.082.368.118.614.11.166-.008.31-.035.44-.08h0zm-2.8.028c.01.01.018.023.027.04-.073.064-.11.14-.11.232-.027.127.027.236.164.327l-.027.027c-.046.036-.1.073-.164.11-.2.118-.432.182-.696.19s-.477-.032-.64-.123l-.055-.027a.09.09 0 0 1-.041-.041c-.11-.082-.15-.182-.123-.3.018-.136.127-.264.327-.382.073-.036.155-.068.245-.095.018-.01.04-.018.068-.027.164.082.368.114.614.096a1.6 1.6 0 0 0 .355-.041c.02-.001.038.003.056.013h0zm-12.89 7.474l.027-.027c.027.01.05.023.068.04.173.09.39.132.655.123a1.65 1.65 0 0 0 .682-.191.85.85 0 0 0 .15-.095l.027.027c-.036.018-.077.036-.123.054-.2.118-.314.245-.34.382-.01.118.036.218.136.3-.027.01-.046.018-.055.027-.155.055-.318.082-.49.082-.255.018-.464-.014-.627-.095-.01 0-.018-.005-.027-.014-.01 0-.018-.005-.027-.014-.155-.09-.218-.205-.19-.34.01-.1.055-.187.137-.26h0zm7.83-3.806c.01.01.018.014.027.014l.014.028c-.082.073-.127.155-.136.246-.027.136.036.255.19.355l-.055.027a.36.36 0 0 1-.123.082c-.2.118-.427.177-.682.177-.264.018-.482-.018-.655-.11l-.082-.055.068-.04c-.02.01-.047.02-.082.027-.1-.082-.14-.177-.123-.286.018-.145.127-.277.327-.396.055-.027.11-.05.164-.068a.83.83 0 0 0 .096-.041c.164.09.368.127.614.11.164-.01.3-.032.437-.07h0zm1.46.792c-.027-.018-.05-.036-.068-.055l-.096-.095c-.045-.064-.06-.136-.04-.218.01-.136.114-.264.314-.382.045-.027.095-.05.15-.068.018-.01.032-.014.04-.014.164.082.368.118.614.11a2.18 2.18 0 0 0 .505-.109l.027.027c.036.018.064.036.082.054-.09.082-.145.173-.164.273-.018.118.023.218.123.3a.9.9 0 0 1-.136.109.35.35 0 0 0-.082.041c-.01 0-.018.005-.027.014a1.35 1.35 0 0 1-.586.123c-.265.018-.483-.02-.656-.11h0zm-2.973.627c.01.01.018.023.027.04l-.15.068c-.2.11-.31.236-.327.382-.018.082 0 .16.055.232h-.027c-.155.055-.318.09-.49.11-.255.01-.464-.027-.627-.11-.01 0-.018-.005-.027-.014-.01 0-.018-.005-.027-.014-.155-.1-.218-.214-.19-.34a.43.43 0 0 1 .136-.259l.014-.014c.027.036.068.068.123.095.173.09.39.136.655.136.255-.027.482-.09.682-.19a.66.66 0 0 0 .175-.121z" class="T"/><path d="M160.6 25.113c-.01-.018-.018-.032-.027-.04-.064-.1-.214-.096-.45.014l-.055.027c-.282.136-.687.414-1.214.832l-.232.177-.805.668-.805.723c-.01.01-.023.018-.04.027l-.327.314-.682.6-.49.396c-.01.01-.018.014-.027.014-.036.036-.073.068-.11.095l-.355.286-.668.505-.886.64-.014.014-1.268.873c.136.045.3.064.49.055a1.65 1.65 0 0 0 .682-.191l.19-.123c.018 0 .036.01.055.027l-.136.054c-.2.118-.31.245-.327.382-.027.146.04.264.205.355-.018.018-.036.027-.055.027a1.58 1.58 0 0 1-.477.095c-.264.01-.477-.032-.64-.123a.35.35 0 0 0-.082-.041l-.014-.014c-.118-.082-.16-.182-.123-.3v-.055l-1.105.71-.45.286-.682.423-.437.26-.355.205v.014l-.123.055-.177.11-1.064.614c.127.027.273.04.437.04.173-.01.332-.04.477-.095.036.018.068.04.095.068V34.1c.018.018.046.032.082.04.164.1.373.14.627.123.264 0 .496-.06.696-.177.11-.064.19-.127.245-.19a1.02 1.02 0 0 1 .096.082 2.54 2.54 0 0 0-.286.123c-.2.11-.305.236-.314.382-.018.082-.005.155.04.218h-.04c.018.018.032.027.04.027.018.01.032.018.04.027-.068.078-.11.155-.11.246 0 .01-.004.023-.014.04l.327-.177c.064-.027.127-.06.19-.096l1.146-.6.19-.11 1.078-.6.382-.205 1.16-.668.327-.19 1.037-.64.518-.314.682-.45.79-.546.518-.382.368-.286.914-.832a1.82 1.82 0 0 0 .177-.205c.045-.036.082-.073.11-.11l.45-.56.355-.436.764-.9c.2-.236.332-.377.396-.423l-.477-.6-.437-.6zm-3.49 3.068h.04c.164.082.368.114.614.096.136 0 .264-.023.382-.068.018.01.032.018.04.027a.35.35 0 0 0 .082.041c-.055.073-.086.14-.096.205-.018.127.027.236.136.327h.014c-.064.055-.146.114-.246.177-.2.11-.427.168-.682.177-.264.01-.477-.032-.64-.123-.036-.018-.068-.036-.095-.055-.027-.027-.05-.06-.068-.095-.064-.055-.082-.123-.055-.205.01-.145.114-.273.314-.382a2.58 2.58 0 0 1 .259-.122h0zm-.75 2.155c.036.018.064.036.082.054-.036.064-.064.127-.082.19-.01.127.036.232.136.314-.055.064-.136.123-.245.177-.2.118-.427.182-.682.19-.264.01-.477-.032-.64-.123l-.082-.04h-.014l-.055-.054c-.073-.082-.095-.168-.068-.26.01-.146.114-.273.314-.382l.177-.068.027-.014c.164.09.382.132.655.123.174-.01.333-.045.478-.11z" class="U"/><path d="M131.014 42.898H131c3.1.773 5.265 1.04 6.465.805v.764a2.7 2.7 0 0 0 0 .382c.046.7.346 1.64.9 2.823v-2.755l-.027-.055-.505-1.214c0-.01-.005-.018-.014-.027 0-.027-.01-.054-.027-.082-.182-.537-.29-1-.327-1.39v-.232c0-.51.155-.878.464-1.105a2.22 2.22 0 0 1-.627.177c-1.228.173-3.323-.11-6.288-.846v2.756z" class="V"/></g></svg>