<svg xmlns="http://www.w3.org/2000/svg" xmlns:xlink="http://www.w3.org/1999/xlink" width="225" height="159" xmlns:v="https://vecta.io/nano"><style><![CDATA[.B{fill:#caa28a}.C{fill:#b66f46}.D{fill:#c68660}.E{fill:#f9e2d6}.F{fill:#bf9073}.G{fill:#af8266}.H{fill:#d2b6a5}.I{fill:#b17f5f}.J{fill:#eeccb6}.K{fill:#c48863}]]></style><g fill-rule="nonzero"><path d="M133.92 28.538h-.008v.73l1.38.79v-.723z" class="B"/><use xlink:href="#B" class="C"/><use xlink:href="#C" class="D"/><use xlink:href="#D" class="E"/><use xlink:href="#E" class="F"/><path d="M131.674 27.218v.764l2.238 1.287v-.73z" class="G"/><use xlink:href="#F" class="H"/><use xlink:href="#G" class="I"/><use xlink:href="#H" class="J"/><use xlink:href="#I" class="K"/><path d="M162.92 49.538h-.008v.73l1.38.79v-.723z" class="B"/><use xlink:href="#B" x="29" y="21" class="C"/><use xlink:href="#C" x="29" y="21" class="D"/><use xlink:href="#D" x="29" y="21" class="E"/><use xlink:href="#E" x="29" y="21" class="F"/><path d="M160.674 48.218v.764l2.238 1.287v-.73z" class="G"/><use xlink:href="#F" x="29" y="21" class="H"/><use xlink:href="#G" x="29" y="21" class="I"/><use xlink:href="#H" x="29" y="21" class="J"/><use xlink:href="#I" x="29" y="21" class="K"/><path d="M134.92 83.538h-.008v.73l1.38.79v-.723z" class="B"/><use xlink:href="#B" x="1" y="55" class="C"/><use xlink:href="#C" x="1" y="55" class="D"/><use xlink:href="#D" x="1" y="55" class="E"/><use xlink:href="#E" x="1" y="55" class="F"/><path d="M132.674 82.218v.764l2.238 1.287v-.73z" class="G"/><use xlink:href="#F" x="1" y="55" class="H"/><use xlink:href="#G" x="1" y="55" class="I"/><use xlink:href="#H" x="1" y="55" class="J"/><use xlink:href="#I" x="1" y="55" class="K"/><path d="M71.92 62.538h-.008v.73l1.38.79v-.723z" class="B"/><path d="M81.068 59.217c-.627.393-1.35 1.226-2.166 2.5-.8 1.234-1.45 2-1.987 2.3-.373.2-.957.35-1.752.424L73.3 63.344H73.3v.714l1.874 1.07c1.05-.06 1.795-.213 2.238-.457.535-.3 1.2-1.065 1.995-2.3.81-1.273 1.533-2.106 2.166-2.5.65-.404 1.708-.64 3.18-.705l1.646-.108.22-.033v-.764a5.01 5.01 0 0 1-.714.141c-.303.044-.85.08-1.638.108-1.47.066-2.532.3-3.187.705z" class="C"/><path d="M78.903 61.716c.816-1.273 1.538-2.106 2.166-2.5.654-.404 1.717-.64 3.187-.705l1.638-.108a5.01 5.01 0 0 0 .714-.141c.01 0 .02-.003.033-.01L84.8 57.15c-.238.072-.5.127-.787.166-.303.04-.85.075-1.638.108-1.47.06-2.533.293-3.187.698-.627.4-1.35 1.23-2.166 2.5-.79 1.24-1.45 2.006-1.987 2.3-.367.205-.944.346-1.727.424l1.865 1.096c.795-.072 1.38-.213 1.752-.424.535-.3 1.197-1.065 1.987-2.3z" class="D"/><use xlink:href="#D" x="-62" y="34" class="E"/><use xlink:href="#E" x="-62" y="34" class="F"/><path d="M69.674 61.218v.764l2.238 1.287v-.73z" class="G"/><use xlink:href="#F" x="-62" y="34" class="H"/><use xlink:href="#G" x="-62" y="34" class="I"/><use xlink:href="#H" x="-62" y="34" class="J"/><use xlink:href="#I" x="-62" y="34" class="K"/><path d="M112.92 66.538h-.008v.73l1.38.79v-.723z" class="B"/><use xlink:href="#B" x="-21" y="38" class="C"/><use xlink:href="#C" x="-21" y="38" class="D"/><use xlink:href="#D" x="-21" y="38" class="E"/><use xlink:href="#E" x="-21" y="38" class="F"/><path d="M110.674 65.218v.764l2.238 1.287v-.73z" class="G"/><use xlink:href="#F" x="-21" y="38" class="H"/><use xlink:href="#G" x="-21" y="38" class="I"/><use xlink:href="#H" x="-21" y="38" class="J"/><use xlink:href="#I" x="-21" y="38" class="K"/></g><defs ><path id="B" d="M143.068 25.217c-.627.393-1.35 1.226-2.166 2.5-.8 1.234-1.45 2-1.987 2.3-.373.2-.957.35-1.752.424l-1.865-1.096h-.008v.714l1.874 1.07c1.05-.06 1.795-.213 2.238-.457.535-.3 1.2-1.065 1.995-2.3.81-1.273 1.533-2.106 2.166-2.5.65-.404 1.708-.64 3.18-.705l1.646-.108.22-.033v-.764a5.01 5.01 0 0 1-.714.141c-.303.044-.85.08-1.638.108-1.47.066-2.532.3-3.187.705z"/><path id="C" d="M140.903 27.716c.816-1.273 1.538-2.106 2.166-2.5.654-.404 1.717-.64 3.187-.705l1.638-.108a5.01 5.01 0 0 0 .714-.141c.01 0 .02-.003.033-.01l-1.85-1.104c-.238.072-.5.127-.787.166-.303.04-.85.075-1.638.108-1.47.06-2.533.293-3.187.698-.627.4-1.35 1.23-2.166 2.5-.79 1.24-1.45 2.006-1.987 2.3-.367.205-.944.346-1.727.424l1.865 1.096c.795-.072 1.38-.213 1.752-.424.535-.3 1.197-1.065 1.987-2.3z"/><path id="D" d="M145.47 22.353a4.67 4.67 0 0 1-.746.149c-.303.04-.848.075-1.638.108-1.47.06-2.533.296-3.187.705-.627.393-1.35 1.223-2.166 2.49-.79 1.24-1.45 2.01-1.987 2.308-.38.21-.986.35-1.825.424l1.37.797v.01c.784-.077 1.36-.22 1.727-.424.535-.293 1.198-1.06 1.987-2.3.816-1.267 1.538-2.1 2.166-2.5.654-.404 1.717-.637 3.187-.698l1.638-.108c.287-.04.55-.094.787-.166l-1.32-.797z"/><path id="E" d="M144.722 22.503a4.74 4.74 0 0 0 .746-.149l-2.23-1.337c-.25.077-.524.136-.827.174-.308.04-.857.075-1.646.108-1.47.06-2.53.296-3.18.705-.633.393-1.354 1.223-2.166 2.49-.795 1.24-1.46 2.01-1.995 2.308-.367.205-.95.343-1.752.415l2.238 1.32h.008c.838-.072 1.446-.213 1.825-.424.535-.3 1.198-1.068 1.987-2.308.816-1.267 1.538-2.098 2.166-2.49.654-.4 1.717-.645 3.187-.705l1.638-.108z"/><path id="F" d="M130.117 27.093l1.557.888v-.764l-1.557-.905z"/><path id="G" d="M130.117 26.313h-.008l-2.514-1.348v.817l2.522 1.312z"/><path id="H" d="M132.087 25.864c-.4.222-1.057.37-1.97.448l1.557.905c.8-.072 1.384-.21 1.752-.415.535-.3 1.2-1.068 1.995-2.308.81-1.267 1.533-2.098 2.166-2.49.65-.4 1.708-.645 3.18-.705l1.646-.108c.303-.04.58-.097.827-.174l-1.492-.897a5.69 5.69 0 0 1-.681.133c-.303.044-.85.08-1.638.108-1.476.066-2.538.3-3.187.705-.627.393-1.35 1.226-2.166 2.5-.79 1.235-1.45 2.002-1.987 2.3z"/><path id="I" d="M130.117 26.313c.914-.077 1.57-.227 1.97-.448.535-.3 1.198-1.065 1.987-2.3.816-1.273 1.538-2.106 2.166-2.5.65-.404 1.71-.64 3.187-.705l1.638-.108a5.81 5.81 0 0 0 .681-.133l-2.514-1.51c-.222.066-.465.116-.73.15-.303.04-.85.075-1.638.108-1.47.06-2.533.293-3.187.698-.627.4-1.35 1.23-2.166 2.5-.8 1.24-1.45 2.006-1.987 2.3-.4.227-1.017.53-1.93.603l2.514 1.348h.008v-.001z"/></defs></svg>