<svg xmlns="http://www.w3.org/2000/svg" xmlns:xlink="http://www.w3.org/1999/xlink" width="225" height="159" xmlns:v="https://vecta.io/nano"><g fill-rule="nonzero"><use xlink:href="#B" fill="#546f32"/><use xlink:href="#C" fill="#709342"/><path d="M88.484 46.325c-.005.147-.02.297-.04.45l-.065.385c-.273 1.288-1.028 2.482-2.267 3.584l-.712.573v.008l-.1.058c-.076.044-.166.068-.27.074-.115.005-.208-.014-.278-.057-.06-.032-.09-.073-.1-.123v2.005c-.005.06.025.11.1.147a.48.48 0 0 0 .278.058c.104-.005.194-.03.27-.074l.1-.057v-.008c1.806-1.358 2.82-2.872 3.044-4.542a4.54 4.54 0 0 0 .049-.663l-.008-.205v-1.612zM85.98 49.36c.088-.295.134-.6.14-.917a3.85 3.85 0 0 0-.286-1.538c-.37-.873-1.088-1.612-2.152-2.218-1.642-.938-3.7-1.356-6.203-1.252-1.795.07-3.44.398-4.934.982l-.335.13c-.605.218-1.26.338-1.964.36-.322.005-.622-.005-.9-.033h-.008v2.03h.008a7.82 7.82 0 0 0 .9.033c.704-.022 1.358-.142 1.964-.36l.335-.13c1.495-.584 3.14-.91 4.934-.982 2.493-.104 4.56.314 6.203 1.252 1.064.605 1.78 1.345 2.152 2.218.06.137.11.28.147.426z" fill="#9c3321"/><use xlink:href="#D" fill="#dd4e34"/><use xlink:href="#B" x="37" y="-15" fill="#546f32"/><use xlink:href="#C" x="37" y="-15" fill="#709342"/><use xlink:href="#E" fill="#9c3321"/><use xlink:href="#D" x="37" y="-15" fill="#dd4e34"/><use xlink:href="#B" x="51" y="40" fill="#546f32"/><use xlink:href="#C" x="51" y="40" fill="#709342"/><use xlink:href="#E" x="14" y="55" fill="#9c3321"/><use xlink:href="#D" x="51" y="40" fill="#dd4e34"/><use xlink:href="#B" x="113" y="8" fill="#546f32"/><use xlink:href="#C" x="113" y="8" fill="#709342"/><use xlink:href="#E" x="76" y="23" fill="#9c3321"/><use xlink:href="#D" x="113" y="8" fill="#dd4e34"/></g><defs ><path id="B" d="M68.73 44.77c-.218-.05-.428-.112-.63-.188-.24-.044-.508-.06-.802-.05-.05 0-.1.003-.155.008l-.303.025a8.54 8.54 0 0 0-1.612.295c-.61.17-1.307.117-2.087-.155a1.5 1.5 0 0 1-.515-.311l-.008 2.013c.147.142.322.25.524.328.78.273 1.476.325 2.087.155a8.68 8.68 0 0 1 1.915-.319l.155-.008c.295-.01.562.005.802.05a4.73 4.73 0 0 0 .63.188c.202.05.404.085.605.106v-2.03a4.84 4.84 0 0 1-.605-.107z"/><path id="C" d="M69.482 43.215c-.044-.142-.11-.268-.196-.376-.158-.218-.4-.388-.695-.508-.856-.344-1.397-.365-1.62-.065l-.065.115c-.082.158-.134.322-.155.49a2.03 2.03 0 0 0-.008.311.45.45 0 0 0 .016.123c.005.044-.016.164-.065.36-.05.19-.308.415-.778.67-.47.245-.993.368-1.57.368-.578-.01-.938-.112-1.08-.303-.147-.196-.248-.278-.303-.245-.065.022-.15.068-.254.14l-.082.065-.025.008.025.025a1.5 1.5 0 0 0 .515.311c.78.273 1.476.325 2.087.155a8.54 8.54 0 0 1 1.612-.295l.303-.025.155-.008c.295-.01.562.005.802.05a4.73 4.73 0 0 0 .63.188c.202.05.404.085.605.106h.008a.32.32 0 0 1 .016-.041c.22-.66.26-1.2.123-1.62z"/><path id="D" d="M86.12 48.445a3.41 3.41 0 0 1-.139.917c-.19.633-.584 1.208-1.178 1.727h-.008a1.34 1.34 0 0 0-.098.09c-.016.022-.028.044-.033.065v.033c.001.05.03.09.1.123a.48.48 0 0 0 .278.057c.104-.005.194-.03.27-.074l.1-.058.008-.008.712-.573c1.238-1.102 1.994-2.297 2.267-3.584l.065-.385.04-.45.008-.286c-.033-1.8-1.13-3.317-3.3-4.55-2.45-1.397-5.55-2.018-9.305-1.866-2.29.093-4.42.46-6.383 1.105l-1.195.434-.245.13c-.518.29-.886.614-1.105.974.224-.3.764-.278 1.62.065.305.12.538.29.695.508.088.11.153.235.196.376.136.42.095.96-.123 1.62a.32.32 0 0 0-.016.041c.278.027.578.038.9.033.704-.022 1.358-.142 1.964-.36l.335-.13c1.495-.584 3.14-.91 4.934-.982 2.493-.104 4.56.314 6.203 1.252 1.064.605 1.78 1.345 2.152 2.218.197.47.293.982.287 1.538z"/><path id="E" d="M125.484 31.325c-.005.147-.02.297-.04.45l-.065.385c-.273 1.288-1.028 2.482-2.267 3.584l-.712.573v.008l-.1.058c-.076.044-.166.068-.27.074-.115.005-.208-.014-.278-.057-.06-.032-.09-.073-.1-.123v2.005c-.005.06.025.11.1.147a.48.48 0 0 0 .278.058c.104-.005.194-.03.27-.074l.1-.057v-.008c1.806-1.358 2.82-2.872 3.044-4.542a4.54 4.54 0 0 0 .049-.663l-.008-.205v-1.612zm-2.504 3.036c.088-.295.134-.6.14-.917a3.85 3.85 0 0 0-.286-1.538c-.37-.873-1.088-1.612-2.152-2.218-1.642-.938-3.7-1.356-6.203-1.252-1.795.07-3.44.398-4.934.982l-.335.13c-.605.218-1.26.338-1.964.36-.322.005-.622-.005-.9-.033h-.008v2.03h.008a7.82 7.82 0 0 0 .9.033c.704-.022 1.358-.142 1.964-.36l.335-.13c1.495-.584 3.14-.91 4.934-.982 2.493-.104 4.56.314 6.203 1.252 1.064.605 1.78 1.345 2.152 2.218.06.137.11.28.147.426z"/></defs></svg>