<svg xmlns="http://www.w3.org/2000/svg" xmlns:xlink="http://www.w3.org/1999/xlink" width="225" height="159" xmlns:v="https://vecta.io/nano"><style><![CDATA[.B{fill:#918778}.C{fill:#c6c1b7}.D{fill:#b4ada3}.E{fill:#706b60}.F{fill:#c8c4bb}.G{fill:#f7f1e6}]]></style><g fill-rule="nonzero"><use xlink:href="#B" class="B"/><use xlink:href="#C" class="C"/><use xlink:href="#D" class="D"/><use xlink:href="#E" class="E"/><use xlink:href="#F" class="F"/><path d="M175.566 28.66c-1.754-.216-3.198 0-4.333.647-.885.505-1.346 1.132-1.383 1.88a.87.87 0 0 0 0 .166v.032c.005.148.027.3.064.458v.008a3.24 3.24 0 0 0 .631 1.232l.064.08.008.016a.32.32 0 0 1 .048.039.72.72 0 0 0 .096.063c.165.09.357.137.576.142.107 0 .205-.008.296-.024l.12-.032.128-.063c.117-.068.18-.15.192-.245v-.064c-.01-.116-.098-.218-.264-.308l-.016-.016c-.02-.01-.04-.02-.056-.024-.15-.068-.314-.105-.496-.11h-.024c.107-.242.32-.453.64-.632.57-.327 1.324-.458 2.263-.395.304.02.603.06.896.12l-2.647 1.516-.12.063-.176.095-.32.166-1.263.616-2.902 1.248 4.597 2.148c1.317-1.363 3.18-2.666 5.59-3.908l.407-.237c.15.19.25.387.304.592.123.495-.062.9-.552 1.216l-.104.063c-.368.21-.815.337-1.343.38v-.047c-.005-.053-.026-.102-.064-.15a.76.76 0 0 0-.136-.119.32.32 0 0 0-.048-.039 1.26 1.26 0 0 0-.583-.15c-.213-.005-.392.034-.536.118-.133.08-.2.168-.2.27v.032c.016.126.104.237.264.332.016.005.032.013.048.024l.152.055.11.03a13.6 13.6 0 0 0 1.351.3l1.263.134c1.87.13 3.374-.126 4.51-.774.618-.353 1.013-.747 1.184-1.185.053-.158.085-.318.096-.482V33.9a2.03 2.03 0 0 0-.152-.703c-.384-.958-1.322-1.853-2.814-2.685-.016-.01-.035-.02-.056-.032l-.072-.04-.064-.04-.712-.387a13.17 13.17 0 0 0-4.46-1.356z" class="G"/><use xlink:href="#B" x="-27" y="-7" class="B"/><use xlink:href="#C" x="-27" y="-7" class="C"/><use xlink:href="#D" x="-27" y="-7" class="D"/><use xlink:href="#E" x="-27" y="-7" class="E"/><use xlink:href="#F" x="-27" y="-7" class="F"/><path d="M148.566 21.66c-1.754-.216-3.198 0-4.333.647-.885.505-1.346 1.132-1.383 1.88a.87.87 0 0 0 0 .166v.032c.005.148.027.3.064.458v.008a3.24 3.24 0 0 0 .631 1.232l.064.08.008.016a.32.32 0 0 1 .048.039.72.72 0 0 0 .096.063c.165.09.357.137.576.142.107 0 .205-.008.296-.024l.12-.032.128-.063c.117-.068.18-.15.192-.245v-.064c-.01-.116-.098-.218-.264-.308l-.016-.016c-.02-.01-.04-.02-.056-.024-.15-.068-.314-.105-.496-.11h-.024c.107-.242.32-.453.64-.632.57-.327 1.324-.458 2.263-.395.304.02.603.06.896.12l-2.647 1.516-.12.063-.176.095-.32.166-1.263.616-2.902 1.248 4.597 2.148c1.317-1.363 3.18-2.666 5.59-3.908l.407-.237c.15.19.25.387.304.592.123.495-.062.9-.552 1.216l-.104.063c-.368.21-.815.337-1.343.38v-.047c-.005-.053-.026-.102-.064-.15a.76.76 0 0 0-.136-.119.32.32 0 0 0-.048-.039 1.26 1.26 0 0 0-.583-.15c-.213-.005-.392.034-.536.118-.133.08-.2.168-.2.27v.032c.016.126.104.237.264.332.016.005.032.013.048.024l.152.055.11.03a13.6 13.6 0 0 0 1.351.3l1.263.134c1.87.13 3.374-.126 4.51-.774.618-.353 1.013-.747 1.184-1.185.053-.158.085-.318.096-.482V26.9a2.03 2.03 0 0 0-.152-.703c-.384-.958-1.322-1.853-2.814-2.685-.016-.01-.035-.02-.056-.032l-.072-.04-.064-.04-.712-.387a13.17 13.17 0 0 0-4.46-1.356z" class="G"/><use xlink:href="#B" x="-27" y="53" class="B"/><use xlink:href="#C" x="-27" y="53" class="C"/><use xlink:href="#D" x="-27" y="53" class="D"/><use xlink:href="#E" x="-27" y="53" class="E"/><use xlink:href="#F" x="-27" y="53" class="F"/><path d="M148.566 81.66c-1.754-.216-3.198 0-4.333.647-.885.505-1.346 1.132-1.383 1.88a.87.87 0 0 0 0 .166v.032c.005.148.027.3.064.458v.008a3.24 3.24 0 0 0 .631 1.232l.064.08.008.016a.32.32 0 0 1 .048.039.72.72 0 0 0 .096.063c.165.09.357.137.576.142.107 0 .205-.008.296-.024l.12-.032.128-.063c.117-.068.18-.15.192-.245v-.064c-.01-.116-.098-.218-.264-.308l-.016-.016c-.02-.01-.04-.02-.056-.024-.15-.068-.314-.105-.496-.11h-.024c.107-.242.32-.453.64-.632.57-.327 1.324-.458 2.263-.395.304.02.603.06.896.12l-2.647 1.516-.12.063-.176.095-.32.166-1.263.616-2.902 1.248 4.597 2.148c1.317-1.363 3.18-2.666 5.59-3.908l.407-.237c.15.19.25.387.304.592.123.495-.062.9-.552 1.216l-.104.063c-.368.21-.815.337-1.343.38v-.047c-.005-.053-.026-.102-.064-.15a.76.76 0 0 0-.136-.119.32.32 0 0 0-.048-.039 1.26 1.26 0 0 0-.583-.15c-.213-.005-.392.034-.536.118-.133.08-.2.168-.2.27v.032c.016.126.104.237.264.332.016.005.032.013.048.024l.152.055.11.03a13.6 13.6 0 0 0 1.351.3l1.263.134c1.87.13 3.374-.126 4.51-.774.618-.353 1.013-.747 1.184-1.185.053-.158.085-.318.096-.482V86.9a2.03 2.03 0 0 0-.152-.703c-.384-.958-1.322-1.853-2.814-2.685-.016-.01-.035-.02-.056-.032l-.072-.04-.064-.04-.712-.387a13.17 13.17 0 0 0-4.46-1.356z" class="G"/><use xlink:href="#B" x="-108" y="34" class="B"/><use xlink:href="#C" x="-108" y="34" class="C"/><use xlink:href="#D" x="-108" y="34" class="D"/><use xlink:href="#E" x="-108" y="34" class="E"/><use xlink:href="#F" x="-108" y="34" class="F"/><path d="M67.566 62.66c-1.754-.216-3.198 0-4.333.647-.885.505-1.346 1.132-1.383 1.88a.87.87 0 0 0 0 .166v.032c.005.148.027.3.064.458v.008a3.24 3.24 0 0 0 .631 1.232l.064.08.008.016a.32.32 0 0 1 .048.039.72.72 0 0 0 .096.063c.165.09.357.137.576.142.107 0 .205-.008.296-.024l.12-.032.128-.063c.117-.068.18-.15.192-.245v-.064c-.01-.116-.098-.218-.264-.308l-.016-.016c-.02-.01-.04-.02-.056-.024-.15-.068-.314-.105-.496-.11h-.024c.107-.242.32-.453.64-.632.57-.327 1.324-.458 2.263-.395.304.02.603.06.896.12l-2.647 1.516-.12.063-.176.095-.32.166-1.263.616-2.902 1.248 4.597 2.148c1.317-1.363 3.18-2.666 5.59-3.908l.407-.237c.15.19.25.387.304.592.123.495-.062.9-.552 1.216l-.104.063c-.368.21-.815.337-1.343.38v-.047c-.005-.053-.026-.102-.064-.15a.76.76 0 0 0-.136-.119.32.32 0 0 0-.048-.039 1.26 1.26 0 0 0-.583-.15c-.213-.005-.392.034-.536.118-.133.08-.2.168-.2.27v.032c.016.126.104.237.264.332.016.005.032.013.048.024l.152.055.11.03a13.6 13.6 0 0 0 1.351.3l1.263.134c1.87.13 3.374-.126 4.51-.774.618-.353 1.013-.747 1.184-1.185.053-.158.085-.318.096-.482V67.9a2.03 2.03 0 0 0-.152-.703c-.384-.958-1.322-1.853-2.814-2.685-.016-.01-.035-.02-.056-.032l-.072-.04-.064-.04-.712-.387a13.17 13.17 0 0 0-4.46-1.356z" class="G"/><use xlink:href="#B" x="-49" y="31" class="B"/><use xlink:href="#C" x="-49" y="31" class="C"/><use xlink:href="#D" x="-49" y="31" class="D"/><use xlink:href="#E" x="-49" y="31" class="E"/><use xlink:href="#F" x="-49" y="31" class="F"/><path d="M126.566 59.66c-1.754-.216-3.198 0-4.333.647-.885.505-1.346 1.132-1.383 1.88a.87.87 0 0 0 0 .166v.032c.005.148.027.3.064.458v.008a3.24 3.24 0 0 0 .631 1.232l.064.08.008.016a.32.32 0 0 1 .048.039.72.72 0 0 0 .096.063c.165.09.357.137.576.142.107 0 .205-.008.296-.024l.12-.032.128-.063c.117-.068.18-.15.192-.245v-.064c-.01-.116-.098-.218-.264-.308l-.016-.016c-.02-.01-.04-.02-.056-.024-.15-.068-.314-.105-.496-.11h-.024c.107-.242.32-.453.64-.632.57-.327 1.324-.458 2.263-.395.304.02.603.06.896.12l-2.647 1.516-.12.063-.176.095-.32.166-1.263.616-2.902 1.248 4.597 2.148c1.317-1.363 3.18-2.666 5.59-3.908l.407-.237c.15.19.25.387.304.592.123.495-.062.9-.552 1.216l-.104.063c-.368.21-.815.337-1.343.38v-.047c-.005-.053-.026-.102-.064-.15a.76.76 0 0 0-.136-.119.32.32 0 0 0-.048-.039 1.26 1.26 0 0 0-.583-.15c-.213-.005-.392.034-.536.118-.133.08-.2.168-.2.27v.032c.016.126.104.237.264.332.016.005.032.013.048.024l.152.055.11.03a13.6 13.6 0 0 0 1.351.3l1.263.134c1.87.13 3.374-.126 4.51-.774.618-.353 1.013-.747 1.184-1.185.053-.158.085-.318.096-.482V64.9a2.03 2.03 0 0 0-.152-.703c-.384-.958-1.322-1.853-2.814-2.685-.016-.01-.035-.02-.056-.032l-.072-.04-.064-.04-.712-.387a13.17 13.17 0 0 0-4.46-1.356z" class="G"/></g><defs ><path id="B" d="M176.285 35.27a.76.76 0 0 1 .136.119c.038.047.06.097.064.15v.047c.528-.042.975-.168 1.343-.38l.104-.063c.49-.316.674-.72.552-1.216-.053-.206-.155-.403-.304-.592l-.407.237a1.17 1.17 0 0 1 .128.308c.074.284.024.534-.152.75l-.04.056c-.096.095-.216.184-.36.27a2.6 2.6 0 0 1-.567.229c-.155.035-.32.064-.496.086h0zm-1.67-3.41l.4-.23a7.24 7.24 0 0 0-.896-.119c-.938-.063-1.692.068-2.263.395-.32.18-.533.4-.64.632h.024a1.27 1.27 0 0 1 .496.111c.09-.2.26-.37.512-.514.48-.274 1.117-.382 1.91-.324l.455.048z"/><path id="C" d="M171.632 33.398c-.09.016-.19.024-.296.024-.22-.005-.4-.053-.576-.142a.76.76 0 0 1-.096-.063.32.32 0 0 0-.048-.039l-.008-.016-.064-.08c-.314-.395-.525-.805-.63-1.232v-.008a2.34 2.34 0 0 1-.064-.458l-.008.924v.08a2.72 2.72 0 0 0 .072.529c.1.405.293.795.576 1.168l1.263-.616.32-.166v-.245c-.01.095-.074.177-.192.245l-.128.063-.12.03z"/><path id="D" d="M174.918 35.498v-.032c0-.1.067-.19.2-.27.144-.084.322-.124.536-.118.22.005.408.055.567.15.032.01.048.024.064.04a4.31 4.31 0 0 0 .496-.087l.927-.497.04-.056a.8.8 0 0 0 .152-.75 1.19 1.19 0 0 0-.128-.308c-2.41 1.242-4.272 2.545-5.59 3.908l-.016-.008v1.074l.016.008c.74-.763 1.653-1.508 2.734-2.235v.252c.016.126.104.237.264.332.016.005.032.013.048.024l.152.056.056.016c.842.242 1.732.392 2.67.45 1.87.13 3.374-.126 4.51-.774.805-.458 1.23-.992 1.27-1.603.005-.063.005-.126 0-.19l.008-.948a1.88 1.88 0 0 1-.096.482c-.17.437-.565.832-1.184 1.185-1.135.647-2.64.905-4.51.774l-1.263-.134-1.35-.3-.11-.03-.152-.055c-.016-.01-.032-.02-.048-.024-.16-.094-.247-.205-.263-.33z"/><path id="E" d="M174.614 31.858l-.455-.047c-.794-.058-1.43.05-1.91.324-.25.142-.42.313-.512.514a.49.49 0 0 1 .056.024l.016.016c.165.1.253.192.264.308v.31l.176-.095.12-.063 2.246-1.288z"/><path id="F" d="M167.586 35.332l.008 1.08 4.573 2.132v-1.074z"/></defs></svg>