<svg xmlns="http://www.w3.org/2000/svg" xmlns:xlink="http://www.w3.org/1999/xlink" width="225" height="159" xmlns:v="https://vecta.io/nano"><style><![CDATA[.B{fill:#815f83}.C{fill:#937596}.D{fill:#efeeee}.E{fill:#cfd0d0}.F{fill:#736077}.G{fill:#957c99}.H{fill:#f1f0f0}.I{fill:#dfdfde}.J{fill:#977a9b}.K{fill:#c19bc7}.L{fill:#b394b7}.M{fill:#c6c5c5}.N{fill:#56ab46}]]></style><g fill-rule="nonzero"><path d="M89.286 75.714v1.116a4.72 4.72 0 0 0 .483.646V76.36a5.62 5.62 0 0 1-.483-.646h0zm2.792 2.46c-.01-.006-.02-.01-.025-.017l-.708-.436v1.116l.708.436c.006.006.014.01.025.017v-1.116zm.584.31l-.1-.05v1.116l.1.05v-1.116zM90.895 77.4a7.06 7.06 0 0 1-.708-.604v1.116a7.13 7.13 0 0 0 .708.604V77.4zm-2.284-3.87v.948a4.34 4.34 0 0 0 .317 1.679l.016-1.082a4.33 4.33 0 0 1-.3-1.1l-.033-.445z" class="B"/><path d="M88.928 76.16c.1.224.22.447.358.67v-1.116c-.133-.213-.248-.425-.342-.638l-.016 1.082zm3.634 2.274l-.483-.26v1.116l.483.26v-1.116zm-2.375-.52v-1.116c-.15-.14-.29-.286-.417-.436v1.116c.128.15.267.297.417.436h0zm.708-.512v1.116l.45.32V77.72l-.45-.32z" class="C"/><use xlink:href="#B" class="D"/><use xlink:href="#C" class="E"/><path d="M93.03 78.3l-.367.185V79.6l.034.017.342-.2v-1.108l-.01-.01z" class="F"/><use xlink:href="#D" class="G"/><use xlink:href="#E" class="H"/><use xlink:href="#F" class="I"/><path d="M109 70.03l.31-.176V68.73l-.31.176v1.125zm-.758-.688h-.01l-.29.168v1.133l.183-.1.117-.067v-1.133z" class="J"/><use xlink:href="#G" class="K"/><use xlink:href="#H" class="L"/><path d="M107.932 69.51l-.884.495v1.15l.884-.512V69.51zm.3-.176v1.142l.092-.05.667-.394v-1.116l-.758.42z" class="M"/><use xlink:href="#I" class="N"/><path d="M131.286 77.714v1.116a4.72 4.72 0 0 0 .483.646V78.36a5.62 5.62 0 0 1-.483-.646h0zm2.792 2.46c-.01-.006-.02-.01-.025-.017l-.708-.436v1.116l.708.436c.005.006.014.01.025.017v-1.116zm.584.31l-.1-.05v1.116l.1.05v-1.116zm-1.767-1.083a7.06 7.06 0 0 1-.708-.604v1.116a7.13 7.13 0 0 0 .708.604V79.4zm-2.284-3.87v.948a4.34 4.34 0 0 0 .317 1.679l.017-1.082a4.33 4.33 0 0 1-.3-1.1l-.033-.445z" class="B"/><path d="M130.928 78.16c.1.224.22.447.358.67v-1.116c-.133-.213-.248-.425-.342-.638l-.017 1.082zm3.634 2.274l-.483-.26v1.116l.483.26v-1.116zm-2.375-.52v-1.116c-.15-.14-.29-.286-.417-.436v1.116c.128.15.267.297.417.436h0zm.708-.512v1.116l.45.32V79.72l-.45-.32z" class="C"/><use xlink:href="#J" class="D"/><use xlink:href="#C" x="42" y="2" class="E"/><path d="M135.03 80.3l-.367.185V81.6l.034.017.342-.2v-1.108l-.01-.01z" class="F"/><use xlink:href="#K" class="G"/><use xlink:href="#E" x="42" y="2" class="H"/><use xlink:href="#F" x="42" y="2" class="I"/><path d="M151 72.03l.31-.176V70.73l-.31.176v1.125zm-.758-.688h-.01l-.29.168v1.133l.183-.1.117-.067v-1.133z" class="J"/><use xlink:href="#L" class="K"/><use xlink:href="#M" class="L"/><path d="M149.932 71.51l-.884.495v1.15l.884-.512V71.51zm.3-.176v1.142l.092-.05.667-.394v-1.116l-.758.42z" class="M"/><use xlink:href="#I" x="42" y="2" class="N"/><path d="M150.286 64.714v1.116a4.72 4.72 0 0 0 .483.646V65.36a5.62 5.62 0 0 1-.483-.646h0zm2.792 2.46c-.01-.006-.02-.01-.025-.017l-.708-.436v1.116l.708.436c.005.006.014.01.025.017v-1.116zm.584.31l-.1-.05v1.116l.1.05v-1.116zm-1.767-1.083a7.06 7.06 0 0 1-.708-.604v1.116a7.13 7.13 0 0 0 .708.604V66.4zm-2.284-3.87v.948a4.34 4.34 0 0 0 .317 1.679l.017-1.082a4.33 4.33 0 0 1-.3-1.1l-.033-.445z" class="B"/><path d="M149.928 65.16c.1.224.22.447.358.67v-1.116c-.133-.213-.248-.425-.342-.638l-.017 1.082zm3.634 2.274l-.483-.26v1.116l.483.26v-1.116zm-2.375-.52v-1.116c-.15-.14-.29-.286-.417-.436v1.116c.128.15.267.297.417.436h0zm.708-.512v1.116l.45.32V66.72l-.45-.32z" class="C"/><use xlink:href="#J" x="19" y="-13" class="D"/><use xlink:href="#C" x="61" y="-11" class="E"/><path d="M154.03 67.3l-.367.185V68.6l.034.017.342-.2v-1.108l-.01-.01z" class="F"/><use xlink:href="#K" x="19" y="-13" class="G"/><use xlink:href="#E" x="61" y="-11" class="H"/><use xlink:href="#F" x="61" y="-11" class="I"/><path d="M170 59.03l.31-.176V57.73l-.31.176v1.125zm-.758-.688h-.01l-.29.168v1.133l.183-.1.117-.067v-1.133z" class="J"/><use xlink:href="#L" x="19" y="-13" class="K"/><use xlink:href="#M" x="19" y="-13" class="L"/><path d="M168.932 58.51l-.884.495v1.15l.884-.512V58.51zm.3-.176v1.142l.092-.05.667-.394v-1.116l-.758.42z" class="M"/><use xlink:href="#I" x="61" y="-11" class="N"/><path d="M114.286 55.714v1.116a4.72 4.72 0 0 0 .483.646V56.36a5.62 5.62 0 0 1-.483-.646h0zm2.792 2.46c-.01-.006-.02-.01-.025-.017l-.708-.436v1.116l.708.436c.006.006.014.01.025.017v-1.116zm.584.31l-.1-.05v1.116l.1.05v-1.116zm-1.767-1.083a7.06 7.06 0 0 1-.708-.604v1.116a7.13 7.13 0 0 0 .708.604V57.4zm-2.284-3.87v.948a4.34 4.34 0 0 0 .317 1.679l.016-1.082a4.33 4.33 0 0 1-.3-1.1l-.033-.445z" class="B"/><path d="M113.928 56.16c.1.224.22.447.358.67v-1.116c-.133-.213-.248-.425-.342-.638l-.016 1.082zm3.634 2.274l-.483-.26v1.116l.483.26v-1.116zm-2.375-.52v-1.116c-.15-.14-.29-.286-.417-.436v1.116c.128.15.267.297.417.436h0zm.708-.512v1.116l.45.32V57.72l-.45-.32z" class="C"/><use xlink:href="#B" x="25" y="-20" class="D"/><use xlink:href="#C" x="25" y="-20" class="E"/><path d="M118.03 58.3l-.367.185V59.6l.034.017.342-.2v-1.108l-.01-.01z" class="F"/><use xlink:href="#D" x="25" y="-20" class="G"/><use xlink:href="#E" x="25" y="-20" class="H"/><use xlink:href="#F" x="25" y="-20" class="I"/><path d="M134 50.03l.31-.176V48.73l-.31.176v1.125zm-.758-.688h-.01l-.29.168v1.133l.183-.1.117-.067v-1.133z" class="J"/><use xlink:href="#G" x="25" y="-20" class="K"/><use xlink:href="#H" x="25" y="-20" class="L"/><path d="M132.932 49.51l-.884.495v1.15l.884-.512V49.51zm.3-.176v1.142l.092-.05.667-.394v-1.116l-.758.42z" class="M"/><use xlink:href="#I" x="25" y="-20" class="N"/><path d="M103.286 45.714v1.116a4.72 4.72 0 0 0 .483.646V46.36a5.62 5.62 0 0 1-.483-.646h0zm2.792 2.46c-.01-.006-.02-.01-.025-.017l-.708-.436v1.116l.708.436c.006.006.014.01.025.017v-1.116zm.584.31l-.1-.05v1.116l.1.05v-1.116zm-1.767-1.083a7.06 7.06 0 0 1-.708-.604v1.116a7.13 7.13 0 0 0 .708.604V47.4zm-2.284-3.87v.948a4.34 4.34 0 0 0 .317 1.679l.016-1.082a4.33 4.33 0 0 1-.3-1.1l-.033-.445z" class="B"/><path d="M102.928 46.16c.1.224.22.447.358.67v-1.116c-.133-.213-.248-.425-.342-.638l-.016 1.082zm3.634 2.274l-.483-.26v1.116l.483.26v-1.116zm-2.375-.52v-1.116c-.15-.14-.29-.286-.417-.436v1.116c.128.15.267.297.417.436h0zm.708-.512v1.116l.45.32V47.72l-.45-.32z" class="C"/><use xlink:href="#B" x="14" y="-30" class="D"/><use xlink:href="#C" x="14" y="-30" class="E"/><path d="M107.03 48.3l-.367.185V49.6l.034.017.342-.2v-1.108l-.01-.01z" class="F"/><use xlink:href="#D" x="14" y="-30" class="G"/><use xlink:href="#E" x="14" y="-30" class="H"/><use xlink:href="#F" x="14" y="-30" class="I"/><path d="M123 40.03l.31-.176V38.73l-.31.176v1.125zm-.758-.688h-.01l-.29.168v1.133l.183-.1.117-.067v-1.133z" class="J"/><use xlink:href="#G" x="14" y="-30" class="K"/><use xlink:href="#H" x="14" y="-30" class="L"/><path d="M121.932 39.51l-.884.495v1.15l.884-.512V39.51zm.3-.176v1.142l.092-.05.667-.394v-1.116l-.758.42z" class="M"/><use xlink:href="#I" x="14" y="-30" class="N"/><path d="M147.286 39.714v1.116a4.72 4.72 0 0 0 .483.646V40.36a5.62 5.62 0 0 1-.483-.646h0zm2.792 2.46c-.01-.006-.02-.01-.025-.017l-.708-.436v1.116l.708.436c.005.006.014.01.025.017v-1.116zm.584.31l-.1-.05v1.116l.1.05v-1.116zm-1.767-1.083a7.06 7.06 0 0 1-.708-.604v1.116a7.13 7.13 0 0 0 .708.604V41.4zm-2.284-3.87v.948a4.34 4.34 0 0 0 .317 1.679l.017-1.082a4.33 4.33 0 0 1-.3-1.1l-.033-.445z" class="B"/><path d="M146.928 40.16c.1.224.22.447.358.67v-1.116c-.133-.213-.248-.425-.342-.638l-.017 1.082zm3.634 2.274l-.483-.26v1.116l.483.26v-1.116zm-2.375-.52v-1.116c-.15-.14-.29-.286-.417-.436v1.116c.128.15.267.297.417.436h0zm.708-.512v1.116l.45.32V41.72l-.45-.32z" class="C"/><use xlink:href="#J" x="16" y="-38" class="D"/><use xlink:href="#C" x="58" y="-36" class="E"/><path d="M151.03 42.3l-.367.185V43.6l.034.017.342-.2v-1.108l-.01-.01z" class="F"/><use xlink:href="#K" x="16" y="-38" class="G"/><use xlink:href="#E" x="58" y="-36" class="H"/><use xlink:href="#F" x="58" y="-36" class="I"/><path d="M167 34.03l.31-.176V32.73l-.31.176v1.125zm-.758-.688h-.01l-.29.168v1.133l.183-.1.117-.067v-1.133z" class="J"/><use xlink:href="#L" x="16" y="-38" class="K"/><use xlink:href="#M" x="16" y="-38" class="L"/><path d="M165.932 33.51l-.884.495v1.15l.884-.512V33.51zm.3-.176v1.142l.092-.05.667-.394v-1.116l-.758.42z" class="M"/><use xlink:href="#I" x="58" y="-36" class="N"/></g><defs ><path id="B" d="M94.204 78.735l-.075.042h.01l.167-.092-.1.05zm14.02-9.392h.01v-.01l.75-.428-.15-.084c-2.256-1.26-4.987-1.89-8.193-1.89-3.21-.006-5.957.618-8.235 1.872-2.034 1.114-3.17 2.434-3.41 3.962-.04.196-.058.392-.058.588-.022 1.785 1.098 3.307 3.36 4.566l.733.378.01.01v-.017l.808-.412c-.033-.02-.05-.028-.067-.034l-.917-.445a8.59 8.59 0 0 1-.85-.503c-1.528-1.013-2.284-2.193-2.267-3.542.017-1.567 1.087-2.907 3.21-4.02.456-.24.93-.45 1.425-.63 1.81-.688 3.895-1.033 6.25-1.033 2.234 0 4.22.316 5.96.948.57.2 1.116.442 1.633.722z"/><path id="C" d="M93.037 78.29v1.124l.792-.462v-1.066l-.792.403zm1.167-.604v1.05l.1-.05.892-.53v-.974l-.992.503z"/><path id="D" d="M94.195 77.694l-.35.185-.016.01v1.066l.3-.176.075-.042v-1.033z"/><path id="E" d="M108.115 70.543h.01l.2-.118-.092.05-.117.067zm-1.067-.537l.884-.495c-2.023-1.018-4.456-1.527-7.302-1.527-2.917 0-5.4.523-7.476 1.57s-3.112 2.32-3.134 3.802c-.01.935.378 1.782 1.167 2.543.478.46 1.1.887 1.867 1.284l.758.36.383.15.01.01v-.017l.992-.503-1.275-.487-.233-.11c-1.506-.71-2.4-1.545-2.684-2.5l-.05-.185a3.37 3.37 0 0 1-.042-.529c.016-1.26.972-2.33 2.867-3.215 1.89-.878 4.17-1.318 6.843-1.318 2.484-.001 4.626.388 6.426 1.166z"/><path id="F" d="M108.115 70.543l-.183.1-.884.512v-1.15c-1.8-.778-3.942-1.167-6.426-1.167-2.673 0-4.954.44-6.843 1.318-1.895.884-2.85 1.956-2.867 3.215a3.37 3.37 0 0 0 .042.529c.428-1.035 1.37-1.894 2.826-2.577 1.89-.878 4.17-1.318 6.843-1.318 2.473 0 4.612.386 6.418 1.158l.01.01h.01l1.067-.63h-.01z"/><path id="G" d="M108.832 68.823l.15.084h.01l.31-.176-.233-.134c-2.323-1.32-5.13-1.98-8.427-1.98-3.306-.006-6.132.65-8.477 1.964s-3.53 2.9-3.55 4.784v.167l.034.445a4.33 4.33 0 0 0 .3 1.1c.095.212.208.425.342.638.14.218.3.434.483.646a5.06 5.06 0 0 0 .417.436 7.13 7.13 0 0 0 .708.604l.45.32.708.436c.005.006.014.01.025.017l.483.26.1.05.367-.185-.733-.378c-2.262-1.26-3.38-2.78-3.36-4.566a3.04 3.04 0 0 1 .058-.588c.24-1.527 1.375-2.848 3.41-3.962 2.278-1.254 5.023-1.878 8.235-1.872 3.205.002 5.936.632 8.193 1.89z"/><path id="H" d="M107.932 69.51l.29-.168c-.517-.28-1.06-.52-1.633-.722-1.74-.632-3.726-.948-5.96-.948-2.356 0-4.44.344-6.25 1.033-.494.18-.97.39-1.425.63-2.122 1.113-3.192 2.454-3.21 4.02-.017 1.348.74 2.53 2.267 3.542a8.47 8.47 0 0 0 .85.503l.917.445c.017.006.034.014.05.025l.367-.176-.383-.15-.758-.36c-.767-.398-1.39-.825-1.867-1.284-.79-.76-1.178-1.61-1.167-2.543.022-1.483 1.067-2.75 3.134-3.802 2.067-1.046 4.56-1.57 7.476-1.57 2.844-.001 5.278.51 7.3 1.527z"/><path id="I" d="M102.92 81.57c.13.18.27.292.482.362.374.125.535-.47.163-.593-.05-.01-.088-.038-.116-.08-.228-.32-.758-.012-.528.31h0z"/><path id="J" d="M136.204 80.735l-.075.042h.01l.167-.092-.1.05zm14.02-9.392h.01v-.01l.75-.428-.15-.084c-2.256-1.26-4.987-1.89-8.193-1.89-3.21-.006-5.957.618-8.235 1.872-2.034 1.114-3.17 2.434-3.41 3.962-.04.196-.058.392-.058.588-.022 1.785 1.098 3.307 3.36 4.566l.733.378.01.01v-.017l.808-.412c-.033-.02-.05-.028-.067-.034l-.917-.445a8.59 8.59 0 0 1-.85-.503c-1.528-1.013-2.284-2.193-2.267-3.542.016-1.567 1.087-2.907 3.21-4.02.456-.24.93-.45 1.425-.63 1.81-.688 3.895-1.033 6.25-1.033 2.234 0 4.22.316 5.96.948.57.2 1.116.442 1.633.722z"/><path id="K" d="M136.195 79.694l-.35.185-.017.01v1.066l.3-.176.075-.042v-1.033z"/><path id="L" d="M150.832 70.823l.15.084h.01l.31-.176-.233-.134c-2.323-1.32-5.13-1.98-8.427-1.98-3.306-.006-6.132.65-8.477 1.964s-3.53 2.9-3.55 4.784v.167l.034.445a4.33 4.33 0 0 0 .3 1.1c.095.212.208.425.342.638.14.218.3.434.483.646a5.06 5.06 0 0 0 .417.436 7.13 7.13 0 0 0 .708.604l.45.32.708.436c.006.006.014.01.025.017l.483.26.1.05.367-.185-.733-.378c-2.262-1.26-3.38-2.78-3.36-4.566a3.04 3.04 0 0 1 .058-.588c.24-1.527 1.375-2.848 3.41-3.962 2.278-1.254 5.023-1.878 8.235-1.872 3.205.002 5.936.632 8.193 1.89z"/><path id="M" d="M149.932 71.51l.29-.168c-.517-.28-1.06-.52-1.633-.722-1.74-.632-3.726-.948-5.96-.948-2.356 0-4.44.344-6.25 1.033-.494.18-.97.39-1.425.63-2.122 1.113-3.192 2.454-3.21 4.02-.016 1.348.74 2.53 2.267 3.542a8.47 8.47 0 0 0 .85.503l.917.445c.017.006.034.014.05.025l.367-.176-.383-.15-.758-.36c-.767-.398-1.39-.825-1.867-1.284-.79-.76-1.178-1.61-1.167-2.543.022-1.483 1.067-2.75 3.134-3.802 2.067-1.046 4.56-1.57 7.476-1.57 2.844-.001 5.278.51 7.3 1.527z"/></defs></svg>