<svg xmlns="http://www.w3.org/2000/svg" xmlns:xlink="http://www.w3.org/1999/xlink" width="225" height="159" xmlns:v="https://vecta.io/nano"><g fill-rule="nonzero"><use xlink:href="#B" fill="#d75d27"/><use xlink:href="#C" fill="#f58857"/><path d="M153.3 36.657a9.21 9.21 0 0 0-1-.173v1.752c2.055.237 3.258.985 3.608 2.244.056-.262.09-.523.1-.785.056-1.588-.847-2.6-2.708-3.04h0zM132.302 36l-.64.22c-2.378.858-3.596 2.114-3.657 3.768A3.14 3.14 0 0 0 128.12 41c.39-1.43 1.79-2.515 4.2-3.257L132.302 36z" fill="#d95d2e"/><use xlink:href="#B" x="19" y="38" fill="#d75d27"/><use xlink:href="#C" x="19" y="38" fill="#f58857"/><path d="M172.3 74.657a9.21 9.21 0 0 0-1-.173v1.752c2.055.237 3.258.985 3.608 2.244.056-.262.09-.523.1-.785.056-1.588-.847-2.6-2.708-3.04h0zM151.302 74l-.64.22c-2.378.858-3.596 2.114-3.657 3.768A3.14 3.14 0 0 0 147.12 79c.39-1.43 1.79-2.515 4.2-3.257L151.302 74z" fill="#d95d2e"/><use xlink:href="#B" x="-54" y="37" fill="#d75d27"/><use xlink:href="#C" x="-54" y="37" fill="#f58857"/><path d="M99.3 73.657a9.21 9.21 0 0 0-1-.173v1.752c2.055.237 3.258.985 3.608 2.244.056-.262.09-.523.1-.785.056-1.588-.847-2.6-2.708-3.04h0zM78.302 73l-.64.22c-2.378.858-3.596 2.114-3.657 3.768A3.14 3.14 0 0 0 74.12 78c.39-1.43 1.79-2.515 4.2-3.257L78.302 73z" fill="#d95d2e"/></g><defs ><path id="B" d="M158.995 38.757a5.79 5.79 0 0 1-.067.614c-.34 1.792-1.79 3.427-4.348 4.904-2.103 1.217-4.106 1.792-6.01 1.726a8.24 8.24 0 0 1-1.978-.324.85.85 0 0 1-.108.075c-1.497 1.046-3.714 1.596-6.65 1.65-3 .06-6.257-.82-9.74-2.64-2.943-1.533-4.61-3.125-5-4.78a3.35 3.35 0 0 1-.092-.705v1.535c-.006.028-.006.052 0 .075.045 1.903 1.74 3.726 5.09 5.468 3.483 1.82 6.73 2.7 9.74 2.64 3-.055 5.263-.63 6.76-1.726 2.476.714 5.138.246 7.986-1.402 2.848-1.643 4.32-3.483 4.415-5.518a3.34 3.34 0 0 0 0-.332l-.001-1.26zm-25.437-7.02c-1.725 1.023-2.27 2.025-1.636 3.004.29-.465.835-.935 1.636-1.41 2.025-1.195 4.983-1.773 8.87-1.735 3.9.033 6.92.683 9.063 1.95.773.454 1.305.905 1.594 1.353.628-.973.097-1.955-1.594-2.946-2.142-1.267-5.163-1.917-9.063-1.95-3.89-.038-6.846.54-8.87 1.735z"/><path id="C" d="M129.268 34.92c.056.1.122.223.2.34l-.36.132c-2.66.97-4.028 2.404-4.105 4.305v.09c-.006.028-.006.055 0 .082v.04a3.32 3.32 0 0 0 .092.702c.4 1.647 2.056 3.233 5 4.76 3.482 1.812 6.728 2.688 9.738 2.627 2.937-.055 5.154-.603 6.65-1.644a.68.68 0 0 0 .108-.075c.645.187 1.304.294 1.977.322 1.903.066 3.905-.506 6.008-1.72 2.56-1.47 4.008-3.1 4.348-4.883.034-.204.056-.408.067-.61a3.6 3.6 0 0 0 .009-.239c-.022-1.702-1.004-2.817-2.946-3.346a7.2 7.2 0 0 0-.676-.157 2.82 2.82 0 0 0 .467-.611c.63-1.162-.162-2.4-2.37-3.685-2.598-1.526-6.26-2.308-11-2.347-4.723-.05-8.31.645-10.756 2.082-2.247 1.322-3.068 2.6-2.46 3.835h0zm2.654.47c-.634-.975-.09-1.972 1.635-2.99 2.025-1.2 4.982-1.765 8.87-1.727 3.9.033 6.92.68 9.062 1.94 1.69.986 2.223 1.964 1.594 2.933-.173.253-.426.51-.76.768h.01a10.12 10.12 0 0 1 1.002.157c1.864.397 2.768 1.314 2.712 2.75a3.89 3.89 0 0 1-.1.711c-.35 1.405-1.527 2.685-3.53 3.842-2.353 1.344-4.553 1.597-6.6.76-1.23 1.157-3.087 1.76-5.574 1.81-2.486.044-5.163-.68-8.028-2.173-2.342-1.212-3.705-2.468-4.09-3.767-.095-.303-.133-.61-.117-.917.06-1.498 1.282-2.636 3.663-3.412.206-.07.42-.138.642-.198a3.42 3.42 0 0 1-.392-.488z"/></defs></svg>