<svg xmlns="http://www.w3.org/2000/svg" xmlns:xlink="http://www.w3.org/1999/xlink" width="225" height="159" xmlns:v="https://vecta.io/nano"><style><![CDATA[.B{fill:#815443}.C{fill:#96614f}.D{fill:#b1694f}.E{fill:#f4b6a1}.F{fill:#884832}.G{fill:#cd7b5e}]]></style><g fill-rule="nonzero"><use xlink:href="#B" class="B"/><use xlink:href="#C" class="C"/><path d="M64.813 76.516a3.79 3.79 0 0 0-.422 1.786c.02 1.703 1.1 3.152 3.264 4.348 2.154 1.19 4.74 1.778 7.76 1.762s5.596-.644 7.73-1.867 3.185-2.686 3.174-4.39a3.85 3.85 0 0 0-.422-1.73c-.504-.98-1.45-1.856-2.842-2.627-2.154-1.19-4.74-1.775-7.76-1.754-3.03.02-5.607.644-7.73 1.867-1.348.77-2.265 1.64-2.752 2.603h0zm8.395-3.718c0 .054-.035.103-.105.146h-.008c-.065.038-.15.06-.252.065a.48.48 0 0 1-.13-.016c-.05-.01-.09-.027-.122-.05-.07-.033-.108-.08-.114-.146 0-.06.035-.108.105-.145.07-.043.157-.065.26-.065a.58.58 0 0 1 .26.065c.076.037.11.086.106.145h0zm.576.614c.184-.103.398-.153.64-.153.26-.005.476.043.65.145.18.097.268.216.268.356.005.146-.08.27-.26.372s-.392.153-.642.153-.47-.05-.65-.145c-.173-.103-.263-.223-.268-.364 0-.14.087-.26.26-.363h0zm-4.116-.137c.163-.092.363-.137.6-.137.254-.005.465.038.633.13a.23.23 0 0 1 .057.04c.13.08.192.186.187.315.005.135-.076.25-.243.348s-.373.145-.617.145a1.22 1.22 0 0 1-.617-.145.49.49 0 0 1-.243-.235c-.01-.033-.02-.068-.024-.105.01-.14.1-.258.267-.356h0zm1.283 1.835a.46.46 0 0 1-.236.056c-.092.005-.17-.01-.236-.05s-.098-.08-.098-.13c0-.054.033-.103.098-.145a.5.5 0 0 1 .227-.049c.092 0 .17.016.235.05.065.038.098.084.098.137.006.05-.024.092-.09.13h0zm-.74 1.423c.276 0 .514.054.714.162.2.113.3.248.3.404.005.156-.092.29-.292.404-.195.113-.433.17-.714.17-.282.005-.522-.05-.723-.162-.195-.108-.292-.24-.292-.396 0-.162.098-.3.292-.412.195-.108.433-.164.714-.17h0zm.406 2.49a1.25 1.25 0 0 1 .633-.153c.254 0 .47.05.65.145.18.103.268.223.268.364.005.14-.08.26-.26.364a1.24 1.24 0 0 1-.642.153 1.33 1.33 0 0 1-.641-.145c-.18-.097-.27-.218-.276-.364.005-.14.095-.262.268-.364h0zm3.824-2.57c-.254-.14-.38-.3-.373-.51-.005-.194.114-.364.357-.51.25-.14.552-.213.91-.218.352 0 .652.07.9.2.25.135.373.302.373.5 0 .205-.124.377-.373.517-.243.14-.54.2-.885.2-.357-.001-.66-.07-.91-.203h0zm-1.055 1.293c0-.05.033-.09.098-.12.06-.038.135-.056.227-.056.092-.005.168.01.227.05.065.033.098.075.098.13s-.03.097-.09.13a.52.52 0 0 1-.235.049.47.47 0 0 1-.227-.049c-.06-.033-.093-.075-.098-.13h0zm-6.39-2.223c.114-.07.257-.105.43-.105a.8.8 0 0 1 .439.097c.12.065.182.145.187.242 0 .097-.06.18-.18.25s-.263.105-.43.105c-.184 0-.333-.032-.446-.097-.124-.07-.184-.15-.18-.242-.001-.097.06-.18.178-.25h0zm-1.835 1.487c-.065-.038-.098-.08-.098-.13 0-.054.033-.097.098-.13a.53.53 0 0 1 .219-.057c.092 0 .17.02.235.057.06.033.09.073.09.12 0 .054-.03.097-.09.13a.52.52 0 0 1-.235.065c-.086-.006-.16-.025-.22-.057h0zm.633 2.303c-.168-.087-.252-.194-.252-.324s.08-.242.243-.34.36-.145.593-.145.43.046.593.137c.168.092.25.202.243.33.005.13-.073.242-.236.34s-.36.145-.593.145c-.227 0-.424-.05-.592-.145h0zm1.396 1.27a.52.52 0 0 1 .235-.065.53.53 0 0 1 .236.065c.065.033.098.073.098.12 0 .054-.033.1-.098.137a.46.46 0 0 1-.236.056.52.52 0 0 1-.235-.049c-.065-.038-.098-.084-.098-.137s.033-.097.098-.13h0zm6.584.3c-.005-.15.086-.277.276-.38.184-.108.406-.16.665-.153.27-.005.5.046.7.153.195.103.292.232.292.388.01.15-.076.277-.26.38-.19.108-.417.16-.682.153a1.46 1.46 0 0 1-.674-.162c-.195-.108-.298-.235-.308-.38h0zm-.812 1.908c0-.108.068-.202.203-.283.135-.075.298-.113.487-.113a.93.93 0 0 1 .487.105c.14.075.21.167.21.275s-.068.2-.203.275-.298.12-.487.12-.352-.038-.487-.113-.206-.165-.21-.267h0zm-4.684-.663c-.005-.2.117-.372.365-.517.243-.14.544-.2.9-.2.362 0 .67.07.926.2.26.146.4.318.4.517.005.204-.114.377-.357.517s-.546.2-.9.2a1.92 1.92 0 0 1-.926-.21c-.255-.14-.385-.312-.4-.517h0zm13.314-7.533c.254.14.382.312.382.517s-.127.38-.382.525-.56.218-.917.218c-.362.005-.674-.062-.933-.202-.26-.146-.387-.32-.382-.526-.005-.205.12-.38.373-.526s.563-.218.926-.218.673.07.933.21h0zm2.68 2.417c-.054-.033-.08-.07-.08-.113 0-.05.027-.09.08-.12.06-.033.13-.05.21-.05s.152.016.21.05c.06.027.09.065.09.113s-.03.09-.09.12c-.054.033-.122.05-.203.05-.082-.006-.155-.022-.22-.05h0zm-1.056 1.713c.195-.113.433-.17.714-.17s.52.054.714.162c.2.108.303.242.308.404 0 .156-.098.29-.292.404s-.433.17-.714.17c-.287.005-.527-.05-.723-.162-.2-.108-.3-.242-.3-.404.001-.156.098-.29.293-.404h0zM78.54 73.38c.092 0 .17.016.236.05.065.038.1.086.105.145 0 .05-.033.09-.098.12-.065.043-.143.065-.236.065-.092-.005-.17-.027-.236-.065-.065-.033-.098-.073-.098-.12-.005-.05.024-.094.09-.137.066-.037.145-.056.236-.056h0zm-2.655 5.94c-.19-.103-.287-.226-.292-.372.005-.145.1-.272.284-.38s.403-.162.658-.162c.265 0 .492.05.682.153.18.108.268.232.268.372.005.146-.084.272-.268.38-.18.108-.403.162-.674.162-.254.006-.473-.046-.658-.153h0zm4.1-1.842c0-.103.062-.19.187-.267.124-.07.28-.108.463-.113s.34.03.47.105c.124.07.187.156.187.258 0 .108-.062.197-.187.267-.124.075-.276.113-.455.113-.19 0-.346-.038-.47-.113-.13-.07-.195-.153-.195-.25h0zm.114 1.382c0 .054-.03.097-.09.13a.5.5 0 0 1-.227.049c-.092 0-.17-.016-.236-.05-.06-.033-.09-.073-.09-.12 0-.054.03-.097.09-.13.065-.038.14-.057.227-.057.092-.005.168.01.227.05.065.033.098.076.098.13h0zM79.735 80c.254-.005.47.043.65.145s.268.218.268.364-.086.267-.26.364c-.173.103-.4.153-.65.153-.243 0-.457-.05-.64-.146-.18-.103-.268-.22-.268-.356 0-.145.09-.267.268-.364.173-.102.384-.156.633-.16h0zm-.836 2.894c-.157.086-.346.13-.568.13-.222.005-.414-.035-.576-.12s-.233-.194-.227-.324c-.005-.13.07-.237.227-.323.152-.092.34-.135.568-.13a1.06 1.06 0 0 1 .568.129c.157.086.236.19.236.315s-.076.232-.228.324h0zm-2.687 1.13c-.065.038-.14.06-.227.065a.52.52 0 0 1-.235-.065c-.065-.038-.1-.08-.105-.13 0-.05.033-.092.098-.13a.52.52 0 0 1 .235-.065c.092 0 .17.02.235.056s.1.084.105.137c-.005.05-.04.092-.105.13h0zm6.763-1.835c-.18.097-.392.145-.64.145a1.33 1.33 0 0 1-.641-.145c-.18-.097-.27-.216-.276-.356 0-.14.086-.26.26-.364.184-.103.398-.156.64-.162.254 0 .47.05.65.145s.268.218.268.364c.006.146-.08.27-.26.372z" class="D"/><use xlink:href="#D" class="E"/><use xlink:href="#E" class="F"/><use xlink:href="#F" class="G"/><use xlink:href="#B" x="47" y="11" class="B"/><use xlink:href="#C" x="47" y="11" class="C"/><use xlink:href="#G" class="D"/><use xlink:href="#D" x="47" y="11" class="E"/><use xlink:href="#E" x="47" y="11" class="F"/><use xlink:href="#F" x="47" y="11" class="G"/><use xlink:href="#B" x="68" y="-1" class="B"/><use xlink:href="#H" class="C"/><use xlink:href="#I" class="D"/><use xlink:href="#J" class="E"/><use xlink:href="#K" class="F"/><use xlink:href="#L" class="G"/><use xlink:href="#B" x="15" y="-22" class="B"/><use xlink:href="#C" x="15" y="-22" class="C"/><path d="M79.813 54.516a3.79 3.79 0 0 0-.422 1.786c.02 1.703 1.1 3.152 3.264 4.348 2.154 1.19 4.74 1.778 7.76 1.762s5.596-.644 7.73-1.867 3.185-2.686 3.174-4.39a3.85 3.85 0 0 0-.422-1.73c-.504-.98-1.45-1.856-2.842-2.627-2.154-1.19-4.74-1.775-7.76-1.754-3.03.02-5.607.644-7.73 1.867-1.348.77-2.265 1.64-2.752 2.603h0zm8.395-3.718c0 .054-.035.103-.105.146h-.008c-.065.038-.15.06-.252.065a.48.48 0 0 1-.13-.016c-.05-.01-.09-.027-.122-.05-.07-.033-.108-.08-.114-.146 0-.06.035-.108.105-.145.07-.043.157-.065.26-.065a.58.58 0 0 1 .26.065c.076.037.11.086.106.145h0zm.576.614c.184-.103.398-.153.64-.153.26-.005.476.043.65.145.18.097.268.216.268.356.005.146-.08.27-.26.372s-.392.153-.642.153-.47-.05-.65-.145c-.173-.103-.263-.223-.268-.364 0-.14.087-.26.26-.363h0zm-4.116-.137c.163-.092.363-.137.6-.137.254-.005.465.038.633.13a.23.23 0 0 1 .057.04c.13.08.192.186.187.315.005.135-.076.25-.243.348s-.373.145-.617.145a1.22 1.22 0 0 1-.617-.145.49.49 0 0 1-.243-.235c-.01-.033-.02-.068-.024-.105.01-.14.1-.258.267-.356h0zm1.283 1.835a.46.46 0 0 1-.236.056c-.092.005-.17-.01-.236-.05s-.098-.08-.098-.13c0-.054.033-.103.098-.145a.5.5 0 0 1 .227-.049c.092 0 .17.016.235.05.065.038.098.084.098.137.006.05-.024.092-.09.13h0zm-.74 1.423c.276 0 .514.054.714.162.2.113.3.248.3.404.005.156-.092.29-.292.404-.195.113-.433.17-.714.17-.282.005-.522-.05-.723-.162-.195-.108-.292-.24-.292-.396 0-.162.098-.3.292-.412.195-.108.433-.164.714-.17h0zm.406 2.49a1.25 1.25 0 0 1 .633-.153c.254 0 .47.05.65.145.18.103.268.223.268.364.005.14-.08.26-.26.364a1.24 1.24 0 0 1-.642.153 1.33 1.33 0 0 1-.641-.145c-.18-.097-.27-.218-.276-.364.005-.14.095-.262.268-.364h0zm3.824-2.57c-.254-.14-.38-.3-.373-.51-.005-.194.114-.364.357-.51.25-.14.552-.213.91-.218.352 0 .652.07.9.2.25.135.373.302.373.5 0 .205-.124.377-.373.517-.243.14-.54.2-.885.2-.357-.001-.66-.07-.91-.203h0zm-1.055 1.293c0-.05.033-.09.098-.12.06-.038.135-.056.227-.056.092-.005.168.01.227.05.065.033.098.075.098.13s-.03.097-.09.13a.52.52 0 0 1-.235.049.47.47 0 0 1-.227-.049c-.06-.033-.093-.075-.098-.13h0zm-6.39-2.223c.114-.07.257-.105.43-.105a.8.8 0 0 1 .439.097c.12.065.182.145.187.242 0 .097-.06.18-.18.25s-.263.105-.43.105c-.184 0-.333-.032-.446-.097-.124-.07-.184-.15-.18-.242-.001-.097.06-.18.178-.25h0zm-1.835 1.487c-.065-.038-.098-.08-.098-.13 0-.054.033-.097.098-.13a.53.53 0 0 1 .219-.057c.092 0 .17.02.235.057.06.033.09.073.09.12 0 .054-.03.097-.09.13a.52.52 0 0 1-.235.065c-.086-.006-.16-.025-.22-.057h0zm.633 2.303c-.168-.087-.252-.194-.252-.324s.08-.242.243-.34.36-.145.593-.145.43.046.593.137c.168.092.25.202.243.33.005.13-.073.242-.236.34s-.36.145-.593.145c-.227 0-.424-.05-.592-.145h0zm1.396 1.27a.52.52 0 0 1 .235-.065.53.53 0 0 1 .236.065c.065.033.098.073.098.12 0 .054-.033.1-.098.137a.46.46 0 0 1-.236.056.52.52 0 0 1-.235-.049c-.065-.038-.098-.084-.098-.137s.033-.097.098-.13h0zm6.584.3c-.005-.15.086-.277.276-.38.184-.108.406-.16.665-.153.27-.005.5.046.7.153.195.103.292.232.292.388.01.15-.076.277-.26.38-.19.108-.417.16-.682.153a1.46 1.46 0 0 1-.674-.162c-.195-.108-.298-.235-.308-.38h0zm-.812 1.908c0-.108.068-.202.203-.283.135-.075.298-.113.487-.113a.93.93 0 0 1 .487.105c.14.075.21.167.21.275s-.068.2-.203.275-.298.12-.487.12-.352-.038-.487-.113-.206-.165-.21-.267h0zm-4.684-.663c-.005-.2.117-.372.365-.517.243-.14.544-.2.9-.2.362 0 .67.07.926.2.26.146.4.318.4.517.005.204-.114.377-.357.517s-.546.2-.9.2a1.92 1.92 0 0 1-.926-.21c-.255-.14-.385-.312-.4-.517h0zm13.314-7.533c.254.14.382.312.382.517s-.127.38-.382.525-.56.218-.917.218c-.362.005-.674-.062-.933-.202-.26-.146-.387-.32-.382-.526-.005-.205.12-.38.373-.526s.563-.218.926-.218.673.07.933.21h0zm2.68 2.417c-.054-.033-.08-.07-.08-.113 0-.05.027-.09.08-.12.06-.033.13-.05.21-.05s.152.016.21.05c.06.027.09.065.09.113s-.03.09-.09.12c-.054.033-.122.05-.203.05-.082-.006-.155-.022-.22-.05h0zm-1.056 1.713c.195-.113.433-.17.714-.17s.52.054.714.162c.2.108.303.242.308.404 0 .156-.098.29-.292.404s-.433.17-.714.17c-.287.005-.527-.05-.723-.162-.2-.108-.3-.242-.3-.404.001-.156.098-.29.293-.404h0zM93.54 51.38c.092 0 .17.016.236.05.065.038.1.086.105.145 0 .05-.033.09-.098.12-.065.043-.143.065-.236.065-.092-.005-.17-.027-.236-.065-.065-.033-.098-.073-.098-.12-.005-.05.024-.094.09-.137.066-.037.145-.056.236-.056h0zm-2.655 5.94c-.19-.103-.287-.226-.292-.372.005-.145.1-.272.284-.38s.403-.162.658-.162c.265 0 .492.05.682.153.18.108.268.232.268.372.005.146-.084.272-.268.38-.18.108-.403.162-.674.162-.254.006-.473-.046-.658-.153h0zm4.1-1.842c0-.103.062-.19.187-.267.124-.07.28-.108.463-.113s.34.03.47.105c.124.07.187.156.187.258 0 .108-.062.197-.187.267-.124.075-.276.113-.455.113-.19 0-.346-.038-.47-.113-.13-.07-.195-.153-.195-.25h0zm.114 1.382c0 .054-.03.097-.09.13a.5.5 0 0 1-.227.049c-.092 0-.17-.016-.236-.05-.06-.033-.09-.073-.09-.12 0-.054.03-.097.09-.13.065-.038.14-.057.227-.057.092-.005.168.01.227.05.065.033.098.076.098.13h0zM94.735 58c.254-.005.47.043.65.145s.268.218.268.364-.086.267-.26.364c-.173.103-.4.153-.65.153-.243 0-.457-.05-.64-.146-.18-.103-.268-.22-.268-.356 0-.145.09-.267.268-.364.173-.102.384-.156.633-.16h0zm-.836 2.894c-.157.086-.346.13-.568.13-.222.005-.414-.035-.576-.12s-.233-.194-.227-.324c-.005-.13.07-.237.227-.323.152-.092.34-.135.568-.13a1.06 1.06 0 0 1 .568.129c.157.086.236.19.236.315s-.076.232-.228.324h0zm-2.687 1.13c-.065.038-.14.06-.227.065a.52.52 0 0 1-.235-.065c-.065-.038-.1-.08-.105-.13 0-.05.033-.092.098-.13a.52.52 0 0 1 .235-.065c.092 0 .17.02.235.056s.1.084.105.137c-.005.05-.04.092-.105.13h0zm6.763-1.835c-.18.097-.392.145-.64.145a1.33 1.33 0 0 1-.641-.145c-.18-.097-.27-.216-.276-.356 0-.14.086-.26.26-.364.184-.103.398-.156.64-.162.254 0 .47.05.65.145s.268.218.268.364c.006.146-.08.27-.26.372z" class="D"/><use xlink:href="#D" x="15" y="-22" class="E"/><use xlink:href="#E" x="15" y="-22" class="F"/><use xlink:href="#F" x="15" y="-22" class="G"/><use xlink:href="#B" x="-6" y="-14" class="B"/><use xlink:href="#C" x="-6" y="-14" class="C"/><path d="M58.813 62.516a3.79 3.79 0 0 0-.422 1.786c.02 1.703 1.1 3.152 3.264 4.348 2.154 1.19 4.74 1.778 7.76 1.762s5.596-.644 7.73-1.867 3.185-2.686 3.174-4.39a3.85 3.85 0 0 0-.422-1.73c-.504-.98-1.45-1.856-2.842-2.627-2.154-1.19-4.74-1.775-7.76-1.754-3.03.02-5.607.644-7.73 1.867-1.348.77-2.265 1.64-2.752 2.603h0zm8.395-3.718c0 .054-.035.103-.105.146h-.008c-.065.038-.15.06-.252.065a.48.48 0 0 1-.13-.016c-.05-.01-.09-.027-.122-.05-.07-.033-.108-.08-.114-.146 0-.06.035-.108.105-.145.07-.043.157-.065.26-.065a.58.58 0 0 1 .26.065c.076.037.11.086.106.145h0zm.576.614c.184-.103.398-.153.64-.153.26-.005.476.043.65.145.18.097.268.216.268.356.005.146-.08.27-.26.372s-.392.153-.642.153-.47-.05-.65-.145c-.173-.103-.263-.223-.268-.364 0-.14.087-.26.26-.363h0zm-4.116-.137c.163-.092.363-.137.6-.137.254-.005.465.038.633.13a.23.23 0 0 1 .057.04c.13.08.192.186.187.315.005.135-.076.25-.243.348s-.373.145-.617.145a1.22 1.22 0 0 1-.617-.145.49.49 0 0 1-.243-.235c-.01-.033-.02-.068-.024-.105.01-.14.1-.258.267-.356h0zm1.283 1.835a.46.46 0 0 1-.236.056c-.092.005-.17-.01-.236-.05s-.098-.08-.098-.13c0-.054.033-.103.098-.145a.5.5 0 0 1 .227-.049c.092 0 .17.016.235.05.065.038.098.084.098.137.006.05-.024.092-.09.13h0zm-.74 1.423c.276 0 .514.054.714.162.2.113.3.248.3.404.005.156-.092.29-.292.404-.195.113-.433.17-.714.17-.282.005-.522-.05-.723-.162-.195-.108-.292-.24-.292-.396 0-.162.098-.3.292-.412.195-.108.433-.164.714-.17h0zm.406 2.49a1.25 1.25 0 0 1 .633-.153c.254 0 .47.05.65.145.18.103.268.223.268.364.005.14-.08.26-.26.364a1.24 1.24 0 0 1-.642.153 1.33 1.33 0 0 1-.641-.145c-.18-.097-.27-.218-.276-.364.005-.14.095-.262.268-.364h0zm3.824-2.57c-.254-.14-.38-.3-.373-.51-.005-.194.114-.364.357-.51.25-.14.552-.213.91-.218.352 0 .652.07.9.2.25.135.373.302.373.5 0 .205-.124.377-.373.517-.243.14-.54.2-.885.2-.357-.001-.66-.07-.91-.203h0zm-1.055 1.293c0-.05.033-.09.098-.12.06-.038.135-.056.227-.056.092-.005.168.01.227.05.065.033.098.075.098.13s-.03.097-.09.13a.52.52 0 0 1-.235.049.47.47 0 0 1-.227-.049c-.06-.033-.093-.075-.098-.13h0zm-6.39-2.223c.114-.07.257-.105.43-.105a.8.8 0 0 1 .439.097c.12.065.182.145.187.242 0 .097-.06.18-.18.25s-.262.105-.43.105c-.184 0-.333-.032-.446-.097-.124-.07-.184-.15-.18-.242-.001-.097.06-.18.178-.25h0zm-1.835 1.487c-.065-.038-.098-.08-.098-.13 0-.054.033-.097.098-.13a.53.53 0 0 1 .219-.057c.092 0 .17.02.235.057.06.033.09.073.09.12 0 .054-.03.097-.09.13a.52.52 0 0 1-.235.065c-.086-.006-.16-.025-.22-.057h0zm.633 2.303c-.168-.087-.252-.194-.252-.324s.08-.242.243-.34.36-.145.593-.145.43.046.593.137c.168.092.25.202.243.33.005.13-.073.242-.236.34s-.36.145-.593.145c-.227 0-.424-.05-.592-.145h0zm1.396 1.27a.52.52 0 0 1 .235-.065.53.53 0 0 1 .236.065c.065.033.098.073.098.12 0 .054-.033.1-.098.137a.46.46 0 0 1-.236.056.52.52 0 0 1-.235-.049c-.065-.038-.098-.084-.098-.137s.033-.097.098-.13h0zm6.584.3c-.005-.15.086-.277.276-.38.184-.108.406-.16.665-.153.27-.005.5.046.7.153.195.103.292.232.292.388.01.15-.076.277-.26.38-.19.108-.417.16-.682.153a1.46 1.46 0 0 1-.674-.162c-.195-.108-.298-.235-.308-.38h0zm-.812 1.908c0-.108.068-.202.203-.283.135-.075.298-.113.487-.113a.93.93 0 0 1 .487.105c.14.075.21.167.21.275s-.068.2-.203.275-.298.12-.487.12-.352-.038-.487-.113-.206-.165-.21-.267h0zm-4.684-.663c-.005-.2.117-.372.365-.517.243-.14.544-.2.9-.2.362 0 .67.07.926.2.26.146.4.318.4.517.005.204-.114.377-.357.517s-.546.2-.9.2a1.92 1.92 0 0 1-.926-.21c-.255-.14-.385-.312-.4-.517h0zm13.314-7.533c.254.14.382.312.382.517s-.127.38-.382.525-.56.218-.917.218c-.362.005-.674-.062-.933-.202-.26-.146-.387-.32-.382-.526-.005-.205.12-.38.373-.526s.563-.218.926-.218.673.07.933.21h0zm2.68 2.417c-.054-.033-.08-.07-.08-.113 0-.05.027-.09.08-.12.06-.033.13-.05.21-.05s.152.016.21.05c.06.027.09.065.09.113s-.03.09-.09.12c-.054.033-.122.05-.203.05-.082-.006-.155-.022-.22-.05h0zm-1.056 1.713c.195-.113.433-.17.714-.17s.52.054.714.162c.2.108.303.242.308.404 0 .156-.098.29-.292.404s-.433.17-.714.17c-.287.005-.527-.05-.723-.162-.2-.108-.3-.242-.3-.404.001-.156.098-.29.293-.404h0zM72.54 59.38c.092 0 .17.016.236.05.065.038.1.086.105.145 0 .05-.033.09-.098.12-.065.043-.143.065-.236.065-.092-.005-.17-.027-.236-.065-.065-.033-.098-.073-.098-.12-.005-.05.024-.094.09-.137.066-.037.145-.056.236-.056h0zm-2.655 5.94c-.19-.103-.287-.226-.292-.372.005-.145.1-.272.284-.38s.403-.162.658-.162c.265 0 .492.05.682.153.18.108.268.232.268.372.005.146-.084.272-.268.38-.18.108-.403.162-.674.162-.254.006-.473-.046-.658-.153h0zm4.1-1.842c0-.103.062-.19.187-.267.124-.07.28-.108.463-.113s.34.03.47.105c.124.07.187.156.187.258 0 .108-.062.197-.187.267-.124.075-.276.113-.455.113-.19 0-.346-.038-.47-.113-.13-.07-.195-.153-.195-.25h0zm.114 1.382c0 .054-.03.097-.09.13a.5.5 0 0 1-.227.049c-.092 0-.17-.016-.236-.05-.06-.033-.09-.073-.09-.12 0-.054.03-.097.09-.13.065-.038.14-.057.227-.057.092-.005.168.01.227.05.065.033.098.076.098.13h0zM73.735 66c.254-.005.47.043.65.145s.268.218.268.364-.086.267-.26.364c-.173.103-.4.153-.65.153-.243 0-.457-.05-.64-.146-.18-.103-.268-.22-.268-.356 0-.145.09-.267.268-.364.173-.102.384-.156.633-.16h0zm-.836 2.894c-.157.086-.346.13-.568.13-.222.005-.414-.035-.576-.12s-.233-.194-.227-.324c-.005-.13.07-.237.227-.323.152-.092.34-.135.568-.13a1.06 1.06 0 0 1 .568.129c.157.086.236.19.236.315s-.076.232-.228.324h0zm-2.687 1.13c-.065.038-.14.06-.227.065a.52.52 0 0 1-.235-.065c-.065-.038-.1-.08-.105-.13 0-.05.033-.092.098-.13a.52.52 0 0 1 .235-.065c.092 0 .17.02.235.056s.1.084.105.137c-.005.05-.04.092-.105.13h0zm6.763-1.835c-.18.097-.392.145-.64.145a1.33 1.33 0 0 1-.641-.145c-.18-.097-.27-.216-.276-.356 0-.14.086-.26.26-.364.184-.103.398-.156.64-.162.254 0 .47.05.65.145s.268.218.268.364c.006.146-.08.27-.26.372z" class="D"/><path d="M76.333 68.335a1.33 1.33 0 0 0 .641-.145c.18-.103.265-.226.26-.372 0-.145-.09-.267-.268-.364s-.395-.145-.65-.145c-.243.005-.457.06-.64.162-.173.103-.26.223-.26.364.005.14.098.26.276.356s.392.145.64.145h0zm-1.95-2.2c-.18-.103-.395-.15-.65-.145-.25.005-.46.06-.633.162-.18.097-.268.218-.268.364 0 .135.09.253.268.356.184.097.398.146.64.146.26 0 .476-.05.65-.153.173-.097.26-.218.26-.364s-.09-.268-.267-.364h0zm-4.8-1.196c.005.145.103.27.292.372.184.108.403.16.658.153.27 0 .495-.054.674-.162.184-.108.273-.235.268-.38 0-.14-.09-.264-.268-.372-.19-.103-.417-.153-.682-.153-.254 0-.474.054-.658.162s-.278.234-.284.38h0zm8.338-.396c-.282 0-.52.057-.714.17s-.292.248-.292.404c0 .162.1.296.3.404.195.113.436.167.723.162.282 0 .52-.056.714-.17s.292-.248.292-.404c-.005-.162-.108-.296-.308-.404s-.434-.162-.715-.162h0zm-1.957-3.444c0-.205-.127-.377-.382-.517-.26-.14-.57-.2-.933-.2s-.67.073-.926.218-.38.32-.373.526c-.005.205.12.38.382.526.26.14.57.207.933.202.357 0 .663-.073.917-.218s.382-.32.382-.526h0zm-13.33 6.498c-.25.146-.37.318-.365.517s.135.377.4.517.568.2.926.2c.362 0 .665-.07.9-.2s.362-.312.357-.517c0-.2-.13-.372-.4-.517-.254-.14-.563-.2-.926-.2-.357.001-.657.07-.9.2h0zm5.407-1.107c-.19.103-.282.23-.276.38.01.146.114.272.308.38a1.46 1.46 0 0 0 .674.162c.265.005.492-.046.682-.153.184-.103.27-.23.26-.38 0-.156-.098-.286-.292-.388a1.32 1.32 0 0 0-.69-.153c-.26-.006-.482.046-.665.153h0zm-8.508-1.512c0 .13.084.237.252.324.168.097.365.145.593.145a1.14 1.14 0 0 0 .593-.145c.163-.097.24-.2.236-.34.005-.13-.076-.24-.243-.33-.163-.09-.36-.137-.593-.137a1.14 1.14 0 0 0-.593.145c-.163.097-.244.2-.244.34h0zm8.524-3.047c-.005.2.12.37.373.51.25.135.552.202.9.202.346 0 .64-.07.885-.2s.373-.312.373-.517c0-.2-.124-.366-.373-.5s-.55-.2-.9-.2c-.357.005-.66.078-.91.218-.244.147-.363.316-.358.5h0zm-3.142.752c-.2-.108-.44-.162-.714-.162-.282.005-.52.062-.714.17-.195.113-.292.25-.292.412 0 .156.098.288.292.396a1.39 1.39 0 0 0 .723.162c.282 0 .52-.056.714-.17.2-.113.298-.248.292-.404 0-.156-.1-.29-.3-.404h0zm-.658-3.556c-.238 0-.44.046-.6.137-.168.097-.257.216-.268.356a.59.59 0 0 0 .024.105c.038.09.12.17.243.235.168.097.373.145.617.145s.45-.05.617-.145.25-.213.243-.348c.005-.13-.057-.235-.187-.315a.21.21 0 0 0-.057-.04c-.167-.092-.378-.135-.633-.13h0zm4.157.12c-.243 0-.457.05-.64.153-.173.103-.26.223-.26.364.005.14.095.26.268.364.18.097.395.145.65.145.25 0 .463-.05.642-.153s.265-.226.26-.372c0-.14-.09-.258-.268-.356-.173-.103-.4-.15-.65-.146z" class="E"/><use xlink:href="#E" x="-6" y="-14" class="F"/><path d="M72.33 69.022c.222 0 .41-.043.568-.13.152-.092.227-.2.227-.324s-.08-.23-.236-.315c-.157-.092-.346-.135-.568-.13-.227-.005-.417.038-.568.13-.157.086-.233.194-.227.323-.005.13.07.237.227.324a1.15 1.15 0 0 0 .577.121h0zm1.843-5.81c-.124.075-.187.164-.187.267 0 .097.065.18.195.25.124.075.282.113.47.113.18 0 .33-.038.455-.113.124-.07.187-.16.187-.267 0-.103-.062-.188-.187-.258-.13-.075-.287-.1-.47-.105s-.338.042-.463.113h0zm-7.007 5.294c-.135.08-.203.175-.203.283.005.103.076.19.21.267s.298.113.487.113.352-.04.487-.12c.135-.075.203-.167.203-.275s-.07-.2-.21-.275a.93.93 0 0 0-.487-.105c-.19.001-.35.04-.487.114h0zm-5.74-7.088c-.173 0-.317.035-.43.105-.12.07-.18.153-.18.25-.005.092.054.172.18.242.114.065.262.097.446.097.168 0 .31-.035.43-.105s.18-.153.18-.25c-.005-.097-.068-.178-.187-.242-.12-.07-.265-.103-.438-.097h0zm3.824 3.45a1.25 1.25 0 0 0-.633.153c-.173.103-.263.223-.268.364.005.145.098.267.276.364s.392.145.64.145c.254 0 .468-.05.642-.153.18-.103.265-.223.26-.364 0-.14-.09-.26-.268-.364-.18-.097-.395-.145-.65-.145z" class="G"/><use xlink:href="#B" x="23" y="8" class="B"/><use xlink:href="#C" x="23" y="8" class="C"/><use xlink:href="#G" x="-24" y="-3" class="D"/><use xlink:href="#D" x="23" y="8" class="E"/><use xlink:href="#E" x="23" y="8" class="F"/><use xlink:href="#F" x="23" y="8" class="G"/><use xlink:href="#B" x="34" y="-9" class="B"/><use xlink:href="#C" x="34" y="-9" class="C"/><use xlink:href="#G" x="-13" y="-20" class="D"/><use xlink:href="#D" x="34" y="-9" class="E"/><use xlink:href="#E" x="34" y="-9" class="F"/><use xlink:href="#F" x="34" y="-9" class="G"/><use xlink:href="#B" x="48" y="-13" class="B"/><use xlink:href="#C" x="48" y="-13" class="C"/><use xlink:href="#M" class="D"/><use xlink:href="#D" x="48" y="-13" class="E"/><use xlink:href="#E" x="48" y="-13" class="F"/><use xlink:href="#N" class="G"/><use xlink:href="#B" x="92" class="B"/><use xlink:href="#H" x="24" y="1" class="C"/><use xlink:href="#I" x="24" y="1" class="D"/><use xlink:href="#J" x="24" y="1" class="E"/><use xlink:href="#K" x="24" y="1" class="F"/><use xlink:href="#L" x="24" y="1" class="G"/><use xlink:href="#B" x="58" y="-54" class="B"/><use xlink:href="#H" x="-10" y="-53" class="C"/><use xlink:href="#M" x="10" y="-41" class="D"/><path d="M140.333 28.335a1.33 1.33 0 0 0 .641-.145c.18-.103.265-.226.26-.372 0-.145-.09-.267-.268-.364s-.395-.145-.65-.145c-.243.005-.457.06-.64.162-.173.103-.26.223-.26.364.005.14.098.26.276.356s.392.145.64.145h0zm-1.95-2.2c-.18-.103-.395-.15-.65-.145-.25.005-.46.06-.633.162-.18.097-.268.218-.268.364 0 .135.09.253.268.356.184.097.398.146.64.146.26 0 .476-.05.65-.153.173-.097.26-.218.26-.364s-.09-.268-.267-.364h0zm-4.8-1.196c.005.145.103.27.292.372.184.108.403.16.658.153.27 0 .495-.054.674-.162.184-.108.273-.235.268-.38 0-.14-.09-.264-.268-.372-.19-.103-.417-.153-.682-.153-.254 0-.474.054-.658.162s-.278.234-.284.38h0zm8.338-.396c-.282 0-.52.057-.714.17s-.292.248-.292.404c0 .162.1.296.3.404.195.113.436.167.723.162.282 0 .52-.056.714-.17s.292-.248.292-.404c-.005-.162-.108-.296-.308-.404s-.434-.162-.715-.162h0zm-1.957-3.444c0-.205-.127-.377-.382-.517-.26-.14-.57-.2-.933-.2s-.67.073-.926.218-.38.32-.373.526c-.005.205.12.38.382.526.26.14.57.207.933.202.357 0 .663-.073.917-.218s.382-.32.382-.526h0zm-13.33 6.498c-.25.146-.37.318-.365.517s.135.377.4.517.568.2.926.2c.363 0 .665-.07.9-.2s.363-.312.357-.517c0-.2-.13-.372-.4-.517-.254-.14-.563-.2-.926-.2-.357.001-.657.07-.9.2h0zm5.407-1.107c-.19.103-.282.23-.276.38.01.146.114.272.308.38a1.46 1.46 0 0 0 .674.162c.265.005.492-.046.682-.153.184-.103.27-.23.26-.38 0-.156-.098-.286-.292-.388a1.32 1.32 0 0 0-.69-.153c-.26-.006-.482.046-.665.153h0zm-8.508-1.512c0 .13.084.237.252.324.168.097.365.145.593.145a1.14 1.14 0 0 0 .593-.145c.162-.097.24-.2.236-.34.005-.13-.076-.24-.243-.33-.163-.09-.36-.137-.593-.137a1.14 1.14 0 0 0-.593.145c-.162.097-.244.2-.244.34h0zm8.524-3.047c-.005.2.12.37.373.51.25.135.552.202.9.202.346 0 .64-.07.885-.2s.373-.312.373-.517c0-.2-.124-.366-.373-.5s-.55-.2-.9-.2c-.357.005-.66.078-.91.218-.244.147-.363.316-.358.5h0zm-3.142.752c-.2-.108-.44-.162-.714-.162-.282.005-.52.062-.714.17-.195.113-.292.25-.292.412 0 .156.098.288.292.396a1.39 1.39 0 0 0 .723.162c.282 0 .52-.056.714-.17.2-.113.298-.248.292-.404 0-.156-.1-.29-.3-.404h0zm-.658-3.556c-.238 0-.44.046-.6.137-.168.097-.257.216-.268.356a.59.59 0 0 0 .024.105c.038.09.12.17.243.235.168.097.373.145.617.145s.45-.05.617-.145.25-.213.243-.348c.005-.13-.057-.235-.187-.315a.21.21 0 0 0-.057-.04c-.167-.092-.378-.135-.633-.13h0zm4.157.12c-.243 0-.457.05-.64.153-.173.103-.26.223-.26.364.005.14.095.26.268.364.18.097.395.145.65.145.25 0 .463-.05.642-.153s.265-.226.26-.372c0-.14-.09-.258-.268-.356-.173-.103-.4-.15-.65-.146z" class="E"/><use xlink:href="#K" x="-10" y="-53" class="F"/><use xlink:href="#N" x="10" y="-41" class="G"/><use xlink:href="#B" x="15" y="-38" class="B"/><use xlink:href="#C" x="15" y="-38" class="C"/><path d="M79.813 38.516a3.79 3.79 0 0 0-.422 1.786c.02 1.703 1.1 3.152 3.264 4.348 2.154 1.19 4.74 1.778 7.76 1.762s5.596-.644 7.73-1.867 3.185-2.686 3.174-4.39a3.85 3.85 0 0 0-.422-1.73c-.504-.98-1.45-1.856-2.842-2.627-2.154-1.19-4.74-1.775-7.76-1.754-3.03.02-5.607.644-7.73 1.867-1.348.77-2.265 1.64-2.752 2.603h0zm8.395-3.718c0 .054-.035.103-.105.146h-.008c-.065.038-.15.06-.252.065a.48.48 0 0 1-.13-.016c-.05-.01-.09-.027-.122-.05-.07-.033-.108-.08-.114-.146 0-.06.035-.108.105-.145.07-.043.157-.065.26-.065a.58.58 0 0 1 .26.065c.076.037.11.086.106.145h0zm.576.614c.184-.103.398-.153.64-.153.26-.005.476.043.65.145.18.097.268.216.268.356.005.146-.08.27-.26.372s-.392.153-.642.153-.47-.05-.65-.145c-.173-.103-.263-.223-.268-.364 0-.14.087-.26.26-.363h0zm-4.116-.137c.163-.092.363-.137.6-.137.254-.005.465.038.633.13a.23.23 0 0 1 .057.04c.13.08.192.186.187.315.005.135-.076.25-.243.348s-.373.145-.617.145a1.22 1.22 0 0 1-.617-.145.49.49 0 0 1-.243-.235c-.01-.033-.02-.068-.024-.105.01-.14.1-.258.267-.356h0zm1.283 1.835a.46.46 0 0 1-.236.056c-.092.005-.17-.01-.236-.05s-.098-.08-.098-.13c0-.054.033-.103.098-.145a.5.5 0 0 1 .227-.049c.092 0 .17.016.235.05.065.038.098.084.098.137.006.05-.024.092-.09.13h0zm-.74 1.423c.276 0 .514.054.714.162.2.113.3.248.3.404.005.156-.092.29-.292.404-.195.113-.433.17-.714.17-.282.005-.522-.05-.723-.162-.195-.108-.292-.24-.292-.396 0-.162.098-.3.292-.412.195-.108.433-.164.714-.17h0zm.406 2.49a1.25 1.25 0 0 1 .633-.153c.254 0 .47.05.65.145.18.103.268.223.268.364.005.14-.08.26-.26.364a1.24 1.24 0 0 1-.642.153 1.33 1.33 0 0 1-.641-.145c-.18-.097-.27-.218-.276-.364.005-.14.095-.262.268-.364h0zm3.824-2.57c-.254-.14-.38-.3-.373-.51-.005-.194.114-.364.357-.51.25-.14.552-.213.91-.218.352 0 .652.07.9.2.25.135.373.302.373.5 0 .205-.124.377-.373.517-.243.14-.54.2-.885.2-.357-.001-.66-.07-.91-.203h0zm-1.055 1.293c0-.05.033-.09.098-.12.06-.038.135-.056.227-.056.092-.005.168.01.227.05.065.033.098.075.098.13s-.03.097-.09.13a.52.52 0 0 1-.235.049.47.47 0 0 1-.227-.049c-.06-.033-.093-.075-.098-.13h0zm-6.39-2.223c.114-.07.257-.105.43-.105a.8.8 0 0 1 .439.097c.12.065.182.145.187.242 0 .097-.06.18-.18.25s-.263.105-.43.105c-.184 0-.333-.032-.446-.097-.124-.07-.184-.15-.18-.242-.001-.097.06-.18.178-.25h0zm-1.835 1.487c-.065-.038-.098-.08-.098-.13 0-.054.033-.097.098-.13a.53.53 0 0 1 .219-.057c.092 0 .17.02.235.057.06.033.09.073.09.12 0 .054-.03.097-.09.13a.52.52 0 0 1-.235.065c-.086-.006-.16-.025-.22-.057h0zm.633 2.303c-.168-.087-.252-.194-.252-.324s.08-.242.243-.34.36-.145.593-.145.43.046.593.137c.168.092.25.202.243.33.005.13-.073.242-.236.34s-.36.145-.593.145c-.227 0-.424-.05-.592-.145h0zm1.396 1.27a.52.52 0 0 1 .235-.065.53.53 0 0 1 .236.065c.065.033.098.073.098.12 0 .054-.033.1-.098.137a.46.46 0 0 1-.236.056.52.52 0 0 1-.235-.049c-.065-.038-.098-.084-.098-.137s.033-.097.098-.13h0zm6.584.3c-.005-.15.086-.277.276-.38.184-.108.406-.16.665-.153.27-.005.5.046.7.153.195.103.292.232.292.388.01.15-.076.277-.26.38-.19.108-.417.16-.682.153a1.46 1.46 0 0 1-.674-.162c-.195-.108-.298-.235-.308-.38h0zm-.812 1.908c0-.108.068-.202.203-.283.135-.075.298-.113.487-.113a.93.93 0 0 1 .487.105c.14.075.21.167.21.275s-.068.2-.203.275-.298.12-.487.12-.352-.038-.487-.113-.206-.165-.21-.267h0zm-4.684-.663c-.005-.2.117-.372.365-.517.243-.14.544-.2.9-.2.362 0 .67.07.926.2.26.146.4.318.4.517.005.204-.114.377-.357.517s-.546.2-.9.2a1.92 1.92 0 0 1-.926-.21c-.255-.14-.385-.312-.4-.517h0zm13.314-7.533c.254.14.382.312.382.517s-.127.38-.382.525-.56.218-.917.218c-.362.005-.674-.062-.933-.202-.26-.146-.387-.32-.382-.526-.005-.205.12-.38.373-.526s.563-.218.926-.218.673.07.933.21h0zm2.68 2.417c-.054-.033-.08-.07-.08-.113 0-.05.027-.09.08-.12.06-.033.13-.05.21-.05s.152.016.21.05c.06.027.09.065.09.113s-.03.09-.09.12c-.054.033-.122.05-.203.05-.082-.006-.155-.022-.22-.05h0zm-1.056 1.713c.195-.113.433-.17.714-.17s.52.054.714.162c.2.108.303.242.308.404 0 .156-.098.29-.292.404s-.433.17-.714.17c-.287.005-.527-.05-.723-.162-.2-.108-.3-.242-.3-.404.001-.156.098-.29.293-.404h0zM93.54 35.38c.092 0 .17.016.236.05.065.038.1.086.105.145 0 .05-.033.09-.098.12-.065.043-.143.065-.236.065-.092-.005-.17-.027-.236-.065-.065-.033-.098-.073-.098-.12-.005-.05.024-.094.09-.137.066-.037.145-.056.236-.056h0zm-2.655 5.94c-.19-.103-.287-.226-.292-.372.005-.145.1-.272.284-.38s.403-.162.658-.162c.265 0 .492.05.682.153.18.108.268.232.268.372.005.146-.084.272-.268.38-.18.108-.403.162-.674.162-.254.006-.473-.046-.658-.153h0zm4.1-1.842c0-.103.062-.19.187-.267.124-.07.28-.108.463-.113s.34.03.47.105c.124.07.187.156.187.258 0 .108-.062.197-.187.267-.124.075-.276.113-.455.113-.19 0-.346-.038-.47-.113-.13-.07-.195-.153-.195-.25h0zm.114 1.382c0 .054-.03.097-.09.13a.5.5 0 0 1-.227.049c-.092 0-.17-.016-.236-.05-.06-.033-.09-.073-.09-.12 0-.054.03-.097.09-.13.065-.038.14-.057.227-.057.092-.005.168.01.227.05.065.033.098.076.098.13h0zM94.735 42c.254-.005.47.043.65.145s.268.218.268.364-.086.267-.26.364c-.173.103-.4.153-.65.153-.243 0-.457-.05-.64-.146-.18-.103-.268-.22-.268-.356 0-.145.09-.267.268-.364.173-.102.384-.156.633-.16h0zm-.836 2.894c-.157.086-.346.13-.568.13-.222.005-.414-.035-.576-.12s-.233-.194-.227-.324c-.005-.13.07-.237.227-.323.152-.092.34-.135.568-.13a1.06 1.06 0 0 1 .568.129c.157.086.236.19.236.315s-.076.232-.228.324h0zm-2.687 1.13c-.065.038-.14.06-.227.065a.52.52 0 0 1-.235-.065c-.065-.038-.1-.08-.105-.13 0-.05.033-.092.098-.13a.52.52 0 0 1 .235-.065c.092 0 .17.02.235.056s.1.084.105.137c-.005.05-.04.092-.105.13h0zm6.763-1.835c-.18.097-.392.145-.64.145a1.33 1.33 0 0 1-.641-.145c-.18-.097-.27-.216-.276-.356 0-.14.086-.26.26-.364.184-.103.398-.156.64-.162.254 0 .47.05.65.145s.268.218.268.364c.006.146-.08.27-.26.372z" class="D"/><use xlink:href="#D" x="15" y="-38" class="E"/><use xlink:href="#E" x="15" y="-38" class="F"/><use xlink:href="#F" x="15" y="-38" class="G"/><use xlink:href="#B" x="107" y="-18" class="B"/><use xlink:href="#H" x="39" y="-17" class="C"/><use xlink:href="#I" x="39" y="-17" class="D"/><use xlink:href="#J" x="39" y="-17" class="E"/><use xlink:href="#K" x="39" y="-17" class="F"/><use xlink:href="#L" x="39" y="-17" class="G"/><use xlink:href="#B" x="54" y="-27" class="B"/><use xlink:href="#H" x="-14" y="-26" class="C"/><use xlink:href="#M" x="6" y="-14" class="D"/><use xlink:href="#D" x="54" y="-27" class="E"/><use xlink:href="#K" x="-14" y="-26" class="F"/><use xlink:href="#N" x="6" y="-14" class="G"/><use xlink:href="#B" x="54" y="-44" class="B"/><use xlink:href="#H" x="-14" y="-43" class="C"/><use xlink:href="#M" x="6" y="-31" class="D"/><use xlink:href="#D" x="54" y="-44" class="E"/><use xlink:href="#K" x="-14" y="-43" class="F"/><use xlink:href="#N" x="6" y="-31" class="G"/><use xlink:href="#B" x="83" y="-52" class="B"/><use xlink:href="#H" x="15" y="-51" class="C"/><use xlink:href="#I" x="15" y="-51" class="D"/><use xlink:href="#J" x="15" y="-51" class="E"/><use xlink:href="#K" x="15" y="-51" class="F"/><use xlink:href="#L" x="15" y="-51" class="G"/><use xlink:href="#B" x="105" y="-38" class="B"/><use xlink:href="#H" x="37" y="-37" class="C"/><use xlink:href="#I" x="37" y="-37" class="D"/><use xlink:href="#J" x="37" y="-37" class="E"/><use xlink:href="#K" x="37" y="-37" class="F"/><use xlink:href="#L" x="37" y="-37" class="G"/><use xlink:href="#B" x="29" y="-52" class="B"/><use xlink:href="#C" x="29" y="-52" class="C"/><use xlink:href="#G" x="-18" y="-63" class="D"/><use xlink:href="#D" x="29" y="-52" class="E"/><use xlink:href="#E" x="29" y="-52" class="F"/><use xlink:href="#F" x="29" y="-52" class="G"/><use xlink:href="#B" x="83" y="-28" class="B"/><use xlink:href="#H" x="15" y="-27" class="C"/><use xlink:href="#I" x="15" y="-27" class="D"/><use xlink:href="#J" x="15" y="-27" class="E"/><use xlink:href="#K" x="15" y="-27" class="F"/><use xlink:href="#L" x="15" y="-27" class="G"/><use xlink:href="#B" x="40" y="-38" class="B"/><use xlink:href="#C" x="40" y="-38" class="C"/><use xlink:href="#G" x="-7" y="-49" class="D"/><use xlink:href="#D" x="40" y="-38" class="E"/><use xlink:href="#E" x="40" y="-38" class="F"/><use xlink:href="#F" x="40" y="-38" class="G"/></g><defs ><path id="B" d="M63.595 79.457v.08c.016 1.832 1.18 3.39 3.49 4.67 2.31 1.277 5.1 1.905 8.337 1.883s6.005-.7 8.29-2.004c2.257-1.293 3.393-2.842 3.4-4.647v-1.156a3.93 3.93 0 0 1-.049.517c-.233 1.552-1.353 2.904-3.36 4.057-2.284 1.3-5.047 1.975-8.29 1.996-3.248.027-6.027-.6-8.337-1.883-2.067-1.143-3.218-2.505-3.45-4.09a4 4 0 0 1-.04-.436v1.01z"/><path id="C" d="M63.595 78.262v.186a4 4 0 0 0 .04.436c.233 1.584 1.383 2.948 3.45 4.09 2.31 1.282 5.1 1.9 8.337 1.883 3.242-.02 6.005-.687 8.29-1.996 2.008-1.153 3.128-2.505 3.36-4.057a3.93 3.93 0 0 0 .049-.517v-.162c-.033-1.82-1.2-3.37-3.5-4.647-2.31-1.282-5.1-1.9-8.337-1.883-3.248.02-6.013.7-8.297 2.004-2.263 1.3-3.394 2.854-3.394 4.664h0zm.796.04a3.79 3.79 0 0 1 .422-1.786c.487-.965 1.404-1.832 2.752-2.603 2.12-1.223 4.698-1.845 7.73-1.867 3.02-.02 5.607.563 7.76 1.754 1.39.77 2.338 1.646 2.842 2.627.276.544.417 1.12.422 1.73.01 1.703-1.047 3.166-3.174 4.39s-4.71 1.845-7.73 1.867c-3.02.016-5.607-.57-7.76-1.762-2.154-1.197-3.242-2.647-3.264-4.35z"/><path id="D" d="M82.333 82.335a1.33 1.33 0 0 0 .641-.145c.18-.103.265-.226.26-.372 0-.145-.09-.267-.268-.364s-.395-.145-.65-.145c-.243.005-.457.06-.64.162-.173.103-.26.223-.26.364.005.14.098.26.276.356s.392.145.64.145h0zm-1.95-2.2c-.18-.103-.395-.15-.65-.145-.25.005-.46.06-.633.162-.18.097-.268.218-.268.364 0 .135.09.253.268.356.184.097.398.146.64.146.26 0 .476-.05.65-.153.173-.097.26-.218.26-.364s-.09-.268-.267-.364h0zm-4.8-1.196c.005.145.103.27.292.372.184.108.403.16.658.153.27 0 .495-.054.674-.162.184-.108.273-.235.268-.38 0-.14-.09-.264-.268-.372-.19-.103-.417-.153-.682-.153-.254 0-.474.054-.658.162s-.278.234-.284.38h0zm8.338-.396c-.282 0-.52.057-.714.17s-.292.248-.292.404c0 .162.1.296.3.404.195.113.436.167.723.162.282 0 .52-.056.714-.17s.292-.248.292-.404c-.005-.162-.108-.296-.308-.404s-.434-.162-.715-.162h0zm-1.957-3.444c0-.205-.127-.377-.382-.517-.26-.14-.57-.2-.933-.2s-.67.073-.926.218-.38.32-.373.526c-.005.205.12.38.382.526.26.14.57.207.933.202.357 0 .663-.073.917-.218s.382-.32.382-.526h0zm-13.33 6.498c-.25.146-.37.318-.365.517s.135.377.4.517.568.2.926.2c.363 0 .665-.07.9-.2s.362-.312.357-.517c0-.2-.13-.372-.4-.517-.254-.14-.563-.2-.926-.2-.357.001-.657.07-.9.2h0zm5.407-1.107c-.19.103-.282.23-.276.38.01.146.114.272.308.38a1.46 1.46 0 0 0 .674.162c.265.005.492-.046.682-.153.184-.103.27-.23.26-.38 0-.156-.098-.286-.292-.388a1.32 1.32 0 0 0-.69-.153c-.26-.006-.482.046-.665.153h0zm-8.508-1.512c0 .13.084.237.252.324.168.097.365.145.593.145a1.14 1.14 0 0 0 .593-.145c.162-.097.24-.2.236-.34.005-.13-.076-.24-.243-.33-.163-.09-.36-.137-.593-.137a1.14 1.14 0 0 0-.593.145c-.162.097-.244.2-.244.34h0zm8.524-3.047c-.005.2.12.37.373.51.25.135.552.202.9.202.346 0 .64-.07.885-.2s.373-.312.373-.517c0-.2-.124-.366-.373-.5s-.55-.2-.9-.2c-.357.005-.66.078-.91.218-.244.147-.363.316-.358.5h0zm-3.142.752c-.2-.108-.44-.162-.714-.162-.282.005-.52.062-.714.17-.195.113-.292.25-.292.412 0 .156.098.288.292.396a1.39 1.39 0 0 0 .723.162c.282 0 .52-.056.714-.17.2-.113.298-.248.292-.404 0-.156-.1-.29-.3-.404h0zm-.658-3.556c-.238 0-.44.046-.6.137-.168.097-.257.216-.268.356a.59.59 0 0 0 .024.105c.038.09.12.17.243.235.168.097.373.145.617.145s.45-.05.617-.145.25-.213.243-.348c.005-.13-.057-.235-.187-.315a.21.21 0 0 0-.057-.04c-.167-.092-.378-.135-.633-.13h0zm4.157.12c-.243 0-.457.05-.64.153-.173.103-.26.223-.26.364.005.14.095.26.268.364.18.097.395.145.65.145.25 0 .463-.05.642-.153s.265-.226.26-.372c0-.14-.09-.258-.268-.356-.173-.103-.4-.15-.65-.146z"/><path id="E" d="M75.984 84.09c.087-.005.163-.027.227-.065s.1-.08.105-.13c-.005-.054-.04-.1-.105-.137a.46.46 0 0 0-.235-.056c-.092.005-.17.027-.235.065s-.098.08-.098.13c.005.05.04.092.105.13a.52.52 0 0 0 .235.065h0zm4.027-5.1c.06-.033.09-.075.09-.13s-.033-.097-.098-.13c-.06-.038-.135-.054-.227-.05-.087 0-.163.02-.227.057-.06.033-.09.075-.09.13 0 .05.03.09.09.12a.52.52 0 0 0 .236.049c.087-.001.163-.017.227-.05h0zm-1.234-5.56a.52.52 0 0 0-.236-.049c-.092 0-.17.02-.236.056-.065.043-.095.09-.09.137 0 .05.032.09.098.12a.52.52 0 0 0 .236.065c.092 0 .17-.02.236-.065.065-.033.098-.073.098-.12-.006-.06-.04-.108-.106-.145h0zm5.415 3.467c0 .043.027.08.08.113.065.027.138.043.22.05.08 0 .15-.016.203-.05.06-.033.09-.073.09-.12s-.03-.086-.09-.113c-.06-.033-.13-.05-.21-.05s-.152.016-.21.05c-.053.033-.08.073-.08.12h0zm-16.764 3.62c-.092.005-.17.027-.235.065s-.098.075-.098.13.033.1.098.137c.065.032.143.05.235.05s.17-.02.236-.056.098-.084.098-.137c0-.05-.033-.09-.098-.12-.065-.038-.144-.06-.236-.065h0zm-2.362-3.637c0 .05.033.092.098.13a.52.52 0 0 0 .219.056c.092-.005.17-.027.235-.065.06-.033.09-.075.09-.13 0-.05-.03-.09-.09-.12a.46.46 0 0 0-.235-.057c-.087.005-.16.024-.22.057-.065.033-.098.076-.098.13h0zm8.418.744c-.065.033-.098.073-.098.12.005.054.038.097.098.13a.47.47 0 0 0 .227.049c.092 0 .17-.016.235-.05.06-.032.09-.075.09-.13s-.033-.097-.098-.13c-.06-.038-.135-.054-.227-.05-.09 0-.167.02-.227.056h0zm-2.768-2.457c.092 0 .17-.02.236-.056s.095-.08.09-.13c0-.054-.033-.1-.098-.137a.52.52 0 0 0-.235-.049.5.5 0 0 0-.227.049c-.065.043-.098.092-.098.145s.033.092.098.13a.41.41 0 0 0 .235.049h0zm2.387-2.223c.07-.043.105-.092.105-.146.005-.06-.03-.108-.105-.145-.065-.038-.152-.06-.26-.065-.103 0-.19.02-.26.065-.07.038-.105.086-.105.145.005.065.043.113.114.146.033.02.073.038.122.05a.48.48 0 0 0 .13.016.56.56 0 0 0 .252-.065h.008z"/><path id="F" d="M78.33 83.022c.222 0 .41-.043.568-.13.152-.092.227-.2.227-.324s-.08-.23-.236-.315c-.157-.092-.346-.135-.568-.13-.227-.005-.417.038-.568.13-.157.086-.233.194-.227.323-.005.13.07.237.227.324a1.15 1.15 0 0 0 .577.121h0zm1.843-5.81c-.124.075-.187.164-.187.267 0 .097.065.18.195.25.124.075.282.113.47.113.18 0 .33-.038.455-.113.124-.07.187-.16.187-.267 0-.103-.062-.188-.187-.258-.13-.075-.287-.1-.47-.105s-.338.042-.463.113h0zm-7.007 5.294c-.135.08-.203.175-.203.283.005.103.076.19.21.267s.298.113.487.113.352-.04.487-.12c.135-.075.203-.167.203-.275s-.07-.2-.21-.275a.93.93 0 0 0-.487-.105c-.19.001-.35.04-.487.114h0zm-5.74-7.088c-.173 0-.317.035-.43.105-.12.07-.18.153-.18.25-.005.092.054.172.18.242.114.065.263.097.446.097.168 0 .31-.035.43-.105s.18-.153.18-.25c-.005-.097-.068-.178-.187-.242-.12-.07-.265-.103-.438-.097h0zm3.824 3.45a1.25 1.25 0 0 0-.633.153c-.173.103-.263.223-.268.364.005.145.098.267.276.364s.392.145.64.145c.254 0 .468-.05.642-.153.18-.103.265-.223.26-.364 0-.14-.09-.26-.268-.364-.18-.097-.395-.145-.65-.145z"/><path id="G" d="M111.813 87.516a3.79 3.79 0 0 0-.422 1.786c.02 1.703 1.1 3.152 3.264 4.348 2.154 1.19 4.74 1.778 7.76 1.762s5.596-.644 7.73-1.867 3.185-2.686 3.174-4.39a3.85 3.85 0 0 0-.422-1.73c-.504-.98-1.45-1.856-2.842-2.627-2.154-1.19-4.74-1.775-7.76-1.754-3.03.02-5.607.644-7.73 1.867-1.348.77-2.265 1.64-2.752 2.603h0zm8.395-3.718c0 .054-.035.103-.105.146h-.008c-.065.038-.15.06-.252.065a.48.48 0 0 1-.13-.016c-.05-.01-.09-.027-.122-.05-.07-.033-.108-.08-.114-.146 0-.06.035-.108.105-.145.07-.043.157-.065.26-.065a.58.58 0 0 1 .26.065c.076.037.11.086.106.145h0zm.576.614c.184-.103.398-.153.64-.153.26-.005.476.043.65.145.18.097.268.216.268.356.005.146-.08.27-.26.372s-.392.153-.642.153-.47-.05-.65-.145c-.173-.103-.263-.223-.268-.364 0-.14.087-.26.26-.363h0zm-4.116-.137c.163-.092.363-.137.6-.137.254-.005.465.038.633.13a.23.23 0 0 1 .057.04c.13.08.192.186.187.315.005.135-.076.25-.243.348s-.373.145-.617.145a1.22 1.22 0 0 1-.617-.145.49.49 0 0 1-.243-.235c-.01-.033-.02-.068-.024-.105.01-.14.1-.258.267-.356h0zm1.283 1.835a.46.46 0 0 1-.236.056c-.092.005-.17-.01-.236-.05s-.098-.08-.098-.13c0-.054.033-.103.098-.145a.5.5 0 0 1 .227-.049c.092 0 .17.016.235.05.065.038.098.084.098.137.006.05-.024.092-.09.13h0zm-.74 1.423c.276 0 .514.054.714.162.2.113.3.248.3.404.005.156-.092.29-.292.404-.195.113-.433.17-.714.17-.282.005-.522-.05-.723-.162-.195-.108-.292-.24-.292-.396 0-.162.098-.3.292-.412.195-.108.433-.164.714-.17h0zm.406 2.49a1.25 1.25 0 0 1 .633-.153c.254 0 .47.05.65.145.18.103.268.223.268.364.005.14-.08.26-.26.364a1.24 1.24 0 0 1-.642.153 1.33 1.33 0 0 1-.641-.145c-.18-.097-.27-.218-.276-.364.005-.14.095-.262.268-.364h0zm3.824-2.57c-.254-.14-.38-.3-.373-.51-.005-.194.114-.364.357-.51.25-.14.552-.213.91-.218.352 0 .652.07.9.2.25.135.373.302.373.5 0 .205-.124.377-.373.517-.243.14-.54.2-.885.2-.357-.001-.66-.07-.91-.203h0zm-1.055 1.293c0-.05.033-.09.098-.12.06-.038.135-.056.227-.056.092-.005.168.01.227.05.065.033.098.075.098.13s-.03.097-.09.13a.52.52 0 0 1-.235.049.47.47 0 0 1-.227-.049c-.06-.033-.093-.075-.098-.13h0zm-6.39-2.223c.114-.07.257-.105.43-.105a.8.8 0 0 1 .439.097c.12.065.182.145.187.242 0 .097-.06.18-.18.25s-.263.105-.43.105c-.184 0-.333-.032-.446-.097-.124-.07-.184-.15-.18-.242-.001-.097.06-.18.178-.25h0zm-1.835 1.487c-.065-.038-.098-.08-.098-.13 0-.054.033-.097.098-.13a.53.53 0 0 1 .219-.057c.092 0 .17.02.235.057.06.033.09.073.09.12 0 .054-.03.097-.09.13a.52.52 0 0 1-.235.065c-.086-.006-.16-.025-.22-.057h0zm.633 2.303c-.168-.087-.252-.194-.252-.324s.08-.242.243-.34.36-.145.593-.145.43.046.593.137c.168.092.25.202.243.33.005.13-.073.242-.236.34s-.36.145-.593.145c-.227 0-.424-.05-.592-.145h0zm1.396 1.27a.52.52 0 0 1 .235-.065.53.53 0 0 1 .236.065c.065.033.098.073.098.12 0 .054-.033.1-.098.137a.46.46 0 0 1-.236.056.52.52 0 0 1-.235-.049c-.065-.038-.098-.084-.098-.137s.033-.097.098-.13h0zm6.584.3c-.005-.15.086-.277.276-.38.184-.108.406-.16.665-.153.27-.005.5.046.7.153.195.103.292.232.292.388.01.15-.076.277-.26.38-.19.108-.417.16-.682.153a1.46 1.46 0 0 1-.674-.162c-.195-.108-.298-.235-.308-.38h0zm-.812 1.908c0-.108.068-.202.203-.283.135-.075.298-.113.487-.113a.93.93 0 0 1 .487.105c.14.075.21.167.21.275s-.068.2-.203.275-.298.12-.487.12-.352-.038-.487-.113-.206-.165-.21-.267h0zm-4.684-.663c-.005-.2.117-.372.365-.517.243-.14.544-.2.9-.2.362 0 .67.07.926.2.26.146.4.318.4.517.005.204-.114.377-.357.517s-.546.2-.9.2a1.92 1.92 0 0 1-.926-.21c-.255-.14-.385-.312-.4-.517h0zm13.314-7.533c.254.14.382.312.382.517s-.127.38-.382.525-.56.218-.917.218c-.362.005-.674-.062-.933-.202-.26-.146-.387-.32-.382-.526-.005-.205.12-.38.373-.526s.563-.218.926-.218.673.07.933.21h0zm2.68 2.417c-.054-.033-.08-.07-.08-.113 0-.05.027-.09.08-.12.06-.033.13-.05.21-.05s.152.016.21.05c.06.027.09.065.09.113s-.03.09-.09.12c-.054.033-.122.05-.203.05-.082-.006-.155-.022-.22-.05h0zm-1.056 1.713c.195-.113.433-.17.714-.17s.52.054.714.162c.2.108.303.242.308.404 0 .156-.098.29-.292.404s-.433.17-.714.17c-.287.005-.527-.05-.723-.162-.2-.108-.3-.242-.3-.404.001-.156.098-.29.293-.404h0zm-4.676-5.342c.092 0 .17.016.236.05.065.038.1.086.105.145 0 .05-.033.09-.098.12-.065.043-.143.065-.236.065-.092-.005-.17-.027-.236-.065-.065-.033-.098-.073-.098-.12-.005-.05.024-.094.09-.137.066-.037.145-.056.236-.056h0zm-2.655 5.94c-.19-.103-.287-.226-.292-.372.005-.145.1-.272.284-.38s.403-.162.658-.162c.265 0 .492.05.682.153.18.108.268.232.268.372.005.146-.084.272-.268.38-.18.108-.403.162-.674.162-.254.006-.473-.046-.658-.153h0zm4.1-1.842c0-.103.062-.19.187-.267.124-.07.28-.108.463-.113s.34.03.47.105c.124.07.187.156.187.258 0 .108-.062.197-.187.267-.124.075-.276.113-.455.113-.19 0-.346-.038-.47-.113-.13-.07-.195-.153-.195-.25h0zm.114 1.382c0 .054-.03.097-.09.13a.5.5 0 0 1-.227.049c-.092 0-.17-.016-.236-.05-.06-.033-.09-.073-.09-.12 0-.054.03-.097.09-.13.065-.038.14-.057.227-.057.092-.005.168.01.227.05.065.033.098.076.098.13h0zm-.365 1.14c.254-.005.47.043.65.145s.268.218.268.364-.086.267-.26.364c-.173.103-.4.153-.65.153-.243 0-.457-.05-.64-.146-.18-.103-.268-.22-.268-.356 0-.145.09-.267.268-.364.173-.102.384-.156.633-.16h0zm-.836 2.894c-.157.086-.346.13-.568.13-.222.005-.414-.035-.576-.12s-.233-.194-.227-.324c-.005-.13.07-.237.227-.323.152-.092.34-.135.568-.13a1.06 1.06 0 0 1 .568.129c.157.086.236.19.236.315s-.076.232-.228.324h0zm-2.687 1.13c-.065.038-.14.06-.227.065a.52.52 0 0 1-.235-.065c-.065-.038-.1-.08-.105-.13 0-.05.033-.092.098-.13a.52.52 0 0 1 .235-.065c.092 0 .17.02.235.056s.1.084.105.137c-.005.05-.04.092-.105.13h0zm6.763-1.835c-.18.097-.392.145-.64.145a1.33 1.33 0 0 1-.641-.145c-.18-.097-.27-.216-.276-.356 0-.14.086-.26.26-.364.184-.103.398-.156.64-.162.254 0 .47.05.65.145s.268.218.268.364c.006.146-.08.27-.26.372z"/><path id="H" d="M131.595 77.262v.186a4 4 0 0 0 .04.436c.233 1.584 1.383 2.948 3.45 4.09 2.31 1.282 5.1 1.9 8.337 1.883 3.242-.02 6.005-.687 8.29-1.996 2.008-1.153 3.128-2.505 3.36-4.057a3.93 3.93 0 0 0 .049-.517v-.162c-.033-1.82-1.2-3.37-3.5-4.647-2.31-1.282-5.1-1.9-8.338-1.883-3.248.02-6.013.7-8.297 2.004-2.263 1.3-3.394 2.854-3.394 4.664h0zm.796.04a3.79 3.79 0 0 1 .422-1.786c.487-.965 1.404-1.832 2.752-2.603 2.12-1.223 4.698-1.845 7.73-1.867 3.02-.02 5.607.563 7.76 1.754 1.39.77 2.338 1.646 2.842 2.627.276.544.417 1.12.422 1.73.01 1.703-1.047 3.166-3.174 4.39s-4.71 1.845-7.73 1.867c-3.02.016-5.607-.57-7.76-1.762-2.154-1.197-3.242-2.647-3.264-4.35z"/><path id="I" d="M132.813 75.516a3.79 3.79 0 0 0-.422 1.786c.02 1.703 1.1 3.152 3.264 4.348 2.154 1.19 4.74 1.778 7.76 1.762s5.596-.644 7.73-1.867 3.185-2.686 3.174-4.39a3.85 3.85 0 0 0-.422-1.73c-.504-.98-1.45-1.856-2.842-2.627-2.154-1.19-4.74-1.775-7.76-1.754-3.03.02-5.607.644-7.73 1.867-1.348.77-2.265 1.64-2.752 2.603h0zm8.395-3.718c0 .054-.035.103-.105.146h-.008c-.065.038-.15.06-.252.065a.48.48 0 0 1-.13-.016c-.05-.01-.09-.027-.122-.05-.07-.033-.108-.08-.114-.146 0-.06.035-.108.105-.145.07-.043.157-.065.26-.065a.58.58 0 0 1 .26.065c.076.037.11.086.106.145h0zm.576.614c.184-.103.398-.153.64-.153.26-.005.476.043.65.145.18.097.268.216.268.356.005.146-.08.27-.26.372s-.392.153-.642.153-.47-.05-.65-.145c-.173-.103-.263-.223-.268-.364 0-.14.087-.26.26-.363h0zm-4.116-.137c.162-.092.363-.137.6-.137.254-.005.465.038.633.13a.23.23 0 0 1 .057.04c.13.08.192.186.187.315.005.135-.076.25-.243.348s-.373.145-.617.145a1.22 1.22 0 0 1-.617-.145.49.49 0 0 1-.243-.235c-.01-.033-.02-.068-.024-.105.01-.14.1-.258.267-.356h0zm1.283 1.835a.46.46 0 0 1-.236.056c-.092.005-.17-.01-.236-.05s-.098-.08-.098-.13c0-.054.033-.103.098-.145a.5.5 0 0 1 .227-.049c.092 0 .17.016.235.05.065.038.098.084.098.137.006.05-.024.092-.09.13h0zm-.74 1.423c.276 0 .514.054.714.162.2.113.3.248.3.404.005.156-.092.29-.292.404-.195.113-.433.17-.714.17-.282.005-.522-.05-.723-.162-.195-.108-.292-.24-.292-.396 0-.162.098-.3.292-.412.195-.108.433-.164.714-.17h0zm.406 2.49a1.25 1.25 0 0 1 .633-.153c.254 0 .47.05.65.145.18.103.268.223.268.364.005.14-.08.26-.26.364a1.24 1.24 0 0 1-.642.153 1.33 1.33 0 0 1-.641-.145c-.18-.097-.27-.218-.276-.364.005-.14.095-.262.268-.364h0zm3.824-2.57c-.254-.14-.38-.3-.373-.51-.005-.194.114-.364.357-.51.25-.14.552-.213.91-.218.352 0 .652.07.9.2.25.135.373.302.373.5 0 .205-.124.377-.373.517-.243.14-.54.2-.885.2-.357-.001-.66-.07-.91-.203h0zm-1.055 1.293c0-.05.033-.09.098-.12.06-.038.135-.056.227-.056.092-.005.168.01.227.05.065.033.098.075.098.13s-.03.097-.09.13a.52.52 0 0 1-.235.049.47.47 0 0 1-.227-.049c-.06-.033-.093-.075-.098-.13h0zm-6.39-2.223c.114-.07.257-.105.43-.105a.8.8 0 0 1 .439.097c.12.065.182.145.187.242 0 .097-.06.18-.18.25s-.263.105-.43.105c-.184 0-.333-.032-.446-.097-.124-.07-.184-.15-.18-.242-.001-.097.06-.18.178-.25h0zm-1.835 1.487c-.065-.038-.098-.08-.098-.13 0-.054.033-.097.098-.13a.53.53 0 0 1 .219-.057c.092 0 .17.02.235.057.06.033.09.073.09.12 0 .054-.03.097-.09.13a.52.52 0 0 1-.235.065c-.086-.006-.16-.025-.22-.057h0zm.633 2.303c-.168-.087-.252-.194-.252-.324s.08-.242.243-.34.36-.145.593-.145.43.046.593.137c.168.092.25.202.243.33.005.13-.073.242-.236.34s-.36.145-.593.145c-.227 0-.424-.05-.592-.145h0zm1.396 1.27a.52.52 0 0 1 .235-.065.53.53 0 0 1 .236.065c.065.033.098.073.098.12 0 .054-.033.1-.098.137a.46.46 0 0 1-.236.056.52.52 0 0 1-.235-.049c-.065-.038-.098-.084-.098-.137s.033-.097.098-.13h0zm6.584.3c-.005-.15.086-.277.276-.38.184-.108.406-.16.665-.153.27-.005.5.046.7.153.195.103.292.232.292.388.01.15-.076.277-.26.38-.19.108-.417.16-.682.153a1.46 1.46 0 0 1-.674-.162c-.195-.108-.298-.235-.308-.38h0zm-.812 1.908c0-.108.068-.202.203-.283.135-.075.298-.113.487-.113a.93.93 0 0 1 .487.105c.14.075.21.167.21.275s-.068.2-.203.275-.298.12-.487.12-.352-.038-.487-.113-.206-.165-.21-.267h0zm-4.684-.663c-.005-.2.117-.372.365-.517.243-.14.544-.2.9-.2.363 0 .67.07.926.2.26.146.4.318.4.517.005.204-.114.377-.357.517s-.546.2-.9.2a1.92 1.92 0 0 1-.926-.21c-.255-.14-.385-.312-.4-.517h0zm13.314-7.533c.254.14.382.312.382.517s-.127.38-.382.525-.56.218-.917.218c-.363.005-.674-.062-.933-.202-.26-.146-.387-.32-.382-.526-.005-.205.12-.38.373-.526s.563-.218.926-.218.673.07.933.21h0zm2.68 2.417c-.054-.033-.08-.07-.08-.113 0-.05.027-.09.08-.12.06-.033.13-.05.21-.05s.152.016.21.05c.06.027.09.065.09.113s-.03.09-.09.12c-.054.033-.122.05-.203.05-.082-.006-.155-.022-.22-.05h0zm-1.056 1.713c.195-.113.433-.17.714-.17s.52.054.714.162c.2.108.303.242.308.404 0 .156-.098.29-.292.404s-.433.17-.714.17c-.287.005-.527-.05-.723-.162-.2-.108-.3-.242-.3-.404.001-.156.098-.29.293-.404h0zm-4.676-5.342c.092 0 .17.016.236.05.065.038.1.086.105.145 0 .05-.033.09-.098.12-.065.043-.143.065-.236.065-.092-.005-.17-.027-.236-.065-.065-.033-.098-.073-.098-.12-.005-.05.024-.094.09-.137.066-.037.145-.056.236-.056h0zm-2.655 5.94c-.19-.103-.287-.226-.292-.372.005-.145.1-.272.284-.38s.403-.162.658-.162c.265 0 .492.05.682.153.18.108.268.232.268.372.005.146-.084.272-.268.38-.18.108-.403.162-.674.162-.254.006-.473-.046-.658-.153h0zm4.1-1.842c0-.103.062-.19.187-.267.124-.07.28-.108.462-.113s.34.03.47.105c.124.07.187.156.187.258 0 .108-.062.197-.187.267-.124.075-.276.113-.455.113-.19 0-.346-.038-.47-.113-.13-.07-.195-.153-.195-.25h0zm.114 1.382c0 .054-.03.097-.09.13a.5.5 0 0 1-.227.049c-.092 0-.17-.016-.236-.05-.06-.033-.09-.073-.09-.12 0-.054.03-.097.09-.13.065-.038.14-.057.227-.057.092-.005.168.01.227.05.065.033.098.076.098.13h0zm-.365 1.14c.254-.005.47.043.65.145s.268.218.268.364-.086.267-.26.364c-.173.103-.4.153-.65.153-.243 0-.457-.05-.64-.146-.18-.103-.268-.22-.268-.356 0-.145.09-.267.268-.364.173-.102.384-.156.633-.16h0zm-.836 2.894c-.157.086-.346.13-.568.13-.222.005-.414-.035-.576-.12s-.233-.194-.227-.324c-.005-.13.07-.237.227-.323.152-.092.34-.135.568-.13a1.06 1.06 0 0 1 .568.129c.157.086.236.19.236.315s-.076.232-.228.324h0zm-2.687 1.13c-.065.038-.14.06-.227.065a.52.52 0 0 1-.235-.065c-.065-.038-.1-.08-.105-.13 0-.05.033-.092.098-.13a.52.52 0 0 1 .235-.065c.092 0 .17.02.235.056s.1.084.105.137c-.005.05-.04.092-.105.13h0zm6.763-1.835c-.18.097-.392.145-.64.145a1.33 1.33 0 0 1-.641-.145c-.18-.097-.27-.216-.276-.356 0-.14.086-.26.26-.364.184-.103.398-.156.64-.162.254 0 .47.05.65.145s.268.218.268.364c.006.146-.08.27-.26.372z"/><path id="J" d="M150.333 81.335a1.33 1.33 0 0 0 .641-.145c.18-.103.265-.226.26-.372 0-.145-.09-.267-.268-.364s-.395-.145-.65-.145c-.243.005-.457.06-.64.162-.173.103-.26.223-.26.364.005.14.098.26.276.356s.392.145.64.145h0zm-1.95-2.2c-.18-.103-.395-.15-.65-.145-.25.005-.46.06-.633.162-.18.097-.268.218-.268.364 0 .135.09.253.268.356.184.097.398.146.64.146.26 0 .476-.05.65-.153.173-.097.26-.218.26-.364s-.09-.268-.267-.364h0zm-4.8-1.196c.005.145.103.27.292.372.184.108.403.16.658.153.27 0 .495-.054.674-.162.184-.108.273-.235.268-.38 0-.14-.09-.264-.268-.372-.19-.103-.417-.153-.682-.153-.254 0-.474.054-.658.162s-.278.234-.284.38h0zm8.338-.396c-.282 0-.52.057-.714.17s-.292.248-.292.404c0 .162.1.296.3.404.195.113.436.167.723.162.282 0 .52-.056.714-.17s.292-.248.292-.404c-.005-.162-.108-.296-.308-.404s-.434-.162-.715-.162h0zm-1.957-3.444c0-.205-.127-.377-.382-.517-.26-.14-.57-.2-.933-.2s-.67.073-.926.218-.38.32-.373.526c-.005.205.12.38.382.526.26.14.57.207.933.202.357 0 .663-.073.917-.218s.382-.32.382-.526h0zm-13.33 6.498c-.25.146-.37.318-.365.517s.135.377.4.517.568.2.926.2c.363 0 .665-.07.9-.2s.363-.312.357-.517c0-.2-.13-.372-.4-.517-.254-.14-.563-.2-.926-.2-.357.001-.657.07-.9.2h0zm5.407-1.107c-.19.103-.282.23-.276.38.01.146.114.272.308.38a1.46 1.46 0 0 0 .674.162c.265.005.492-.046.682-.153.184-.103.27-.23.26-.38 0-.156-.098-.286-.292-.388a1.32 1.32 0 0 0-.69-.153c-.26-.006-.482.046-.665.153h0zm-8.508-1.512c0 .13.084.237.252.324.168.097.365.145.593.145a1.14 1.14 0 0 0 .593-.145c.163-.097.24-.2.236-.34.005-.13-.076-.24-.243-.33-.162-.09-.36-.137-.593-.137a1.14 1.14 0 0 0-.593.145c-.162.097-.244.2-.244.34h0zm8.524-3.047c-.005.2.12.37.373.51.25.135.552.202.9.202.346 0 .64-.07.885-.2s.373-.312.373-.517c0-.2-.124-.366-.373-.5s-.55-.2-.9-.2c-.357.005-.66.078-.91.218-.244.147-.363.316-.358.5h0zm-3.142.752c-.2-.108-.44-.162-.714-.162-.282.005-.52.062-.714.17-.195.113-.292.25-.292.412 0 .156.098.288.292.396a1.39 1.39 0 0 0 .723.162c.282 0 .52-.056.714-.17.2-.113.298-.248.292-.404 0-.156-.1-.29-.3-.404h0zm-.658-3.556c-.238 0-.44.046-.6.137-.168.097-.257.216-.268.356a.59.59 0 0 0 .024.105c.038.09.12.17.243.235.168.097.373.145.617.145s.45-.05.617-.145.25-.213.243-.348c.005-.13-.057-.235-.187-.315a.21.21 0 0 0-.057-.04c-.167-.092-.378-.135-.633-.13h0zm4.157.12c-.243 0-.457.05-.64.153-.173.103-.26.223-.26.364.005.14.095.26.268.364.18.097.395.145.65.145.25 0 .463-.05.642-.153s.265-.226.26-.372c0-.14-.09-.258-.268-.356-.173-.103-.4-.15-.65-.146z"/><path id="K" d="M143.984 83.09c.087-.005.162-.027.227-.065s.1-.08.105-.13c-.005-.054-.04-.1-.105-.137a.46.46 0 0 0-.235-.056c-.092.005-.17.027-.235.065s-.098.08-.098.13c.005.05.04.092.105.13a.52.52 0 0 0 .235.065h0zm4.027-5.1c.06-.033.09-.075.09-.13s-.033-.097-.098-.13c-.06-.038-.135-.054-.227-.05-.087 0-.162.02-.227.057-.06.033-.09.075-.09.13 0 .05.03.09.09.12a.52.52 0 0 0 .236.049c.087-.001.162-.017.227-.05h0zm-1.234-5.56a.52.52 0 0 0-.236-.049c-.092 0-.17.02-.236.056-.065.043-.095.09-.09.137 0 .05.032.09.098.12a.52.52 0 0 0 .236.065c.092 0 .17-.02.236-.065.065-.033.098-.073.098-.12-.006-.06-.04-.108-.106-.145h0zm5.415 3.467c0 .043.027.08.08.113.065.027.138.043.22.05.08 0 .15-.016.203-.05.06-.033.09-.073.09-.12s-.03-.086-.09-.113c-.06-.033-.13-.05-.21-.05s-.152.016-.21.05c-.053.033-.08.073-.08.12h0zm-16.764 3.62c-.092.005-.17.027-.235.065s-.098.075-.098.13.033.1.098.137c.065.032.143.05.235.05s.17-.02.236-.056.098-.084.098-.137c0-.05-.033-.09-.098-.12-.065-.038-.144-.06-.236-.065h0zm-2.362-3.637c0 .05.033.092.098.13a.52.52 0 0 0 .219.056c.092-.005.17-.027.235-.065.06-.033.09-.075.09-.13 0-.05-.03-.09-.09-.12a.46.46 0 0 0-.235-.057c-.087.005-.16.024-.22.057-.065.033-.098.076-.098.13h0zm8.418.744c-.065.033-.098.073-.098.12.005.054.038.097.098.13a.47.47 0 0 0 .227.049c.092 0 .17-.016.235-.05.06-.032.09-.075.09-.13s-.033-.097-.098-.13c-.06-.038-.135-.054-.227-.05-.09 0-.167.02-.227.056h0zm-2.768-2.457c.092 0 .17-.02.236-.056s.095-.08.09-.13c0-.054-.033-.1-.098-.137a.52.52 0 0 0-.235-.049.5.5 0 0 0-.227.049c-.065.043-.098.092-.098.145s.033.092.098.13a.41.41 0 0 0 .235.049h0zm2.387-2.223c.07-.043.105-.092.105-.146.005-.06-.03-.108-.105-.145-.065-.038-.152-.06-.26-.065-.103 0-.19.02-.26.065-.07.038-.105.086-.105.145.005.065.043.113.114.146.033.02.073.038.122.05a.48.48 0 0 0 .13.016.56.56 0 0 0 .252-.065h.008z"/><path id="L" d="M146.33 82.022c.222 0 .41-.043.568-.13.152-.092.227-.2.227-.324s-.08-.23-.236-.315c-.157-.092-.346-.135-.568-.13-.227-.005-.417.038-.568.13-.157.086-.233.194-.227.323-.005.13.07.237.227.324a1.15 1.15 0 0 0 .577.121h0zm1.843-5.81c-.124.075-.187.164-.187.267 0 .097.065.18.195.25.124.075.282.113.47.113.18 0 .33-.038.455-.113.124-.07.187-.16.187-.267 0-.103-.062-.188-.187-.258-.13-.075-.287-.1-.47-.105s-.338.042-.462.113h0zm-7.007 5.294c-.135.08-.203.175-.203.283.005.103.076.19.21.267s.298.113.487.113.352-.04.487-.12c.135-.075.203-.167.203-.275s-.07-.2-.21-.275a.93.93 0 0 0-.487-.105c-.19.001-.35.04-.487.114h0zm-5.74-7.088c-.173 0-.317.035-.43.105-.12.07-.18.153-.18.25-.005.092.054.172.18.242.114.065.262.097.446.097.168 0 .31-.035.43-.105s.18-.153.18-.25c-.005-.097-.068-.178-.187-.242-.12-.07-.265-.103-.438-.097h0zm3.824 3.45a1.25 1.25 0 0 0-.633.153c-.173.103-.263.223-.268.364.005.145.098.267.276.364s.392.145.64.145c.254 0 .468-.05.642-.153.18-.103.265-.223.26-.364 0-.14-.09-.26-.268-.364-.18-.097-.395-.145-.65-.145z"/><path id="M" d="M112.813 63.516a3.79 3.79 0 0 0-.422 1.786c.02 1.703 1.1 3.152 3.264 4.348 2.154 1.19 4.74 1.778 7.76 1.762s5.596-.644 7.73-1.867 3.185-2.686 3.174-4.39a3.85 3.85 0 0 0-.422-1.73c-.504-.98-1.45-1.856-2.842-2.627-2.154-1.19-4.74-1.775-7.76-1.754-3.03.02-5.607.644-7.73 1.867-1.348.77-2.265 1.64-2.752 2.603h0zm8.395-3.718c0 .054-.035.103-.105.146h-.008c-.065.038-.15.06-.252.065a.48.48 0 0 1-.13-.016c-.05-.01-.09-.027-.122-.05-.07-.033-.108-.08-.114-.146 0-.06.035-.108.105-.145.07-.043.157-.065.26-.065a.58.58 0 0 1 .26.065c.076.037.11.086.106.145h0zm.576.614c.184-.103.398-.153.64-.153.26-.005.476.043.65.145.18.097.268.216.268.356.005.146-.08.27-.26.372s-.392.153-.642.153-.47-.05-.65-.145c-.173-.103-.263-.223-.268-.364 0-.14.087-.26.26-.363h0zm-4.116-.137c.163-.092.363-.137.6-.137.254-.005.465.038.633.13a.23.23 0 0 1 .057.04c.13.08.192.186.187.315.005.135-.076.25-.243.348s-.373.145-.617.145a1.22 1.22 0 0 1-.617-.145.49.49 0 0 1-.243-.235c-.01-.033-.02-.068-.024-.105.01-.14.1-.258.267-.356h0zm1.283 1.835a.46.46 0 0 1-.236.056c-.092.005-.17-.01-.236-.05s-.098-.08-.098-.13c0-.054.033-.103.098-.145a.5.5 0 0 1 .227-.049c.092 0 .17.016.235.05.065.038.098.084.098.137.006.05-.024.092-.09.13h0zm-.74 1.423c.276 0 .514.054.714.162.2.113.3.248.3.404.005.156-.092.29-.292.404-.195.113-.433.17-.714.17-.282.005-.522-.05-.723-.162-.195-.108-.292-.24-.292-.396 0-.162.098-.3.292-.412.195-.108.433-.164.714-.17h0zm.406 2.49a1.25 1.25 0 0 1 .633-.153c.254 0 .47.05.65.145.18.103.268.223.268.364.005.14-.08.26-.26.364a1.24 1.24 0 0 1-.642.153 1.33 1.33 0 0 1-.641-.145c-.18-.097-.27-.218-.276-.364.005-.14.095-.262.268-.364h0zm3.824-2.57c-.254-.14-.38-.3-.373-.51-.005-.194.114-.364.357-.51.25-.14.552-.213.91-.218.352 0 .652.07.9.2.25.135.373.302.373.5 0 .205-.124.377-.373.517-.243.14-.54.2-.885.2-.357-.001-.66-.07-.91-.203h0zm-1.055 1.293c0-.05.033-.09.098-.12.06-.038.135-.056.227-.056.092-.005.168.01.227.05.065.033.098.075.098.13s-.03.097-.09.13a.52.52 0 0 1-.235.049.47.47 0 0 1-.227-.049c-.06-.033-.093-.075-.098-.13h0zm-6.39-2.223c.114-.07.257-.105.43-.105a.8.8 0 0 1 .439.097c.12.065.182.145.187.242 0 .097-.06.18-.18.25s-.263.105-.43.105c-.184 0-.333-.032-.446-.097-.124-.07-.184-.15-.18-.242-.001-.097.06-.18.178-.25h0zm-1.835 1.487c-.065-.038-.098-.08-.098-.13 0-.054.033-.097.098-.13a.53.53 0 0 1 .219-.057c.092 0 .17.02.235.057.06.033.09.073.09.12 0 .054-.03.097-.09.13a.52.52 0 0 1-.235.065c-.086-.006-.16-.025-.22-.057h0zm.633 2.303c-.168-.087-.252-.194-.252-.324s.08-.242.243-.34.36-.145.593-.145.43.046.593.137c.168.092.25.202.243.33.005.13-.073.242-.236.34s-.36.145-.593.145c-.227 0-.424-.05-.592-.145h0zm1.396 1.27a.52.52 0 0 1 .235-.065.53.53 0 0 1 .236.065c.065.033.098.073.098.12 0 .054-.033.1-.098.137a.46.46 0 0 1-.236.056.52.52 0 0 1-.235-.049c-.065-.038-.098-.084-.098-.137s.033-.097.098-.13h0zm6.584.3c-.005-.15.086-.277.276-.38.184-.108.406-.16.665-.153.27-.005.5.046.7.153.195.103.292.232.292.388.01.15-.076.277-.26.38-.19.108-.417.16-.682.153a1.46 1.46 0 0 1-.674-.162c-.195-.108-.298-.235-.308-.38h0zm-.812 1.908c0-.108.068-.202.203-.283.135-.075.298-.113.487-.113a.93.93 0 0 1 .487.105c.14.075.21.167.21.275s-.068.2-.203.275-.298.12-.487.12-.352-.038-.487-.113-.206-.165-.21-.267h0zm-4.684-.663c-.005-.2.117-.372.365-.517.243-.14.544-.2.9-.2.362 0 .67.07.926.2.26.146.4.318.4.517.005.204-.114.377-.357.517s-.546.2-.9.2a1.92 1.92 0 0 1-.926-.21c-.255-.14-.385-.312-.4-.517h0zm13.314-7.533c.254.14.382.312.382.517s-.127.38-.382.525-.56.218-.917.218c-.363.005-.674-.062-.933-.202-.26-.146-.387-.32-.382-.526-.005-.205.12-.38.373-.526s.563-.218.926-.218.673.07.933.21h0zm2.68 2.417c-.054-.033-.08-.07-.08-.113 0-.05.027-.09.08-.12.06-.033.13-.05.21-.05s.152.016.21.05c.06.027.09.065.09.113s-.03.09-.09.12c-.054.033-.122.05-.203.05-.082-.006-.155-.022-.22-.05h0zm-1.056 1.713c.195-.113.433-.17.714-.17s.52.054.714.162c.2.108.303.242.308.404 0 .156-.098.29-.292.404s-.433.17-.714.17c-.287.005-.527-.05-.723-.162-.2-.108-.3-.242-.3-.404.001-.156.098-.29.293-.404h0zm-4.676-5.342c.092 0 .17.016.236.05.065.038.1.086.105.145 0 .05-.033.09-.098.12-.065.043-.143.065-.236.065-.092-.005-.17-.027-.236-.065-.065-.033-.098-.073-.098-.12-.005-.05.024-.094.09-.137.066-.037.145-.056.236-.056h0zm-2.655 5.94c-.19-.103-.287-.226-.292-.372.005-.145.1-.272.284-.38s.403-.162.658-.162c.265 0 .492.05.682.153.18.108.268.232.268.372.005.146-.084.272-.268.38-.18.108-.403.162-.674.162-.254.006-.473-.046-.658-.153h0zm4.1-1.842c0-.103.062-.19.187-.267.124-.07.28-.108.462-.113s.34.03.47.105c.124.07.187.156.187.258 0 .108-.062.197-.187.267-.124.075-.276.113-.455.113-.19 0-.346-.038-.47-.113-.13-.07-.195-.153-.195-.25h0zm.114 1.382c0 .054-.03.097-.09.13a.5.5 0 0 1-.227.049c-.092 0-.17-.016-.236-.05-.06-.033-.09-.073-.09-.12 0-.054.03-.097.09-.13.065-.038.14-.057.227-.057.092-.005.168.01.227.05.065.033.098.076.098.13h0zm-.365 1.14c.254-.005.47.043.65.145s.268.218.268.364-.086.267-.26.364c-.173.103-.4.153-.65.153-.243 0-.457-.05-.64-.146-.18-.103-.268-.22-.268-.356 0-.145.09-.267.268-.364.173-.102.384-.156.633-.16h0zm-.836 2.894c-.157.086-.346.13-.568.13-.222.005-.414-.035-.576-.12s-.233-.194-.227-.324c-.005-.13.07-.237.227-.323.152-.092.34-.135.568-.13a1.06 1.06 0 0 1 .568.129c.157.086.236.19.236.315s-.076.232-.228.324h0zm-2.687 1.13c-.065.038-.14.06-.227.065a.52.52 0 0 1-.235-.065c-.065-.038-.1-.08-.105-.13 0-.05.033-.092.098-.13a.52.52 0 0 1 .235-.065c.092 0 .17.02.235.056s.1.084.105.137c-.005.05-.04.092-.105.13h0zm6.763-1.835c-.18.097-.392.145-.64.145a1.33 1.33 0 0 1-.641-.145c-.18-.097-.27-.216-.276-.356 0-.14.086-.26.26-.364.184-.103.398-.156.64-.162.254 0 .47.05.65.145s.268.218.268.364c.006.146-.08.27-.26.372z"/><path id="N" d="M126.33 70.022c.222 0 .41-.043.568-.13.152-.092.227-.2.227-.324s-.08-.23-.236-.315c-.157-.092-.346-.135-.568-.13-.227-.005-.417.038-.568.13-.157.086-.233.194-.227.323-.005.13.07.237.227.324a1.15 1.15 0 0 0 .577.121h0zm1.843-5.81c-.124.075-.187.164-.187.267 0 .097.065.18.195.25.124.075.282.113.47.113.18 0 .33-.038.455-.113.124-.07.187-.16.187-.267 0-.103-.062-.188-.187-.258-.13-.075-.287-.1-.47-.105s-.338.042-.462.113h0zm-7.007 5.294c-.135.08-.203.175-.203.283.005.103.076.19.21.267s.298.113.487.113.352-.04.487-.12c.135-.075.203-.167.203-.275s-.07-.2-.21-.275a.93.93 0 0 0-.487-.105c-.19.001-.35.04-.487.114h0zm-5.74-7.088c-.173 0-.317.035-.43.105-.12.07-.18.153-.18.25-.005.092.054.172.18.242.114.065.263.097.446.097.168 0 .31-.035.43-.105s.18-.153.18-.25c-.005-.097-.068-.178-.187-.242-.12-.07-.265-.103-.438-.097h0zm3.824 3.45a1.25 1.25 0 0 0-.633.153c-.173.103-.263.223-.268.364.005.145.098.267.276.364s.392.145.64.145c.254 0 .468-.05.642-.153.18-.103.265-.223.26-.364 0-.14-.09-.26-.268-.364-.18-.097-.395-.145-.65-.145z"/></defs></svg>