<svg xmlns="http://www.w3.org/2000/svg" xmlns:xlink="http://www.w3.org/1999/xlink" width="225" height="159" xmlns:v="https://vecta.io/nano"><g fill-rule="nonzero" fill="none"><g transform="matrix(-1 0 0 1 160.756945 49.31875)"><use xlink:href="#B" fill="#e8b282"/><use xlink:href="#C" fill="#ffe5cc"/><use xlink:href="#D" fill="#fdca97"/><use xlink:href="#E" fill="#e4b585"/></g><g transform="matrix(-1 0 0 1 124.756945 45.31875)"><use xlink:href="#B" fill="#e8b282"/><use xlink:href="#C" fill="#ffe5cc"/><use xlink:href="#D" fill="#fdca97"/><use xlink:href="#E" fill="#e4b585"/></g><g transform="matrix(-1 0 0 1 137.756945 81.31875)"><use xlink:href="#B" fill="#e8b282"/><use xlink:href="#C" fill="#ffe5cc"/><use xlink:href="#D" fill="#fdca97"/><use xlink:href="#E" fill="#e4b585"/></g></g><defs ><path id="B" d="M12.032 10.15a1.03 1.03 0 0 1-.208.406c-.1.135-.265.3-.492.493l-.588.435-.37.232c-1.332.78-2.873 1.21-4.622 1.295-.856.037-1.637-.014-2.343-.153a1.46 1.46 0 0 1-.203-.056c-.674-.238-1.227-.526-1.66-.863 0-.006-.003-.013-.01-.02l-.104-.077c-.322-.27-.565-.573-.73-.908a2.87 2.87 0 0 1-.227-.647 1.01 1.01 0 0 0-.038-.183c-.025-.16-.04-.32-.047-.473v3.15a3.45 3.45 0 0 0 .047.57 1.07 1.07 0 0 1 .038.183c.133.606.45 1.124.957 1.556.038.025.07.052.094.077.012.006.02.016.02.03.435.34 1 .624 1.667.857.06.02.125.04.188.052.708.146 1.492.197 2.35.154 1.75-.084 3.3-.515 4.622-1.295a8.19 8.19 0 0 0 .957-.667c.227-.193.392-.354.492-.483.114-.148.183-.287.208-.415V10.15z"/><path id="C" d="M11.416 9.135l-.15-.174-.01-.01c-.02-.02-.03-.04-.037-.058-.278-.103-.572-.2-.88-.26-.72-.16-1.53-.22-2.434-.174-1.597.07-3.01.454-4.234 1.15l-.104.058c-.556.33-.998.68-1.326 1.053l-.03.033c.25-.13-.766.41-.67 1.165.05.405 1.145.56 1.067.642l.602.24a1.46 1.46 0 0 0 .203.056c.706.14 1.487.2 2.343.153 1.75-.084 3.3-.515 4.622-1.295l.37-.232.587-.435c.227-.193.392-.358.492-.493a1.03 1.03 0 0 0 .208-.406c.006-.045.01-.1.01-.135v-.058c-.02-.077-.088-.193-.208-.348l-.33-.367c-.033-.03-.06-.066-.087-.104h0zm-.625-2.357c-.164-.142-.363-.28-.597-.415-.114-.07-.233-.135-.36-.193-.815-.393-1.772-.602-2.87-.628l-.18-.01-.692.02a9.69 9.69 0 0 0-2.083.29c-.796.206-1.537.51-2.226.908l-.02.01c-.27.16-.513.322-.73.49l-.357.494c-.19.53-.286 1.07-.286 1.624v.26c.006.154.022.312.047.473a1.07 1.07 0 0 1 .038.183c.057-.18.136-.354.237-.52.202-.367.508-.712.92-1.033.24-.193.51-.377.815-.55.253-.154.518-.293.796-.416l.2-.087c.9-.373 1.87-.602 2.936-.686l.398-.03c.9-.045 1.695.016 2.415.183a6.36 6.36 0 0 1 1.165.367l.227.106V7.53c.006-.045.016-.1.028-.135a2.13 2.13 0 0 1 .142-.502.37.37 0 0 1 .036-.115h0zm.833-2.744a4.31 4.31 0 0 0-.559-.387c-1.074-.625-2.438-.898-4.092-.82l-1.298.135c-.025.013-.047.026-.066.04l-.663.396-1.676 1.16L2.4 5.3a7.07 7.07 0 0 1 .947-.435c.606-.232 1.25-.406 1.932-.52.392-.058.792-.096 1.203-.116 1.13-.058 2.13.055 3.003.338.385.123.748.283 1.09.483.385.22.694.464.928.735.247-.25.543-.493.9-.725-.132-.38-.388-.72-.767-1.024h0zm1.213-3.44l-.388.048-2.197.444-1.013.3c.3.032.575.08.853.145.625.135 1.2.35 1.695.647.776.45 1.24.995 1.392 1.633a1.92 1.92 0 0 1 .047.512c0 .077-.006.154-.02.232-.006.006-.01.016-.01.03l.474-.222a8.29 8.29 0 0 1 1.392-.483.54.54 0 0 1 .028-.067l.038-.154c.02-.084.032-.17.038-.26.14-.96-.33-1.752-1.41-2.376a5.23 5.23 0 0 0-.92-.426h0zm7.91 3.362l.398.145c.253.07.537.096.852.077.53-.02.998-.145 1.402-.377.404-.238.622-.515.653-.83.006-.023.01-.046.01-.067v-.01c.006-.07-.003-.138-.028-.203-.057-.174-.183-.322-.38-.444l-.028-.02c-.006-.006-.016-.01-.028-.01l-.028-.03c-.012-.006-.028-.013-.047-.02l-.294-.164c-.138-.074-.66-.263-.8-.332-.462-.226-.66-.04-1 .35-.274.315-.647.612-1.116.9a6.7 6.7 0 0 1-1.458.638 6.97 6.97 0 0 1 1.127.183l.635.164a.61.61 0 0 1 .133.057h0zM19.77 1.29c.032-.187.035-.36.01-.52a15.55 15.55 0 0 0-2.036-.3L16.37.402c-.12 0-.24-.004-.36-.01l.2.164c.55.52.776 1.133.682 1.835a2.53 2.53 0 0 1-.284.889c-.063.116-.133.225-.208.33l.786-.067.218-.01.455-.01.15-.096.104-.058c1.022-.6 1.578-1.292 1.666-2.078z"/><path id="D" d="M10.583 7.618l-.227-.106c-.36-.154-.748-.277-1.165-.367-.72-.167-1.525-.23-2.415-.183l-.398.03c-1.067.084-2.046.312-2.936.686l-.2.087a6.65 6.65 0 0 0-.796.416c-.303.174-.575.358-.815.55-.4.322-.717.667-.92 1.033a2.43 2.43 0 0 0-.237.521 2.94 2.94 0 0 0 .227.647c.164.335.407.637.73.908l.104.077c.126-.425.36-.825.7-1.198.328-.373.77-.725 1.326-1.053l.104-.058c1.225-.696 2.636-1.08 4.234-1.15.903-.045 1.715.013 2.434.174a7.1 7.1 0 0 1 .881.261c-.17-.193-.306-.373-.408-.54-.156-.276-.232-.52-.226-.734h0zm-.388-1.256c.233.135.433.273.597.415.05-.116.114-.23.2-.338.07-.123.15-.235.237-.338.082-.1.177-.216.284-.32-.234-.27-.543-.515-.928-.735a5.37 5.37 0 0 0-1.089-.483c-.872-.283-1.872-.396-3.003-.338a12 12 0 0 0-1.203.116c-.682.116-1.326.3-1.932.52-.274.102-.538.22-.794.353a1.22 1.22 0 0 0-.282.205 7.31 7.31 0 0 0-.78.873l-.2.27c-.202.296-.366.59-.492.88.272-.238.594-.467.966-.686l.02-.01c.688-.4 1.43-.702 2.226-.908.65-.167 1.345-.264 2.083-.3l.692-.02a1.61 1.61 0 0 1 .18.01c1.1.026 2.056.235 2.87.628a3.07 3.07 0 0 1 .36.192h0zM16.2.556L16 .392a18.18 18.18 0 0 0-1.174.019l-2 .183a5.27 5.27 0 0 1 .919.425c1.08.625 1.55 1.417 1.41 2.376-.006.1-.02.177-.038.26l-.038.154a.54.54 0 0 0-.028.067.71.71 0 0 1 .151-.039l.937-.193.237-.04c.076-.103.145-.213.208-.33.15-.283.247-.58.284-.89.096-.7-.13-1.31-.68-1.833h0zm-5.133 3.092c.208.123.394.25.56.387.38.302.635.644.767 1.024l.38-.232.426-.242c0-.013.003-.023.01-.03.013-.077.02-.154.02-.232a1.95 1.95 0 0 0-.047-.512c-.15-.637-.616-1.182-1.392-1.633-.505-.296-1.07-.512-1.695-.647a7.42 7.42 0 0 0-.853-.145c-1.263.406-2.45.93-3.56 1.575l1.298-.135c1.653-.078 3.017.196 4.1.82h0zM19.78.77c.025.16.022.335-.01.52-.088.786-.644 1.478-1.667 2.077l-.104.058-.15.096a2.87 2.87 0 0 1 .331 0l.672.03a6.67 6.67 0 0 0 1.458-.637l.024-.014c1.11-.487 2.74-1.245 1.967-1.236-.067.001-2.453-.88-2.52-.894z"/><path id="E" d="M18.85 3.55l-.672-.03a2.87 2.87 0 0 0-.331 0l-.455.01-.218.01-.786.067-.237.04-.938.193c-.05.006-.1.02-.15.04a8.31 8.31 0 0 0-1.392.483l-.474.222-.426.242-.38.232c-.347.232-.644.473-.9.725a2.65 2.65 0 0 0-.284.319c-.088.103-.167.216-.237.338a2.01 2.01 0 0 0-.19.338c-.02.04-.03.077-.038.116-.07.167-.117.335-.142.502-.012.045-.022.1-.028.135v.087c-.006.212.07.458.227.735.1.167.237.348.408.54.006.02.02.038.038.058l.01.01.15.174a.32.32 0 0 1 .085-.106c.247-.244.543-.483.9-.715l.38-.242.426-.242.474-.222c.442-.193.906-.354 1.392-.483l.15-.038c.38-.096.77-.17 1.174-.222l.786-.067.218-.02.455-.01a2.87 2.87 0 0 1 .331 0l.672.03c.392.04.767.1 1.127.183l.635.164.133.058.398.154c.253.07.537.096.852.077.53-.026.998-.154 1.402-.387.353-.206.565-.444.635-.715l.028-.183V2.904c-.001.022-.003.044-.01.067-.03.316-.25.593-.653.83-.404.232-.872.358-1.402.377a2.57 2.57 0 0 1-.852-.077l-.398-.145a.6.6 0 0 0-.133-.058l-.635-.164c-.36-.1-.735-.15-1.126-.183z"/></defs></svg>