<svg xmlns="http://www.w3.org/2000/svg" xmlns:xlink="http://www.w3.org/1999/xlink" width="225" height="159" xmlns:v="https://vecta.io/nano"><style><![CDATA[.B{fill:#efce48}.C{fill:#ebd784}.D{fill:#fff0b5}.E{fill:#fee581}]]></style><g fill-rule="nonzero"><path d="M134.26 29.418a.96.96 0 0 1 .116.075c.255.178 1.173-.046 2.755-.668 1.37-.546 2.087-.978 2.155-1.296a.29.29 0 0 0 0-.088v-1.323c-.004.163-.207.366-.607.607-.278.163-.645.34-1.105.532l-.443.19c-1.582.62-2.5.84-2.755.662l-.116-.068v1.377zm-1.037-1.814c-.113-.06-.175-.148-.184-.266l-.007 1.357c.005.132.068.23.19.293v-1.384z" class="B"/><path d="M133.543 27.713a2.54 2.54 0 0 0-.238-.075l-.082-.034v1.384h.007c.023.005.048.014.075.027.39.118.71.253.955.402v-1.384c-.018-.005-.036-.014-.054-.027-.182-.104-.403-.203-.662-.293z" class="C"/><path d="M136.305 25.415c-.37 0-.685.073-.948.218s-.903.74-1.93 1.767a2.13 2.13 0 0 0-.204.204l.082.034a2.32 2.32 0 0 1 .238.075c.26.09.48.188.66.293.018.014.037.023.055.027l1.616-.668 1.05-.49.355-.184c.254-.137.382-.305.382-.505v-.02c0-.204-.132-.38-.396-.525-.267-.15-.588-.226-.96-.226z" class="D"/><path d="M135.356 25.633c.263-.145.58-.218.948-.218s.694.075.962.225.395.32.395.525v.02c0 .2-.127.368-.382.505l-.355.184-1.05.49-1.616.67v.007l.116.068c.254.177 1.173-.043 2.755-.662l.443-.19c.46-.19.828-.37 1.105-.532.4-.24.602-.443.607-.607v-.014c0-.027-.005-.055-.013-.082-.146-.332-.482-.643-1.01-.934a4.72 4.72 0 0 0-1.691-.553c-.6-.077-1.06-.027-1.377.15-.323.177-.832.677-1.528 1.5-.44.518-.65.902-.627 1.152.01.118.07.207.184.266a2.19 2.19 0 0 1 .204-.204l1.93-1.766z" class="E"/><path d="M136.19 31.225c-.113-.06-.175-.148-.184-.266l-.007 1.357c.005.132.068.23.19.293v-1.384zm5.456-.88c-.278.163-.645.34-1.105.532l-.443.19c-1.582.62-2.5.84-2.755.662l-.116-.068v1.378c.04.023.08.048.116.075.255.178 1.173-.045 2.755-.67 1.37-.545 2.087-.977 2.155-1.295a.29.29 0 0 0 0-.088V29.74c-.005.163-.207.366-.607.607z" class="B"/><path d="M136.27 31.26l-.082-.034v1.384h.007c.023.005.047.014.075.028.39.118.71.252.955.403v-1.385c-.018-.005-.037-.014-.055-.027-.182-.105-.402-.203-.66-.293-.073-.027-.153-.052-.24-.075z" class="C"/><path d="M140.628 29.807v-.02c0-.205-.132-.38-.395-.525s-.59-.225-.962-.225-.685.073-.948.218-.903.738-1.93 1.767a2.13 2.13 0 0 0-.204.204l.082.034a2.32 2.32 0 0 1 .239.075 4 4 0 0 1 .661.293c.018.013.036.023.054.027l1.616-.67 1.05-.49.354-.184c.256-.136.383-.305.383-.505z" class="D"/><path d="M142.25 29.74v-.014a.26.26 0 0 0-.013-.082c-.145-.332-.482-.643-1.01-.934a4.72 4.72 0 0 0-1.691-.553c-.6-.078-1.06-.027-1.377.15-.323.177-.832.677-1.528 1.5-.44.518-.65.902-.627 1.152.01.118.07.207.184.266a2.19 2.19 0 0 1 .204-.205l1.93-1.766c.263-.146.58-.22.948-.22s.694.075.962.225.395.32.395.525v.02c0 .2-.127.37-.382.505l-.355.184-1.05.49-1.616.668v.007l.116.068c.255.178 1.173-.043 2.755-.662l.443-.19a9.12 9.12 0 0 0 1.105-.532c.4-.24.602-.442.607-.606z" class="E"/><path d="M125.844 28.914l-.116-.068v1.377c.04.023.08.048.116.075.254.178 1.173-.046 2.755-.668 1.37-.546 2.087-.977 2.155-1.296a.29.29 0 0 0 0-.088v-1.323c-.005.163-.207.366-.607.607-.278.163-.645.34-1.105.532l-.443.19c-1.582.617-2.5.838-2.755.66h0zm-1.344.587c.005.132.068.23.19.293V28.41c-.114-.06-.175-.148-.184-.266L124.5 29.5z" class="B"/><path d="M124.69 28.41l.082.034.24.075a4 4 0 0 1 .662.293c.018.014.037.023.055.028l1.616-.67 1.05-.49.355-.184c.255-.136.382-.305.382-.505v-.02c0-.204-.132-.38-.395-.525s-.588-.225-.962-.225-.684.073-.948.218-.903.74-1.93 1.766c-.077.068-.145.136-.204.204z" class="D"/><path d="M124.69 28.41v1.384h.007c.023.005.047.014.075.027.39.118.71.253.955.402V28.84c-.018-.005-.037-.014-.055-.027-.182-.105-.403-.203-.662-.293a2.4 2.4 0 0 0-.239-.075l-.082-.034z" class="C"/><path d="M125.134 27c-.44.518-.65.902-.627 1.152.01.118.07.207.184.266a2.19 2.19 0 0 1 .204-.204l1.93-1.766c.263-.145.58-.218.948-.218s.694.075.962.225.395.32.395.525V27c0 .2-.127.37-.382.505l-.355.184-1.05.49-1.616.67v.007l.116.068c.254.177 1.173-.043 2.755-.662l.443-.19c.46-.19.827-.368 1.105-.532.4-.24.602-.444.607-.607v-.013a.26.26 0 0 0-.013-.082c-.145-.332-.482-.644-1-.934a4.72 4.72 0 0 0-1.691-.553c-.6-.078-1.06-.027-1.377.15-.323.178-.832.678-1.528 1.5z" class="E"/><use xlink:href="#B" class="B"/><use xlink:href="#C" class="C"/><use xlink:href="#D" class="D"/><use xlink:href="#E" class="E"/><path d="M115.19 45.225c-.114-.06-.175-.148-.184-.266l-.007 1.357c.005.132.068.23.19.293v-1.384zm5.456-.88c-.278.163-.645.34-1.105.532l-.443.19c-1.582.618-2.5.84-2.755.662l-.116-.068v1.378c.04.023.08.048.116.075.254.178 1.173-.045 2.755-.67 1.368-.545 2.087-.977 2.155-1.295a.29.29 0 0 0 0-.089V43.74c-.004.163-.207.366-.607.607z" class="B"/><path d="M115.27 45.26l-.082-.034V46.6h.007c.022.005.047.014.075.028.39.118.71.252.955.403v-1.385c-.018-.005-.037-.014-.055-.028-.182-.104-.403-.203-.662-.293-.073-.027-.153-.053-.24-.075z" class="C"/><use xlink:href="#F" class="D"/><use xlink:href="#G" class="E"/><path d="M104.844 42.914l-.116-.068v1.377c.04.023.08.048.116.075.254.178 1.173-.045 2.755-.67 1.368-.545 2.087-.977 2.155-1.295a.29.29 0 0 0 0-.089v-1.323c-.004.164-.207.366-.607.607-.278.163-.645.34-1.105.532l-.443.19c-1.582.617-2.5.838-2.755.66h0zm-1.344.587c.005.132.068.23.19.293V42.41c-.114-.06-.175-.148-.184-.266L103.5 43.5z" class="B"/><use xlink:href="#H" class="D"/><path d="M103.69 42.41v1.385h.007c.023.004.047.013.075.027.39.118.71.252.955.402V42.84c-.018-.005-.037-.014-.055-.028-.182-.104-.403-.202-.662-.293a2.4 2.4 0 0 0-.239-.075l-.082-.035z" class="C"/><path d="M104.134 41c-.44.52-.65.903-.627 1.153.01.118.07.207.184.266a2.19 2.19 0 0 1 .204-.205l1.93-1.766c.263-.145.58-.218.948-.218s.694.075.962.225.395.32.395.525V41c0 .2-.127.37-.382.505l-.355.184-1.05.49-1.616.67v.007l.116.068c.254.178 1.173-.043 2.755-.662l.443-.19c.46-.19.828-.37 1.105-.532.4-.24.603-.444.607-.607v-.014a.26.26 0 0 0-.013-.082c-.146-.332-.482-.643-1-.934a4.72 4.72 0 0 0-1.691-.552c-.6-.078-1.06-.028-1.377.15-.323.178-.832.678-1.528 1.5z" class="E"/><use xlink:href="#I" class="B"/><use xlink:href="#J" class="C"/><use xlink:href="#K" class="D"/><use xlink:href="#L" class="E"/><path d="M142.19 56.225c-.113-.06-.175-.148-.184-.266l-.007 1.357c.005.132.068.23.19.293v-1.384zm5.456-.88c-.278.163-.645.34-1.105.532l-.443.19c-1.582.618-2.5.84-2.755.662l-.116-.068v1.378c.04.023.08.048.116.075.255.178 1.173-.045 2.755-.67 1.37-.545 2.087-.977 2.155-1.295a.29.29 0 0 0 0-.089V54.74c-.005.163-.207.366-.607.607z" class="B"/><path d="M142.27 56.26l-.082-.034V57.6h.007c.023.005.047.014.075.028.39.118.71.252.955.403v-1.385c-.018-.005-.037-.014-.055-.028-.182-.104-.402-.203-.66-.293-.073-.027-.153-.053-.24-.075z" class="C"/><use xlink:href="#M" class="D"/><use xlink:href="#N" class="E"/><path d="M131.843 53.914l-.116-.068v1.377c.04.023.08.048.116.075.255.178 1.173-.045 2.755-.67 1.368-.545 2.087-.977 2.155-1.295a.29.29 0 0 0 0-.089v-1.323c-.004.164-.207.366-.607.607-.278.163-.646.34-1.105.532l-.443.19c-1.582.617-2.5.838-2.755.66h0zm-1.343.587c.004.132.068.23.19.293V53.41c-.114-.06-.175-.148-.184-.266L130.5 54.5z" class="B"/><use xlink:href="#O" class="D"/><path d="M130.69 53.41v1.385h.007c.023.004.048.013.075.027.39.118.71.252.954.402V53.84c-.018-.005-.036-.014-.054-.028-.182-.104-.403-.202-.662-.293a2.4 2.4 0 0 0-.238-.075l-.082-.035z" class="C"/><path d="M131.134 52c-.44.52-.65.903-.627 1.153.01.118.07.207.184.266a2.19 2.19 0 0 1 .204-.205l1.93-1.766c.263-.145.58-.218.948-.218s.694.075.962.225.395.32.395.525V52c0 .2-.127.37-.382.505l-.355.184-1.05.49-1.616.67v.007l.116.068c.255.178 1.173-.043 2.755-.662l.443-.19c.46-.19.828-.37 1.105-.532.4-.24.602-.444.607-.607v-.014a.26.26 0 0 0-.013-.082c-.145-.332-.482-.643-1-.934a4.72 4.72 0 0 0-1.691-.552c-.6-.078-1.06-.028-1.377.15s-.832.678-1.528 1.5z" class="E"/><use xlink:href="#P" class="B"/><use xlink:href="#Q" class="C"/><use xlink:href="#R" class="D"/><use xlink:href="#S" class="E"/><path d="M115.19 71.225c-.114-.06-.175-.147-.184-.266l-.007 1.357c.005.132.068.23.19.293v-1.384zm5.456-.88c-.278.163-.645.34-1.105.532l-.443.19c-1.582.618-2.5.84-2.755.662l-.116-.068v1.377c.04.023.08.048.116.075.254.178 1.173-.045 2.755-.668 1.368-.546 2.087-.977 2.155-1.296a.29.29 0 0 0 0-.088V69.74c-.004.163-.207.365-.607.606z" class="B"/><path d="M115.27 71.26l-.082-.034V72.6h.007c.022.005.047.014.075.028.39.118.71.252.955.403v-1.385c-.018-.005-.037-.014-.055-.028-.182-.105-.403-.203-.662-.293-.073-.028-.153-.053-.24-.076z" class="C"/><use xlink:href="#T" class="D"/><use xlink:href="#U" class="E"/><path d="M104.844 68.914l-.116-.068v1.377c.04.023.08.048.116.075.254.177 1.173-.046 2.755-.668 1.368-.546 2.087-.978 2.155-1.296a.29.29 0 0 0 0-.088v-1.323c-.004.163-.207.366-.607.607-.278.163-.645.34-1.105.532l-.443.19c-1.582.618-2.5.838-2.755.66h0zm-1.344.587c.005.132.068.23.19.293V68.41c-.114-.06-.175-.148-.184-.266L103.5 69.5z" class="B"/><path d="M103.69 68.41l.082.034.24.075a4 4 0 0 1 .662.293c.018.013.037.022.055.028l1.616-.67 1.05-.49.355-.184c.254-.136.382-.305.382-.504v-.02c0-.204-.132-.38-.395-.525s-.588-.225-.962-.225-.684.073-.948.22-.903.74-1.93 1.766c-.077.068-.145.136-.204.204z" class="D"/><path d="M103.69 68.41v1.385h.007c.023.004.047.013.075.028.39.118.71.252.955.402V68.84c-.018-.004-.037-.013-.055-.027-.182-.105-.403-.203-.662-.293a2.4 2.4 0 0 0-.239-.075l-.082-.034z" class="C"/><path d="M104.134 67c-.44.518-.65.902-.627 1.152.01.118.07.207.184.266a2.19 2.19 0 0 1 .204-.204l1.93-1.766c.263-.145.58-.22.948-.22s.694.075.962.225.395.32.395.525V67c0 .2-.127.368-.382.504l-.355.184-1.05.49-1.616.67v.007l.116.068c.254.178 1.173-.043 2.755-.66l.443-.19c.46-.19.828-.368 1.105-.532.4-.24.603-.444.607-.607v-.014a.26.26 0 0 0-.013-.082c-.146-.332-.482-.644-1-.934a4.72 4.72 0 0 0-1.691-.553c-.6-.078-1.06-.027-1.377.15-.323.178-.832.678-1.528 1.5z" class="E"/><path d="M146.26 72.418a.96.96 0 0 1 .116.075c.255.177 1.173-.046 2.755-.67 1.37-.546 2.087-.977 2.155-1.296a.29.29 0 0 0 0-.088v-1.323c-.004.163-.207.366-.607.607-.278.163-.645.34-1.105.532l-.443.19c-1.582.618-2.5.84-2.755.662l-.116-.068v1.377zm-1.037-1.814c-.113-.06-.175-.147-.184-.266l-.007 1.357c.005.132.068.23.19.293v-1.384z" class="B"/><path d="M145.543 70.713a2.54 2.54 0 0 0-.238-.075l-.082-.034v1.385h.007c.023.005.048.014.075.028.39.118.71.252.955.403v-1.385c-.018-.005-.036-.014-.054-.028-.182-.105-.403-.203-.662-.293z" class="C"/><path d="M148.305 68.415c-.37 0-.685.072-.948.218s-.903.74-1.93 1.766a2.13 2.13 0 0 0-.204.204l.082.034a2.32 2.32 0 0 1 .238.075c.26.09.48.188.66.293.018.013.037.022.055.028l1.616-.67 1.05-.49.355-.184c.254-.136.382-.305.382-.504v-.02c0-.205-.132-.38-.396-.525s-.588-.225-.96-.225z" class="D"/><path d="M147.356 68.633c.263-.146.58-.218.948-.218s.694.075.962.225.395.32.395.525v.02c0 .2-.127.368-.382.504l-.355.184-1.05.49-1.616.668v.007l.116.068c.254.177 1.173-.043 2.755-.662l.443-.19c.46-.19.828-.368 1.105-.532.4-.24.602-.443.607-.607v-.014c0-.027-.005-.054-.013-.082-.146-.332-.482-.644-1.01-.934a4.72 4.72 0 0 0-1.691-.552c-.6-.078-1.06-.028-1.377.15-.323.178-.832.678-1.528 1.5-.44.52-.65.903-.627 1.153.01.118.07.207.184.266a2.19 2.19 0 0 1 .204-.204l1.93-1.766z" class="E"/><path d="M148.19 74.225c-.113-.06-.175-.147-.184-.266l-.007 1.357c.005.132.068.23.19.293v-1.384zm5.456-.88c-.278.163-.645.34-1.105.532l-.443.19c-1.582.618-2.5.84-2.755.662l-.116-.068v1.377c.04.023.08.048.116.075.255.178 1.173-.045 2.755-.668 1.37-.546 2.087-.977 2.155-1.296a.29.29 0 0 0 0-.088V72.74c-.005.163-.207.365-.607.606z" class="B"/><path d="M148.27 74.26l-.082-.034V75.6h.007c.023.005.047.014.075.028.39.118.71.252.955.403v-1.385c-.018-.005-.037-.014-.055-.028-.182-.105-.402-.203-.66-.293-.073-.028-.153-.053-.24-.076z" class="C"/><path d="M152.628 72.807v-.02c0-.204-.132-.38-.395-.525s-.59-.225-.962-.225-.685.073-.948.218-.903.74-1.93 1.767a2.13 2.13 0 0 0-.204.204l.082.034a2.32 2.32 0 0 1 .239.075 4 4 0 0 1 .661.293c.018.014.036.023.054.028l1.616-.668 1.05-.49.354-.184c.256-.136.383-.305.383-.505z" class="D"/><path d="M154.25 72.74v-.014a.26.26 0 0 0-.013-.082c-.145-.332-.482-.644-1.01-.934a4.72 4.72 0 0 0-1.691-.552c-.6-.078-1.06-.028-1.377.15-.323.178-.832.678-1.528 1.5-.44.52-.65.903-.627 1.153.01.118.07.207.184.266a2.19 2.19 0 0 1 .204-.204l1.93-1.766c.263-.145.58-.22.948-.22s.694.075.962.225.395.32.395.525v.02c0 .2-.127.368-.382.505l-.355.184-1.05.49-1.616.668v.007l.116.068c.255.177 1.173-.043 2.755-.662l.443-.19a9.12 9.12 0 0 0 1.105-.532c.4-.24.602-.442.607-.606z" class="E"/><path d="M137.843 71.914l-.116-.068v1.377c.04.023.08.048.116.075.255.177 1.173-.046 2.755-.668 1.368-.546 2.087-.978 2.155-1.296a.29.29 0 0 0 0-.088v-1.323c-.004.163-.207.366-.607.607-.278.163-.646.34-1.105.532l-.443.19c-1.582.618-2.5.838-2.755.66h0zm-1.343.587c.004.132.068.23.19.293V71.41c-.114-.06-.175-.148-.184-.266L136.5 72.5z" class="B"/><path d="M136.69 71.41l.082.034.238.075a4 4 0 0 1 .662.293c.018.013.036.022.054.028l1.616-.67 1.05-.49.355-.184c.255-.136.382-.305.382-.504v-.02c0-.204-.132-.38-.395-.525s-.59-.225-.962-.225-.684.073-.948.22c-.26.15-.903.74-1.93 1.766-.077.068-.145.136-.204.204z" class="D"/><path d="M136.69 71.41v1.385h.007c.023.004.048.013.075.028.39.118.71.252.954.402V71.84c-.018-.004-.036-.013-.054-.027-.182-.105-.403-.203-.662-.293a2.4 2.4 0 0 0-.238-.075l-.082-.034z" class="C"/><path d="M137.134 70c-.44.518-.65.902-.627 1.152.01.118.07.207.184.266a2.19 2.19 0 0 1 .204-.204l1.93-1.766c.263-.145.58-.22.948-.22s.694.075.962.225.395.32.395.525V70c0 .2-.127.368-.382.504l-.355.184-1.05.49-1.616.67v.007l.116.068c.255.178 1.173-.043 2.755-.66l.443-.19c.46-.19.828-.368 1.105-.532.4-.24.602-.444.607-.607v-.014a.26.26 0 0 0-.013-.082c-.145-.332-.482-.644-1-.934a4.72 4.72 0 0 0-1.691-.553c-.6-.078-1.06-.027-1.377.15s-.832.678-1.528 1.5z" class="E"/><use xlink:href="#I" x="25" y="-1" class="B"/><use xlink:href="#J" x="25" y="-1" class="C"/><use xlink:href="#K" x="25" y="-1" class="D"/><use xlink:href="#L" x="25" y="-1" class="E"/><path d="M167.19 55.225c-.113-.06-.175-.148-.184-.266l-.007 1.357c.005.132.068.23.19.293v-1.384zm5.456-.88c-.278.163-.645.34-1.105.532l-.443.19c-1.582.618-2.5.84-2.755.662l-.116-.068v1.378c.04.023.08.048.116.075.255.178 1.173-.045 2.755-.67 1.37-.545 2.087-.977 2.155-1.295a.29.29 0 0 0 0-.089V53.74c-.005.163-.207.366-.607.607z" class="B"/><path d="M167.27 55.26l-.082-.034V56.6h.007c.023.005.047.014.075.028.39.118.71.252.955.403v-1.385c-.018-.005-.037-.014-.055-.028-.182-.104-.402-.203-.66-.293-.073-.027-.153-.053-.24-.075z" class="C"/><use xlink:href="#M" x="25" y="-1" class="D"/><use xlink:href="#N" x="25" y="-1" class="E"/><path d="M156.843 52.914l-.116-.068v1.377c.04.023.08.048.116.075.255.178 1.173-.045 2.755-.67 1.368-.545 2.087-.977 2.155-1.295a.29.29 0 0 0 0-.089v-1.323c-.004.164-.207.366-.607.607-.278.163-.646.34-1.105.532l-.443.19c-1.582.617-2.5.838-2.755.66h0zm-1.343.587c.004.132.068.23.19.293V52.41c-.114-.06-.175-.148-.184-.266L155.5 53.5z" class="B"/><use xlink:href="#O" x="25" y="-1" class="D"/><path d="M155.69 52.41v1.385h.007c.023.004.048.013.075.027.39.118.71.252.954.402V52.84c-.018-.005-.036-.014-.054-.028-.182-.104-.403-.202-.662-.293a2.4 2.4 0 0 0-.238-.075l-.082-.035z" class="C"/><path d="M156.134 51c-.44.52-.65.903-.627 1.153.01.118.07.207.184.266a2.19 2.19 0 0 1 .204-.205l1.93-1.766c.263-.145.58-.218.948-.218s.694.075.962.225.395.32.395.525V51c0 .2-.127.37-.382.505l-.355.184-1.05.49-1.616.67v.007l.116.068c.255.178 1.173-.043 2.755-.662l.443-.19c.46-.19.828-.37 1.105-.532.4-.24.602-.444.607-.607v-.014a.26.26 0 0 0-.013-.082c-.145-.332-.482-.643-1-.934a4.72 4.72 0 0 0-1.691-.552c-.6-.078-1.06-.028-1.377.15s-.832.678-1.528 1.5z" class="E"/><use xlink:href="#P" x="-44" y="2" class="B"/><use xlink:href="#Q" x="-44" y="2" class="C"/><use xlink:href="#R" x="-44" y="2" class="D"/><use xlink:href="#S" x="-44" y="2" class="E"/><path d="M71.19 73.225c-.114-.06-.175-.147-.184-.266l-.007 1.357c.005.132.068.23.19.293v-1.384zm5.456-.88c-.278.163-.645.34-1.105.532l-.443.19c-1.582.618-2.5.84-2.755.662l-.116-.068v1.377c.04.023.08.048.116.075.254.178 1.173-.045 2.755-.668 1.368-.546 2.087-.977 2.155-1.296a.29.29 0 0 0 0-.088V71.74c-.004.163-.207.365-.607.606z" class="B"/><path d="M71.27 73.26l-.082-.034V74.6h.007c.022.005.047.014.075.028.39.118.71.252.955.403v-1.385c-.018-.005-.037-.014-.055-.028-.182-.105-.403-.203-.662-.293-.073-.028-.153-.053-.24-.076z" class="C"/><use xlink:href="#T" x="-44" y="2" class="D"/><use xlink:href="#U" x="-44" y="2" class="E"/><path d="M60.844 70.914l-.116-.068v1.377c.04.023.08.048.116.075.255.177 1.173-.046 2.755-.668 1.368-.546 2.087-.978 2.155-1.296a.29.29 0 0 0 0-.088v-1.323c-.004.163-.207.366-.607.607-.278.163-.645.34-1.105.532l-.443.19c-1.582.618-2.5.838-2.755.66h0zM59.5 71.5c.005.132.068.23.19.293V70.41c-.114-.06-.175-.148-.184-.266L59.5 71.5z" class="B"/><path d="M59.69 70.41l.082.034.24.075a4 4 0 0 1 .661.293c.018.013.037.022.055.028l1.616-.67 1.05-.49.355-.184c.254-.136.382-.305.382-.504v-.02c0-.204-.132-.38-.395-.525s-.59-.225-.962-.225-.684.073-.948.22c-.26.15-.903.74-1.93 1.766-.077.068-.145.136-.204.204z" class="D"/><path d="M59.69 70.41v1.385h.007c.023.004.047.013.075.028.39.118.71.252.955.402V70.84c-.018-.004-.037-.013-.055-.027-.182-.105-.402-.203-.66-.293a2.4 2.4 0 0 0-.239-.075l-.082-.034z" class="C"/><path d="M60.134 69c-.44.518-.65.902-.627 1.152.01.118.07.207.184.266a2.19 2.19 0 0 1 .205-.204l1.93-1.766c.264-.145.58-.22.948-.22s.694.075.962.225.395.32.395.525V69c0 .2-.127.368-.382.504l-.355.184-1.05.49-1.616.67v.007l.116.068c.255.178 1.173-.043 2.755-.66l.443-.19c.46-.19.828-.368 1.105-.532.4-.24.603-.444.607-.607v-.014a.26.26 0 0 0-.013-.082c-.146-.332-.482-.644-1-.934a4.72 4.72 0 0 0-1.691-.553c-.6-.078-1.06-.027-1.377.15-.323.178-.832.678-1.528 1.5z" class="E"/><use xlink:href="#B" x="-6" y="15" class="B"/><use xlink:href="#C" x="-6" y="15" class="C"/><use xlink:href="#D" x="-6" y="15" class="D"/><use xlink:href="#E" x="-6" y="15" class="E"/><path d="M109.19 60.225c-.114-.06-.175-.148-.184-.266l-.007 1.357c.005.132.068.23.19.293v-1.384zm5.456-.88c-.278.163-.645.34-1.105.532l-.443.19c-1.582.618-2.5.84-2.755.662l-.116-.068v1.378c.04.023.08.048.116.075.254.178 1.173-.045 2.755-.67 1.368-.545 2.087-.977 2.155-1.295a.29.29 0 0 0 0-.089V58.74c-.004.163-.207.366-.607.607z" class="B"/><path d="M109.27 60.26l-.082-.034V61.6h.007c.022.005.047.014.075.028.39.118.71.252.955.403v-1.385c-.018-.005-.037-.014-.055-.028-.182-.104-.403-.203-.662-.293-.073-.027-.153-.053-.24-.075z" class="C"/><use xlink:href="#F" x="-6" y="15" class="D"/><use xlink:href="#G" x="-6" y="15" class="E"/><path d="M98.844 57.914l-.116-.068v1.377c.04.023.08.048.116.075.254.178 1.173-.045 2.755-.67 1.368-.545 2.087-.977 2.155-1.295a.29.29 0 0 0 0-.089v-1.323c-.004.164-.207.366-.607.607-.278.163-.645.34-1.105.532l-.443.19c-1.582.617-2.5.838-2.755.66h0zM97.5 58.5c.005.132.068.23.19.293V57.41c-.114-.06-.175-.148-.184-.266L97.5 58.5z" class="B"/><use xlink:href="#H" x="-6" y="15" class="D"/><path d="M97.69 57.41v1.385h.007c.023.004.047.013.075.027.39.118.71.252.955.402V57.84c-.018-.005-.037-.014-.055-.028-.182-.104-.403-.202-.662-.293a2.4 2.4 0 0 0-.239-.075l-.082-.035z" class="C"/><path d="M98.134 56c-.44.52-.65.903-.627 1.153.01.118.07.207.184.266a2.19 2.19 0 0 1 .204-.205l1.93-1.766c.263-.145.58-.218.948-.218s.694.075.962.225.395.32.395.525V56c0 .2-.127.37-.382.505l-.355.184-1.05.49-1.616.67v.007l.116.068c.254.178 1.173-.043 2.755-.662l.443-.19c.46-.19.828-.37 1.105-.532.4-.24.603-.444.607-.607v-.014a.26.26 0 0 0-.013-.082c-.146-.332-.482-.643-1-.934a4.72 4.72 0 0 0-1.691-.552c-.6-.078-1.06-.028-1.377.15-.323.178-.832.678-1.528 1.5z" class="E"/></g><defs ><path id="B" d="M113.26 43.418a.96.96 0 0 1 .116.075c.255.178 1.173-.045 2.755-.67 1.368-.545 2.087-.977 2.155-1.295a.29.29 0 0 0 0-.089v-1.323c-.005.164-.207.366-.607.607-.278.163-.646.34-1.105.532l-.443.19c-1.582.618-2.5.84-2.755.66l-.116-.068v1.377zm-1.036-1.814c-.114-.06-.175-.147-.184-.266l-.007 1.357c.004.132.068.23.19.293v-1.384z"/><path id="C" d="M112.543 41.713a2.54 2.54 0 0 0-.239-.075l-.082-.034v1.385h.007c.023.005.047.014.075.028.39.118.71.252.955.402v-1.384c-.018-.005-.037-.014-.055-.028-.182-.105-.402-.203-.662-.294z"/><path id="D" d="M115.305 39.415c-.368 0-.684.072-.948.218s-.902.74-1.93 1.767a2.13 2.13 0 0 0-.204.204l.082.034a2.32 2.32 0 0 1 .239.075c.26.09.48.19.662.294.018.014.036.023.054.028l1.616-.67 1.05-.49.354-.184c.255-.136.382-.304.382-.505v-.02c0-.204-.132-.38-.395-.525-.267-.15-.588-.225-.96-.225z"/><path id="E" d="M114.357 39.633c.264-.145.58-.218.948-.218s.694.075.962.225.395.32.395.525v.02c0 .2-.127.368-.382.505l-.355.184-1.05.49-1.616.67v.007l.116.068c.255.177 1.173-.043 2.755-.662l.443-.19c.46-.19.828-.368 1.105-.532.4-.24.603-.443.607-.607v-.014c0-.027-.004-.055-.013-.082-.145-.332-.482-.644-1.01-.934a4.72 4.72 0 0 0-1.692-.553c-.6-.078-1.06-.027-1.377.15s-.832.678-1.528 1.5c-.44.52-.65.903-.627 1.153.01.118.07.207.184.266a2.19 2.19 0 0 1 .205-.205l1.93-1.766z"/><path id="F" d="M119.628 43.807v-.02c0-.205-.132-.38-.395-.525s-.588-.225-.962-.225-.684.073-.948.218-.903.74-1.93 1.767a2.13 2.13 0 0 0-.204.204l.082.034a2.32 2.32 0 0 1 .238.075 4 4 0 0 1 .662.293c.018.014.037.023.055.028l1.616-.67 1.05-.49.355-.184c.255-.137.382-.305.382-.505z"/><path id="G" d="M121.25 43.74v-.014a.26.26 0 0 0-.013-.082c-.145-.332-.482-.644-1.01-.934a4.72 4.72 0 0 0-1.692-.553c-.6-.078-1.06-.027-1.377.15-.323.178-.832.678-1.528 1.5-.44.52-.65.903-.627 1.153.01.118.07.207.184.266a2.19 2.19 0 0 1 .204-.205l1.93-1.767c.263-.145.58-.218.948-.218s.694.075.962.225.395.32.395.525v.02c0 .2-.127.37-.382.505l-.355.184-1.05.49-1.616.668v.007l.116.068c.254.178 1.173-.043 2.755-.66l.443-.19a9.12 9.12 0 0 0 1.105-.532c.4-.24.602-.442.606-.606z"/><path id="H" d="M103.69 42.41l.082.034.24.075a4 4 0 0 1 .662.293c.018.014.037.023.055.027l1.616-.67 1.05-.49.355-.184c.254-.136.382-.304.382-.505v-.02c0-.205-.132-.38-.395-.525s-.588-.225-.962-.225-.684.073-.948.218-.903.74-1.93 1.766c-.077.068-.145.137-.204.205z"/><path id="I" d="M140.26 54.418a.96.96 0 0 1 .116.075c.255.178 1.173-.045 2.755-.67 1.37-.545 2.087-.977 2.155-1.295a.29.29 0 0 0 0-.089v-1.323c-.004.164-.207.366-.607.607-.278.163-.645.34-1.105.532l-.443.19c-1.582.618-2.5.84-2.755.66l-.116-.068v1.377zm-1.037-1.814c-.113-.06-.175-.147-.184-.266l-.007 1.357c.005.132.068.23.19.293v-1.384z"/><path id="J" d="M139.543 52.713a2.54 2.54 0 0 0-.238-.075l-.082-.034v1.385h.007c.023.005.048.014.075.028.39.118.71.252.955.402v-1.384c-.018-.005-.036-.014-.054-.028-.182-.105-.403-.203-.662-.294z"/><path id="K" d="M142.305 50.415c-.37 0-.685.072-.948.218s-.903.74-1.93 1.767a2.13 2.13 0 0 0-.204.204l.082.034a2.32 2.32 0 0 1 .238.075c.26.09.48.19.66.294.018.014.037.023.055.028l1.616-.67 1.05-.49.355-.184c.254-.136.382-.304.382-.505v-.02c0-.204-.132-.38-.396-.525-.267-.15-.588-.225-.96-.225z"/><path id="L" d="M141.356 50.633c.263-.145.58-.218.948-.218s.694.075.962.225.395.32.395.525v.02c0 .2-.127.368-.382.505l-.355.184-1.05.49-1.616.67v.007l.116.068c.254.177 1.173-.043 2.755-.662l.443-.19c.46-.19.828-.368 1.105-.532.4-.24.602-.443.607-.607v-.014c0-.027-.005-.055-.013-.082-.146-.332-.482-.644-1.01-.934a4.72 4.72 0 0 0-1.691-.553c-.6-.078-1.06-.027-1.377.15-.323.178-.832.678-1.528 1.5-.44.52-.65.903-.627 1.153.01.118.07.207.184.266a2.19 2.19 0 0 1 .204-.205l1.93-1.766z"/><path id="M" d="M146.628 54.807v-.02c0-.205-.132-.38-.395-.525s-.59-.225-.962-.225-.685.073-.948.218-.903.74-1.93 1.767a2.13 2.13 0 0 0-.204.204l.082.034a2.32 2.32 0 0 1 .239.075 4 4 0 0 1 .661.293c.018.014.036.023.054.028l1.616-.67 1.05-.49.354-.184c.256-.137.383-.305.383-.505z"/><path id="N" d="M148.25 54.74v-.014a.26.26 0 0 0-.013-.082c-.145-.332-.482-.644-1.01-.934a4.72 4.72 0 0 0-1.691-.553c-.6-.078-1.06-.027-1.377.15-.323.178-.832.678-1.528 1.5-.44.52-.65.903-.627 1.153.01.118.07.207.184.266a2.19 2.19 0 0 1 .204-.205l1.93-1.767c.263-.145.58-.218.948-.218s.694.075.962.225.395.32.395.525v.02c0 .2-.127.37-.382.505l-.355.184-1.05.49-1.616.668v.007l.116.068c.255.178 1.173-.043 2.755-.66l.443-.19a9.12 9.12 0 0 0 1.105-.532c.4-.24.602-.442.607-.606z"/><path id="O" d="M130.69 53.41l.082.034.238.075a4 4 0 0 1 .662.293c.018.014.036.023.054.027l1.616-.67 1.05-.49.355-.184c.255-.136.382-.304.382-.505v-.02c0-.205-.132-.38-.395-.525s-.59-.225-.962-.225-.684.073-.948.218c-.26.15-.903.74-1.93 1.766-.077.068-.145.137-.204.205z"/><path id="P" d="M113.26 69.418a.96.96 0 0 1 .116.075c.255.177 1.173-.046 2.755-.67 1.368-.546 2.087-.977 2.155-1.296a.29.29 0 0 0 0-.088v-1.323c-.005.163-.207.366-.607.607-.278.163-.646.34-1.105.532l-.443.19c-1.582.618-2.5.84-2.755.662l-.116-.068v1.377zm-1.036-1.814c-.114-.06-.175-.147-.184-.266l-.007 1.357c.004.132.068.23.19.293v-1.384z"/><path id="Q" d="M112.543 67.713a2.54 2.54 0 0 0-.239-.075l-.082-.034v1.385h.007c.023.005.047.014.075.028.39.118.71.252.955.403v-1.385c-.018-.005-.037-.014-.055-.028-.182-.105-.402-.203-.662-.293z"/><path id="R" d="M115.305 65.415c-.368 0-.684.072-.948.218s-.902.74-1.93 1.766a2.13 2.13 0 0 0-.204.204l.082.034a2.32 2.32 0 0 1 .239.075c.26.09.48.188.662.293.018.013.036.022.054.028l1.616-.67 1.05-.49.354-.184c.255-.136.382-.305.382-.504v-.02c0-.205-.132-.38-.395-.525s-.588-.225-.96-.225z"/><path id="S" d="M114.357 65.633c.264-.146.58-.218.948-.218s.694.075.962.225.395.32.395.525v.02c0 .2-.127.368-.382.504l-.355.184-1.05.49-1.616.668v.007l.116.068c.255.177 1.173-.043 2.755-.662l.443-.19c.46-.19.828-.368 1.105-.532.4-.24.603-.443.607-.607v-.014c0-.027-.004-.054-.013-.082-.145-.332-.482-.644-1.01-.934a4.72 4.72 0 0 0-1.692-.552c-.6-.078-1.06-.028-1.377.15s-.832.678-1.528 1.5c-.44.52-.65.903-.627 1.153.01.118.07.207.184.266a2.19 2.19 0 0 1 .205-.204l1.93-1.766z"/><path id="T" d="M119.628 69.807v-.02c0-.204-.132-.38-.395-.525s-.588-.225-.962-.225-.684.073-.948.218-.903.74-1.93 1.767a2.13 2.13 0 0 0-.204.204l.082.034a2.32 2.32 0 0 1 .238.075 4 4 0 0 1 .662.293c.018.014.037.023.055.028l1.616-.668 1.05-.49.355-.184c.255-.136.382-.305.382-.505z"/><path id="U" d="M121.25 69.74v-.014a.26.26 0 0 0-.013-.082c-.145-.332-.482-.644-1.01-.934a4.72 4.72 0 0 0-1.692-.552c-.6-.078-1.06-.028-1.377.15-.323.178-.832.678-1.528 1.5-.44.52-.65.903-.627 1.153.01.118.07.207.184.266a2.19 2.19 0 0 1 .204-.204l1.93-1.766c.263-.145.58-.22.948-.22s.694.075.962.225.395.32.395.525v.02c0 .2-.127.368-.382.505l-.355.184-1.05.49-1.616.668v.007l.116.068c.254.177 1.173-.043 2.755-.662l.443-.19a9.12 9.12 0 0 0 1.105-.532c.4-.24.602-.442.606-.606z"/></defs></svg>