<svg xmlns="http://www.w3.org/2000/svg" viewBox="0 0 35.393 20.568" xmlns:v="https://vecta.io/nano"><path d="M10.64 16.312h-.014v1.2l2.32 1.296V17.62l-2.305-1.31z" fill="#caa28a"/><path d="M26.023 10.857c-1.055.646-2.27 2.014-3.642 4.105-1.328 2.028-2.44 3.287-3.34 3.778-.627.345-1.61.577-2.946.696l-3.137-1.8h-.014v1.173l3.15 1.76c1.764-.1 3.02-.35 3.764-.75.9-.49 2.02-1.75 3.355-3.778 1.364-2.09 2.578-3.46 3.642-4.105 1.09-.664 2.873-1.05 5.346-1.16l2.77-.177.368-.055V9.29c-.364.1-.764.177-1.2.232-.51.073-1.428.132-2.755.177-2.472.11-4.26.495-5.36 1.16z" fill="#b66f46"/><path d="M22.382 14.962c1.373-2.09 2.587-3.46 3.642-4.105 1.1-.664 2.887-1.05 5.36-1.16l2.755-.177c.436-.055.836-.132 1.2-.232.018 0 .036-.005.055-.014l-3.1-1.814c-.4.118-.84.21-1.323.273-.51.064-1.428.123-2.755.177-2.473.1-4.26.482-5.36 1.146-1.055.655-2.27 2.023-3.642 4.105-1.327 2.037-2.44 3.296-3.34 3.778-.618.336-1.587.568-2.905.696l3.137 1.8c1.337-.118 2.32-.35 2.946-.696.9-.49 2.013-1.75 3.34-3.778z" fill="#c68660"/><path d="M30.06 6.15a8.02 8.02 0 0 1-1.255.245c-.51.064-1.427.123-2.755.177-2.473.1-4.26.486-5.36 1.16-1.055.646-2.27 2.01-3.642 4.092-1.327 2.037-2.44 3.3-3.342 3.792-.637.346-1.66.577-3.07.696l2.305 1.31.014.014c1.318-.127 2.287-.36 2.905-.696.9-.482 2.014-1.74 3.34-3.778 1.373-2.082 2.587-3.45 3.642-4.105 1.1-.664 2.887-1.046 5.36-1.146l2.755-.177c.482-.064.923-.155 1.323-.273L30.06 6.15z" fill="#f9e2d6"/><path d="M28.806 6.397a8.14 8.14 0 0 0 1.255-.245L26.3 3.956a8.3 8.3 0 0 1-1.391.286c-.518.064-1.44.123-2.77.177-2.473.1-4.255.486-5.346 1.16-1.064.646-2.278 2-3.642 4.092-1.337 2.037-2.455 3.3-3.355 3.792-.618.337-1.6.564-2.946.682l3.764 2.17h.014c1.41-.118 2.432-.35 3.07-.696.9-.49 2.014-1.755 3.342-3.792 1.373-2.082 2.587-3.446 3.642-4.092 1.1-.673 2.887-1.06 5.36-1.16l2.754-.177z" fill="#bf9073"/><path d="M6.86 14.144V15.4l3.764 2.114v-1.2l-3.764-2.17z" fill="#af8266"/><path d="M4.242 13.94l2.62 1.46v-1.255l-2.62-1.487v1.283z" fill="#d2b6a5"/><path d="M4.242 12.657h-.014L0 10.442v1.342l4.242 2.155v-1.282z" fill="#b17f5f"/><path d="M7.556 11.92c-.673.364-1.778.61-3.314.736l2.62 1.487c1.346-.118 2.328-.346 2.946-.682.9-.49 2.02-1.755 3.355-3.792 1.364-2.082 2.578-3.446 3.642-4.092 1.09-.673 2.873-1.06 5.346-1.16l2.77-.177a8.4 8.4 0 0 0 1.391-.286l-2.5-1.473a9.77 9.77 0 0 1-1.146.218c-.51.073-1.428.132-2.755.177-2.482.11-4.27.495-5.36 1.16-1.055.646-2.27 2.014-3.642 4.105-1.327 2.03-2.44 3.29-3.34 3.78z" fill="#eeccb6"/><path d="M4.242 12.657c1.537-.127 2.64-.373 3.314-.736.9-.49 2.014-1.75 3.342-3.778 1.373-2.09 2.587-3.46 3.642-4.105 1.09-.664 2.878-1.05 5.36-1.16l2.755-.177a9.98 9.98 0 0 0 1.146-.218L19.573.002c-.373.11-.782.19-1.228.245-.51.064-1.428.123-2.755.177-2.473.1-4.26.482-5.36 1.146-1.055.655-2.27 2.023-3.642 4.105C5.26 7.712 4.147 8.97 3.246 9.453c-.673.373-1.7.872-3.246 1l4.228 2.215h.014z" fill="#c48863"/></svg>