<svg xmlns="http://www.w3.org/2000/svg" viewBox="0 0 43.154 23.144" xmlns:v="https://vecta.io/nano"><path d="M10.216 8.617c-.364-.082-.714-.186-1.05-.314-.4-.073-.846-.1-1.337-.082-.082 0-.168.005-.26.014l-.505.04c-.937.082-1.832.246-2.687.49C3.36 9.05 2.2 8.962.9 8.508.573 8.4.286 8.217.04 8l-.014 3.355c.245.236.536.418.873.546 1.3.455 2.46.54 3.478.26 1.01-.29 2.073-.468 3.19-.532l.26-.014c.49-.018.937.01 1.337.082.336.127.687.232 1.05.314a7.73 7.73 0 0 0 1.009.177V8.795a8.07 8.07 0 0 1-1.008-.178z" fill="#546f32"/><path d="M11.47 6.025c-.073-.237-.182-.446-.327-.627-.264-.364-.65-.646-1.16-.846-1.427-.573-2.328-.61-2.7-.11l-.11.19c-.136.264-.223.536-.26.818-.018.182-.023.355-.014.518a.75.75 0 0 0 .027.205c.01.073-.027.273-.11.6-.082.318-.514.69-1.296 1.118-.782.41-1.655.614-2.62.614-.964-.018-1.564-.186-1.8-.505C.86 7.675.7 7.538.6 7.593c-.11.036-.25.114-.423.232l-.136.11-.04.014.04.04c.245.227.532.4.86.518 1.3.455 2.46.54 3.478.26.855-.245 1.75-.41 2.687-.49l.505-.04.26-.014c.49-.018.937.01 1.337.082.336.127.687.232 1.05.314a7.73 7.73 0 0 0 1.009.177h.014c.01-.027.018-.05.027-.068.365-1.1.433-2 .205-2.7z" fill="#709342"/><path d="M43.14 11.208a7.28 7.28 0 0 1-.068.75l-.11.64c-.455 2.146-1.714 4.137-3.778 5.974l-1.187.955-.014.014-.15.096c-.127.073-.277.114-.45.123-.19.01-.346-.023-.464-.095-.098-.054-.148-.122-.15-.205v3.34c-.01.1.04.182.15.245.118.073.273.105.464.096.173-.01.323-.05.45-.123l.15-.095.014-.014c3-2.264 4.7-4.787 5.074-7.57.055-.373.082-.74.082-1.105l-.014-.34v-2.687m-4.173 5.06c.146-.49.223-1 .232-1.528.01-.927-.15-1.782-.477-2.564-.618-1.455-1.814-2.687-3.587-3.696-2.737-1.564-6.183-2.26-10.338-2.087-2.992.118-5.733.664-8.224 1.637a8.89 8.89 0 0 0-.559.218 10.54 10.54 0 0 1-3.273.6c-.536.01-1.037-.01-1.5-.055h-.014v3.382h.014c.464.046.964.064 1.5.055a10.54 10.54 0 0 0 3.273-.6c.19-.082.377-.155.56-.218 2.49-.973 5.233-1.518 8.224-1.637 4.155-.173 7.6.523 10.338 2.087 1.773 1.01 2.97 2.24 3.587 3.696.1.228.18.465.245.7z" fill="#9c3321"/><path d="M39.198 14.74c-.01.527-.086 1.036-.232 1.528-.318 1.055-.973 2.014-1.964 2.878h-.014a2.23 2.23 0 0 0-.164.15c-.027.036-.046.073-.055.11v.055c.002.083.052.15.15.205.118.073.273.104.464.095.173-.01.323-.05.45-.123l.15-.096.014-.014 1.187-.955c2.064-1.837 3.323-3.828 3.778-5.974l.11-.64.068-.75.014-.477c-.055-3-1.882-5.528-5.483-7.583C33.587.82 28.418-.216 22.162.038c-3.82.155-7.365.768-10.638 1.84a30.09 30.09 0 0 0-1.991.723c-.146.073-.282.146-.41.218-.864.482-1.477 1.023-1.84 1.623.373-.5 1.273-.464 2.7.11.51.2.896.482 1.16.846.146.182.255.39.327.627.227.7.16 1.6-.205 2.7-.01.018-.018.04-.027.068.464.045.964.064 1.5.055a10.54 10.54 0 0 0 3.273-.6c.19-.082.377-.155.56-.218 2.49-.973 5.233-1.518 8.224-1.637 4.155-.173 7.6.523 10.338 2.087 1.773 1.01 2.97 2.24 3.587 3.696.33.78.49 1.636.48 2.564z" fill="#dd4e34"/></svg>