<svg xmlns="http://www.w3.org/2000/svg" viewBox="0 0 27.823 17.23" xmlns:v="https://vecta.io/nano"><path d="M14.84 11.556a1.3 1.3 0 0 1 .232.205c.064.082.1.168.11.26v.082c.9-.073 1.664-.29 2.29-.655l.177-.11c.837-.546 1.15-1.246.94-2.1a2.8 2.8 0 0 0-.518-1.023l-.695.41a2.04 2.04 0 0 1 .218.532c.127.49.04.923-.26 1.296l-.068.096c-.164.164-.368.318-.614.464a4.4 4.4 0 0 1-.968.396 8.24 8.24 0 0 1-.846.148m-2.85-5.892l.682-.396c-.5-.1-1.01-.168-1.528-.205-1.6-.11-2.887.118-3.86.682-.546.31-.91.673-1.09 1.09h.04c.31.01.59.073.846.19.155-.346.445-.64.873-.887.818-.473 1.905-.66 3.26-.56l.777.083z" fill="#918778"/><path d="M6.9 8.323c-.155.027-.323.04-.505.04-.373-.01-.7-.09-.982-.245-.064-.036-.118-.073-.164-.11-.027-.027-.055-.05-.082-.068l-.014-.027-.11-.136c-.536-.682-.896-1.39-1.077-2.128v-.014a4.09 4.09 0 0 1-.109-.791l-.014 1.596v.137c.01.29.05.595.123.914.173.7.5 1.373.982 2.018l2.155-1.064.546-.286v-.423c-.018.164-.127.305-.327.423l-.218.11-.205.053z" fill="#c6c1b7"/><path d="M12.507 11.95v-.055c0-.173.114-.327.34-.464.245-.145.55-.214.914-.204.373.01.696.095.968.26h.027c.027.018.055.04.082.068a7.27 7.27 0 0 0 .846-.15l1.582-.86.068-.096c.3-.373.387-.805.26-1.296-.046-.182-.118-.36-.218-.532-4.1 2.146-7.288 4.396-9.534 6.75l-.027-.014v1.855l.027.014c1.264-1.318 2.82-2.605 4.664-3.86v.436c.027.218.177.41.45.573a.35.35 0 0 1 .082.041 5.81 5.81 0 0 0 .259.096c.036.01.068.018.095.027 1.437.418 2.955.677 4.555.777 3.19.227 5.756-.218 7.692-1.337 1.373-.79 2.096-1.714 2.17-2.77.01-.11.01-.218 0-.327l.014-1.637a3.28 3.28 0 0 1-.164.832c-.29.755-.964 1.437-2.02 2.046-1.937 1.118-4.5 1.564-7.692 1.337-.736-.045-1.455-.123-2.155-.232-.79-.136-1.56-.31-2.305-.518-.036-.01-.068-.018-.095-.027s-.06-.018-.095-.027a4.74 4.74 0 0 1-.259-.095.35.35 0 0 0-.082-.041c-.272-.163-.422-.354-.45-.572z" fill="#b4ada3"/><path d="M11.99 5.664l-.777-.082c-1.355-.1-2.44.086-3.26.56-.427.246-.718.54-.873.887a.83.83 0 0 1 .096.041l.027.027c.282.155.432.332.45.532v.533l.3-.164.205-.11 3.832-2.224z" fill="#706b60"/><path d="M0 11.665l.014 1.868 7.8 3.683V15.36L0 11.665z" fill="#c8c4bb"/><path d="M13.612.14C10.62-.233 8.156.14 6.22 1.258c-1.51.873-2.296 1.955-2.36 3.246-.01.09-.01.186 0 .286v.055a4.17 4.17 0 0 0 .109.791v.014c.182.737.54 1.446 1.077 2.128l.11.136.014.027c.027.018.055.04.082.068.045.036.1.073.164.11.282.154.61.236.982.245.182 0 .35-.014.505-.04l.205-.055.218-.11c.2-.118.31-.26.327-.423v-.1c-.018-.2-.168-.377-.45-.532l-.027-.027c-.036-.018-.068-.032-.096-.04-.255-.118-.536-.182-.846-.19h-.04c.182-.418.546-.782 1.09-1.09.973-.564 2.26-.79 3.86-.682a12.05 12.05 0 0 1 1.528.205l-4.515 2.62-.205.11-.3.164-.546.286L4.95 9.508 0 11.663l7.842 3.7c2.246-2.355 5.424-4.605 9.534-6.75l.695-.41c.255.327.427.668.518 1.023.21.855-.105 1.555-.94 2.1a3.43 3.43 0 0 1-.177.109c-.627.364-1.39.582-2.29.655v-.082c-.01-.09-.045-.177-.11-.26a1.3 1.3 0 0 0-.232-.205c-.027-.027-.055-.05-.082-.068h-.027c-.273-.164-.596-.25-.968-.26-.364-.01-.668.06-.914.204-.227.136-.34.29-.34.464v.055c.027.218.177.41.45.573a.35.35 0 0 1 .082.041 4.74 4.74 0 0 0 .259.095c.036.01.068.018.095.027s.06.018.095.027c.746.21 1.514.382 2.305.518a23.56 23.56 0 0 0 2.155.232c3.19.227 5.756-.218 7.692-1.337 1.055-.61 1.728-1.29 2.02-2.046.09-.273.145-.55.164-.832v-.055c-.01-.39-.095-.796-.26-1.214-.655-1.655-2.255-3.2-4.8-4.637a.99.99 0 0 0-.096-.055c-.036-.018-.077-.04-.123-.068l-.11-.068-1.214-.668C18.867 1.258 16.33.476 13.612.14z" fill="#f7f1e6"/></svg>