<svg xmlns="http://www.w3.org/2000/svg" viewBox="0 0 34.125 21.795" xmlns:v="https://vecta.io/nano"><path d="M13.612 16.394a2.22 2.22 0 0 0 .205-.777l.014-.314c-.018-1.055-.687-1.955-2.005-2.7-1.337-.764-2.96-1.146-4.87-1.146s-3.542.387-4.896 1.16c-1.364.773-2.05 1.7-2.06 2.782v.11a2.42 2.42 0 0 0 .218.941c.29.655.882 1.232 1.773 1.732 1.346.773 2.973 1.155 4.883 1.146 1.91 0 3.546-.386 4.9-1.16.917-.526 1.526-1.117 1.826-1.772m-3.874-2.62a.52.52 0 0 0 .123.068c.69.427 1.032.94 1.023 1.54a1.5 1.5 0 0 1-.232.791l-.136.177c-.2.237-.468.45-.805.64-.782.436-1.723.655-2.823.655-1.09 0-2.023-.218-2.796-.655-.318-.19-.573-.387-.764-.587-.055-.064-.1-.127-.136-.19a1.38 1.38 0 0 1-.273-.818c.018-.59.382-1.1 1.09-1.528a.72.72 0 0 0 .109-.068c.79-.446 1.728-.668 2.8-.668 1.1-.008 2.036.206 2.81.642z" fill="#c5ca8a"/><path d="M9.86 13.844c-.045-.018-.086-.04-.123-.068-.773-.436-1.71-.65-2.8-.64-1.082 0-2.02.223-2.8.668a.72.72 0 0 1-.109.068c-.71.427-1.073.937-1.09 1.528 0 .29.09.564.273.818a1.25 1.25 0 0 0 .136.191c.173-.21.4-.395.682-.56a.72.72 0 0 1 .109-.068c.79-.455 1.728-.682 2.8-.682 1.1-.01 2.037.21 2.8.655l.123.068c.264.164.482.34.655.532l.136-.177a1.5 1.5 0 0 0 .232-.791c.01-.6-.332-1.115-1.023-1.542m3.955 1.773c-.018.264-.086.523-.205.777-.3.655-.91 1.246-1.828 1.773-1.364.773-3 1.16-4.9 1.16-1.91.01-3.537-.373-4.883-1.146-.89-.5-1.482-1.077-1.773-1.732a2.42 2.42 0 0 1-.218-.941v1.937c-.01 1.1.655 2.028 1.99 2.782 1.346.764 2.973 1.14 4.883 1.132 1.91 0 3.546-.387 4.9-1.16 1.31-.746 1.99-1.637 2.046-2.673l-.013-1.91z" fill="#9ba166"/><path d="M14.648 8.77c1.346.764 2.973 1.14 4.883 1.132 1.91 0 3.546-.386 4.9-1.16 1.31-.746 1.99-1.637 2.046-2.673l-.014-1.91c-.018.264-.086.523-.205.777-.3.655-.91 1.246-1.828 1.773-1.364.773-3 1.16-4.9 1.16-1.91.01-3.537-.373-4.883-1.146-.89-.5-1.482-1.077-1.773-1.732a2.42 2.42 0 0 1-.218-.941v1.937c-.008 1.1.656 2.027 1.992 2.782m7.87-6.383c-.045-.018-.086-.04-.123-.068-.773-.436-1.71-.65-2.8-.64-1.082 0-2.02.223-2.8.668a.72.72 0 0 1-.109.068c-.71.427-1.073.936-1.09 1.528 0 .29.09.564.273.818a1.25 1.25 0 0 0 .136.191 2.49 2.49 0 0 1 .682-.559.72.72 0 0 1 .109-.068c.79-.455 1.728-.682 2.8-.682 1.1-.01 2.037.21 2.8.655l.123.068c.264.164.482.34.655.532l.136-.177a1.51 1.51 0 0 0 .232-.791c.01-.6-.332-1.115-1.023-1.542z" fill="#3e4055"/><path d="M19.613 0c-1.91 0-3.542.386-4.896 1.16-1.364.773-2.05 1.7-2.06 2.782v.11a2.42 2.42 0 0 0 .218.941c.29.655.882 1.232 1.773 1.732 1.346.773 2.973 1.155 4.883 1.146 1.91 0 3.546-.386 4.9-1.16.918-.527 1.528-1.118 1.828-1.773a2.22 2.22 0 0 0 .205-.777l.014-.314c-.018-1.055-.687-1.955-2.005-2.7C23.146.382 21.523 0 19.613 0m2.782 2.32a.52.52 0 0 0 .123.068c.69.427 1.032.94 1.023 1.54a1.5 1.5 0 0 1-.232.791l-.136.177c-.2.236-.468.45-.805.64-.782.437-1.723.655-2.823.655-1.09 0-2.023-.218-2.796-.655-.318-.19-.573-.386-.764-.586-.055-.064-.1-.127-.136-.19a1.38 1.38 0 0 1-.273-.818c.018-.59.382-1.1 1.09-1.528a.72.72 0 0 0 .109-.068c.79-.445 1.728-.668 2.8-.668 1.1-.01 2.037.204 2.81.64z" fill="#66687d"/><path d="M32.08 20.636c1.31-.746 1.99-1.637 2.046-2.673l-.014-1.91c-.018.264-.086.523-.205.777-.3.655-.91 1.246-1.828 1.773-1.364.773-3 1.16-4.9 1.16-1.91.01-3.537-.373-4.883-1.146-.89-.5-1.482-1.077-1.773-1.732a2.42 2.42 0 0 1-.218-.941v1.937c-.01 1.1.655 2.028 1.99 2.782 1.346.764 2.974 1.14 4.883 1.132 1.9 0 3.547-.386 4.91-1.16m-1.923-6.356a.54.54 0 0 1-.123-.068c-.773-.436-1.71-.65-2.8-.64-1.082 0-2.02.223-2.8.668a.72.72 0 0 1-.109.068c-.71.427-1.073.936-1.09 1.528 0 .29.09.564.273.818a1.25 1.25 0 0 0 .136.191 2.49 2.49 0 0 1 .682-.559.72.72 0 0 1 .109-.068c.79-.455 1.728-.682 2.8-.682 1.1-.01 2.037.21 2.8.655l.123.068c.264.164.482.34.655.532l.136-.177a1.5 1.5 0 0 0 .232-.791c.01-.6-.332-1.115-1.023-1.542z" fill="#3e4055"/><path d="M34.125 15.74c-.018-1.055-.687-1.955-2.005-2.7-1.337-.764-2.96-1.146-4.87-1.146s-3.54.386-4.896 1.16c-1.364.773-2.05 1.7-2.06 2.782v.11a2.42 2.42 0 0 0 .218.941c.29.655.882 1.232 1.773 1.732 1.346.773 2.974 1.155 4.883 1.146 1.9 0 3.546-.386 4.9-1.16.918-.527 1.527-1.118 1.828-1.773a2.22 2.22 0 0 0 .205-.777l.012-.314m-4.092-1.527a.52.52 0 0 0 .123.068c.69.427 1.032.94 1.023 1.54a1.5 1.5 0 0 1-.232.791l-.136.177c-.2.236-.468.45-.805.64-.782.436-1.723.655-2.823.655-1.09 0-2.023-.218-2.796-.655-.318-.19-.573-.386-.764-.586-.055-.064-.1-.127-.136-.19a1.38 1.38 0 0 1-.273-.818c.018-.59.382-1.1 1.09-1.528a.72.72 0 0 0 .109-.068c.79-.445 1.728-.668 2.8-.668 1.1-.01 2.036.204 2.81.64z" fill="#66687d"/></svg>