<svg xmlns="http://www.w3.org/2000/svg" viewBox="0 0 33.852 24.918" xmlns:v="https://vecta.io/nano"><path d="M1.105 14.785V16.6a7.68 7.68 0 0 0 .791 1.05v-1.814c-.3-.346-.564-.696-.79-1.05m4.57 3.996c-.018-.01-.032-.018-.04-.027l-1.16-.71v1.814l1.16.71c.01.01.023.018.04.027V18.78m.955.505l-.164-.082v1.814l.164.082v-1.814m-2.892-1.76a11.53 11.53 0 0 1-1.159-.982v1.814c.346.336.732.664 1.16.982v-1.814M0 11.24v1.54a7.01 7.01 0 0 0 .518 2.728l.027-1.76c-.245-.582-.41-1.178-.49-1.787L0 11.24z" fill="#815f83"/><path d="M.52 15.508a9.22 9.22 0 0 0 .586 1.091v-1.814a8.28 8.28 0 0 1-.559-1.036l-.027 1.76m5.946 3.696l-.79-.423v1.814l.79.423v-1.814m-3.887-.846v-1.814c-.245-.227-.473-.464-.682-.71v1.814c.21.245.437.482.682.71m1.16-.832v1.814l.737.518v-1.814l-.737-.518z" fill="#937596"/><path d="M9.152 19.695l-.123.068h.014l.273-.15-.164.082m22.94-15.262h.014V4.42l1.228-.696-.246-.136C29.397 1.54 24.928.518 19.682.518 14.427.51 9.935 1.523 6.207 3.56 2.88 5.37 1.02 7.515.63 9.998c-.064.318-.095.637-.095.955-.036 2.9 1.796 5.374 5.496 7.42.39.218.79.423 1.2.614l.014.014v-.027l1.323-.67c-.01-.01-.018-.014-.027-.014a.35.35 0 0 0-.082-.041 22.63 22.63 0 0 1-1.5-.723c-.51-.264-.973-.536-1.39-.818-2.5-1.646-3.737-3.564-3.7-5.756.027-2.546 1.778-4.724 5.25-6.533.746-.39 1.523-.732 2.332-1.023C12.404 2.28 15.814 1.72 19.67 1.72c3.655 0 6.906.514 9.752 1.54.935.327 1.826.718 2.672 1.173z" fill="#efeeee"/><path d="M7.243 18.972V20.8l1.296-.75v-1.732l-1.296.655M9.152 18v1.705l.164-.082 1.46-.86v-1.582L9.152 18z" fill="#cfd0d0"/><path d="M7.23 18.985l-.6.3V21.1l.055.027.56-.327V19l-.014-.014z" fill="#736077"/><path d="M9.138 18.003l-.6.314v1.732l.49-.286.123-.068v-1.678l-.014-.014z" fill="#957c99"/><path d="M31.916 6.383h.014l.327-.19-.15.082-.19.11M30.17 5.5l1.446-.805c-3.3-1.655-7.292-2.482-11.948-2.482-4.774 0-8.852.85-12.234 2.55-3.382 1.71-5.092 3.77-5.128 6.178-.018 1.52.618 2.896 1.91 4.133.782.746 1.8 1.44 3.055 2.087.4.21.814.405 1.24.586a20.18 20.18 0 0 0 .627.245l.014.014V18l1.623-.818a22.81 22.81 0 0 1-2.087-.791 8.14 8.14 0 0 1-.382-.177c-2.464-1.155-3.928-2.5-4.392-4.064-.027-.11-.055-.21-.082-.3a5.44 5.44 0 0 1-.068-.859c.027-2.046 1.59-3.787 4.692-5.224 3.09-1.427 6.824-2.14 11.198-2.14 4.065-.002 7.57.63 10.516 1.894z" fill="#f1f0f0"/><path d="M31.916 6.383l-.3.164-1.446.832V5.5c-2.946-1.264-6.45-1.896-10.516-1.896-4.374 0-8.106.714-11.198 2.14-3.1 1.437-4.665 3.178-4.692 5.224a5.44 5.44 0 0 0 .068.859c.7-1.682 2.24-3.078 4.624-4.187 3.09-1.427 6.824-2.14 11.198-2.14 4.046 0 7.547.627 10.502 1.882l.014.014h.014l1.746-1.023h-.014z" fill="#dfdfde"/><path d="M33.348 5.55l.505-.286V3.437l-.505.286V5.55m-1.24-1.118h-.014l-.477.273v1.84l.3-.164.19-.11v-1.84z" fill="#977a9b"/><path d="M33.09 3.587l.246.136h.014l.505-.286-.382-.218C29.67 1.073 25.075 0 19.683 0c-5.4-.01-10.034 1.055-13.87 3.19S.038 7.92.002 10.965v.272a9.64 9.64 0 0 0 .055.723c.082.61.246 1.205.49 1.787a8.34 8.34 0 0 0 .559 1.036c.227.355.49.705.79 1.05a8.25 8.25 0 0 0 .682.709c.346.336.732.664 1.16.982a26.13 26.13 0 0 0 .737.518c.364.236.75.473 1.16.71.01.01.023.018.04.027l.79.423.164.082.6-.3a18.29 18.29 0 0 1-1.2-.614C2.33 16.323.498 13.85.535 10.95a4.91 4.91 0 0 1 .095-.955c.39-2.482 2.25-4.628 5.578-6.438C9.936 1.52 14.428.505 19.683.514c5.245.004 9.714 1.027 13.406 3.073z" fill="#c19bc7"/><path d="M31.616 4.705l.477-.273c-.846-.455-1.737-.846-2.673-1.173-2.846-1.027-6.097-1.54-9.752-1.54-3.855 0-7.265.56-10.23 1.678a18.45 18.45 0 0 0-2.332 1.023c-3.473 1.81-5.224 3.987-5.25 6.533-.027 2.19 1.21 4.1 3.7 5.756.418.282.882.555 1.39.818a22.63 22.63 0 0 0 1.5.723.35.35 0 0 1 .082.041c.01 0 .018.004.027.014l.573-.3-.627-.245c-.427-.182-.84-.377-1.24-.586-1.255-.646-2.273-1.34-3.055-2.087-1.29-1.237-1.928-2.614-1.91-4.133.036-2.4 1.746-4.47 5.128-6.178 3.383-1.7 7.46-2.55 12.234-2.55 4.654-.001 8.637.827 11.947 2.48z" fill="#b394b7"/><path d="M31.616 4.705L30.17 5.5v1.87l1.446-.832V4.705m.49-.286v1.855l.15-.082 1.09-.64V3.737l-1.24.682z" fill="#c6c5c5"/><path d="M23.414 24.3c.21.293.443.475.788.59.612.203.875-.762.266-.964-.08-.018-.144-.06-.2-.13-.373-.518-1.24-.02-.864.505h0z" fill="#56ab46"/></svg>