<svg xmlns="http://www.w3.org/2000/svg" viewBox="0 0 45.609 28.833" xmlns:v="https://vecta.io/nano"><path d="M39.035 22.41l-1.268.682c-4.174 2.09-9.11 3.128-14.812 3.1-6.292-.01-11.68-1.3-16.162-3.873-3.9-2.237-6.133-4.874-6.67-7.91a8.46 8.46 0 0 1-.123-1.282v2.537c.036 3.62 2.3 6.715 6.792 9.288 4.483 2.573 9.87 3.864 16.162 3.873 5.7.018 10.638-1.018 14.812-3.1a24.13 24.13 0 0 0 1.268-.682c4.428-2.546 6.62-5.628 6.574-9.247v-2.318a9 9 0 0 1-.095 1.105c-.483 3.01-2.642 5.618-6.48 7.828z" fill="#c85629"/><path d="M38.83 3.887C34.338 1.314 28.946.018 22.654 0c-6.3-.01-10.566 1.578-12.793 4.76C3.34 6.642.055 9.347 0 12.875v.26a8.45 8.45 0 0 0 .123 1.282c.536 3.037 2.76 5.674 6.67 7.91 4.483 2.573 9.87 3.864 16.162 3.873 5.7.018 10.638-1.018 14.812-3.1a24.13 24.13 0 0 0 1.268-.682c3.837-2.2 5.997-4.82 6.48-7.83.055-.364.086-.732.095-1.105v-.314c-.036-3.608-2.295-6.7-6.778-9.273M22.736 1.255c5.7.018 10.602 1.196 14.676 3.532 2.173 1.246 3.773 2.628 4.8 4.146.9 1.32 1.36 2.742 1.378 4.27.036 3.273-1.955 6.07-5.974 8.388-.373.218-.76.423-1.16.614-3.792 1.9-8.274 2.846-13.448 2.837-5.7-.018-10.602-1.196-14.676-3.533S2.2 16.366 2.156 13.093c-.01-.882.2-1.71.627-2.482 1.164-2.09 3.946-3.764 8.347-5.02 2.018-2.92 5.887-4.364 11.606-4.337z" fill="#f26929"/><path d="M37.412 4.787c-4.074-2.337-8.965-3.514-14.676-3.532-5.72-.027-9.588 1.418-11.607 4.337-4.4 1.255-7.183 2.928-8.347 5.02-.427.773-.636 1.6-.627 2.482.046 3.273 2.105 6.078 6.178 8.415s8.965 3.514 14.676 3.533c5.174.01 9.656-.937 13.448-2.837.4-.19.786-.395 1.16-.614 4.02-2.32 6-5.115 5.974-8.388-.018-1.528-.477-2.95-1.378-4.27-1.027-1.518-2.627-2.9-4.8-4.146M22.954 2.755c4.765.054 8.91 1.09 12.44 3.1 3.52 2.018 5.297 4.446 5.333 7.283.036 2.39-1.355 4.592-4.173 6.6l-1.01-.696c-4.8-3.328-9.193-6.747-13.148-10.257-.573-.618-1.218-.99-1.937-1.118-1.39-.164-2.478-.56-3.26-1.187-.236-.173-.44-.373-.614-.6-.527-2.136 1.596-3.18 6.37-3.136M34.138 19.98l1.214.614c-3.937 1.882-8.08 2.814-12.425 2.796-4.946-.01-9.18-1.023-12.698-3.042-3.528-2.02-5.3-4.45-5.346-7.297-.027-2.49 1.67-3.682 5.087-3.573.9.046 1.614.205 2.14.477.673.345 1.073.873 1.2 1.582.236.555.996.982 2.278 1.282 6.42 1.892 12.603 4.28 18.55 7.16z" fill="#f6936f"/><path d="M35.352 20.595l-1.214-.614c-5.947-2.882-12.13-5.27-18.55-7.16-1.282-.3-2.04-.728-2.278-1.282-.127-.71-.527-1.237-1.2-1.582-.527-.273-1.24-.432-2.14-.477-3.42-.11-5.115 1.082-5.087 3.573.036 2.846 1.82 5.278 5.346 7.297 3.52 2.018 7.752 3.032 12.698 3.042 4.346.017 8.488-.915 12.425-2.797m-9.288-.682c.255-.154.51-.218.764-.19.245.027.427.14.546.34.127.21.145.436.055.682a1.27 1.27 0 0 1-.491.627c-.246.155-.49.218-.737.19a.76.76 0 0 1-.587-.355c-.11-.2-.118-.427-.027-.682.082-.245.24-.45.477-.613m-4.242.627c.29-.136.56-.182.805-.136s.4.173.464.382c.1.21.082.436-.055.682s-.346.432-.627.56c-.264.155-.518.21-.764.164s-.414-.173-.505-.382c-.064-.21-.032-.432.095-.668a1.5 1.5 0 0 1 .587-.601m-3.587-.422c.118.2.132.427.04.682a1.19 1.19 0 0 1-.491.614c-.245.173-.49.24-.736.205-.255-.027-.445-.146-.573-.355-.11-.2-.118-.423-.027-.668.082-.255.24-.464.477-.627.255-.155.51-.218.764-.19.245.035.427.15.545.34m-7.815-5.852c-.09.2-.29.39-.6.573-.318.182-.66.305-1.023.368-.355.055-.623.027-.805-.082-.182-.1-.227-.255-.136-.464.1-.21.31-.405.627-.587.31-.182.64-.3.996-.355.364-.045.637-.018.818.082.182.11.223.265.123.465m-.845 4.078c-.21-.09-.305-.236-.286-.436.046-.218.2-.432.464-.64s.564-.355.9-.437c.346-.09.623-.09.832 0 .2.082.277.227.232.437-.027.227-.173.44-.437.64-.264.218-.573.364-.927.436-.32.082-.578.082-.778 0m4.146.382c.046-.21.2-.418.464-.627a2.3 2.3 0 0 1 .9-.436c.346-.09.623-.09.832 0 .2.09.277.24.232.45-.027.218-.173.427-.436.627-.264.21-.573.355-.927.436-.318.082-.577.082-.777 0-.21-.1-.306-.24-.288-.45m21.672-12.86c-3.528-2.02-7.674-3.055-12.44-3.1-4.774-.046-6.897 1-6.37 3.137.173.227.377.427.614.6.782.627 1.868 1.023 3.26 1.187.718.127 1.364.5 1.937 1.118 3.955 3.5 8.338 6.93 13.148 10.257l1.01.696c2.82-2.01 4.2-4.2 4.173-6.6-.036-2.838-1.814-5.266-5.333-7.284M24.987 4.828c.182.11.223.264.123.464-.09.21-.29.405-.6.587a2.92 2.92 0 0 1-1.023.355c-.355.055-.623.027-.805-.082-.182-.1-.227-.255-.136-.464.09-.2.296-.39.614-.573.31-.182.646-.305 1.01-.368.363-.046.636-.02.818.08m4.01.478c.336-.1.618-.118.846-.055.218.073.332.21.34.41.027.218-.068.44-.286.668-.2.227-.464.396-.79.505-.31.118-.577.14-.805.068-.227-.064-.35-.21-.368-.436 0-.2.09-.418.273-.655a2.22 2.22 0 0 1 .79-.504m7.843 4.72c.364.064.582.168.655.314.073.136-.023.282-.286.436-.245.155-.586.268-1.023.34-.427.064-.823.073-1.186.027-.364-.064-.582-.164-.655-.3-.073-.145.023-.296.286-.45.255-.146.59-.255 1.01-.327.436-.064.836-.078 1.2-.04M34.71 12.67c.436-.064.837-.077 1.2-.04.364.064.582.168.655.314.073.127-.023.268-.286.423-.255.164-.595.277-1.023.34s-.823.073-1.187.027c-.364-.055-.582-.15-.655-.286-.082-.136.01-.29.273-.464.246-.137.587-.242 1.023-.314m-.423-4.774c-.136.2-.377.382-.723.546-.355.155-.714.245-1.077.273-.373.027-.637-.014-.79-.123-.164-.118-.173-.277-.027-.477.136-.19.382-.368.736-.532.346-.164.696-.26 1.05-.286.364-.027.627.014.79.123.155.126.17.285.04.476m3.26 6.792c.364.064.582.168.655.314.073.136-.018.277-.273.423-.255.164-.6.277-1.036.34-.427.064-.818.073-1.173.027-.373-.046-.595-.14-.668-.286-.073-.136.018-.286.273-.45.255-.145.596-.255 1.023-.327a4.93 4.93 0 0 1 1.199-.042z" fill="#d75527"/><path d="M14.184 18.1c-.264.21-.418.418-.464.627-.018.21.077.36.286.45.2.082.46.082.777 0 .355-.082.664-.227.927-.436.264-.2.41-.41.436-.627.045-.21-.032-.36-.232-.45-.21-.09-.486-.09-.832 0-.334.08-.634.227-.898.436m-4.896-.19c-.018.2.077.346.286.436.2.082.46.082.777 0 .355-.073.664-.218.927-.436.264-.2.41-.414.437-.64.045-.21-.032-.355-.232-.437-.21-.09-.486-.09-.832 0-.336.082-.636.227-.9.437s-.417.423-.463.64m.532-3.07c.31-.182.51-.373.6-.573.1-.2.06-.355-.123-.464-.182-.1-.455-.127-.818-.082a2.79 2.79 0 0 0-.996.355c-.318.182-.527.377-.627.587-.09.21-.046.364.136.464.182.11.45.136.805.082.364-.064.705-.187 1.023-.37m8.456 5.96c.09-.255.077-.482-.04-.682a.73.73 0 0 0-.546-.341c-.255-.027-.51.036-.764.19-.236.164-.396.373-.477.627-.09.245-.082.468.027.668.127.21.318.327.573.355.245.036.49-.032.736-.205.247-.163.4-.368.492-.613m4.35-.396c-.246-.045-.514 0-.805.136a1.49 1.49 0 0 0-.586.6c-.127.236-.16.46-.095.668.09.21.26.336.505.382s.5-.01.764-.164c.282-.127.49-.314.627-.56s.155-.473.055-.682c-.065-.208-.22-.336-.465-.38m4.2-.682c-.255-.027-.51.036-.764.19-.236.164-.395.368-.477.614-.09.255-.082.482.027.682.136.21.332.327.587.355.245.027.49-.036.737-.19.236-.164.4-.373.49-.627.09-.245.073-.473-.055-.682-.12-.2-.3-.315-.546-.342m11.375-4.72c-.073-.146-.29-.25-.655-.314-.364-.036-.764-.023-1.2.04-.427.073-.768.182-1.023.327-.255.164-.346.314-.273.45.073.146.296.24.668.286.355.045.746.036 1.173-.027.436-.064.782-.177 1.036-.34.256-.145.347-.286.274-.422m-4.637-6.56c.346-.164.586-.345.723-.546.127-.19.114-.35-.04-.477-.164-.11-.427-.15-.79-.123-.355.027-.705.123-1.05.286-.355.164-.6.34-.736.532-.145.2-.136.36.027.477.155.11.418.15.79.123a3.31 3.31 0 0 0 1.077-.272m2.345 4.187c-.364-.036-.764-.023-1.2.04-.436.073-.777.177-1.023.314-.264.173-.355.327-.273.464.073.136.29.232.655.286.364.045.76.036 1.187-.027s.768-.177 1.023-.34c.264-.155.36-.296.286-.423-.073-.146-.29-.25-.655-.314m1.583-2.292c-.073-.146-.29-.25-.655-.314-.364-.036-.764-.023-1.2.04-.418.073-.755.182-1.01.327-.264.155-.36.305-.286.45.073.136.29.236.655.3.364.045.76.036 1.186-.027.436-.073.777-.186 1.023-.34.263-.154.358-.3.286-.436M29.842 5.25c-.227-.064-.51-.046-.846.055-.31.118-.573.286-.79.505-.182.236-.273.455-.273.655.018.227.14.373.368.436.227.073.496.05.805-.068a1.77 1.77 0 0 0 .791-.505c.218-.227.314-.45.286-.668-.008-.2-.122-.337-.34-.4m-4.733.04c.1-.2.06-.355-.123-.464-.182-.1-.455-.127-.818-.082a2.99 2.99 0 0 0-1.009.368c-.318.182-.523.373-.614.573-.09.21-.046.364.136.464.182.11.45.136.805.082a2.9 2.9 0 0 0 1.023-.355c.31-.18.51-.377.6-.586z" fill="#ed9f7c"/></svg>