<svg xmlns="http://www.w3.org/2000/svg" xmlns:xlink="http://www.w3.org/1999/xlink" width="225" height="159" xmlns:v="https://vecta.io/nano"><style><![CDATA[.B{fill:#74b568}.C{fill:#4d7637}.D{fill:#86b65a}.E{fill:#b5da99}]]></style><g fill-rule="nonzero" fill="none"><g transform="matrix(-1 0 0 1 93.60625 57.032609)"><use xlink:href="#B" class="B"/><use xlink:href="#C" class="C"/><use xlink:href="#D" class="D"/><use xlink:href="#E" class="E"/></g><g transform="matrix(-1 0 0 1 146.60625 19.032609)"><use xlink:href="#B" class="B"/><use xlink:href="#C" class="C"/><use xlink:href="#D" class="D"/><use xlink:href="#E" class="E"/></g><g transform="matrix(-1 0 0 1 133.60625 45.032609)"><use xlink:href="#B" class="B"/><use xlink:href="#C" class="C"/><use xlink:href="#D" class="D"/><use xlink:href="#E" class="E"/></g><g transform="matrix(-1 0 0 1 145.60625 72.032609)"><use xlink:href="#B" class="B"/><use xlink:href="#C" class="C"/><use xlink:href="#D" class="D"/><use xlink:href="#E" class="E"/></g><g transform="matrix(-1 0 0 1 166.60625 50.032609)"><use xlink:href="#B" class="B"/><use xlink:href="#C" class="C"/><use xlink:href="#D" class="D"/><use xlink:href="#E" class="E"/></g></g><defs ><path id="B" d="M17.704 11.898h-.01v.57h.01c.036.018.08.027.135.027a.36.36 0 0 0 .116-.036c.018-.023.027-.048.027-.07v-.044l-.01-.49c0 .012-.006.023-.018.036-.036.018-.075.03-.116.036a.31.31 0 0 1-.135-.027z"/><path id="C" d="M19.94 10.324l.01-.382-.027.213c-.125.747-.785 1.3-1.978 1.628.012.006.02.015.027.027v.044l.01.49c1.366-.397 2.02-1.07 1.96-2.02h0zM6.533 11.792c1.927 1.073 4.048 1.717 6.364 1.93 2.273.207 3.873-.21 4.798-1.254v-.57c-.925 1.043-2.524 1.462-4.798 1.254-2.315-.213-4.436-.857-6.364-1.93s-3.41-2.268-4.45-3.584C1.1 6.393.473 4.25.205 1.207L.15.62v1.415c.286 2.847.93 4.904 1.933 6.173 1.04 1.315 2.52 2.5 4.45 3.584z"/><path id="D" d="M7.938 3.653c-.012-.018-.015-.033-.01-.044.006-.018.024-.03.054-.036.012-.006.03-.003.054.01.024.006.048.015.072.027.812.9.448 1.7-1.092 2.4a52.95 52.95 0 0 0 4.86 2.891c.65-.522.916-1.36.797-2.517 0-.018.01-.033.027-.044.018-.006.04-.006.062 0 .024-.006.045-.003.063.01.018.006.03.02.036.044.12 1.186-.164 2.048-.85 2.588l3.84 1.877c.895-.64 1.127-1.74.698-3.3-.012-.018-.01-.03.01-.036.018-.012.045-.018.08-.018.018-.006.036-.003.054.01s.03.023.035.036c.448 1.595.206 2.72-.725 3.37l1.89.827c.024.012.042.023.054.036 1.194-.338 1.853-.88 1.978-1.628l.027-.213c-.006-.012-.006-.023 0-.036V9.87c-.006-.207-.045-.43-.116-.667-.406-1.304-1.575-2.5-3.508-3.584-1.933-1.09-4.174-1.942-6.722-2.553L.152.62l.054.587c.268 3.042.895 5.186 1.88 6.43 1.038 1.316 2.52 2.512 4.45 3.584s4.048 1.717 6.364 1.93c2.273.207 3.873-.21 4.798-1.254l-1.924-.827c-1.21.676-3.616.685-7.214.027-.03-.006-.048-.015-.054-.027-.012-.012-.018-.027-.018-.044 0-.012.015-.02.045-.027.012-.006.033-.006.063 0 3.497.635 5.84.635 7.026 0l-3.83-1.877c-.913.533-2.75.605-5.514.213-.03-.006-.05-.018-.062-.036-.012-.006-.018-.018-.018-.036 0-.012.01-.02.027-.027.024-.012.05-.015.08-.01 2.68.39 4.46.335 5.344-.17L8.334 7.157c-.877.63-2.483.644-4.816.044-.024-.006-.042-.015-.054-.027-.012-.018-.012-.03 0-.035 0-.018.015-.027.045-.027.024-.012.048-.015.072-.01 2.238.575 3.777.563 4.62-.035L6.678 6.1 4.924 4.836c-.937.314-1.918.2-2.945-.347-.018-.012-.027-.023-.027-.036-.006-.018 0-.033.018-.044.018-.006.042-.006.072 0 .024 0 .045.006.063.018.943.504 1.84.614 2.694.33l-2.184-1.77c-.042-.018-.054-.044-.035-.08.012-.023.04-.042.08-.053.036-.018.08-.02.135-.01.048.006.087.02.116.044 1.217 1.05 2.545 2.06 3.983 3.033 1.46-.676 1.81-1.432 1.045-2.268z"/><path id="E" d="M7.93 3.608c-.006.012-.003.027.01.044.764.836.415 1.592-1.047 2.268C5.453 4.95 4.125 3.937 2.91 2.888c-.03-.023-.07-.038-.116-.044-.054-.012-.098-.01-.135.01-.042.012-.07.03-.08.053-.018.036-.006.062.035.08l2.184 1.77c-.853.284-1.752.175-2.694-.33-.018-.012-.04-.018-.063-.018-.03-.006-.054-.006-.072 0-.018.012-.024.027-.018.044 0 .012.01.023.027.036 1.026.546 2.008.66 2.945.347L6.676 6.09l1.522.978c-.84.6-2.38.61-4.62.035-.024-.006-.048-.003-.072.01-.03 0-.045.01-.045.027-.012.006-.012.018 0 .035.012.012.03.02.054.027 2.333.6 3.938.584 4.816-.044l3.312 1.904c-.883.504-2.664.56-5.344.17a.12.12 0 0 0-.081.009c-.018.006-.027.015-.027.027 0 .018.006.03.018.036.012.018.033.03.062.036 2.763.39 4.6.32 5.514-.213l3.83 1.877c-1.187.635-3.53.635-7.026 0-.03-.006-.05-.006-.063 0-.03.006-.045.015-.045.027 0 .018.006.033.018.044.006.012.024.02.054.027 3.598.658 6.003.65 7.214-.027l1.906.827h.027c.036.018.08.027.135.027a.36.36 0 0 0 .116-.036c.012-.012.018-.023.018-.036V11.8c-.006-.012-.015-.02-.027-.027-.012-.012-.03-.023-.054-.036L16 10.92c.93-.652 1.173-1.776.725-3.37-.006-.012-.018-.023-.035-.036s-.036-.015-.054-.01c-.035 0-.062.006-.08.018-.018.006-.02.018-.01.036.43 1.56.197 2.66-.698 3.3L12.01 8.98c.686-.54.97-1.403.85-2.588-.006-.023-.018-.038-.036-.044-.018-.012-.04-.015-.063-.01-.024-.006-.045-.006-.062 0-.018.012-.027.027-.027.044.12 1.156-.146 1.996-.797 2.517-1.742-.92-3.363-1.883-4.86-2.89 1.54-.712 1.904-1.512 1.092-2.4-.024-.012-.048-.02-.072-.027-.024-.012-.042-.015-.054-.01-.028.006-.046.018-.052.036z"/></defs></svg>