<svg xmlns="http://www.w3.org/2000/svg" xmlns:xlink="http://www.w3.org/1999/xlink" width="225" height="159" xmlns:v="https://vecta.io/nano"><style><![CDATA[.B{fill:#e9e9e9}.C{fill:#fff}]]></style><g fill-rule="nonzero"><path d="M105.607 39.794v-1.597a2.7 2.7 0 0 1-.213.745c-.287.62-.83 1.168-1.63 1.642-1.384.82-2.747.848-4.088.085-1.237-.707-2.852-1.21-4.843-1.507l.25.028c-.21-.052-.36-.074-.447-.068l-.6-.08c-1.707-.39-2.818-1.003-3.332-1.834-.128-.21-.215-.434-.26-.672a2.62 2.62 0 0 1-.053-.457l.005 2.207c-.004.056-.004.115 0 .175a2.49 2.49 0 0 0 .048.423c.227 1.17 1.45 1.913 3.673 2.23l.155.006c2.264.504 4.066 1.136 5.408 1.896s2.704.736 4.088-.085c1.285-.76 1.906-1.716 1.863-2.867l-.022-.27zM93.334 37.26a.34.34 0 0 1-.021-.017c-.2-.035-.194-.03.02.017h0zm-1.575-.943l.48.536c.178.112.52.23 1.027.355-1.706-1.274-1.438-2.415.804-3.426-2.048.692-2.818 1.537-2.3 2.534z" class="B"/><use xlink:href="#B" class="C"/><path d="M77.607 58.794v-1.597a2.7 2.7 0 0 1-.213.745c-.287.62-.83 1.168-1.63 1.642-1.384.82-2.747.848-4.088.085-1.237-.707-2.852-1.21-4.843-1.507l.25.028c-.21-.052-.36-.074-.447-.068l-.6-.08c-1.707-.39-2.818-1.003-3.332-1.834-.128-.21-.215-.434-.26-.672a2.62 2.62 0 0 1-.053-.457l.005 2.207c-.004.056-.004.115 0 .175a2.49 2.49 0 0 0 .048.423c.227 1.17 1.45 1.913 3.673 2.23l.155.006c2.264.504 4.066 1.136 5.408 1.896s2.704.736 4.088-.085c1.285-.76 1.906-1.716 1.863-2.867l-.022-.27zM65.334 56.26a.34.34 0 0 1-.021-.017c-.2-.035-.194-.03.02.017h0zm-1.575-.943l.48.536c.178.112.52.23 1.027.355-1.706-1.274-1.438-2.415.804-3.426-2.048.692-2.818 1.537-2.3 2.534z" class="B"/><use xlink:href="#C" class="C"/><use xlink:href="#D" class="B"/><use xlink:href="#B" x="11" y="33" class="C"/><use xlink:href="#D" x="12" y="-6" class="B"/><use xlink:href="#C" x="51" y="8" class="C"/><use xlink:href="#D" x="47" y="-9" class="B"/><use xlink:href="#C" x="86" y="5" class="C"/><use xlink:href="#D" x="38" y="-26" class="B"/><use xlink:href="#C" x="77" y="-12" class="C"/><use xlink:href="#D" x="66" y="-20" class="B"/><use xlink:href="#C" x="105" y="-6" class="C"/><use xlink:href="#D" x="16" y="-33" class="B"/><use xlink:href="#C" x="55" y="-19" class="C"/><use xlink:href="#D" x="43" y="-38" class="B"/><use xlink:href="#C" x="82" y="-24" class="C"/><path d="M89.607 75.794v-1.597a2.7 2.7 0 0 1-.213.745c-.287.62-.83 1.168-1.63 1.642-1.384.82-2.747.848-4.088.085-1.237-.707-2.852-1.21-4.843-1.507l.25.028c-.21-.052-.36-.074-.447-.068l-.6-.08c-1.707-.39-2.818-1.003-3.332-1.834-.128-.21-.215-.434-.26-.672a2.62 2.62 0 0 1-.053-.457l.005 2.207c-.004.056-.004.115 0 .175a2.49 2.49 0 0 0 .048.423c.227 1.17 1.45 1.913 3.673 2.23l.155.006c2.264.504 4.066 1.136 5.408 1.896s2.704.736 4.088-.085c1.285-.76 1.906-1.716 1.863-2.867l-.022-.27zM77.334 73.26a.34.34 0 0 1-.021-.017c-.2-.035-.194-.03.02.017h0zm-1.575-.943l.48.536c.178.112.52.23 1.027.355-1.706-1.274-1.438-2.415.804-3.426-2.048.692-2.818 1.537-2.3 2.534z" class="B"/><use xlink:href="#C" x="12" y="17" class="C"/><use xlink:href="#D" x="12" y="17" class="B"/><use xlink:href="#C" x="51" y="31" class="C"/></g><defs ><path id="B" d="M105.63 37.988c.007-.177 0-.358-.02-.542-.15-1.275-1.024-2.402-2.624-3.38s-3.46-1.522-5.578-1.63c-2.11-.113-3.86.24-5.243 1.06-1.192.707-1.783 1.558-1.772 2.55v.034c.004.147.02.3.053.457.046.237.133.46.26.672.514.83 1.625 1.443 3.332 1.834l.6.08c.087-.007.236.016.447.068l-.25-.028c1.992.298 3.606.8 4.843 1.507 1.34.764 2.704.736 4.088-.085.798-.474 1.34-1.022 1.63-1.642a2.7 2.7 0 0 0 .213-.745c.01-.068.018-.138.02-.21h0zm-13.392-1.134l-.48-.536c-.507-.997.263-1.842 2.3-2.534-2.242 1-2.5 2.152-.804 3.426-.506-.125-.848-.244-1.027-.355h0zm1.075.39c.007.006.014.012.02.017-.215-.046-.222-.052-.02-.017z"/><path id="C" d="M77.63 56.988a3.48 3.48 0 0 0-.021-.542c-.15-1.275-1.024-2.402-2.624-3.38s-3.46-1.522-5.578-1.63c-2.11-.113-3.86.24-5.243 1.06-1.192.707-1.783 1.558-1.772 2.55v.034c.004.147.02.3.053.457.046.237.133.46.26.672.514.83 1.625 1.443 3.332 1.834l.6.08c.087-.007.236.016.447.068l-.25-.028c1.992.298 3.606.8 4.843 1.507 1.34.764 2.704.736 4.088-.085.798-.474 1.34-1.022 1.63-1.642a2.7 2.7 0 0 0 .213-.745c.01-.068.018-.138.02-.21h0zm-13.392-1.134l-.48-.536c-.507-.997.263-1.842 2.3-2.534-2.242 1-2.5 2.152-.804 3.426-.506-.125-.848-.244-1.027-.355h0zm1.075.39c.007.006.014.012.02.017-.215-.046-.222-.052-.02-.017z"/><path id="D" d="M116.607 72.794v-1.597a2.7 2.7 0 0 1-.213.745c-.287.62-.83 1.168-1.63 1.642-1.384.82-2.747.848-4.088.085-1.237-.707-2.852-1.21-4.843-1.507l.25.028c-.21-.052-.36-.074-.447-.068l-.6-.08c-1.707-.39-2.818-1.003-3.332-1.834-.128-.21-.215-.434-.26-.672a2.62 2.62 0 0 1-.053-.457l.005 2.207c-.004.056-.004.115 0 .175a2.49 2.49 0 0 0 .048.423c.227 1.17 1.45 1.913 3.673 2.23l.155.006c2.264.504 4.066 1.136 5.408 1.896s2.704.736 4.088-.085c1.285-.76 1.906-1.716 1.863-2.867l-.022-.27zm-12.274-2.534a.34.34 0 0 1-.021-.017c-.2-.035-.194-.03.02.017h0zm-1.575-.943l.48.536c.178.112.52.23 1.027.355-1.706-1.274-1.438-2.415.804-3.426-2.048.692-2.818 1.537-2.3 2.534z"/></defs></svg>