<svg xmlns="http://www.w3.org/2000/svg" width="225" height="159" xmlns:v="https://vecta.io/nano"><style><![CDATA[.B{fill:#3e4055}.C{fill:#66687d}.D{fill:#c5ca8a}.E{fill:#9ba166}]]></style><g fill-rule="nonzero"><path d="M99.96 88.046c.088-.19.14-.385.154-.583l.01-.236c-.013-.79-.515-1.466-1.504-2.026-1.003-.573-2.22-.86-3.652-.86s-2.656.3-3.672.87c-1.023.58-1.537 1.275-1.544 2.087v.082c.007.245.062.48.164.706.218.49.66.924 1.33 1.3 1 .58 2.23.866 3.662.86 1.432 0 2.66-.29 3.683-.87.688-.394 1.144-.838 1.37-1.33h0zm-2.906-1.964a.39.39 0 0 0 .092.051c.518.32.774.706.767 1.156 0 .205-.058.402-.174.593l-.102.133c-.15.178-.35.338-.604.48-.587.327-1.292.49-2.117.49-.818 0-1.517-.164-2.097-.49-.24-.143-.43-.3-.573-.44a.89.89 0 0 1-.102-.143c-.137-.19-.205-.395-.205-.614.013-.443.287-.825.818-1.146a.54.54 0 0 0 .082-.051c.593-.334 1.296-.5 2.107-.5.825-.006 1.527.154 2.107.48z" class="D"/><path d="M97.146 86.134a.42.42 0 0 1-.092-.051c-.58-.327-1.282-.487-2.108-.48-.81 0-1.514.167-2.108.5a.54.54 0 0 1-.082.051c-.532.32-.805.703-.818 1.146 0 .218.068.423.205.614a.94.94 0 0 0 .102.143 1.88 1.88 0 0 1 .511-.419.54.54 0 0 1 .082-.051c.593-.34 1.296-.512 2.108-.512.825-.007 1.528.157 2.108.49l.092.05a2.28 2.28 0 0 1 .491.399l.102-.133c.116-.19.174-.39.174-.593.007-.45-.25-.836-.767-1.157h0zm2.966 1.33c-.013.198-.064.392-.154.583-.225.49-.682.935-1.37 1.33-1.023.58-2.25.87-3.683.87-1.432.007-2.653-.28-3.662-.86-.668-.375-1.112-.808-1.33-1.3-.102-.225-.157-.46-.163-.706v1.453c-.007.825.49 1.52 1.493 2.087 1.01.573 2.23.856 3.662.85 1.432 0 2.66-.3 3.683-.87.982-.56 1.493-1.228 1.535-2.005l-.01-1.432z" class="E"/><path d="M100.736 82.328c1 .573 2.23.856 3.662.85 1.432 0 2.66-.29 3.683-.87.982-.56 1.493-1.228 1.534-2.005l-.01-1.432c-.014.198-.064.392-.154.583-.225.49-.682.934-1.37 1.33-1.023.58-2.25.87-3.683.87-1.432.007-2.653-.28-3.662-.86-.668-.375-1.11-.808-1.33-1.3-.102-.225-.157-.46-.163-.706v1.453c-.006.825.492 1.52 1.494 2.087h0zm5.903-4.787a.42.42 0 0 1-.092-.051c-.58-.327-1.282-.487-2.108-.48-.812 0-1.514.167-2.108.5a.54.54 0 0 1-.082.051c-.532.32-.805.702-.818 1.146 0 .218.068.423.205.614a.94.94 0 0 0 .102.143c.13-.157.3-.297.51-.42a.54.54 0 0 1 .082-.051c.593-.34 1.296-.51 2.108-.51.825-.007 1.528.157 2.108.49l.092.05a2.28 2.28 0 0 1 .491.399l.102-.133c.115-.19.174-.388.174-.593.007-.45-.25-.836-.767-1.156z" class="B"/><path d="M104.46 75.75c-1.432 0-2.657.3-3.672.87-1.023.58-1.537 1.275-1.545 2.087v.082c.007.245.06.48.163.706.218.49.66.924 1.33 1.3 1 .58 2.23.866 3.662.86 1.432 0 2.66-.29 3.683-.87.69-.395 1.146-.838 1.37-1.33.09-.19.14-.385.154-.583l.01-.235c-.014-.79-.515-1.466-1.504-2.026-1.003-.572-2.22-.86-3.652-.86h0zm2.087 1.74a.39.39 0 0 0 .092.051c.518.32.774.706.767 1.156 0 .205-.058.402-.174.593l-.102.133c-.15.177-.35.338-.604.48-.587.328-1.292.49-2.117.49-.818 0-1.517-.163-2.097-.49-.24-.143-.43-.3-.573-.44a.89.89 0 0 1-.102-.143c-.136-.19-.205-.395-.205-.614.014-.443.287-.825.818-1.146a.54.54 0 0 0 .082-.051c.593-.334 1.296-.5 2.108-.5.825-.008 1.528.153 2.107.48z" class="C"/><path d="M113.8 91.227c.982-.56 1.493-1.228 1.535-2.005l-.01-1.432c-.013.198-.064.392-.154.583-.225.49-.682.934-1.37 1.33-1.023.58-2.25.87-3.683.87-1.432.007-2.653-.28-3.662-.86-.668-.375-1.11-.808-1.33-1.3-.102-.225-.157-.46-.163-.706v1.453c-.007.825.49 1.52 1.493 2.087 1 .573 2.23.856 3.662.85 1.433 0 2.66-.3 3.683-.87h0zm-1.442-4.767c-.035-.013-.065-.03-.092-.05-.58-.327-1.282-.487-2.108-.48-.81 0-1.514.167-2.108.5a.54.54 0 0 1-.082.051c-.532.32-.805.702-.818 1.146 0 .218.068.423.205.614a.94.94 0 0 0 .102.143c.13-.157.3-.297.51-.42a.54.54 0 0 1 .082-.051c.593-.34 1.296-.512 2.108-.512.825-.007 1.528.157 2.108.49l.092.05a2.28 2.28 0 0 1 .491.399l.102-.133c.116-.19.174-.39.174-.593.007-.45-.25-.836-.767-1.157z" class="B"/><path d="M115.344 87.555c-.014-.79-.515-1.466-1.504-2.025-1.003-.573-2.22-.86-3.652-.86s-2.656.3-3.672.87c-1.023.58-1.538 1.275-1.544 2.087v.082c.007.245.062.48.163.706.218.49.662.924 1.33 1.3 1 .58 2.23.866 3.662.86 1.433 0 2.66-.3 3.683-.87.688-.395 1.145-.838 1.37-1.33.088-.19.14-.386.154-.583l.01-.236zm-3.07-1.145a.39.39 0 0 0 .092.051c.518.32.774.706.767 1.156 0 .205-.058.402-.174.593l-.102.133c-.15.177-.35.338-.604.48-.587.327-1.292.49-2.117.49-.818 0-1.517-.163-2.097-.49-.24-.143-.43-.29-.573-.44a.89.89 0 0 1-.102-.143c-.137-.19-.205-.395-.205-.614.013-.443.287-.825.818-1.146a.54.54 0 0 0 .082-.051c.593-.334 1.296-.5 2.108-.5.825-.007 1.527.153 2.107.48z" class="C"/><path d="M152.96 36.046c.09-.19.14-.386.154-.583l.01-.236c-.014-.79-.515-1.466-1.504-2.026-1.003-.573-2.22-.86-3.652-.86s-2.656.3-3.672.87c-1.023.58-1.537 1.275-1.544 2.086v.082c.007.245.06.48.163.706.218.49.662.924 1.33 1.3 1 .58 2.23.866 3.662.86 1.432 0 2.66-.3 3.682-.87.688-.395 1.145-.838 1.37-1.33h0zm-2.906-1.964a.39.39 0 0 0 .092.051c.518.32.774.706.767 1.156 0 .205-.058.402-.174.593l-.102.133c-.15.178-.35.337-.604.48-.587.327-1.292.49-2.117.49-.818 0-1.517-.163-2.097-.49-.238-.143-.43-.3-.573-.44a.89.89 0 0 1-.102-.143c-.137-.19-.205-.395-.205-.614.014-.443.287-.825.818-1.146a.54.54 0 0 0 .082-.051c.593-.334 1.296-.5 2.108-.5.825-.006 1.527.154 2.107.48z" class="D"/><path d="M150.146 34.134a.42.42 0 0 1-.092-.051c-.58-.327-1.282-.487-2.107-.48-.81 0-1.514.167-2.107.5a.54.54 0 0 1-.082.051c-.532.32-.805.703-.818 1.146 0 .218.068.423.205.613a.94.94 0 0 0 .102.143 1.88 1.88 0 0 1 .512-.419.54.54 0 0 1 .082-.051c.593-.34 1.296-.51 2.107-.51.825-.007 1.528.157 2.107.49l.092.05a2.28 2.28 0 0 1 .491.399l.102-.133c.116-.19.174-.39.174-.593.007-.45-.25-.836-.767-1.157h0zm2.966 1.33c-.013.198-.064.392-.154.583-.225.49-.682.934-1.37 1.33-1.023.58-2.25.87-3.683.87-1.432.007-2.653-.28-3.662-.86-.668-.375-1.112-.808-1.33-1.3-.102-.225-.157-.46-.163-.706v1.453c-.007.825.49 1.52 1.493 2.087 1 .573 2.23.856 3.662.85 1.432 0 2.66-.3 3.683-.87.982-.56 1.493-1.228 1.534-2.005l-.01-1.432z" class="E"/><path d="M153.737 30.328c1 .573 2.23.856 3.662.85 1.432 0 2.66-.3 3.683-.87.982-.56 1.493-1.228 1.535-2.005l-.01-1.432c-.013.198-.065.392-.154.583-.225.49-.682.934-1.37 1.33-1.023.58-2.25.87-3.682.87-1.432.007-2.653-.28-3.662-.86-.668-.375-1.112-.808-1.33-1.3-.102-.225-.157-.46-.163-.706v1.453c-.006.825.492 1.52 1.494 2.087h0zm5.903-4.787a.42.42 0 0 1-.092-.051c-.58-.327-1.282-.488-2.107-.48-.81 0-1.514.167-2.108.5a.54.54 0 0 1-.082.051c-.532.32-.805.702-.818 1.146 0 .218.068.423.205.613a.94.94 0 0 0 .102.143c.13-.157.3-.297.51-.42a.54.54 0 0 1 .082-.051c.593-.34 1.296-.512 2.108-.512.825-.007 1.528.157 2.107.49l.092.05a2.28 2.28 0 0 1 .491.399l.102-.133c.115-.19.174-.39.174-.593.007-.45-.25-.836-.767-1.157z" class="B"/><path d="M157.46 23.75c-1.432 0-2.656.3-3.672.87-1.023.58-1.537 1.275-1.545 2.087v.082c.007.245.06.48.163.706.218.49.66.924 1.33 1.3 1 .58 2.23.866 3.662.86 1.432 0 2.66-.3 3.683-.87.69-.395 1.146-.84 1.37-1.33.088-.19.14-.386.154-.583l.01-.236c-.013-.79-.515-1.466-1.504-2.026-1.003-.572-2.22-.86-3.653-.86h0zm2.087 1.74a.39.39 0 0 0 .092.051c.518.32.774.706.767 1.156 0 .205-.058.402-.174.593l-.102.133c-.15.177-.35.337-.604.48-.587.328-1.292.49-2.117.49-.818 0-1.517-.163-2.097-.49-.238-.143-.43-.3-.573-.44a.89.89 0 0 1-.102-.143c-.137-.19-.205-.395-.205-.613.013-.443.287-.825.818-1.146a.54.54 0 0 0 .082-.051c.593-.334 1.296-.5 2.107-.5.825-.008 1.528.153 2.107.48z" class="C"/><path d="M166.8 39.228c.982-.56 1.493-1.228 1.534-2.005l-.01-1.432c-.014.198-.065.392-.154.583-.225.49-.682.934-1.37 1.33-1.023.58-2.25.87-3.683.87-1.432.007-2.653-.28-3.662-.86-.668-.375-1.112-.808-1.33-1.3-.102-.225-.157-.46-.163-.706v1.453c-.007.825.49 1.52 1.493 2.086 1 .573 2.23.856 3.662.85 1.433 0 2.66-.3 3.683-.87h0zm-1.442-4.767c-.035-.013-.065-.03-.092-.05-.58-.327-1.282-.488-2.107-.48-.812 0-1.514.167-2.108.5a.54.54 0 0 1-.082.051c-.532.32-.805.702-.818 1.146 0 .218.068.423.205.614a.94.94 0 0 0 .102.143c.13-.157.3-.297.51-.42a.54.54 0 0 1 .082-.051c.593-.34 1.296-.51 2.108-.51.825-.007 1.528.157 2.107.49l.092.05a2.28 2.28 0 0 1 .491.399l.102-.133c.116-.19.174-.39.174-.593.007-.45-.25-.836-.767-1.157z" class="B"/><path d="M168.344 35.555c-.013-.79-.515-1.466-1.504-2.025-1.003-.573-2.22-.86-3.652-.86s-2.656.29-3.672.87c-1.023.58-1.537 1.275-1.544 2.087v.082c.007.245.06.48.163.706.218.49.662.924 1.33 1.3 1 .58 2.23.866 3.662.86 1.433 0 2.66-.3 3.683-.87.69-.395 1.145-.84 1.37-1.33.09-.19.14-.386.154-.583l.01-.236zm-3.07-1.145a.39.39 0 0 0 .092.051c.518.32.774.706.767 1.156 0 .205-.058.402-.174.593l-.102.133c-.15.177-.35.337-.604.48-.587.327-1.292.49-2.117.49-.818 0-1.517-.163-2.097-.49-.24-.143-.43-.3-.573-.44a.89.89 0 0 1-.102-.143c-.136-.19-.205-.395-.205-.614.013-.443.286-.825.818-1.146a.54.54 0 0 0 .082-.051c.593-.334 1.296-.5 2.107-.5.825-.007 1.527.153 2.107.48z" class="C"/><path d="M179.96 66.046c.09-.19.14-.385.154-.583l.01-.236c-.014-.79-.515-1.466-1.504-2.026-1.003-.573-2.22-.86-3.652-.86s-2.656.3-3.672.87c-1.023.58-1.537 1.275-1.544 2.086v.082c.007.245.06.48.163.706.218.49.662.924 1.33 1.3 1 .58 2.23.866 3.662.86 1.432 0 2.66-.29 3.682-.87.688-.394 1.145-.838 1.37-1.33h0zm-2.906-1.964a.39.39 0 0 0 .092.051c.518.32.774.706.767 1.156 0 .205-.058.402-.174.593l-.102.133c-.15.178-.35.338-.604.48-.587.327-1.292.49-2.117.49-.818 0-1.517-.164-2.097-.49-.238-.143-.43-.3-.573-.44a.89.89 0 0 1-.102-.143c-.137-.19-.205-.395-.205-.614.014-.443.287-.825.818-1.146a.54.54 0 0 0 .082-.051c.593-.334 1.296-.5 2.108-.5.825-.006 1.527.154 2.107.48z" class="D"/><path d="M177.146 64.134a.42.42 0 0 1-.092-.051c-.58-.327-1.282-.487-2.107-.48-.81 0-1.514.167-2.107.5a.54.54 0 0 1-.082.051c-.532.32-.805.703-.818 1.146 0 .218.068.423.205.614a.94.94 0 0 0 .102.143 1.88 1.88 0 0 1 .512-.419.54.54 0 0 1 .082-.051c.593-.34 1.296-.512 2.107-.512.825-.007 1.528.157 2.107.49l.092.05a2.28 2.28 0 0 1 .491.399l.102-.133c.116-.19.174-.39.174-.593.007-.45-.25-.836-.767-1.157h0zm2.966 1.33c-.013.198-.064.392-.154.583-.225.49-.682.935-1.37 1.33-1.023.58-2.25.87-3.683.87-1.432.007-2.653-.28-3.662-.86-.668-.375-1.112-.808-1.33-1.3-.102-.225-.157-.46-.163-.706v1.453c-.007.825.49 1.52 1.493 2.087 1 .573 2.23.856 3.662.85 1.432 0 2.66-.3 3.683-.87.982-.56 1.493-1.228 1.534-2.005l-.01-1.432z" class="E"/><path d="M180.737 60.328c1 .573 2.23.856 3.662.85 1.432 0 2.66-.29 3.683-.87.982-.56 1.493-1.228 1.535-2.005l-.01-1.432c-.013.198-.065.392-.154.583-.225.49-.682.934-1.37 1.33-1.023.58-2.25.87-3.682.87-1.432.007-2.653-.28-3.662-.86-.668-.375-1.112-.808-1.33-1.3-.102-.225-.157-.46-.163-.706v1.453c-.006.825.492 1.52 1.494 2.087h0zm5.903-4.787a.42.42 0 0 1-.092-.051c-.58-.327-1.282-.488-2.107-.48-.81 0-1.514.167-2.108.5a.54.54 0 0 1-.082.051c-.532.32-.805.702-.818 1.146 0 .218.068.423.205.614a.94.94 0 0 0 .102.143c.13-.157.3-.297.51-.42a.54.54 0 0 1 .082-.051c.593-.34 1.296-.51 2.108-.51.825-.007 1.528.157 2.107.49l.092.05a2.28 2.28 0 0 1 .491.399l.102-.133c.115-.19.174-.39.174-.593.007-.45-.25-.836-.767-1.156z" class="B"/><path d="M184.46 53.75c-1.432 0-2.656.29-3.672.87-1.023.58-1.537 1.275-1.545 2.087v.082c.007.245.06.48.163.706.218.49.66.924 1.33 1.3 1 .58 2.23.866 3.662.86 1.432 0 2.66-.3 3.683-.87.69-.395 1.146-.84 1.37-1.33.088-.19.14-.386.154-.583l.01-.236c-.013-.79-.515-1.466-1.504-2.026-1.003-.572-2.22-.86-3.653-.86h0zm2.087 1.74a.39.39 0 0 0 .092.051c.518.32.774.706.767 1.156 0 .205-.058.402-.174.593l-.102.133c-.15.177-.35.337-.604.48-.587.328-1.292.49-2.117.49-.818 0-1.517-.163-2.097-.49-.238-.143-.43-.3-.573-.44a.89.89 0 0 1-.102-.143c-.137-.19-.205-.395-.205-.614.013-.443.287-.825.818-1.146a.54.54 0 0 0 .082-.051c.593-.334 1.296-.5 2.107-.5.825-.008 1.528.153 2.107.48z" class="C"/><path d="M193.8 69.227c.982-.56 1.493-1.228 1.534-2.005l-.01-1.432c-.014.198-.065.392-.154.583-.225.49-.682.934-1.37 1.33-1.023.58-2.25.87-3.683.87-1.432.007-2.653-.28-3.662-.86-.668-.375-1.112-.808-1.33-1.3-.102-.225-.157-.46-.163-.706v1.453c-.007.825.49 1.52 1.493 2.087 1 .573 2.23.856 3.662.85 1.433 0 2.66-.3 3.683-.87h0zm-1.442-4.767c-.035-.013-.065-.03-.092-.05-.58-.327-1.282-.487-2.107-.48-.812 0-1.514.167-2.108.5a.54.54 0 0 1-.082.051c-.532.32-.805.702-.818 1.146 0 .218.068.423.205.614a.94.94 0 0 0 .102.143c.13-.157.3-.297.51-.42a.54.54 0 0 1 .082-.051c.593-.34 1.296-.512 2.108-.512.825-.007 1.528.157 2.107.49l.092.05a2.28 2.28 0 0 1 .491.399l.102-.133c.116-.19.174-.39.174-.593.007-.45-.25-.836-.767-1.157z" class="B"/><path d="M195.344 65.555c-.013-.79-.515-1.466-1.504-2.025-1.003-.573-2.22-.86-3.652-.86s-2.656.29-3.672.87c-1.023.58-1.537 1.275-1.544 2.087v.082c.007.245.06.48.163.706.218.49.662.924 1.33 1.3 1 .58 2.23.866 3.662.86 1.433 0 2.66-.3 3.683-.87.69-.395 1.145-.838 1.37-1.33.09-.19.14-.386.154-.583l.01-.236zm-3.07-1.145a.39.39 0 0 0 .092.051c.518.32.774.706.767 1.156 0 .205-.058.402-.174.593l-.102.133c-.15.177-.35.338-.604.48-.587.327-1.292.49-2.117.49-.818 0-1.517-.163-2.097-.49-.24-.143-.43-.29-.573-.44a.89.89 0 0 1-.102-.143c-.136-.19-.205-.395-.205-.614.013-.443.286-.825.818-1.146a.54.54 0 0 0 .082-.051c.593-.334 1.296-.5 2.107-.5.825-.007 1.527.153 2.107.48z" class="C"/><path d="M91.96 62.046c.088-.19.14-.386.154-.583l.01-.236c-.013-.79-.515-1.466-1.504-2.026-1.003-.573-2.22-.86-3.652-.86s-2.656.3-3.672.87c-1.023.58-1.537 1.275-1.544 2.086v.082c.007.245.062.48.164.706.218.49.66.924 1.33 1.3 1 .58 2.23.866 3.662.86 1.432 0 2.66-.29 3.683-.87.688-.395 1.144-.838 1.37-1.33h0zm-2.906-1.964a.39.39 0 0 0 .092.051c.518.32.774.706.767 1.156 0 .205-.058.402-.174.593l-.102.133c-.15.178-.35.337-.604.48-.587.327-1.292.49-2.117.49-.818 0-1.517-.163-2.097-.49-.24-.143-.43-.3-.573-.44a.89.89 0 0 1-.102-.143c-.137-.19-.205-.395-.205-.614.013-.443.287-.825.818-1.146a.54.54 0 0 0 .082-.051c.593-.334 1.296-.5 2.107-.5.825-.006 1.527.154 2.107.48z" class="D"/><path d="M89.146 60.134a.42.42 0 0 1-.092-.051c-.58-.327-1.282-.487-2.108-.48-.81 0-1.514.167-2.108.5a.54.54 0 0 1-.082.051c-.532.32-.805.703-.818 1.146 0 .218.068.423.205.613a.94.94 0 0 0 .102.143 1.88 1.88 0 0 1 .511-.419.54.54 0 0 1 .082-.051c.593-.34 1.296-.51 2.108-.51.825-.007 1.528.157 2.108.49l.092.05a2.28 2.28 0 0 1 .491.399l.102-.133c.116-.19.174-.39.174-.593.007-.45-.25-.836-.767-1.157h0zm2.966 1.33c-.013.198-.064.392-.154.583-.225.49-.682.934-1.37 1.33-1.023.58-2.25.87-3.683.87-1.432.007-2.653-.28-3.662-.86-.668-.375-1.112-.808-1.33-1.3-.102-.225-.157-.46-.163-.706v1.453c-.007.825.49 1.52 1.493 2.087 1.01.573 2.23.856 3.662.85 1.432 0 2.66-.3 3.683-.87.982-.56 1.493-1.228 1.535-2.005l-.01-1.432z" class="E"/><path d="M92.736 56.328c1 .573 2.23.856 3.662.85 1.432 0 2.66-.29 3.683-.87.982-.56 1.493-1.228 1.534-2.005l-.01-1.432c-.014.198-.064.392-.154.583-.225.49-.682.934-1.37 1.33-1.023.58-2.25.87-3.683.87-1.432.007-2.653-.28-3.662-.86-.668-.375-1.11-.808-1.33-1.3-.102-.225-.157-.46-.163-.706v1.453c-.006.825.492 1.52 1.494 2.087h0zm5.903-4.787a.42.42 0 0 1-.092-.051c-.58-.327-1.282-.488-2.108-.48-.812 0-1.514.167-2.108.5a.54.54 0 0 1-.082.051c-.532.32-.805.702-.818 1.146 0 .218.068.423.205.614a.94.94 0 0 0 .102.143c.13-.157.3-.297.51-.42a.54.54 0 0 1 .082-.051c.593-.34 1.296-.51 2.108-.51.825-.007 1.528.157 2.108.49l.092.05a2.28 2.28 0 0 1 .491.399l.102-.133c.115-.19.174-.39.174-.593.007-.45-.25-.836-.767-1.156z" class="B"/><path d="M96.46 49.75c-1.432 0-2.657.29-3.672.87-1.023.58-1.537 1.275-1.545 2.087v.082c.007.245.06.48.163.706.218.49.66.924 1.33 1.3 1 .58 2.23.866 3.662.86 1.432 0 2.66-.3 3.683-.87.69-.395 1.146-.84 1.37-1.33.09-.19.14-.386.154-.583l.01-.236c-.014-.79-.515-1.466-1.504-2.026-1.003-.572-2.22-.86-3.652-.86h0zm2.087 1.74a.39.39 0 0 0 .092.051c.518.32.774.706.767 1.156 0 .205-.058.402-.174.593l-.102.133c-.15.177-.35.337-.604.48-.587.328-1.292.49-2.117.49-.818 0-1.517-.163-2.097-.49-.24-.143-.43-.3-.573-.44a.89.89 0 0 1-.102-.143c-.136-.19-.205-.395-.205-.614.014-.443.287-.825.818-1.146a.54.54 0 0 0 .082-.051c.593-.334 1.296-.5 2.108-.5.825-.008 1.528.153 2.107.48z" class="C"/><path d="M105.8 65.227c.982-.56 1.493-1.228 1.535-2.005l-.01-1.432c-.013.198-.064.392-.154.583-.225.49-.682.934-1.37 1.33-1.023.58-2.25.87-3.683.87-1.432.007-2.653-.28-3.662-.86-.668-.375-1.11-.808-1.33-1.3-.102-.225-.157-.46-.163-.706v1.453c-.007.825.49 1.52 1.493 2.086 1 .573 2.23.856 3.662.85 1.433 0 2.66-.3 3.683-.87h0zm-1.442-4.767c-.035-.013-.065-.03-.092-.05-.58-.327-1.282-.488-2.108-.48-.81 0-1.514.167-2.108.5a.54.54 0 0 1-.082.051c-.532.32-.805.702-.818 1.146 0 .218.068.423.205.614a.94.94 0 0 0 .102.143c.13-.157.3-.297.51-.42a.54.54 0 0 1 .082-.051c.593-.34 1.296-.51 2.108-.51.825-.007 1.528.157 2.108.49l.092.05a2.28 2.28 0 0 1 .491.399l.102-.133c.116-.19.174-.39.174-.593.007-.45-.25-.836-.767-1.157z" class="B"/><path d="M107.344 61.555c-.014-.79-.515-1.466-1.504-2.025-1.003-.573-2.22-.86-3.652-.86s-2.656.29-3.672.87c-1.023.58-1.538 1.275-1.544 2.087v.082c.007.245.062.48.163.706.218.49.662.924 1.33 1.3 1 .58 2.23.866 3.662.86 1.433 0 2.66-.3 3.683-.87.688-.395 1.145-.84 1.37-1.33.088-.19.14-.386.154-.583l.01-.236zm-3.07-1.145a.39.39 0 0 0 .092.051c.518.32.774.706.767 1.156 0 .205-.058.402-.174.593l-.102.133c-.15.177-.35.337-.604.48-.587.327-1.292.49-2.117.49-.818 0-1.517-.163-2.097-.49-.24-.143-.43-.3-.573-.44a.89.89 0 0 1-.102-.143c-.137-.19-.205-.395-.205-.614.013-.443.287-.825.818-1.146a.54.54 0 0 0 .082-.051c.593-.334 1.296-.5 2.108-.5.825-.007 1.527.153 2.107.48z" class="C"/></g></svg>