<svg xmlns="http://www.w3.org/2000/svg" xmlns:xlink="http://www.w3.org/1999/xlink" width="225" height="159" xmlns:v="https://vecta.io/nano"><style><![CDATA[.B{fill:#c85629}.C{fill:#f26929}.D{fill:#f6936f}.E{fill:#d75527}.F{fill:#ed9f7c}]]></style><g fill-rule="nonzero"><use xlink:href="#B" class="B"/><use xlink:href="#C" class="C"/><use xlink:href="#D" class="D"/><path d="M111.963 79.957l-.733-.368c-3.593-1.73-7.33-3.16-11.207-4.296-.775-.18-1.233-.437-1.376-.77-.077-.425-.318-.742-.725-.95-.318-.164-.75-.26-1.294-.286-2.066-.065-3.1.65-3.073 2.144.022 1.708 1.1 3.167 3.23 4.378s4.683 1.82 7.672 1.825c2.626.01 5.128-.55 7.507-1.678h0zm-5.612-.41c.154-.092.308-.13.462-.115.148.016.258.085.33.205.077.125.088.262.033.41a.76.76 0 0 1-.297.376c-.15.093-.297.13-.445.115a.46.46 0 0 1-.355-.213.48.48 0 0 1-.016-.409c.05-.147.146-.27.288-.368h0zm-2.563.376c.176-.082.338-.11.486-.082s.242.104.28.23c.06.125.05.262-.033.41s-.21.26-.38.335c-.16.093-.313.125-.462.098s-.25-.104-.305-.23c-.04-.125-.02-.26.057-.4.083-.153.2-.273.355-.36h0zm-2.167-.253a.46.46 0 0 1 .025.409c-.05.147-.15.27-.297.368-.148.104-.297.145-.445.123-.154-.016-.27-.088-.346-.213-.066-.12-.07-.254-.016-.4.05-.153.146-.278.288-.376a.73.73 0 0 1 .462-.115c.148.02.258.09.33.204h0zM96.9 76.16c-.055.12-.176.235-.362.344a1.89 1.89 0 0 1-.618.221c-.214.033-.376.016-.486-.05-.1-.06-.137-.153-.082-.278.06-.125.187-.243.38-.352a1.69 1.69 0 0 1 .602-.213c.22-.027.385-.01.494.05.1.067.135.16.074.28h0zm-.51 2.447c-.126-.055-.184-.142-.173-.262.028-.13.12-.26.28-.385s.34-.213.544-.262c.21-.055.376-.055.503 0 .12.05.167.136.14.262-.016.136-.105.265-.264.385-.16.13-.346.218-.56.262-.193.05-.35.05-.47 0h0zm2.505.23c.028-.125.12-.25.28-.376s.34-.213.544-.262c.21-.055.376-.055.503 0 .12.055.167.145.14.27-.016.13-.105.256-.263.376-.16.125-.346.213-.56.262-.192.05-.35.05-.47 0-.127-.054-.185-.144-.174-.27h0zm13.094-7.717c-2.132-1.21-4.636-1.833-7.515-1.866-2.884-.028-4.167.6-3.848 1.882.105.136.228.256.37.36.472.376 1.13.614 1.97.712.434.076.824.3 1.17.67 2.39 2.106 5.038 4.157 7.944 6.154l.6.418c1.703-1.205 2.544-2.526 2.52-3.96-.022-1.703-1.096-3.16-3.222-4.37h0zm-6.287-.622c.1.065.135.158.074.278-.055.125-.176.243-.362.352a1.77 1.77 0 0 1-.618.213c-.214.033-.376.016-.486-.05-.1-.06-.137-.153-.082-.278.055-.12.18-.235.37-.344.187-.11.4-.183.6-.22.22-.028.384-.01.494.05h0zm2.422.287c.203-.06.373-.07.51-.033.132.044.2.125.206.245.016.13-.04.265-.173.4-.12.136-.28.238-.478.303-.187.07-.35.085-.486.04-.137-.038-.21-.125-.222-.262 0-.12.055-.25.165-.393.132-.13.29-.232.477-.302h0zm4.738 2.83c.22.038.352.1.396.188.044.082-.014.17-.173.262-.148.093-.354.16-.618.205-.258.038-.497.044-.717.016-.22-.038-.352-.098-.396-.18-.044-.087.014-.178.173-.27s.357-.153.6-.196c.263-.038.505-.047.725-.025h0zm-1.286 1.588c.263-.038.506-.046.725-.025.22.038.352.1.396.188.044.076-.014.16-.173.254-.154.098-.36.166-.618.205a2.64 2.64 0 0 1-.717.016c-.22-.033-.352-.1-.396-.172-.05-.082.005-.175.165-.278.15-.082.355-.145.618-.188h0zm-.256-2.864c-.082.12-.228.23-.437.328-.214.093-.43.147-.65.164-.225.016-.385-.008-.478-.074-.1-.07-.105-.166-.016-.286.082-.115.23-.22.445-.32a1.8 1.8 0 0 1 .634-.172c.22-.016.38.008.478.074.094.076.102.17.025.286h0zm1.97 4.075c.22.038.352.1.396.188.044.082-.01.166-.165.254-.154.098-.363.166-.626.205-.258.038-.494.044-.71.016-.225-.028-.36-.085-.404-.172-.044-.082.01-.172.165-.27a1.91 1.91 0 0 1 .618-.196 3 3 0 0 1 .724-.025z" class="E"/><use xlink:href="#E" class="F"/><use xlink:href="#B" x="48" y="-1" class="B"/><use xlink:href="#C" x="48" y="-1" class="C"/><use xlink:href="#F" class="D"/><use xlink:href="#G" class="E"/><use xlink:href="#H" class="F"/><use xlink:href="#B" x="23" y="-13" class="B"/><use xlink:href="#C" x="23" y="-13" class="C"/><use xlink:href="#D" x="23" y="-13" class="D"/><use xlink:href="#I" class="E"/><use xlink:href="#J" class="F"/><use xlink:href="#B" x="57" y="-31" class="B"/><use xlink:href="#C" x="57" y="-31" class="C"/><use xlink:href="#F" x="9" y="-30" class="D"/><use xlink:href="#G" x="9" y="-30" class="E"/><use xlink:href="#H" x="9" y="-30" class="F"/><use xlink:href="#B" x="-17" y="-31" class="B"/><use xlink:href="#C" x="-17" y="-31" class="C"/><path d="M96.207 39.472c-2.46-1.402-5.416-2.108-8.867-2.12-3.455-.016-5.793.85-7.013 2.602-2.66.753-4.34 1.757-5.043 3.01a2.95 2.95 0 0 0-.379 1.489c.028 1.964 1.272 3.647 3.733 5.05s5.416 2.108 8.867 2.12c3.126.005 5.834-.562 8.125-1.702l.7-.368c2.428-1.39 3.63-3.07 3.61-5.033-.01-.917-.288-1.77-.833-2.56-.62-.91-1.587-1.74-2.9-2.488h0zm-8.735-1.22c2.88.032 5.384.655 7.515 1.866 2.126 1.21 3.2 2.668 3.222 4.37.022 1.435-.82 2.755-2.52 3.96l-.6-.418c-2.906-1.997-5.554-4.048-7.944-6.154-.346-.37-.736-.595-1.17-.67-.84-.098-1.497-.335-1.97-.712a1.8 1.8 0 0 1-.371-.36c-.318-1.282.964-1.91 3.848-1.882h0zM94.23 48.59l.733.368c-2.38 1.13-4.88 1.688-7.507 1.678-2.988-.005-5.546-.614-7.672-1.825-2.132-1.21-3.208-2.67-3.23-4.378-.016-1.495 1.008-2.21 3.073-2.144.544.028.975.123 1.294.286.407.207.648.524.725.95.143.333.602.59 1.376.77a73.19 73.19 0 0 1 11.207 4.297z" class="D"/><path d="M94.963 48.957l-.733-.368c-3.593-1.73-7.33-3.16-11.207-4.296-.775-.18-1.233-.437-1.376-.77-.077-.425-.318-.742-.725-.95-.318-.164-.75-.26-1.294-.286-2.066-.065-3.1.65-3.073 2.144.022 1.708 1.1 3.167 3.23 4.378s4.683 1.82 7.672 1.825c2.626.01 5.128-.55 7.507-1.678h0zm-5.612-.41c.154-.092.308-.13.462-.115.148.016.258.085.33.205.077.125.088.262.033.41a.76.76 0 0 1-.297.376c-.15.093-.297.13-.445.115a.46.46 0 0 1-.355-.213.48.48 0 0 1-.016-.409c.05-.147.146-.27.288-.368h0zm-2.563.376c.176-.082.338-.11.486-.082s.242.104.28.23c.06.125.05.262-.033.41s-.21.26-.38.335c-.16.093-.313.125-.462.098s-.25-.104-.305-.23c-.04-.125-.02-.26.057-.4.083-.153.2-.273.355-.36h0zm-2.167-.253a.46.46 0 0 1 .025.409c-.05.147-.15.27-.297.368-.148.104-.297.145-.445.123-.154-.016-.27-.088-.346-.213-.066-.12-.07-.254-.016-.4.05-.153.146-.278.288-.376a.73.73 0 0 1 .462-.115c.148.02.258.09.33.204h0zM79.9 45.16c-.055.12-.176.235-.362.344a1.89 1.89 0 0 1-.618.221c-.214.033-.376.016-.486-.05-.1-.06-.137-.153-.082-.278.06-.125.187-.243.38-.352a1.69 1.69 0 0 1 .602-.213c.22-.027.385-.01.494.05.1.067.135.16.074.28h0zm-.51 2.447c-.126-.055-.184-.142-.173-.262.028-.13.12-.26.28-.385s.34-.213.544-.262c.21-.055.376-.055.503 0 .12.05.167.136.14.262-.016.136-.105.265-.264.385-.16.13-.346.218-.56.262-.193.05-.35.05-.47 0h0zm2.505.23c.028-.125.12-.25.28-.376s.34-.213.544-.262c.21-.055.376-.055.503 0 .12.055.167.145.14.27-.016.13-.105.256-.263.376-.16.125-.346.213-.56.262-.192.05-.35.05-.47 0-.127-.054-.185-.144-.174-.27h0zm13.094-7.717c-2.132-1.21-4.636-1.833-7.515-1.866-2.884-.028-4.167.6-3.848 1.882.105.136.228.256.37.36.472.376 1.13.614 1.97.712.434.076.824.3 1.17.67 2.39 2.106 5.038 4.157 7.944 6.154l.6.418c1.703-1.205 2.544-2.526 2.52-3.96-.022-1.703-1.096-3.16-3.222-4.37h0zm-6.287-.622c.1.065.135.158.074.278-.055.125-.176.243-.362.352a1.77 1.77 0 0 1-.618.213c-.214.033-.376.016-.486-.05-.1-.06-.137-.153-.082-.278.055-.12.18-.235.37-.344.187-.11.4-.183.6-.22.22-.028.384-.01.494.05h0zm2.422.287c.203-.06.373-.07.51-.033.132.044.2.125.206.245.016.13-.04.265-.173.4-.12.136-.28.238-.478.303-.187.07-.35.085-.486.04-.137-.038-.21-.125-.222-.262 0-.12.055-.25.165-.393.132-.13.29-.232.477-.302h0zm4.738 2.83c.22.038.352.1.396.188.044.082-.014.17-.173.262-.148.093-.354.16-.618.205-.258.038-.497.044-.717.016-.22-.038-.352-.098-.396-.18-.044-.087.014-.178.173-.27s.357-.153.6-.196c.263-.038.505-.047.725-.025h0zm-1.286 1.588c.263-.038.506-.046.725-.025.22.038.352.1.396.188.044.076-.014.16-.173.254-.154.098-.36.166-.618.205a2.64 2.64 0 0 1-.717.016c-.22-.033-.352-.1-.396-.172-.05-.082.005-.175.165-.278.15-.082.355-.145.618-.188h0zm-.256-2.864c-.082.12-.228.23-.437.328-.214.093-.43.147-.65.164-.225.016-.385-.008-.478-.074-.1-.07-.105-.166-.016-.286.082-.115.23-.22.445-.32a1.8 1.8 0 0 1 .634-.172c.22-.016.38.008.478.074.094.076.102.17.025.286h0zm1.97 4.075c.22.038.352.1.396.188.044.082-.01.166-.165.254-.154.098-.363.166-.626.205-.258.038-.494.044-.71.016-.225-.028-.36-.085-.404-.172-.044-.082.01-.172.165-.27a1.91 1.91 0 0 1 .618-.196 3 3 0 0 1 .724-.025z" class="E"/><use xlink:href="#E" x="-17" y="-31" class="F"/><use xlink:href="#B" x="23" y="-39" class="B"/><use xlink:href="#C" x="23" y="-39" class="C"/><use xlink:href="#D" x="23" y="-39" class="D"/><use xlink:href="#I" y="-26" class="E"/><use xlink:href="#J" y="-26" class="F"/></g><defs ><path id="B" d="M114.188 81.045l-.766.41c-2.522 1.255-5.505 1.877-8.95 1.866-3.8-.005-7.057-.78-9.765-2.324-2.362-1.342-3.705-2.924-4.03-4.747-.044-.25-.07-.508-.074-.77v1.522c.022 2.17 1.4 4.03 4.103 5.573 2.708 1.544 5.963 2.318 9.765 2.324 3.444.01 6.427-.61 8.95-1.866a14.61 14.61 0 0 0 .766-.409c2.675-1.528 4-3.377 3.972-5.548v-1.39c-.005.224-.025.445-.057.663-.292 1.805-1.596 3.37-3.914 4.697z"/><path id="C" d="M114.064 69.932c-2.714-1.544-5.972-2.32-9.773-2.332-3.807-.005-6.384.947-7.73 2.856-3.94 1.13-5.924 2.752-5.958 4.87v.155c.005.262.03.518.074.77.324 1.822 1.668 3.404 4.03 4.747 2.708 1.544 5.963 2.318 9.765 2.324 3.444.01 6.427-.61 8.95-1.866a14.61 14.61 0 0 0 .766-.409c2.318-1.326 3.623-2.89 3.914-4.697a5.25 5.25 0 0 0 .057-.663v-.188c-.022-2.165-1.387-4.02-4.095-5.564h0zm-9.723-1.58c3.45.01 6.405.718 8.867 2.12 1.313.748 2.28 1.577 2.9 2.488.544.79.82 1.645.833 2.56.022 1.964-1.18 3.64-3.61 5.033a9.52 9.52 0 0 1-.7.368c-2.29 1.14-5 1.708-8.125 1.702-3.45-.01-6.405-.718-8.867-2.12s-3.705-3.085-3.733-5.05a2.95 2.95 0 0 1 .379-1.489c.703-1.255 2.384-2.258 5.043-3.01 1.22-1.75 3.557-2.618 7.012-2.602z"/><path id="D" d="M113.207 70.472c-2.46-1.402-5.416-2.108-8.867-2.12-3.455-.016-5.793.85-7.013 2.602-2.66.753-4.34 1.757-5.043 3.01a2.95 2.95 0 0 0-.379 1.489c.028 1.964 1.272 3.647 3.733 5.05s5.416 2.108 8.867 2.12c3.126.005 5.834-.562 8.125-1.702l.7-.368c2.428-1.39 3.63-3.07 3.61-5.033-.01-.917-.288-1.77-.833-2.56-.62-.91-1.587-1.74-2.9-2.488h0zm-8.735-1.22c2.88.032 5.384.655 7.515 1.866 2.126 1.21 3.2 2.668 3.222 4.37.022 1.435-.82 2.755-2.52 3.96l-.6-.418c-2.906-1.997-5.554-4.048-7.944-6.154-.346-.37-.736-.595-1.17-.67-.84-.098-1.497-.335-1.97-.712a1.8 1.8 0 0 1-.371-.36c-.318-1.282.964-1.91 3.848-1.882h0zm6.757 10.336l.733.368c-2.38 1.13-4.88 1.688-7.507 1.678-2.988-.005-5.546-.614-7.672-1.825-2.132-1.21-3.208-2.67-3.23-4.378-.016-1.495 1.008-2.21 3.073-2.144.544.028.975.123 1.294.286.407.207.648.524.725.95.143.333.602.59 1.376.77a73.19 73.19 0 0 1 11.207 4.297z"/><path id="E" d="M99.174 78.46c-.16.125-.253.25-.28.376-.01.125.047.215.173.27.12.05.277.05.47 0 .214-.05.4-.136.56-.262.16-.12.247-.245.263-.376.027-.125-.02-.215-.14-.27-.126-.055-.294-.055-.503 0-.202.05-.383.136-.543.262h0zm-2.958-.115c-.01.12.047.208.173.262.12.05.277.05.47 0 .214-.044.4-.13.56-.262.16-.12.247-.248.264-.385.027-.125-.02-.213-.14-.262-.126-.055-.294-.055-.503 0-.203.05-.384.136-.544.262s-.252.254-.28.385h0zm.32-1.84c.187-.11.308-.224.362-.344.06-.12.036-.213-.074-.278-.1-.06-.275-.076-.494-.05-.214.033-.414.104-.602.213s-.318.226-.38.352c-.055.125-.028.218.082.278.1.065.272.082.486.05.22-.038.426-.112.618-.22h0zm5.11 3.577a.46.46 0 0 0-.025-.409.44.44 0 0 0-.33-.205.73.73 0 0 0-.462.115c-.143.098-.24.224-.288.376-.055.147-.05.28.016.4.077.125.192.196.346.213.148.022.297-.02.445-.123.15-.098.248-.22.297-.368h0zm2.63-.238c-.15-.027-.31 0-.486.082-.154.088-.272.208-.354.36-.077.142-.096.275-.057.4.055.125.156.202.305.23s.302-.005.462-.098c.17-.076.297-.188.38-.335s.094-.284.033-.41c-.04-.125-.132-.202-.28-.23h0zm2.538-.41a.73.73 0 0 0-.462.115c-.143.098-.24.22-.288.368a.48.48 0 0 0 .016.409c.082.125.2.196.355.213.148.016.297-.022.445-.115.143-.098.242-.224.297-.376.055-.147.044-.284-.033-.41-.072-.12-.182-.19-.33-.205h0zm6.872-2.83c-.044-.088-.176-.15-.396-.188-.22-.022-.462-.014-.725.025-.258.044-.464.11-.618.196-.154.098-.21.188-.165.27.044.088.18.145.404.172.214.027.45.022.71-.016.263-.038.472-.106.626-.205.155-.087.2-.172.166-.253h0zm-2.802-3.936c.21-.098.354-.207.437-.328.077-.115.07-.2-.025-.286-.1-.065-.258-.1-.478-.074-.214.016-.426.074-.634.172-.214.098-.362.205-.445.32-.088.12-.082.215.016.286.094.065.253.1.478.074a2.01 2.01 0 0 0 .651-.163h0zm1.417 2.512c-.22-.022-.462-.014-.725.025-.263.044-.47.106-.618.188-.16.104-.214.196-.165.278.044.082.176.14.396.172a2.69 2.69 0 0 0 .717-.016c.258-.038.464-.106.618-.205.16-.093.217-.178.173-.254-.044-.088-.176-.15-.396-.188h0zm.956-1.375c-.044-.088-.176-.15-.396-.188-.22-.022-.462-.014-.725.025-.253.044-.456.11-.6.196-.16.093-.217.183-.173.27.044.082.176.142.396.18.22.027.46.022.717-.016.263-.044.47-.112.618-.205.16-.092.216-.18.173-.262h0zm-4.623-3.052c-.137-.038-.308-.028-.51.033a1.34 1.34 0 0 0-.478.303c-.1.142-.165.273-.165.393.01.136.085.224.222.262.137.044.3.03.486-.04a1.07 1.07 0 0 0 .478-.303c.132-.136.2-.27.173-.4-.005-.12-.074-.202-.205-.246h0zm-2.86.025c.06-.12.036-.213-.074-.278-.1-.06-.275-.076-.494-.05-.22.038-.423.112-.6.22-.192.11-.316.224-.37.344-.055.125-.028.218.082.278.1.065.272.082.486.05a1.76 1.76 0 0 0 .618-.213c.187-.11.308-.226.362-.352z"/><path id="F" d="M161.207 69.472c-2.46-1.402-5.416-2.108-8.867-2.12-3.455-.016-5.793.85-7.013 2.602-2.66.753-4.34 1.757-5.043 3.01a2.95 2.95 0 0 0-.379 1.489c.028 1.964 1.272 3.647 3.733 5.05s5.416 2.108 8.867 2.12c3.126.005 5.834-.562 8.125-1.702l.7-.368c2.428-1.39 3.63-3.07 3.61-5.033-.01-.917-.288-1.77-.833-2.56-.62-.91-1.587-1.74-2.9-2.488h0zm-8.735-1.22c2.88.032 5.384.655 7.515 1.866 2.126 1.21 3.2 2.668 3.222 4.37.022 1.435-.82 2.755-2.52 3.96l-.6-.418c-2.906-1.997-5.554-4.048-7.944-6.154-.346-.37-.736-.595-1.17-.67-.84-.098-1.497-.335-1.97-.712a1.8 1.8 0 0 1-.371-.36c-.318-1.282.964-1.91 3.848-1.882h0zm6.757 10.336l.733.368c-2.38 1.13-4.88 1.688-7.507 1.678-2.988-.005-5.546-.614-7.672-1.825-2.13-1.21-3.208-2.67-3.23-4.378-.016-1.495 1.008-2.21 3.073-2.144.544.028.975.123 1.294.286.407.207.648.524.725.95.143.333.602.59 1.376.77a73.19 73.19 0 0 1 11.207 4.297z"/><path id="G" d="M159.963 78.957l-.733-.368c-3.593-1.73-7.33-3.16-11.207-4.296-.775-.18-1.233-.437-1.376-.77-.077-.425-.318-.742-.725-.95-.318-.164-.75-.26-1.294-.286-2.066-.065-3.1.65-3.073 2.144.022 1.708 1.1 3.167 3.23 4.378s4.684 1.82 7.672 1.825c2.626.01 5.128-.55 7.507-1.678h0zm-5.612-.41c.154-.092.308-.13.462-.115.148.016.258.085.33.205.077.125.088.262.033.41a.76.76 0 0 1-.297.376c-.15.093-.297.13-.445.115a.46.46 0 0 1-.355-.213.48.48 0 0 1-.016-.409c.05-.147.146-.27.288-.368h0zm-2.563.376c.176-.082.338-.11.486-.082s.242.104.28.23c.06.125.05.262-.033.41s-.21.26-.38.335c-.16.093-.313.125-.462.098s-.25-.104-.305-.23c-.04-.125-.02-.26.057-.4.083-.153.2-.273.355-.36h0zm-2.167-.253a.46.46 0 0 1 .025.409c-.05.147-.15.27-.297.368-.148.104-.297.145-.445.123-.154-.016-.27-.088-.346-.213-.066-.12-.07-.254-.016-.4.05-.153.146-.278.288-.376a.73.73 0 0 1 .462-.115c.148.02.258.09.33.204h0zm-4.722-3.51c-.055.12-.176.235-.363.344a1.89 1.89 0 0 1-.618.221c-.214.033-.376.016-.486-.05-.1-.06-.137-.153-.082-.278.06-.125.187-.243.38-.352a1.69 1.69 0 0 1 .602-.213c.22-.027.385-.01.494.05.1.067.135.16.074.28h0zm-.51 2.447c-.126-.055-.184-.142-.173-.262.028-.13.12-.26.28-.385s.34-.213.544-.262c.21-.055.376-.055.503 0 .12.05.167.136.14.262-.016.136-.105.265-.264.385-.16.13-.346.218-.56.262-.193.05-.35.05-.47 0h0zm2.505.23c.028-.125.12-.25.28-.376s.34-.213.544-.262c.21-.055.376-.055.503 0 .12.055.167.145.14.27-.016.13-.105.256-.263.376-.16.125-.346.213-.56.262-.192.05-.35.05-.47 0-.127-.054-.185-.144-.174-.27h0zm13.094-7.717c-2.13-1.21-4.636-1.833-7.515-1.866-2.884-.028-4.167.6-3.848 1.882.105.136.228.256.37.36.472.376 1.13.614 1.97.712.434.076.824.3 1.17.67 2.39 2.106 5.038 4.157 7.944 6.154l.6.418c1.703-1.205 2.544-2.526 2.52-3.96-.022-1.703-1.096-3.16-3.222-4.37h0zm-6.287-.622c.1.065.135.158.074.278-.055.125-.176.243-.363.352a1.77 1.77 0 0 1-.618.213c-.214.033-.376.016-.486-.05-.1-.06-.137-.153-.082-.278.055-.12.18-.235.37-.344.187-.11.4-.183.6-.22.22-.028.384-.01.494.05h0zm2.422.287c.203-.06.373-.07.51-.033.132.044.2.125.206.245.016.13-.04.265-.173.4-.12.136-.28.238-.478.303-.187.07-.35.085-.486.04-.137-.038-.21-.125-.222-.262 0-.12.055-.25.165-.393.132-.13.29-.232.477-.302h0zm4.738 2.83c.22.038.352.1.396.188.044.082-.014.17-.173.262-.148.093-.354.16-.618.205-.258.038-.497.044-.717.016-.22-.038-.352-.098-.396-.18-.044-.087.014-.178.173-.27s.357-.153.6-.196c.263-.038.505-.047.725-.025h0zm-1.286 1.588c.263-.038.506-.046.725-.025.22.038.352.1.396.188.044.076-.014.16-.173.254-.154.098-.36.166-.618.205a2.64 2.64 0 0 1-.717.016c-.22-.033-.352-.1-.396-.172-.05-.082.005-.175.165-.278.15-.082.355-.145.618-.188h0zm-.256-2.864c-.082.12-.228.23-.437.328-.214.093-.43.147-.65.164-.225.016-.385-.008-.478-.074-.1-.07-.105-.166-.016-.286.082-.115.23-.22.445-.32a1.8 1.8 0 0 1 .634-.172c.22-.016.38.008.478.074.094.076.102.17.025.286h0zm1.97 4.075c.22.038.352.1.396.188.044.082-.01.166-.165.254-.154.098-.363.166-.626.205-.258.038-.494.044-.71.016-.225-.028-.36-.085-.404-.172-.044-.082.01-.172.165-.27a1.91 1.91 0 0 1 .618-.196 3 3 0 0 1 .724-.025z"/><path id="H" d="M147.174 77.46c-.16.125-.253.25-.28.376-.01.125.047.215.173.27.12.05.277.05.47 0 .214-.05.4-.136.56-.262.16-.12.247-.245.263-.376.027-.125-.02-.215-.14-.27-.126-.055-.294-.055-.503 0-.202.05-.383.136-.543.262h0zm-2.958-.115c-.01.12.047.208.173.262.12.05.277.05.47 0 .214-.044.4-.13.56-.262.16-.12.247-.248.264-.385.027-.125-.02-.213-.14-.262-.126-.055-.294-.055-.503 0-.203.05-.384.136-.544.262s-.252.254-.28.385h0zm.32-1.84c.187-.11.308-.224.363-.344.06-.12.036-.213-.074-.278-.1-.06-.275-.076-.494-.05-.214.033-.414.104-.602.213s-.318.226-.38.352c-.055.125-.028.218.082.278.1.065.272.082.486.05.22-.038.426-.112.618-.22h0zm5.11 3.577a.46.46 0 0 0-.025-.409.44.44 0 0 0-.33-.205.73.73 0 0 0-.462.115c-.143.098-.24.224-.288.376-.055.147-.05.28.016.4.077.125.192.196.346.213.148.022.297-.02.445-.123.15-.098.248-.22.297-.368h0zm2.63-.238c-.15-.027-.31 0-.486.082-.154.088-.272.208-.354.36-.077.142-.096.275-.057.4.055.125.156.202.305.23s.302-.005.462-.098c.17-.076.297-.188.38-.335s.094-.284.033-.41c-.04-.125-.132-.202-.28-.23h0zm2.538-.41a.73.73 0 0 0-.462.115c-.143.098-.24.22-.288.368a.48.48 0 0 0 .016.409c.082.125.2.196.355.213.148.016.297-.022.445-.115.143-.098.242-.224.297-.376.055-.147.044-.284-.033-.41-.072-.12-.182-.19-.33-.205h0zm6.872-2.83c-.044-.088-.176-.15-.396-.188-.22-.022-.462-.014-.725.025-.258.044-.464.11-.618.196-.154.098-.21.188-.165.27.044.088.18.145.404.172.214.027.45.022.71-.016.263-.038.472-.106.626-.205.155-.087.2-.172.166-.253h0zm-2.802-3.936c.21-.098.354-.207.437-.328.077-.115.07-.2-.025-.286-.1-.065-.258-.1-.478-.074-.214.016-.426.074-.634.172-.214.098-.363.205-.445.32-.088.12-.082.215.016.286.094.065.253.1.478.074a2.01 2.01 0 0 0 .651-.163h0zm1.417 2.512c-.22-.022-.462-.014-.725.025-.263.044-.47.106-.618.188-.16.104-.214.196-.165.278.044.082.176.14.396.172a2.69 2.69 0 0 0 .717-.016c.258-.038.464-.106.618-.205.16-.093.217-.178.173-.254-.044-.088-.176-.15-.396-.188h0zm.956-1.375c-.044-.088-.176-.15-.396-.188-.22-.022-.462-.014-.725.025-.253.044-.456.11-.6.196-.16.093-.217.183-.173.27.044.082.176.142.396.18.22.027.46.022.717-.016.263-.044.47-.112.618-.205.16-.092.216-.18.173-.262h0zm-4.623-3.052c-.137-.038-.308-.028-.51.033a1.34 1.34 0 0 0-.478.303c-.1.142-.165.273-.165.393.01.136.085.224.222.262.137.044.3.03.486-.04a1.07 1.07 0 0 0 .478-.303c.132-.136.2-.27.173-.4-.005-.12-.074-.202-.205-.246h0zm-2.86.025c.06-.12.036-.213-.074-.278-.1-.06-.275-.076-.494-.05-.22.038-.423.112-.6.22-.192.11-.316.224-.37.344-.055.125-.028.218.082.278.1.065.272.082.486.05a1.76 1.76 0 0 0 .618-.213c.187-.11.308-.226.363-.352z"/><path id="I" d="M134.963 66.957l-.733-.368c-3.593-1.73-7.33-3.16-11.207-4.296-.775-.18-1.233-.437-1.376-.77-.077-.425-.318-.742-.725-.95-.318-.164-.75-.26-1.294-.286-2.066-.065-3.1.65-3.073 2.144.022 1.708 1.1 3.167 3.23 4.378s4.683 1.82 7.672 1.825c2.626.01 5.128-.55 7.507-1.678h0zm-5.612-.41c.154-.092.308-.13.462-.115.148.016.258.085.33.205.077.125.088.262.033.41a.76.76 0 0 1-.297.376c-.15.093-.297.13-.445.115a.46.46 0 0 1-.355-.213.48.48 0 0 1-.016-.409c.05-.147.146-.27.288-.368h0zm-2.563.376c.176-.082.338-.11.486-.082s.242.104.28.23c.06.125.05.262-.033.41s-.21.26-.38.335c-.16.093-.313.125-.462.098s-.25-.104-.305-.23c-.04-.125-.02-.26.057-.4.083-.153.2-.273.355-.36h0zm-2.167-.253a.46.46 0 0 1 .025.409c-.05.147-.15.27-.297.368-.148.104-.297.145-.445.123-.154-.016-.27-.088-.346-.213-.066-.12-.07-.254-.016-.4.05-.153.146-.278.288-.376a.73.73 0 0 1 .462-.115c.148.02.258.09.33.204h0zm-4.722-3.51c-.055.12-.176.235-.362.344a1.89 1.89 0 0 1-.618.221c-.214.033-.376.016-.486-.05-.1-.06-.137-.153-.082-.278.06-.125.187-.243.38-.352a1.69 1.69 0 0 1 .602-.213c.22-.027.385-.01.494.05.1.067.135.16.074.28h0zm-.51 2.447c-.126-.055-.184-.142-.173-.262.028-.13.12-.26.28-.385s.34-.213.544-.262c.21-.055.376-.055.503 0 .12.05.167.136.14.262-.016.136-.105.265-.264.385-.16.13-.346.218-.56.262-.193.05-.35.05-.47 0h0zm2.505.23c.028-.125.12-.25.28-.376s.34-.213.544-.262c.21-.055.376-.055.503 0 .12.055.167.145.14.27-.016.13-.105.256-.263.376-.16.125-.346.213-.56.262-.192.05-.35.05-.47 0-.127-.054-.185-.144-.174-.27h0zm13.094-7.717c-2.13-1.21-4.636-1.833-7.515-1.866-2.884-.028-4.167.6-3.848 1.882.105.136.228.256.37.36.472.376 1.13.614 1.97.712.434.076.824.3 1.17.67 2.39 2.106 5.038 4.157 7.944 6.154l.6.418c1.703-1.205 2.544-2.526 2.52-3.96-.022-1.703-1.096-3.16-3.222-4.37h0zm-6.287-.622c.1.065.135.158.074.278-.055.125-.176.243-.363.352a1.77 1.77 0 0 1-.618.213c-.214.033-.376.016-.486-.05-.1-.06-.137-.153-.082-.278.055-.12.18-.235.37-.344.187-.11.4-.183.6-.22.22-.028.384-.01.494.05h0zm2.422.287c.203-.06.373-.07.51-.033.132.044.2.125.206.245.016.13-.04.265-.173.4-.12.136-.28.238-.478.303-.187.07-.35.085-.486.04-.137-.038-.21-.125-.222-.262 0-.12.055-.25.165-.393.132-.13.29-.232.477-.302h0zm4.738 2.83c.22.038.352.1.396.188.044.082-.014.17-.173.262-.148.093-.354.16-.618.205-.258.038-.497.044-.717.016-.22-.038-.352-.098-.396-.18-.044-.087.014-.178.173-.27s.357-.153.6-.196c.263-.038.505-.047.725-.025h0zm-1.286 1.588c.263-.038.506-.046.725-.025.22.038.352.1.396.188.044.076-.014.16-.173.254-.154.098-.36.166-.618.205a2.64 2.64 0 0 1-.717.016c-.22-.033-.352-.1-.396-.172-.05-.082.005-.175.165-.278.15-.082.355-.145.618-.188h0zm-.256-2.864c-.082.12-.228.23-.437.328-.214.093-.43.147-.65.164-.225.016-.385-.008-.478-.074-.1-.07-.105-.166-.016-.286.082-.115.23-.22.445-.32a1.8 1.8 0 0 1 .634-.172c.22-.016.38.008.478.074.094.076.102.17.025.286h0zm1.97 4.075c.22.038.352.1.396.188.044.082-.01.166-.165.254-.154.098-.363.166-.626.205-.258.038-.494.044-.71.016-.225-.028-.36-.085-.404-.172-.044-.082.01-.172.165-.27a1.91 1.91 0 0 1 .618-.196 3 3 0 0 1 .724-.025z"/><path id="J" d="M122.174 65.46c-.16.125-.253.25-.28.376-.01.125.047.215.173.27.12.05.277.05.47 0 .214-.05.4-.136.56-.262.16-.12.247-.245.263-.376.027-.125-.02-.215-.14-.27-.126-.055-.294-.055-.503 0-.202.05-.383.136-.543.262h0zm-2.958-.115c-.01.12.047.208.173.262.12.05.277.05.47 0 .214-.044.4-.13.56-.262.16-.12.247-.248.264-.385.027-.125-.02-.213-.14-.262-.126-.055-.294-.055-.503 0-.203.05-.384.136-.544.262s-.252.254-.28.385h0zm.32-1.84c.187-.11.308-.224.362-.344.06-.12.036-.213-.074-.278-.1-.06-.275-.076-.494-.05-.214.033-.414.104-.602.213s-.318.226-.38.352c-.055.125-.028.218.082.278.1.065.272.082.486.05.22-.038.426-.112.618-.22h0zm5.11 3.577a.46.46 0 0 0-.025-.409.44.44 0 0 0-.33-.205.73.73 0 0 0-.462.115c-.143.098-.24.224-.288.376-.055.147-.05.28.016.4.077.125.192.196.346.213.148.022.297-.02.445-.123.15-.098.248-.22.297-.368h0zm2.63-.238c-.15-.027-.31 0-.486.082-.154.088-.272.208-.354.36-.077.142-.096.275-.057.4.055.125.156.202.305.23s.302-.005.462-.098c.17-.076.297-.188.38-.335s.094-.284.033-.41c-.04-.125-.132-.202-.28-.23h0zm2.538-.41a.73.73 0 0 0-.462.115c-.143.098-.24.22-.288.368a.48.48 0 0 0 .016.409c.082.125.2.196.355.213.148.016.297-.022.445-.115.143-.098.242-.224.297-.376.055-.147.044-.284-.033-.41-.072-.12-.182-.19-.33-.205h0zm6.872-2.83c-.044-.088-.176-.15-.396-.188-.22-.022-.462-.014-.725.025-.258.044-.464.11-.618.196-.154.098-.21.188-.165.27.044.088.18.145.404.172.214.027.45.022.71-.016.263-.038.472-.106.626-.205.155-.087.2-.172.166-.253h0zm-2.802-3.936c.21-.098.354-.207.437-.328.077-.115.07-.2-.025-.286-.1-.065-.258-.1-.478-.074-.214.016-.426.074-.634.172-.214.098-.363.205-.445.32-.088.12-.082.215.016.286.094.065.253.1.478.074a2.01 2.01 0 0 0 .651-.163h0zm1.417 2.512c-.22-.022-.462-.014-.725.025-.263.044-.47.106-.618.188-.16.104-.214.196-.165.278.044.082.176.14.396.172a2.69 2.69 0 0 0 .717-.016c.258-.038.464-.106.618-.205.16-.093.217-.178.173-.254-.044-.088-.176-.15-.396-.188h0zm.956-1.375c-.044-.088-.176-.15-.396-.188-.22-.022-.462-.014-.725.025-.253.044-.456.11-.6.196-.16.093-.217.183-.173.27.044.082.176.142.396.18.22.027.46.022.717-.016.263-.044.47-.112.618-.205.16-.092.216-.18.173-.262h0zm-4.623-3.052c-.137-.038-.308-.028-.51.033a1.34 1.34 0 0 0-.478.303c-.1.142-.165.273-.165.393.01.136.085.224.222.262.137.044.3.03.486-.04a1.07 1.07 0 0 0 .478-.303c.132-.136.2-.27.173-.4-.005-.12-.074-.202-.205-.246h0zm-2.86.025c.06-.12.036-.213-.074-.278-.1-.06-.275-.076-.494-.05-.22.038-.423.112-.6.22-.192.11-.316.224-.37.344-.055.125-.028.218.082.278.1.065.272.082.486.05a1.76 1.76 0 0 0 .618-.213c.187-.11.308-.226.363-.352z"/></defs></svg>